<svg xmlns="http://www.w3.org/2000/svg" xmlns:xlink="http://www.w3.org/1999/xlink" width="500" zoomAndPan="magnify" viewBox="0 0 375 374.999991" height="500" preserveAspectRatio="xMidYMid meet" version="1.0"><defs><g/><clipPath id="1cf5b2f0f5"><path d="M 97 5.910156 L 186 5.910156 L 186 108 L 97 108 Z M 97 5.910156 " clip-rule="nonzero"/></clipPath><clipPath id="005862a74f"><path d="M 108 267 L 197 267 L 197 368.910156 L 108 368.910156 Z M 108 267 " clip-rule="nonzero"/></clipPath></defs><path fill="#e2e2e2" d="M 223.660156 261.742188 L 157.3125 261.742188 L 115.941406 209.867188 L 130.699219 145.191406 L 190.488281 116.320312 L 250.257812 145.191406 L 265.015625 209.867188 Z M 159.621094 256.929688 L 221.269531 256.929688 L 259.773438 208.679688 L 246.089844 148.511719 L 190.488281 121.742188 L 134.886719 148.511719 L 121.15625 208.679688 Z M 159.621094 256.929688 " fill-opacity="1" fill-rule="nonzero"/><path fill="#e2e2e2" d="M 188.890625 120.140625 L 191.007812 115.816406 L 296.800781 167.617188 L 294.683594 171.941406 Z M 188.890625 120.140625 " fill-opacity="1" fill-rule="nonzero"/><path fill="#e2e2e2" d="M 246.851562 147.902344 L 251.546875 146.847656 L 277.382812 261.765625 L 272.6875 262.820312 Z M 246.851562 147.902344 " fill-opacity="1" fill-rule="nonzero"/><path fill="#e2e2e2" d="M 187.207031 299 L 260.238281 207.125 L 263.992188 210.109375 L 190.960938 301.980469 Z M 187.207031 299 " fill-opacity="1" fill-rule="nonzero"/><path fill="#e2e2e2" d="M 115.378906 208.878906 L 141.035156 93.921875 L 145.734375 94.96875 L 120.078125 209.925781 Z M 115.378906 208.878906 " fill-opacity="1" fill-rule="nonzero"/><path fill="#e2e2e2" d="M 132.863281 145.449219 L 238.410156 93.152344 L 240.546875 97.460938 L 135 149.761719 Z M 132.863281 145.449219 " fill-opacity="1" fill-rule="nonzero"/><path fill="#e2e2e2" d="M 83.910156 169.96875 L 87.671875 166.964844 L 161.191406 258.992188 L 157.433594 261.992188 Z M 83.910156 169.96875 " fill-opacity="1" fill-rule="nonzero"/><path fill="#e2e2e2" d="M 105.351562 256.980469 L 223.148438 256.980469 L 223.148438 261.792969 L 105.351562 261.792969 Z M 105.351562 256.980469 " fill-opacity="1" fill-rule="nonzero"/><path fill="#f18642" d="M 63.804688 87.542969 L 15.085938 101.851562 L 3.101562 151.191406 L 39.855469 186.238281 L 88.589844 171.949219 L 100.558594 122.589844 Z M 63.804688 87.542969 " fill-opacity="1" fill-rule="nonzero"/><g clip-path="url(#1cf5b2f0f5)"><path fill="#6ba7c4" d="M 185.640625 31.304688 L 141.671875 5.910156 L 97.683594 31.304688 L 97.683594 82.089844 L 141.671875 107.480469 L 185.640625 82.089844 Z M 185.640625 31.304688 " fill-opacity="1" fill-rule="nonzero"/></g><path fill="#547b97" d="M 309.164062 53.761719 L 265.195312 28.367188 L 221.207031 53.761719 L 221.207031 104.546875 L 265.195312 129.9375 L 309.164062 104.546875 Z M 309.164062 53.761719 " fill-opacity="1" fill-rule="nonzero"/><path fill="#f5b86f" d="M 371.726562 162.835938 L 327.757812 137.445312 L 283.769531 162.835938 L 283.769531 213.621094 L 327.757812 239.015625 L 371.726562 213.621094 Z M 371.726562 162.835938 " fill-opacity="1" fill-rule="nonzero"/><path fill="#f18642" d="M 317.183594 273.515625 L 273.214844 248.125 L 229.226562 273.515625 L 229.226562 324.300781 L 273.214844 349.695312 L 317.183594 324.300781 Z M 317.183594 273.515625 " fill-opacity="1" fill-rule="nonzero"/><g clip-path="url(#005862a74f)"><path fill="#6ba7c4" d="M 196.871094 292.765625 L 152.902344 267.375 L 108.914062 292.765625 L 108.914062 343.550781 L 152.902344 368.941406 L 196.871094 343.550781 Z M 196.871094 292.765625 " fill-opacity="1" fill-rule="nonzero"/></g><path fill="#f5b86f" d="M 110.246094 222.1875 L 66.277344 196.792969 L 22.289062 222.1875 L 22.289062 272.972656 L 66.277344 298.363281 L 110.246094 272.972656 Z M 110.246094 222.1875 " fill-opacity="1" fill-rule="nonzero"/><path fill="#ffffff" d="M 92.375 163.445312 C 92.375 164.183594 92.304688 164.914062 92.160156 165.636719 C 92.015625 166.359375 91.804688 167.0625 91.519531 167.742188 C 91.238281 168.425781 90.894531 169.070312 90.484375 169.683594 C 90.074219 170.296875 89.609375 170.863281 89.085938 171.386719 C 88.566406 171.90625 87.996094 172.371094 87.386719 172.78125 C 86.773438 173.191406 86.125 173.539062 85.445312 173.820312 C 84.761719 174.101562 84.058594 174.316406 83.335938 174.457031 C 82.613281 174.601562 81.882812 174.675781 81.144531 174.675781 C 80.410156 174.675781 79.679688 174.601562 78.957031 174.457031 C 78.230469 174.316406 77.53125 174.101562 76.847656 173.820312 C 76.167969 173.539062 75.519531 173.191406 74.90625 172.78125 C 74.292969 172.371094 73.726562 171.90625 73.207031 171.386719 C 72.683594 170.863281 72.21875 170.296875 71.808594 169.683594 C 71.398438 169.070312 71.054688 168.425781 70.773438 167.742188 C 70.488281 167.0625 70.277344 166.359375 70.132812 165.636719 C 69.988281 164.914062 69.917969 164.183594 69.917969 163.445312 C 69.917969 162.707031 69.988281 161.980469 70.132812 161.253906 C 70.277344 160.53125 70.488281 159.832031 70.773438 159.148438 C 71.054688 158.46875 71.398438 157.820312 71.808594 157.207031 C 72.21875 156.59375 72.683594 156.027344 73.207031 155.507812 C 73.726562 154.984375 74.292969 154.519531 74.90625 154.109375 C 75.519531 153.699219 76.167969 153.355469 76.847656 153.074219 C 77.53125 152.789062 78.230469 152.578125 78.957031 152.433594 C 79.679688 152.289062 80.410156 152.21875 81.144531 152.21875 C 81.882812 152.21875 82.613281 152.289062 83.335938 152.433594 C 84.058594 152.578125 84.761719 152.789062 85.445312 153.074219 C 86.125 153.355469 86.773438 153.699219 87.386719 154.109375 C 87.996094 154.519531 88.566406 154.984375 89.085938 155.507812 C 89.609375 156.027344 90.074219 156.59375 90.484375 157.207031 C 90.894531 157.820312 91.238281 158.46875 91.519531 159.148438 C 91.804688 159.832031 92.015625 160.53125 92.160156 161.253906 C 92.304688 161.980469 92.375 162.707031 92.375 163.445312 Z M 92.375 163.445312 " fill-opacity="1" fill-rule="nonzero"/><path fill="#e2e2e2" d="M 81.144531 177.082031 C 80.25 177.082031 79.363281 176.992188 78.484375 176.820312 C 77.609375 176.644531 76.753906 176.386719 75.929688 176.042969 C 75.101562 175.699219 74.316406 175.28125 73.570312 174.78125 C 72.828125 174.285156 72.136719 173.71875 71.503906 173.085938 C 70.871094 172.453125 70.304688 171.765625 69.808594 171.019531 C 69.3125 170.277344 68.890625 169.492188 68.546875 168.664062 C 68.207031 167.835938 67.949219 166.984375 67.773438 166.105469 C 67.597656 165.226562 67.511719 164.339844 67.511719 163.445312 C 67.511719 162.550781 67.597656 161.664062 67.773438 160.785156 C 67.949219 159.90625 68.207031 159.054688 68.546875 158.226562 C 68.890625 157.402344 69.3125 156.617188 69.808594 155.871094 C 70.304688 155.125 70.871094 154.4375 71.503906 153.804688 C 72.136719 153.171875 72.828125 152.605469 73.570312 152.109375 C 74.316406 151.613281 75.101562 151.191406 75.929688 150.847656 C 76.753906 150.507812 77.609375 150.25 78.484375 150.074219 C 79.363281 149.898438 80.25 149.8125 81.144531 149.8125 C 82.042969 149.8125 82.929688 149.898438 83.804688 150.074219 C 84.683594 150.25 85.539062 150.507812 86.363281 150.847656 C 87.191406 151.191406 87.976562 151.613281 88.722656 152.109375 C 89.464844 152.605469 90.15625 153.171875 90.789062 153.804688 C 91.421875 154.4375 91.984375 155.125 92.484375 155.871094 C 92.980469 156.617188 93.402344 157.402344 93.742188 158.226562 C 94.085938 159.054688 94.34375 159.90625 94.519531 160.785156 C 94.695312 161.664062 94.78125 162.550781 94.78125 163.445312 C 94.78125 164.339844 94.691406 165.226562 94.515625 166.105469 C 94.339844 166.984375 94.082031 167.835938 93.738281 168.660156 C 93.398438 169.488281 92.976562 170.273438 92.480469 171.015625 C 91.980469 171.761719 91.417969 172.449219 90.785156 173.082031 C 90.152344 173.714844 89.460938 174.28125 88.71875 174.777344 C 87.972656 175.277344 87.1875 175.695312 86.363281 176.039062 C 85.535156 176.382812 84.683594 176.640625 83.804688 176.816406 C 82.925781 176.992188 82.042969 177.078125 81.144531 177.082031 Z M 81.144531 154.625 C 80.566406 154.625 79.992188 154.679688 79.425781 154.792969 C 78.855469 154.90625 78.304688 155.074219 77.769531 155.296875 C 77.234375 155.515625 76.726562 155.789062 76.246094 156.109375 C 75.761719 156.433594 75.316406 156.796875 74.90625 157.207031 C 74.496094 157.617188 74.132812 158.0625 73.808594 158.542969 C 73.488281 159.027344 73.214844 159.535156 72.996094 160.070312 C 72.773438 160.605469 72.605469 161.15625 72.492188 161.726562 C 72.378906 162.292969 72.324219 162.867188 72.324219 163.445312 C 72.324219 164.027344 72.378906 164.597656 72.492188 165.167969 C 72.605469 165.734375 72.773438 166.289062 72.996094 166.824219 C 73.214844 167.359375 73.488281 167.867188 73.808594 168.347656 C 74.132812 168.828125 74.496094 169.273438 74.90625 169.683594 C 75.316406 170.09375 75.761719 170.460938 76.246094 170.78125 C 76.726562 171.105469 77.234375 171.375 77.769531 171.597656 C 78.304688 171.820312 78.855469 171.984375 79.425781 172.097656 C 79.992188 172.210938 80.566406 172.269531 81.144531 172.269531 C 81.726562 172.269531 82.300781 172.210938 82.867188 172.097656 C 83.4375 171.984375 83.988281 171.820312 84.523438 171.597656 C 85.058594 171.375 85.566406 171.105469 86.046875 170.78125 C 86.53125 170.460938 86.976562 170.09375 87.386719 169.683594 C 87.792969 169.273438 88.160156 168.828125 88.480469 168.347656 C 88.804688 167.867188 89.074219 167.359375 89.296875 166.824219 C 89.519531 166.289062 89.6875 165.734375 89.800781 165.167969 C 89.914062 164.597656 89.96875 164.027344 89.96875 163.445312 C 89.96875 162.867188 89.910156 162.292969 89.796875 161.726562 C 89.683594 161.160156 89.515625 160.605469 89.292969 160.074219 C 89.070312 159.539062 88.800781 159.03125 88.476562 158.546875 C 88.15625 158.066406 87.789062 157.621094 87.378906 157.210938 C 86.972656 156.804688 86.527344 156.4375 86.042969 156.117188 C 85.5625 155.792969 85.054688 155.523438 84.519531 155.300781 C 83.984375 155.078125 83.433594 154.910156 82.867188 154.796875 C 82.296875 154.683594 81.726562 154.625 81.144531 154.625 Z M 81.144531 154.625 " fill-opacity="1" fill-rule="nonzero"/><path fill="#ffffff" d="M 110.019531 259.691406 C 110.019531 260.425781 109.949219 261.15625 109.804688 261.878906 C 109.660156 262.605469 109.449219 263.304688 109.167969 263.988281 C 108.882812 264.667969 108.539062 265.316406 108.128906 265.929688 C 107.71875 266.542969 107.253906 267.109375 106.734375 267.628906 C 106.210938 268.152344 105.644531 268.617188 105.03125 269.027344 C 104.417969 269.4375 103.769531 269.78125 103.089844 270.0625 C 102.410156 270.347656 101.707031 270.558594 100.984375 270.703125 C 100.257812 270.847656 99.53125 270.917969 98.792969 270.917969 C 98.054688 270.917969 97.324219 270.847656 96.601562 270.703125 C 95.878906 270.558594 95.175781 270.347656 94.496094 270.0625 C 93.8125 269.78125 93.167969 269.4375 92.554688 269.027344 C 91.941406 268.617188 91.375 268.152344 90.851562 267.628906 C 90.332031 267.109375 89.863281 266.542969 89.457031 265.929688 C 89.046875 265.316406 88.699219 264.667969 88.417969 263.988281 C 88.136719 263.304688 87.921875 262.605469 87.777344 261.878906 C 87.636719 261.15625 87.5625 260.425781 87.5625 259.691406 C 87.5625 258.953125 87.636719 258.222656 87.777344 257.5 C 87.921875 256.777344 88.136719 256.074219 88.417969 255.394531 C 88.699219 254.710938 89.046875 254.066406 89.457031 253.453125 C 89.863281 252.839844 90.332031 252.273438 90.851562 251.75 C 91.375 251.230469 91.941406 250.761719 92.554688 250.355469 C 93.167969 249.945312 93.8125 249.597656 94.496094 249.316406 C 95.175781 249.035156 95.878906 248.820312 96.601562 248.675781 C 97.324219 248.535156 98.054688 248.460938 98.792969 248.460938 C 99.53125 248.460938 100.257812 248.535156 100.984375 248.675781 C 101.707031 248.820312 102.410156 249.035156 103.089844 249.316406 C 103.769531 249.597656 104.417969 249.945312 105.03125 250.355469 C 105.644531 250.761719 106.210938 251.230469 106.734375 251.75 C 107.253906 252.273438 107.71875 252.839844 108.128906 253.453125 C 108.539062 254.066406 108.882812 254.710938 109.167969 255.394531 C 109.449219 256.074219 109.660156 256.777344 109.804688 257.5 C 109.949219 258.222656 110.019531 258.953125 110.019531 259.691406 Z M 110.019531 259.691406 " fill-opacity="1" fill-rule="nonzero"/><path fill="#e2e2e2" d="M 98.792969 273.324219 C 97.898438 273.324219 97.011719 273.238281 96.132812 273.0625 C 95.253906 272.886719 94.402344 272.628906 93.574219 272.285156 C 92.746094 271.945312 91.960938 271.523438 91.214844 271.027344 C 90.472656 270.53125 89.785156 269.964844 89.152344 269.332031 C 88.515625 268.699219 87.953125 268.007812 87.453125 267.265625 C 86.957031 266.519531 86.539062 265.734375 86.195312 264.90625 C 85.851562 264.082031 85.59375 263.226562 85.417969 262.351562 C 85.242188 261.472656 85.15625 260.585938 85.15625 259.691406 C 85.15625 258.792969 85.242188 257.910156 85.417969 257.03125 C 85.59375 256.152344 85.851562 255.300781 86.195312 254.472656 C 86.539062 253.644531 86.957031 252.859375 87.453125 252.113281 C 87.953125 251.371094 88.515625 250.683594 89.152344 250.050781 C 89.785156 249.417969 90.472656 248.851562 91.214844 248.351562 C 91.960938 247.855469 92.746094 247.4375 93.574219 247.09375 C 94.402344 246.75 95.253906 246.492188 96.132812 246.316406 C 97.011719 246.144531 97.898438 246.054688 98.792969 246.054688 C 99.6875 246.054688 100.574219 246.144531 101.453125 246.316406 C 102.332031 246.492188 103.183594 246.75 104.011719 247.09375 C 104.835938 247.4375 105.625 247.855469 106.367188 248.351562 C 107.113281 248.851562 107.800781 249.417969 108.433594 250.050781 C 109.066406 250.683594 109.632812 251.371094 110.128906 252.113281 C 110.628906 252.859375 111.046875 253.644531 111.390625 254.472656 C 111.730469 255.300781 111.992188 256.152344 112.164062 257.03125 C 112.339844 257.910156 112.425781 258.792969 112.425781 259.691406 C 112.425781 260.585938 112.339844 261.472656 112.164062 262.347656 C 111.988281 263.226562 111.726562 264.078125 111.386719 264.90625 C 111.042969 265.730469 110.621094 266.515625 110.125 267.261719 C 109.628906 268.003906 109.0625 268.695312 108.429688 269.328125 C 107.796875 269.960938 107.109375 270.523438 106.363281 271.023438 C 105.621094 271.519531 104.835938 271.941406 104.007812 272.28125 C 103.179688 272.625 102.328125 272.882812 101.453125 273.058594 C 100.574219 273.234375 99.6875 273.324219 98.792969 273.324219 Z M 98.792969 250.867188 C 98.210938 250.867188 97.640625 250.925781 97.070312 251.039062 C 96.503906 251.148438 95.949219 251.316406 95.414062 251.539062 C 94.878906 251.761719 94.371094 252.03125 93.890625 252.355469 C 93.410156 252.675781 92.964844 253.042969 92.554688 253.453125 C 92.144531 253.863281 91.777344 254.308594 91.457031 254.789062 C 91.132812 255.269531 90.863281 255.777344 90.640625 256.3125 C 90.417969 256.847656 90.25 257.402344 90.140625 257.96875 C 90.027344 258.539062 89.96875 259.109375 89.96875 259.691406 C 89.96875 260.269531 90.027344 260.84375 90.140625 261.410156 C 90.25 261.980469 90.417969 262.53125 90.640625 263.066406 C 90.863281 263.601562 91.132812 264.109375 91.457031 264.589844 C 91.777344 265.074219 92.144531 265.519531 92.554688 265.929688 C 92.964844 266.339844 93.410156 266.703125 93.890625 267.027344 C 94.371094 267.347656 94.878906 267.621094 95.414062 267.839844 C 95.949219 268.0625 96.503906 268.230469 97.070312 268.34375 C 97.640625 268.457031 98.210938 268.511719 98.792969 268.511719 C 99.371094 268.511719 99.945312 268.457031 100.511719 268.34375 C 101.082031 268.230469 101.632812 268.0625 102.167969 267.839844 C 102.703125 267.621094 103.210938 267.347656 103.695312 267.027344 C 104.175781 266.703125 104.621094 266.339844 105.03125 265.929688 C 105.441406 265.519531 105.804688 265.074219 106.128906 264.589844 C 106.449219 264.109375 106.722656 263.601562 106.945312 263.066406 C 107.164062 262.53125 107.332031 261.980469 107.445312 261.410156 C 107.558594 260.84375 107.613281 260.269531 107.613281 259.691406 C 107.613281 259.109375 107.558594 258.539062 107.441406 257.96875 C 107.328125 257.402344 107.160156 256.851562 106.9375 256.316406 C 106.71875 255.78125 106.445312 255.273438 106.125 254.792969 C 105.800781 254.3125 105.4375 253.867188 105.027344 253.457031 C 104.617188 253.046875 104.171875 252.679688 103.691406 252.359375 C 103.207031 252.039062 102.699219 251.765625 102.167969 251.542969 C 101.632812 251.320312 101.082031 251.152344 100.511719 251.039062 C 99.945312 250.925781 99.371094 250.867188 98.792969 250.867188 Z M 98.792969 250.867188 " fill-opacity="1" fill-rule="nonzero"/><path fill="#ffffff" d="M 198.25 299.792969 C 198.25 300.527344 198.179688 301.257812 198.035156 301.980469 C 197.890625 302.707031 197.679688 303.40625 197.398438 304.089844 C 197.113281 304.769531 196.769531 305.417969 196.359375 306.03125 C 195.949219 306.644531 195.484375 307.210938 194.960938 307.730469 C 194.441406 308.253906 193.875 308.71875 193.261719 309.128906 C 192.648438 309.539062 192 309.882812 191.320312 310.164062 C 190.636719 310.449219 189.9375 310.660156 189.210938 310.804688 C 188.488281 310.949219 187.757812 311.019531 187.023438 311.019531 C 186.285156 311.019531 185.554688 310.949219 184.832031 310.804688 C 184.109375 310.660156 183.40625 310.449219 182.726562 310.164062 C 182.042969 309.882812 181.398438 309.539062 180.785156 309.128906 C 180.171875 308.71875 179.601562 308.253906 179.082031 307.730469 C 178.558594 307.210938 178.09375 306.644531 177.683594 306.03125 C 177.277344 305.417969 176.929688 304.769531 176.648438 304.089844 C 176.367188 303.40625 176.152344 302.707031 176.007812 301.980469 C 175.863281 301.257812 175.792969 300.527344 175.792969 299.792969 C 175.792969 299.054688 175.863281 298.324219 176.007812 297.601562 C 176.152344 296.878906 176.367188 296.175781 176.648438 295.496094 C 176.929688 294.8125 177.277344 294.167969 177.683594 293.554688 C 178.09375 292.941406 178.558594 292.375 179.082031 291.851562 C 179.601562 291.332031 180.171875 290.867188 180.785156 290.457031 C 181.398438 290.046875 182.042969 289.699219 182.726562 289.417969 C 183.40625 289.136719 184.109375 288.921875 184.832031 288.777344 C 185.554688 288.636719 186.285156 288.5625 187.023438 288.5625 C 187.757812 288.5625 188.488281 288.636719 189.210938 288.777344 C 189.9375 288.921875 190.636719 289.136719 191.320312 289.417969 C 192 289.699219 192.648438 290.046875 193.261719 290.457031 C 193.875 290.867188 194.441406 291.332031 194.960938 291.851562 C 195.484375 292.375 195.949219 292.941406 196.359375 293.554688 C 196.769531 294.167969 197.113281 294.8125 197.398438 295.496094 C 197.679688 296.175781 197.890625 296.878906 198.035156 297.601562 C 198.179688 298.324219 198.25 299.054688 198.25 299.792969 Z M 198.25 299.792969 " fill-opacity="1" fill-rule="nonzero"/><path fill="#e2e2e2" d="M 187.023438 313.425781 C 186.125 313.425781 185.238281 313.339844 184.363281 313.164062 C 183.484375 312.988281 182.632812 312.730469 181.804688 312.386719 C 180.976562 312.046875 180.191406 311.625 179.445312 311.128906 C 178.703125 310.632812 178.011719 310.066406 177.378906 309.433594 C 176.746094 308.800781 176.183594 308.109375 175.683594 307.367188 C 175.1875 306.621094 174.765625 305.835938 174.425781 305.007812 C 174.082031 304.183594 173.824219 303.328125 173.648438 302.453125 C 173.472656 301.574219 173.386719 300.6875 173.386719 299.792969 C 173.386719 298.898438 173.472656 298.011719 173.648438 297.132812 C 173.824219 296.253906 174.082031 295.402344 174.425781 294.574219 C 174.765625 293.746094 175.1875 292.960938 175.683594 292.21875 C 176.183594 291.472656 176.746094 290.785156 177.378906 290.152344 C 178.011719 289.519531 178.703125 288.953125 179.445312 288.457031 C 180.191406 287.957031 180.976562 287.539062 181.804688 287.195312 C 182.632812 286.851562 183.484375 286.59375 184.363281 286.417969 C 185.238281 286.246094 186.125 286.15625 187.023438 286.15625 C 187.917969 286.15625 188.804688 286.246094 189.683594 286.417969 C 190.558594 286.59375 191.414062 286.851562 192.238281 287.195312 C 193.066406 287.539062 193.851562 287.957031 194.597656 288.453125 C 195.34375 288.953125 196.03125 289.519531 196.664062 290.152344 C 197.296875 290.785156 197.863281 291.472656 198.359375 292.21875 C 198.855469 292.960938 199.277344 293.746094 199.621094 294.574219 C 199.960938 295.402344 200.222656 296.253906 200.394531 297.132812 C 200.570312 298.011719 200.65625 298.898438 200.65625 299.792969 C 200.65625 300.6875 200.570312 301.574219 200.394531 302.449219 C 200.21875 303.328125 199.957031 304.179688 199.617188 305.007812 C 199.273438 305.832031 198.851562 306.617188 198.355469 307.363281 C 197.855469 308.105469 197.292969 308.796875 196.660156 309.429688 C 196.027344 310.0625 195.339844 310.625 194.59375 311.125 C 193.851562 311.621094 193.0625 312.042969 192.238281 312.382812 C 191.410156 312.726562 190.558594 312.988281 189.679688 313.160156 C 188.804688 313.335938 187.917969 313.425781 187.023438 313.425781 Z M 187.023438 290.96875 C 186.441406 290.96875 185.867188 291.027344 185.300781 291.140625 C 184.734375 291.25 184.179688 291.417969 183.644531 291.640625 C 183.109375 291.863281 182.601562 292.132812 182.121094 292.457031 C 181.636719 292.777344 181.191406 293.144531 180.785156 293.554688 C 180.375 293.964844 180.007812 294.410156 179.6875 294.890625 C 179.363281 295.371094 179.09375 295.878906 178.871094 296.414062 C 178.648438 296.949219 178.480469 297.503906 178.367188 298.070312 C 178.253906 298.640625 178.199219 299.210938 178.199219 299.792969 C 178.199219 300.371094 178.253906 300.945312 178.367188 301.511719 C 178.480469 302.082031 178.648438 302.632812 178.871094 303.167969 C 179.09375 303.703125 179.363281 304.210938 179.6875 304.691406 C 180.007812 305.175781 180.375 305.621094 180.785156 306.03125 C 181.191406 306.441406 181.636719 306.804688 182.121094 307.128906 C 182.601562 307.449219 183.109375 307.722656 183.644531 307.941406 C 184.179688 308.164062 184.734375 308.332031 185.300781 308.445312 C 185.867188 308.558594 186.441406 308.613281 187.023438 308.613281 C 187.601562 308.613281 188.175781 308.558594 188.742188 308.445312 C 189.3125 308.332031 189.863281 308.164062 190.398438 307.941406 C 190.933594 307.722656 191.441406 307.449219 191.925781 307.128906 C 192.40625 306.804688 192.851562 306.441406 193.261719 306.03125 C 193.671875 305.621094 194.035156 305.175781 194.359375 304.691406 C 194.679688 304.210938 194.953125 303.703125 195.171875 303.167969 C 195.394531 302.632812 195.5625 302.082031 195.675781 301.511719 C 195.789062 300.945312 195.84375 300.371094 195.84375 299.792969 C 195.84375 299.210938 195.785156 298.640625 195.671875 298.070312 C 195.558594 297.503906 195.390625 296.953125 195.167969 296.417969 C 194.945312 295.882812 194.675781 295.375 194.351562 294.894531 C 194.03125 294.414062 193.664062 293.96875 193.257812 293.558594 C 192.847656 293.148438 192.402344 292.78125 191.921875 292.460938 C 191.4375 292.140625 190.929688 291.867188 190.394531 291.644531 C 189.859375 291.421875 189.308594 291.253906 188.742188 291.140625 C 188.175781 291.027344 187.601562 290.96875 187.023438 290.96875 Z M 187.023438 290.96875 " fill-opacity="1" fill-rule="nonzero"/><path fill="#ffffff" d="M 286.480469 261.292969 C 286.480469 262.03125 286.410156 262.761719 286.265625 263.484375 C 286.121094 264.207031 285.910156 264.910156 285.625 265.589844 C 285.34375 266.273438 285 266.917969 284.589844 267.53125 C 284.179688 268.144531 283.714844 268.710938 283.191406 269.234375 C 282.671875 269.753906 282.105469 270.222656 281.492188 270.628906 C 280.878906 271.039062 280.230469 271.386719 279.550781 271.667969 C 278.867188 271.949219 278.164062 272.164062 277.441406 272.308594 C 276.71875 272.449219 275.988281 272.523438 275.253906 272.523438 C 274.515625 272.523438 273.785156 272.449219 273.0625 272.308594 C 272.339844 272.164062 271.636719 271.949219 270.953125 271.667969 C 270.273438 271.386719 269.625 271.039062 269.011719 270.628906 C 268.398438 270.222656 267.832031 269.753906 267.3125 269.234375 C 266.789062 268.710938 266.324219 268.144531 265.914062 267.53125 C 265.503906 266.917969 265.160156 266.273438 264.878906 265.589844 C 264.59375 264.910156 264.382812 264.207031 264.238281 263.484375 C 264.09375 262.761719 264.023438 262.03125 264.023438 261.292969 C 264.023438 260.558594 264.09375 259.828125 264.238281 259.105469 C 264.382812 258.378906 264.59375 257.679688 264.878906 256.996094 C 265.160156 256.316406 265.503906 255.667969 265.914062 255.054688 C 266.324219 254.441406 266.789062 253.875 267.3125 253.355469 C 267.832031 252.832031 268.398438 252.367188 269.011719 251.957031 C 269.625 251.546875 270.273438 251.203125 270.953125 250.921875 C 271.636719 250.636719 272.339844 250.425781 273.0625 250.28125 C 273.785156 250.136719 274.515625 250.066406 275.253906 250.066406 C 275.988281 250.066406 276.71875 250.136719 277.441406 250.28125 C 278.164062 250.425781 278.867188 250.636719 279.550781 250.921875 C 280.230469 251.203125 280.878906 251.546875 281.492188 251.957031 C 282.105469 252.367188 282.671875 252.832031 283.191406 253.355469 C 283.714844 253.875 284.179688 254.441406 284.589844 255.054688 C 285 255.667969 285.34375 256.316406 285.625 256.996094 C 285.910156 257.679688 286.121094 258.378906 286.265625 259.105469 C 286.410156 259.828125 286.480469 260.558594 286.480469 261.292969 Z M 286.480469 261.292969 " fill-opacity="1" fill-rule="nonzero"/><path fill="#e2e2e2" d="M 275.253906 274.929688 C 274.355469 274.929688 273.46875 274.839844 272.59375 274.667969 C 271.714844 274.492188 270.859375 274.234375 270.035156 273.890625 C 269.207031 273.546875 268.421875 273.128906 267.675781 272.632812 C 266.933594 272.132812 266.242188 271.566406 265.609375 270.933594 C 264.976562 270.300781 264.410156 269.613281 263.914062 268.867188 C 263.417969 268.125 262.996094 267.339844 262.65625 266.511719 C 262.3125 265.683594 262.054688 264.832031 261.878906 263.953125 C 261.703125 263.074219 261.617188 262.191406 261.617188 261.292969 C 261.617188 260.398438 261.703125 259.511719 261.878906 258.632812 C 262.054688 257.757812 262.3125 256.902344 262.65625 256.078125 C 262.996094 255.25 263.417969 254.464844 263.914062 253.71875 C 264.410156 252.976562 264.976562 252.285156 265.609375 251.652344 C 266.242188 251.019531 266.933594 250.453125 267.675781 249.957031 C 268.421875 249.460938 269.207031 249.039062 270.035156 248.699219 C 270.859375 248.355469 271.714844 248.097656 272.59375 247.921875 C 273.46875 247.746094 274.355469 247.660156 275.253906 247.660156 C 276.148438 247.660156 277.035156 247.746094 277.914062 247.921875 C 278.789062 248.097656 279.644531 248.355469 280.46875 248.699219 C 281.296875 249.039062 282.082031 249.460938 282.828125 249.957031 C 283.570312 250.453125 284.261719 251.019531 284.894531 251.652344 C 285.527344 252.285156 286.09375 252.976562 286.589844 253.71875 C 287.085938 254.464844 287.507812 255.25 287.851562 256.078125 C 288.191406 256.902344 288.449219 257.757812 288.625 258.632812 C 288.800781 259.511719 288.886719 260.398438 288.886719 261.292969 C 288.886719 262.1875 288.796875 263.074219 288.621094 263.953125 C 288.449219 264.832031 288.1875 265.683594 287.84375 266.507812 C 287.503906 267.335938 287.082031 268.121094 286.585938 268.867188 C 286.085938 269.609375 285.523438 270.296875 284.890625 270.929688 C 284.257812 271.5625 283.566406 272.128906 282.824219 272.625 C 282.078125 273.125 281.292969 273.542969 280.46875 273.886719 C 279.640625 274.230469 278.789062 274.488281 277.910156 274.664062 C 277.035156 274.839844 276.148438 274.925781 275.253906 274.929688 Z M 275.253906 252.472656 C 274.671875 252.472656 274.097656 252.527344 273.53125 252.640625 C 272.960938 252.753906 272.410156 252.921875 271.875 253.144531 C 271.339844 253.363281 270.832031 253.636719 270.351562 253.957031 C 269.867188 254.28125 269.421875 254.644531 269.011719 255.054688 C 268.605469 255.464844 268.238281 255.910156 267.917969 256.394531 C 267.59375 256.875 267.324219 257.382812 267.101562 257.917969 C 266.878906 258.453125 266.710938 259.003906 266.597656 259.574219 C 266.484375 260.140625 266.429688 260.714844 266.429688 261.292969 C 266.429688 261.875 266.484375 262.445312 266.597656 263.015625 C 266.710938 263.582031 266.878906 264.136719 267.101562 264.671875 C 267.324219 265.207031 267.59375 265.714844 267.917969 266.195312 C 268.238281 266.675781 268.605469 267.121094 269.011719 267.53125 C 269.421875 267.941406 269.867188 268.308594 270.351562 268.628906 C 270.832031 268.953125 271.339844 269.222656 271.875 269.445312 C 272.410156 269.667969 272.960938 269.835938 273.53125 269.945312 C 274.097656 270.058594 274.671875 270.117188 275.253906 270.117188 C 275.832031 270.117188 276.40625 270.058594 276.972656 269.945312 C 277.542969 269.835938 278.09375 269.667969 278.628906 269.445312 C 279.164062 269.222656 279.671875 268.953125 280.152344 268.628906 C 280.636719 268.308594 281.082031 267.941406 281.492188 267.53125 C 281.902344 267.121094 282.265625 266.675781 282.589844 266.195312 C 282.910156 265.714844 283.183594 265.207031 283.402344 264.671875 C 283.625 264.136719 283.792969 263.582031 283.90625 263.015625 C 284.019531 262.445312 284.074219 261.875 284.074219 261.292969 C 284.074219 260.714844 284.015625 260.140625 283.902344 259.574219 C 283.789062 259.007812 283.621094 258.457031 283.398438 257.921875 C 283.175781 257.386719 282.90625 256.878906 282.582031 256.398438 C 282.261719 255.914062 281.894531 255.46875 281.484375 255.0625 C 281.078125 254.652344 280.632812 254.285156 280.148438 253.964844 C 279.667969 253.640625 279.160156 253.371094 278.625 253.148438 C 278.089844 252.925781 277.539062 252.757812 276.972656 252.644531 C 276.40625 252.53125 275.832031 252.472656 275.253906 252.472656 Z M 275.253906 252.472656 " fill-opacity="1" fill-rule="nonzero"/><path fill="#ffffff" d="M 305.730469 168.257812 C 305.730469 168.996094 305.660156 169.726562 305.515625 170.449219 C 305.371094 171.171875 305.160156 171.875 304.875 172.554688 C 304.59375 173.238281 304.25 173.882812 303.839844 174.496094 C 303.429688 175.109375 302.964844 175.675781 302.441406 176.199219 C 301.921875 176.71875 301.355469 177.183594 300.742188 177.59375 C 300.128906 178.003906 299.480469 178.351562 298.800781 178.632812 C 298.117188 178.914062 297.417969 179.128906 296.691406 179.269531 C 295.96875 179.414062 295.238281 179.488281 294.503906 179.488281 C 293.765625 179.488281 293.035156 179.414062 292.3125 179.269531 C 291.589844 179.128906 290.886719 178.914062 290.203125 178.632812 C 289.523438 178.351562 288.875 178.003906 288.261719 177.59375 C 287.652344 177.183594 287.082031 176.71875 286.5625 176.199219 C 286.039062 175.675781 285.574219 175.109375 285.164062 174.496094 C 284.753906 173.882812 284.410156 173.238281 284.128906 172.554688 C 283.84375 171.875 283.632812 171.171875 283.488281 170.449219 C 283.34375 169.726562 283.273438 168.996094 283.273438 168.257812 C 283.273438 167.519531 283.34375 166.789062 283.488281 166.066406 C 283.632812 165.34375 283.84375 164.644531 284.128906 163.960938 C 284.410156 163.28125 284.753906 162.632812 285.164062 162.019531 C 285.574219 161.40625 286.039062 160.839844 286.5625 160.320312 C 287.082031 159.796875 287.652344 159.332031 288.261719 158.921875 C 288.875 158.511719 289.523438 158.167969 290.203125 157.882812 C 290.886719 157.601562 291.589844 157.390625 292.3125 157.246094 C 293.035156 157.101562 293.765625 157.03125 294.503906 157.03125 C 295.238281 157.03125 295.96875 157.101562 296.691406 157.246094 C 297.417969 157.390625 298.117188 157.601562 298.800781 157.882812 C 299.480469 158.167969 300.128906 158.511719 300.742188 158.921875 C 301.355469 159.332031 301.921875 159.796875 302.441406 160.320312 C 302.964844 160.839844 303.429688 161.40625 303.839844 162.019531 C 304.25 162.632812 304.59375 163.28125 304.875 163.960938 C 305.160156 164.644531 305.371094 165.34375 305.515625 166.066406 C 305.660156 166.789062 305.730469 167.519531 305.730469 168.257812 Z M 305.730469 168.257812 " fill-opacity="1" fill-rule="nonzero"/><path fill="#e2e2e2" d="M 294.503906 181.894531 C 293.605469 181.894531 292.71875 181.804688 291.84375 181.632812 C 290.964844 181.457031 290.109375 181.199219 289.285156 180.855469 C 288.457031 180.511719 287.671875 180.09375 286.925781 179.59375 C 286.183594 179.097656 285.492188 178.53125 284.859375 177.898438 C 284.226562 177.265625 283.664062 176.578125 283.164062 175.832031 C 282.667969 175.089844 282.246094 174.304688 281.90625 173.476562 C 281.5625 172.648438 281.304688 171.796875 281.128906 170.917969 C 280.953125 170.039062 280.867188 169.152344 280.867188 168.257812 C 280.867188 167.363281 280.953125 166.476562 281.128906 165.597656 C 281.304688 164.71875 281.5625 163.867188 281.90625 163.039062 C 282.246094 162.214844 282.667969 161.429688 283.164062 160.683594 C 283.664062 159.9375 284.226562 159.25 284.859375 158.617188 C 285.492188 157.984375 286.183594 157.417969 286.925781 156.921875 C 287.671875 156.425781 288.457031 156.003906 289.285156 155.660156 C 290.109375 155.320312 290.964844 155.058594 291.84375 154.886719 C 292.71875 154.710938 293.605469 154.625 294.503906 154.625 C 295.398438 154.625 296.285156 154.710938 297.164062 154.886719 C 298.039062 155.058594 298.894531 155.320312 299.71875 155.660156 C 300.546875 156.003906 301.332031 156.425781 302.078125 156.921875 C 302.820312 157.417969 303.511719 157.984375 304.144531 158.617188 C 304.777344 159.25 305.34375 159.9375 305.839844 160.683594 C 306.335938 161.429688 306.757812 162.214844 307.101562 163.039062 C 307.441406 163.867188 307.699219 164.71875 307.875 165.597656 C 308.050781 166.476562 308.136719 167.363281 308.136719 168.257812 C 308.136719 169.152344 308.046875 170.039062 307.875 170.917969 C 307.699219 171.792969 307.4375 172.648438 307.09375 173.472656 C 306.753906 174.300781 306.332031 175.085938 305.835938 175.828125 C 305.335938 176.574219 304.773438 177.261719 304.140625 177.894531 C 303.507812 178.527344 302.816406 179.09375 302.074219 179.589844 C 301.328125 180.085938 300.542969 180.507812 299.71875 180.851562 C 298.890625 181.195312 298.039062 181.453125 297.160156 181.628906 C 296.285156 181.804688 295.398438 181.890625 294.503906 181.894531 Z M 294.503906 159.4375 C 293.921875 159.4375 293.347656 159.492188 292.78125 159.605469 C 292.210938 159.71875 291.660156 159.886719 291.125 160.109375 C 290.589844 160.328125 290.082031 160.601562 289.601562 160.921875 C 289.117188 161.246094 288.671875 161.609375 288.261719 162.019531 C 287.855469 162.429688 287.488281 162.875 287.167969 163.355469 C 286.84375 163.839844 286.574219 164.347656 286.351562 164.882812 C 286.128906 165.417969 285.960938 165.96875 285.847656 166.539062 C 285.734375 167.105469 285.679688 167.679688 285.679688 168.257812 C 285.679688 168.835938 285.734375 169.410156 285.847656 169.980469 C 285.960938 170.546875 286.128906 171.097656 286.351562 171.632812 C 286.574219 172.167969 286.84375 172.679688 287.167969 173.160156 C 287.488281 173.640625 287.855469 174.085938 288.261719 174.496094 C 288.671875 174.90625 289.117188 175.273438 289.601562 175.59375 C 290.082031 175.914062 290.589844 176.1875 291.125 176.410156 C 291.660156 176.632812 292.210938 176.796875 292.78125 176.910156 C 293.347656 177.023438 293.921875 177.082031 294.503906 177.082031 C 295.082031 177.082031 295.65625 177.023438 296.222656 176.910156 C 296.792969 176.796875 297.34375 176.632812 297.878906 176.410156 C 298.414062 176.1875 298.921875 175.914062 299.402344 175.59375 C 299.886719 175.273438 300.332031 174.90625 300.742188 174.496094 C 301.152344 174.085938 301.515625 173.640625 301.839844 173.160156 C 302.160156 172.679688 302.433594 172.167969 302.652344 171.632812 C 302.875 171.097656 303.042969 170.546875 303.15625 169.980469 C 303.269531 169.410156 303.324219 168.835938 303.324219 168.257812 C 303.324219 167.679688 303.265625 167.105469 303.152344 166.539062 C 303.039062 165.96875 302.871094 165.417969 302.648438 164.882812 C 302.425781 164.351562 302.15625 163.84375 301.832031 163.359375 C 301.511719 162.878906 301.144531 162.433594 300.738281 162.023438 C 300.328125 161.617188 299.882812 161.25 299.398438 160.929688 C 298.917969 160.605469 298.410156 160.332031 297.875 160.113281 C 297.339844 159.890625 296.789062 159.722656 296.222656 159.609375 C 295.65625 159.496094 295.082031 159.4375 294.503906 159.4375 Z M 294.503906 159.4375 " fill-opacity="1" fill-rule="nonzero"/><path fill="#ffffff" d="M 243.167969 99.285156 C 243.167969 100.019531 243.097656 100.75 242.953125 101.472656 C 242.808594 102.199219 242.597656 102.898438 242.3125 103.582031 C 242.03125 104.261719 241.6875 104.910156 241.277344 105.523438 C 240.867188 106.136719 240.402344 106.703125 239.878906 107.222656 C 239.359375 107.746094 238.789062 108.210938 238.179688 108.621094 C 237.566406 109.03125 236.917969 109.375 236.238281 109.65625 C 235.554688 109.941406 234.851562 110.152344 234.128906 110.296875 C 233.40625 110.441406 232.675781 110.511719 231.9375 110.511719 C 231.203125 110.511719 230.472656 110.441406 229.75 110.296875 C 229.023438 110.152344 228.324219 109.941406 227.640625 109.65625 C 226.960938 109.375 226.3125 109.03125 225.699219 108.621094 C 225.085938 108.210938 224.519531 107.746094 224 107.222656 C 223.476562 106.703125 223.011719 106.136719 222.601562 105.523438 C 222.191406 104.910156 221.847656 104.261719 221.566406 103.582031 C 221.28125 102.898438 221.070312 102.199219 220.925781 101.472656 C 220.78125 100.75 220.710938 100.019531 220.710938 99.285156 C 220.710938 98.546875 220.78125 97.816406 220.925781 97.09375 C 221.070312 96.371094 221.28125 95.667969 221.566406 94.988281 C 221.847656 94.304688 222.191406 93.660156 222.601562 93.046875 C 223.011719 92.433594 223.476562 91.863281 224 91.34375 C 224.519531 90.824219 225.085938 90.355469 225.699219 89.949219 C 226.3125 89.539062 226.960938 89.191406 227.640625 88.910156 C 228.324219 88.628906 229.023438 88.414062 229.75 88.269531 C 230.472656 88.128906 231.203125 88.054688 231.9375 88.054688 C 232.675781 88.054688 233.40625 88.128906 234.128906 88.269531 C 234.851562 88.414062 235.554688 88.628906 236.238281 88.910156 C 236.917969 89.191406 237.566406 89.539062 238.179688 89.949219 C 238.789062 90.355469 239.359375 90.824219 239.878906 91.34375 C 240.402344 91.863281 240.867188 92.433594 241.277344 93.046875 C 241.6875 93.660156 242.03125 94.304688 242.3125 94.988281 C 242.597656 95.667969 242.808594 96.371094 242.953125 97.09375 C 243.097656 97.816406 243.167969 98.546875 243.167969 99.285156 Z M 243.167969 99.285156 " fill-opacity="1" fill-rule="nonzero"/><path fill="#e2e2e2" d="M 231.9375 112.917969 C 231.042969 112.917969 230.15625 112.832031 229.277344 112.65625 C 228.402344 112.480469 227.546875 112.222656 226.722656 111.878906 C 225.894531 111.539062 225.109375 111.117188 224.363281 110.621094 C 223.621094 110.121094 222.929688 109.558594 222.296875 108.925781 C 221.664062 108.292969 221.097656 107.601562 220.601562 106.859375 C 220.105469 106.113281 219.683594 105.328125 219.339844 104.5 C 219 103.675781 218.742188 102.820312 218.566406 101.945312 C 218.390625 101.066406 218.304688 100.179688 218.304688 99.285156 C 218.304688 98.386719 218.390625 97.5 218.566406 96.625 C 218.742188 95.746094 219 94.894531 219.339844 94.066406 C 219.683594 93.238281 220.105469 92.453125 220.601562 91.707031 C 221.097656 90.964844 221.664062 90.277344 222.296875 89.640625 C 222.929688 89.007812 223.621094 88.445312 224.363281 87.945312 C 225.109375 87.449219 225.894531 87.03125 226.722656 86.6875 C 227.546875 86.34375 228.402344 86.085938 229.277344 85.910156 C 230.15625 85.738281 231.042969 85.648438 231.9375 85.648438 C 232.835938 85.648438 233.722656 85.738281 234.597656 85.910156 C 235.476562 86.085938 236.332031 86.34375 237.15625 86.6875 C 237.984375 87.03125 238.769531 87.449219 239.515625 87.945312 C 240.257812 88.445312 240.949219 89.007812 241.582031 89.640625 C 242.214844 90.277344 242.777344 90.964844 243.277344 91.707031 C 243.773438 92.453125 244.195312 93.238281 244.535156 94.066406 C 244.878906 94.894531 245.136719 95.746094 245.3125 96.625 C 245.488281 97.5 245.574219 98.386719 245.574219 99.285156 C 245.574219 100.179688 245.484375 101.066406 245.308594 101.941406 C 245.132812 102.820312 244.875 103.671875 244.53125 104.5 C 244.191406 105.324219 243.769531 106.109375 243.273438 106.855469 C 242.773438 107.597656 242.210938 108.289062 241.578125 108.921875 C 240.945312 109.554688 240.253906 110.117188 239.511719 110.617188 C 238.765625 111.113281 237.980469 111.53125 237.15625 111.875 C 236.328125 112.21875 235.476562 112.476562 234.597656 112.652344 C 233.71875 112.828125 232.835938 112.917969 231.9375 112.917969 Z M 231.9375 90.460938 C 231.359375 90.460938 230.785156 90.519531 230.21875 90.628906 C 229.648438 90.742188 229.097656 90.910156 228.5625 91.132812 C 228.027344 91.355469 227.519531 91.625 227.039062 91.949219 C 226.554688 92.269531 226.109375 92.636719 225.699219 93.046875 C 225.289062 93.453125 224.925781 93.902344 224.601562 94.382812 C 224.28125 94.863281 224.007812 95.371094 223.789062 95.90625 C 223.566406 96.441406 223.398438 96.996094 223.285156 97.5625 C 223.171875 98.128906 223.117188 98.703125 223.117188 99.285156 C 223.117188 99.863281 223.171875 100.4375 223.285156 101.003906 C 223.398438 101.574219 223.566406 102.125 223.789062 102.660156 C 224.007812 103.195312 224.28125 103.703125 224.601562 104.183594 C 224.925781 104.667969 225.289062 105.113281 225.699219 105.523438 C 226.109375 105.929688 226.554688 106.296875 227.039062 106.617188 C 227.519531 106.941406 228.027344 107.210938 228.5625 107.433594 C 229.097656 107.65625 229.648438 107.824219 230.21875 107.9375 C 230.785156 108.050781 231.359375 108.105469 231.9375 108.105469 C 232.519531 108.105469 233.09375 108.050781 233.660156 107.9375 C 234.230469 107.824219 234.78125 107.65625 235.316406 107.433594 C 235.851562 107.210938 236.359375 106.941406 236.839844 106.617188 C 237.324219 106.296875 237.769531 105.929688 238.179688 105.523438 C 238.585938 105.113281 238.953125 104.667969 239.273438 104.183594 C 239.597656 103.703125 239.867188 103.195312 240.089844 102.660156 C 240.3125 102.125 240.480469 101.574219 240.59375 101.003906 C 240.707031 100.4375 240.761719 99.863281 240.761719 99.285156 C 240.761719 98.703125 240.703125 98.132812 240.589844 97.5625 C 240.476562 96.996094 240.308594 96.445312 240.085938 95.910156 C 239.863281 95.375 239.59375 94.867188 239.269531 94.386719 C 238.949219 93.90625 238.582031 93.460938 238.171875 93.050781 C 237.765625 92.640625 237.320312 92.273438 236.835938 91.953125 C 236.355469 91.632812 235.847656 91.359375 235.3125 91.136719 C 234.777344 90.914062 234.226562 90.746094 233.660156 90.632812 C 233.089844 90.519531 232.519531 90.460938 231.9375 90.460938 Z M 231.9375 90.460938 " fill-opacity="1" fill-rule="nonzero"/><path fill="#ffffff" d="M 151.730469 96.074219 C 151.730469 96.8125 151.660156 97.542969 151.515625 98.265625 C 151.371094 98.988281 151.15625 99.691406 150.875 100.371094 C 150.59375 101.054688 150.246094 101.699219 149.835938 102.3125 C 149.429688 102.925781 148.960938 103.492188 148.441406 104.015625 C 147.917969 104.535156 147.351562 105.003906 146.738281 105.410156 C 146.125 105.820312 145.480469 106.167969 144.796875 106.449219 C 144.117188 106.730469 143.414062 106.945312 142.691406 107.089844 C 141.96875 107.230469 141.238281 107.304688 140.5 107.304688 C 139.761719 107.304688 139.035156 107.230469 138.308594 107.089844 C 137.585938 106.945312 136.886719 106.730469 136.203125 106.449219 C 135.523438 106.167969 134.875 105.820312 134.261719 105.410156 C 133.648438 105.003906 133.082031 104.535156 132.5625 104.015625 C 132.039062 103.492188 131.574219 102.925781 131.164062 102.3125 C 130.753906 101.699219 130.410156 101.054688 130.125 100.371094 C 129.84375 99.691406 129.632812 98.988281 129.488281 98.265625 C 129.34375 97.542969 129.273438 96.8125 129.273438 96.074219 C 129.273438 95.339844 129.34375 94.609375 129.488281 93.886719 C 129.632812 93.160156 129.84375 92.460938 130.125 91.777344 C 130.410156 91.097656 130.753906 90.449219 131.164062 89.835938 C 131.574219 89.222656 132.039062 88.65625 132.5625 88.136719 C 133.082031 87.613281 133.648438 87.148438 134.261719 86.738281 C 134.875 86.328125 135.523438 85.984375 136.203125 85.703125 C 136.886719 85.417969 137.585938 85.207031 138.308594 85.0625 C 139.035156 84.917969 139.761719 84.847656 140.5 84.847656 C 141.238281 84.847656 141.96875 84.917969 142.691406 85.0625 C 143.414062 85.207031 144.117188 85.417969 144.796875 85.703125 C 145.480469 85.984375 146.125 86.328125 146.738281 86.738281 C 147.351562 87.148438 147.917969 87.613281 148.441406 88.136719 C 148.960938 88.65625 149.429688 89.222656 149.835938 89.835938 C 150.246094 90.449219 150.59375 91.097656 150.875 91.777344 C 151.15625 92.460938 151.371094 93.160156 151.515625 93.886719 C 151.660156 94.609375 151.730469 95.339844 151.730469 96.074219 Z M 151.730469 96.074219 " fill-opacity="1" fill-rule="nonzero"/><path fill="#e2e2e2" d="M 140.5 109.710938 C 139.605469 109.710938 138.71875 109.621094 137.839844 109.449219 C 136.960938 109.273438 136.109375 109.015625 135.28125 108.671875 C 134.457031 108.328125 133.667969 107.910156 132.925781 107.414062 C 132.179688 106.914062 131.492188 106.347656 130.859375 105.714844 C 130.226562 105.082031 129.660156 104.394531 129.164062 103.652344 C 128.664062 102.90625 128.246094 102.121094 127.902344 101.292969 C 127.5625 100.464844 127.300781 99.613281 127.128906 98.734375 C 126.953125 97.855469 126.867188 96.972656 126.867188 96.074219 C 126.867188 95.179688 126.953125 94.292969 127.128906 93.414062 C 127.300781 92.539062 127.5625 91.683594 127.902344 90.859375 C 128.246094 90.03125 128.664062 89.246094 129.164062 88.5 C 129.660156 87.757812 130.226562 87.066406 130.859375 86.433594 C 131.492188 85.800781 132.179688 85.234375 132.925781 84.738281 C 133.667969 84.242188 134.457031 83.820312 135.28125 83.480469 C 136.109375 83.136719 136.960938 82.878906 137.839844 82.703125 C 138.71875 82.527344 139.605469 82.441406 140.5 82.441406 C 141.394531 82.441406 142.28125 82.527344 143.160156 82.703125 C 144.039062 82.878906 144.890625 83.136719 145.71875 83.480469 C 146.546875 83.820312 147.332031 84.242188 148.078125 84.738281 C 148.820312 85.234375 149.507812 85.800781 150.144531 86.433594 C 150.777344 87.066406 151.339844 87.757812 151.839844 88.5 C 152.335938 89.246094 152.753906 90.03125 153.097656 90.859375 C 153.441406 91.683594 153.699219 92.539062 153.875 93.414062 C 154.050781 94.292969 154.136719 95.179688 154.136719 96.074219 C 154.136719 96.96875 154.046875 97.855469 153.871094 98.734375 C 153.695312 99.613281 153.4375 100.464844 153.09375 101.289062 C 152.75 102.117188 152.332031 102.902344 151.832031 103.648438 C 151.335938 104.390625 150.769531 105.078125 150.136719 105.710938 C 149.503906 106.34375 148.816406 106.910156 148.074219 107.40625 C 147.328125 107.90625 146.542969 108.324219 145.714844 108.667969 C 144.890625 109.011719 144.039062 109.269531 143.160156 109.445312 C 142.28125 109.621094 141.394531 109.710938 140.5 109.710938 Z M 140.5 87.253906 C 139.921875 87.253906 139.347656 87.308594 138.78125 87.421875 C 138.210938 87.535156 137.660156 87.703125 137.125 87.925781 C 136.589844 88.144531 136.082031 88.417969 135.597656 88.738281 C 135.117188 89.0625 134.671875 89.425781 134.261719 89.835938 C 133.851562 90.246094 133.488281 90.691406 133.164062 91.175781 C 132.84375 91.65625 132.570312 92.164062 132.347656 92.699219 C 132.128906 93.234375 131.960938 93.785156 131.847656 94.355469 C 131.734375 94.921875 131.679688 95.496094 131.679688 96.074219 C 131.679688 96.65625 131.734375 97.226562 131.847656 97.796875 C 131.960938 98.363281 132.128906 98.917969 132.347656 99.453125 C 132.570312 99.988281 132.84375 100.496094 133.164062 100.976562 C 133.488281 101.457031 133.851562 101.902344 134.261719 102.3125 C 134.671875 102.722656 135.117188 103.089844 135.597656 103.410156 C 136.082031 103.734375 136.589844 104.003906 137.125 104.226562 C 137.660156 104.449219 138.210938 104.617188 138.78125 104.726562 C 139.347656 104.839844 139.921875 104.898438 140.5 104.898438 C 141.082031 104.898438 141.652344 104.839844 142.222656 104.726562 C 142.789062 104.617188 143.34375 104.449219 143.878906 104.226562 C 144.414062 104.003906 144.921875 103.734375 145.402344 103.410156 C 145.882812 103.089844 146.328125 102.722656 146.738281 102.3125 C 147.148438 101.902344 147.515625 101.457031 147.835938 100.976562 C 148.160156 100.496094 148.429688 99.988281 148.652344 99.453125 C 148.875 98.917969 149.042969 98.363281 149.15625 97.796875 C 149.265625 97.226562 149.324219 96.65625 149.324219 96.074219 C 149.324219 95.496094 149.265625 94.921875 149.152344 94.355469 C 149.039062 93.789062 148.871094 93.238281 148.648438 92.703125 C 148.425781 92.167969 148.152344 91.660156 147.832031 91.179688 C 147.511719 90.695312 147.144531 90.25 146.734375 89.84375 C 146.324219 89.433594 145.878906 89.066406 145.398438 88.746094 C 144.917969 88.421875 144.410156 88.152344 143.875 87.929688 C 143.339844 87.707031 142.789062 87.539062 142.222656 87.425781 C 141.652344 87.3125 141.078125 87.253906 140.5 87.253906 Z M 140.5 87.253906 " fill-opacity="1" fill-rule="nonzero"/><g fill="#000000" fill-opacity="1"><g transform="translate(117.361674, 59.817406)"><g><path d="M 10.28125 0 L 8.84375 0 L 7.796875 -3.140625 L 2.921875 -3.140625 L 1.859375 0 L 0.453125 0 L 4.4375 -11.421875 L 6.296875 -11.421875 Z M 5.265625 -10.046875 L 3.296875 -4.265625 L 7.40625 -4.265625 L 5.453125 -10.046875 Z M 5.265625 -10.046875 "/></g></g></g><g fill="#000000" fill-opacity="1"><g transform="translate(128.093428, 59.817406)"><g><path d="M 1.5 0 L 1.5 -8.625 L 2.71875 -8.625 L 2.71875 -7.265625 L 2.875 -7.234375 C 3.28125 -8.210938 4.035156 -8.703125 5.140625 -8.703125 C 5.734375 -8.703125 6.175781 -8.59375 6.46875 -8.375 L 6.140625 -7.296875 L 5.984375 -7.265625 C 5.660156 -7.429688 5.304688 -7.515625 4.921875 -7.515625 C 4.234375 -7.515625 3.703125 -7.253906 3.328125 -6.734375 C 2.960938 -6.222656 2.78125 -5.390625 2.78125 -4.234375 L 2.78125 0 Z M 1.5 0 "/></g></g></g><g fill="#000000" fill-opacity="1"><g transform="translate(134.748053, 59.817406)"><g><path d="M 4.953125 0.171875 C 4.191406 0.171875 3.507812 0 2.90625 -0.34375 C 2.300781 -0.695312 1.820312 -1.210938 1.46875 -1.890625 C 1.125 -2.566406 0.953125 -3.375 0.953125 -4.3125 C 0.953125 -5.25 1.125 -6.054688 1.46875 -6.734375 C 1.820312 -7.410156 2.300781 -7.921875 2.90625 -8.265625 C 3.507812 -8.609375 4.191406 -8.78125 4.953125 -8.78125 C 5.859375 -8.78125 6.582031 -8.609375 7.125 -8.265625 C 7.664062 -7.921875 8.054688 -7.460938 8.296875 -6.890625 L 7.421875 -6.265625 L 7.265625 -6.265625 C 7.035156 -6.742188 6.734375 -7.09375 6.359375 -7.3125 C 5.992188 -7.53125 5.523438 -7.640625 4.953125 -7.640625 C 4.421875 -7.640625 3.953125 -7.515625 3.546875 -7.265625 C 3.148438 -7.015625 2.835938 -6.640625 2.609375 -6.140625 C 2.390625 -5.640625 2.28125 -5.03125 2.28125 -4.3125 C 2.28125 -3.59375 2.390625 -2.984375 2.609375 -2.484375 C 2.835938 -1.984375 3.148438 -1.609375 3.546875 -1.359375 C 3.953125 -1.109375 4.421875 -0.984375 4.953125 -0.984375 C 5.546875 -0.984375 6.039062 -1.117188 6.4375 -1.390625 C 6.832031 -1.660156 7.140625 -2.085938 7.359375 -2.671875 L 7.53125 -2.671875 L 8.359375 -2.171875 C 8.140625 -1.453125 7.738281 -0.878906 7.15625 -0.453125 C 6.582031 -0.0351562 5.847656 0.171875 4.953125 0.171875 Z M 4.953125 0.171875 "/></g></g></g><g fill="#000000" fill-opacity="1"><g transform="translate(143.628701, 59.817406)"><g><path d="M 1.5 0 L 1.5 -12.078125 L 2.78125 -12.078125 L 2.78125 -7.390625 L 2.9375 -7.359375 C 3.550781 -8.304688 4.441406 -8.78125 5.609375 -8.78125 C 6.640625 -8.78125 7.390625 -8.515625 7.859375 -7.984375 C 8.328125 -7.460938 8.5625 -6.648438 8.5625 -5.546875 L 8.5625 0 L 7.28125 0 L 7.28125 -5.515625 C 7.28125 -6.035156 7.210938 -6.453125 7.078125 -6.765625 C 6.953125 -7.085938 6.75 -7.316406 6.46875 -7.453125 C 6.1875 -7.597656 5.820312 -7.671875 5.375 -7.671875 C 4.59375 -7.671875 3.960938 -7.414062 3.484375 -6.90625 C 3.015625 -6.40625 2.78125 -5.578125 2.78125 -4.421875 L 2.78125 0 Z M 1.5 0 "/></g></g></g><g fill="#000000" fill-opacity="1"><g transform="translate(153.548154, 59.817406)"><g/></g></g><g fill="#000000" fill-opacity="1"><g transform="translate(157.469071, 59.817406)"><g><path d="M 0.8125 0 L 0.8125 -1.109375 L 3.9375 -1.109375 L 3.9375 -9.84375 L 3.75 -9.890625 C 3.25 -9.640625 2.804688 -9.445312 2.421875 -9.3125 C 2.046875 -9.1875 1.5625 -9.0625 0.96875 -8.9375 L 0.96875 -10.171875 C 1.550781 -10.296875 2.128906 -10.460938 2.703125 -10.671875 C 3.285156 -10.890625 3.8125 -11.140625 4.28125 -11.421875 L 5.25 -11.421875 L 5.25 -1.109375 L 8.03125 -1.109375 L 8.03125 0 Z M 0.8125 0 "/></g></g></g><g fill="#000000" fill-opacity="1"><g transform="translate(249.270017, 308.579101)"><g><path d="M 10.28125 0 L 8.84375 0 L 7.796875 -3.140625 L 2.921875 -3.140625 L 1.859375 0 L 0.453125 0 L 4.4375 -11.421875 L 6.296875 -11.421875 Z M 5.265625 -10.046875 L 3.296875 -4.265625 L 7.40625 -4.265625 L 5.453125 -10.046875 Z M 5.265625 -10.046875 "/></g></g></g><g fill="#000000" fill-opacity="1"><g transform="translate(260.001771, 308.579101)"><g><path d="M 1.5 0 L 1.5 -8.625 L 2.71875 -8.625 L 2.71875 -7.265625 L 2.875 -7.234375 C 3.28125 -8.210938 4.035156 -8.703125 5.140625 -8.703125 C 5.734375 -8.703125 6.175781 -8.59375 6.46875 -8.375 L 6.140625 -7.296875 L 5.984375 -7.265625 C 5.660156 -7.429688 5.304688 -7.515625 4.921875 -7.515625 C 4.234375 -7.515625 3.703125 -7.253906 3.328125 -6.734375 C 2.960938 -6.222656 2.78125 -5.390625 2.78125 -4.234375 L 2.78125 0 Z M 1.5 0 "/></g></g></g><g fill="#000000" fill-opacity="1"><g transform="translate(266.656395, 308.579101)"><g><path d="M 4.953125 0.171875 C 4.191406 0.171875 3.507812 0 2.90625 -0.34375 C 2.300781 -0.695312 1.820312 -1.210938 1.46875 -1.890625 C 1.125 -2.566406 0.953125 -3.375 0.953125 -4.3125 C 0.953125 -5.25 1.125 -6.054688 1.46875 -6.734375 C 1.820312 -7.410156 2.300781 -7.921875 2.90625 -8.265625 C 3.507812 -8.609375 4.191406 -8.78125 4.953125 -8.78125 C 5.859375 -8.78125 6.582031 -8.609375 7.125 -8.265625 C 7.664062 -7.921875 8.054688 -7.460938 8.296875 -6.890625 L 7.421875 -6.265625 L 7.265625 -6.265625 C 7.035156 -6.742188 6.734375 -7.09375 6.359375 -7.3125 C 5.992188 -7.53125 5.523438 -7.640625 4.953125 -7.640625 C 4.421875 -7.640625 3.953125 -7.515625 3.546875 -7.265625 C 3.148438 -7.015625 2.835938 -6.640625 2.609375 -6.140625 C 2.390625 -5.640625 2.28125 -5.03125 2.28125 -4.3125 C 2.28125 -3.59375 2.390625 -2.984375 2.609375 -2.484375 C 2.835938 -1.984375 3.148438 -1.609375 3.546875 -1.359375 C 3.953125 -1.109375 4.421875 -0.984375 4.953125 -0.984375 C 5.546875 -0.984375 6.039062 -1.117188 6.4375 -1.390625 C 6.832031 -1.660156 7.140625 -2.085938 7.359375 -2.671875 L 7.53125 -2.671875 L 8.359375 -2.171875 C 8.140625 -1.453125 7.738281 -0.878906 7.15625 -0.453125 C 6.582031 -0.0351562 5.847656 0.171875 4.953125 0.171875 Z M 4.953125 0.171875 "/></g></g></g><g fill="#000000" fill-opacity="1"><g transform="translate(275.537044, 308.579101)"><g><path d="M 1.5 0 L 1.5 -12.078125 L 2.78125 -12.078125 L 2.78125 -7.390625 L 2.9375 -7.359375 C 3.550781 -8.304688 4.441406 -8.78125 5.609375 -8.78125 C 6.640625 -8.78125 7.390625 -8.515625 7.859375 -7.984375 C 8.328125 -7.460938 8.5625 -6.648438 8.5625 -5.546875 L 8.5625 0 L 7.28125 0 L 7.28125 -5.515625 C 7.28125 -6.035156 7.210938 -6.453125 7.078125 -6.765625 C 6.953125 -7.085938 6.75 -7.316406 6.46875 -7.453125 C 6.1875 -7.597656 5.820312 -7.671875 5.375 -7.671875 C 4.59375 -7.671875 3.960938 -7.414062 3.484375 -6.90625 C 3.015625 -6.40625 2.78125 -5.578125 2.78125 -4.421875 L 2.78125 0 Z M 1.5 0 "/></g></g></g><g fill="#000000" fill-opacity="1"><g transform="translate(285.456496, 308.579101)"><g/></g></g><g fill="#000000" fill-opacity="1"><g transform="translate(289.377413, 308.579101)"><g><path d="M 0.8125 0 L 0.8125 -1.109375 L 3.9375 -1.109375 L 3.9375 -9.84375 L 3.75 -9.890625 C 3.25 -9.640625 2.804688 -9.445312 2.421875 -9.3125 C 2.046875 -9.1875 1.5625 -9.0625 0.96875 -8.9375 L 0.96875 -10.171875 C 1.550781 -10.296875 2.128906 -10.460938 2.703125 -10.671875 C 3.285156 -10.890625 3.8125 -11.140625 4.28125 -11.421875 L 5.25 -11.421875 L 5.25 -1.109375 L 8.03125 -1.109375 L 8.03125 0 Z M 0.8125 0 "/></g></g></g><g fill="#000000" fill-opacity="1"><g transform="translate(306.331098, 193.124987)"><g><path d="M 10.28125 0 L 8.84375 0 L 7.796875 -3.140625 L 2.921875 -3.140625 L 1.859375 0 L 0.453125 0 L 4.4375 -11.421875 L 6.296875 -11.421875 Z M 5.265625 -10.046875 L 3.296875 -4.265625 L 7.40625 -4.265625 L 5.453125 -10.046875 Z M 5.265625 -10.046875 "/></g></g></g><g fill="#000000" fill-opacity="1"><g transform="translate(317.062852, 193.124987)"><g><path d="M 1.5 0 L 1.5 -8.625 L 2.71875 -8.625 L 2.71875 -7.265625 L 2.875 -7.234375 C 3.28125 -8.210938 4.035156 -8.703125 5.140625 -8.703125 C 5.734375 -8.703125 6.175781 -8.59375 6.46875 -8.375 L 6.140625 -7.296875 L 5.984375 -7.265625 C 5.660156 -7.429688 5.304688 -7.515625 4.921875 -7.515625 C 4.234375 -7.515625 3.703125 -7.253906 3.328125 -6.734375 C 2.960938 -6.222656 2.78125 -5.390625 2.78125 -4.234375 L 2.78125 0 Z M 1.5 0 "/></g></g></g><g fill="#000000" fill-opacity="1"><g transform="translate(323.717476, 193.124987)"><g><path d="M 4.953125 0.171875 C 4.191406 0.171875 3.507812 0 2.90625 -0.34375 C 2.300781 -0.695312 1.820312 -1.210938 1.46875 -1.890625 C 1.125 -2.566406 0.953125 -3.375 0.953125 -4.3125 C 0.953125 -5.25 1.125 -6.054688 1.46875 -6.734375 C 1.820312 -7.410156 2.300781 -7.921875 2.90625 -8.265625 C 3.507812 -8.609375 4.191406 -8.78125 4.953125 -8.78125 C 5.859375 -8.78125 6.582031 -8.609375 7.125 -8.265625 C 7.664062 -7.921875 8.054688 -7.460938 8.296875 -6.890625 L 7.421875 -6.265625 L 7.265625 -6.265625 C 7.035156 -6.742188 6.734375 -7.09375 6.359375 -7.3125 C 5.992188 -7.53125 5.523438 -7.640625 4.953125 -7.640625 C 4.421875 -7.640625 3.953125 -7.515625 3.546875 -7.265625 C 3.148438 -7.015625 2.835938 -6.640625 2.609375 -6.140625 C 2.390625 -5.640625 2.28125 -5.03125 2.28125 -4.3125 C 2.28125 -3.59375 2.390625 -2.984375 2.609375 -2.484375 C 2.835938 -1.984375 3.148438 -1.609375 3.546875 -1.359375 C 3.953125 -1.109375 4.421875 -0.984375 4.953125 -0.984375 C 5.546875 -0.984375 6.039062 -1.117188 6.4375 -1.390625 C 6.832031 -1.660156 7.140625 -2.085938 7.359375 -2.671875 L 7.53125 -2.671875 L 8.359375 -2.171875 C 8.140625 -1.453125 7.738281 -0.878906 7.15625 -0.453125 C 6.582031 -0.0351562 5.847656 0.171875 4.953125 0.171875 Z M 4.953125 0.171875 "/></g></g></g><g fill="#000000" fill-opacity="1"><g transform="translate(332.598125, 193.124987)"><g><path d="M 1.5 0 L 1.5 -12.078125 L 2.78125 -12.078125 L 2.78125 -7.390625 L 2.9375 -7.359375 C 3.550781 -8.304688 4.441406 -8.78125 5.609375 -8.78125 C 6.640625 -8.78125 7.390625 -8.515625 7.859375 -7.984375 C 8.328125 -7.460938 8.5625 -6.648438 8.5625 -5.546875 L 8.5625 0 L 7.28125 0 L 7.28125 -5.515625 C 7.28125 -6.035156 7.210938 -6.453125 7.078125 -6.765625 C 6.953125 -7.085938 6.75 -7.316406 6.46875 -7.453125 C 6.1875 -7.597656 5.820312 -7.671875 5.375 -7.671875 C 4.59375 -7.671875 3.960938 -7.414062 3.484375 -6.90625 C 3.015625 -6.40625 2.78125 -5.578125 2.78125 -4.421875 L 2.78125 0 Z M 1.5 0 "/></g></g></g><g fill="#000000" fill-opacity="1"><g transform="translate(342.517577, 193.124987)"><g/></g></g><g fill="#000000" fill-opacity="1"><g transform="translate(346.438494, 193.124987)"><g><path d="M 0.8125 0 L 0.8125 -1.109375 L 3.9375 -1.109375 L 3.9375 -9.84375 L 3.75 -9.890625 C 3.25 -9.640625 2.804688 -9.445312 2.421875 -9.3125 C 2.046875 -9.1875 1.5625 -9.0625 0.96875 -8.9375 L 0.96875 -10.171875 C 1.550781 -10.296875 2.128906 -10.460938 2.703125 -10.671875 C 3.285156 -10.890625 3.8125 -11.140625 4.28125 -11.421875 L 5.25 -11.421875 L 5.25 -1.109375 L 8.03125 -1.109375 L 8.03125 0 Z M 0.8125 0 "/></g></g></g><g fill="#000000" fill-opacity="1"><g transform="translate(241.632529, 84.037362)"><g><path d="M 10.28125 0 L 8.84375 0 L 7.796875 -3.140625 L 2.921875 -3.140625 L 1.859375 0 L 0.453125 0 L 4.4375 -11.421875 L 6.296875 -11.421875 Z M 5.265625 -10.046875 L 3.296875 -4.265625 L 7.40625 -4.265625 L 5.453125 -10.046875 Z M 5.265625 -10.046875 "/></g></g></g><g fill="#000000" fill-opacity="1"><g transform="translate(252.364282, 84.037362)"><g><path d="M 1.5 0 L 1.5 -8.625 L 2.71875 -8.625 L 2.71875 -7.265625 L 2.875 -7.234375 C 3.28125 -8.210938 4.035156 -8.703125 5.140625 -8.703125 C 5.734375 -8.703125 6.175781 -8.59375 6.46875 -8.375 L 6.140625 -7.296875 L 5.984375 -7.265625 C 5.660156 -7.429688 5.304688 -7.515625 4.921875 -7.515625 C 4.234375 -7.515625 3.703125 -7.253906 3.328125 -6.734375 C 2.960938 -6.222656 2.78125 -5.390625 2.78125 -4.234375 L 2.78125 0 Z M 1.5 0 "/></g></g></g><g fill="#000000" fill-opacity="1"><g transform="translate(259.018907, 84.037362)"><g><path d="M 4.953125 0.171875 C 4.191406 0.171875 3.507812 0 2.90625 -0.34375 C 2.300781 -0.695312 1.820312 -1.210938 1.46875 -1.890625 C 1.125 -2.566406 0.953125 -3.375 0.953125 -4.3125 C 0.953125 -5.25 1.125 -6.054688 1.46875 -6.734375 C 1.820312 -7.410156 2.300781 -7.921875 2.90625 -8.265625 C 3.507812 -8.609375 4.191406 -8.78125 4.953125 -8.78125 C 5.859375 -8.78125 6.582031 -8.609375 7.125 -8.265625 C 7.664062 -7.921875 8.054688 -7.460938 8.296875 -6.890625 L 7.421875 -6.265625 L 7.265625 -6.265625 C 7.035156 -6.742188 6.734375 -7.09375 6.359375 -7.3125 C 5.992188 -7.53125 5.523438 -7.640625 4.953125 -7.640625 C 4.421875 -7.640625 3.953125 -7.515625 3.546875 -7.265625 C 3.148438 -7.015625 2.835938 -6.640625 2.609375 -6.140625 C 2.390625 -5.640625 2.28125 -5.03125 2.28125 -4.3125 C 2.28125 -3.59375 2.390625 -2.984375 2.609375 -2.484375 C 2.835938 -1.984375 3.148438 -1.609375 3.546875 -1.359375 C 3.953125 -1.109375 4.421875 -0.984375 4.953125 -0.984375 C 5.546875 -0.984375 6.039062 -1.117188 6.4375 -1.390625 C 6.832031 -1.660156 7.140625 -2.085938 7.359375 -2.671875 L 7.53125 -2.671875 L 8.359375 -2.171875 C 8.140625 -1.453125 7.738281 -0.878906 7.15625 -0.453125 C 6.582031 -0.0351562 5.847656 0.171875 4.953125 0.171875 Z M 4.953125 0.171875 "/></g></g></g><g fill="#000000" fill-opacity="1"><g transform="translate(267.899556, 84.037362)"><g><path d="M 1.5 0 L 1.5 -12.078125 L 2.78125 -12.078125 L 2.78125 -7.390625 L 2.9375 -7.359375 C 3.550781 -8.304688 4.441406 -8.78125 5.609375 -8.78125 C 6.640625 -8.78125 7.390625 -8.515625 7.859375 -7.984375 C 8.328125 -7.460938 8.5625 -6.648438 8.5625 -5.546875 L 8.5625 0 L 7.28125 0 L 7.28125 -5.515625 C 7.28125 -6.035156 7.210938 -6.453125 7.078125 -6.765625 C 6.953125 -7.085938 6.75 -7.316406 6.46875 -7.453125 C 6.1875 -7.597656 5.820312 -7.671875 5.375 -7.671875 C 4.59375 -7.671875 3.960938 -7.414062 3.484375 -6.90625 C 3.015625 -6.40625 2.78125 -5.578125 2.78125 -4.421875 L 2.78125 0 Z M 1.5 0 "/></g></g></g><g fill="#000000" fill-opacity="1"><g transform="translate(277.819008, 84.037362)"><g/></g></g><g fill="#000000" fill-opacity="1"><g transform="translate(281.739925, 84.037362)"><g><path d="M 0.8125 0 L 0.8125 -1.109375 L 3.9375 -1.109375 L 3.9375 -9.84375 L 3.75 -9.890625 C 3.25 -9.640625 2.804688 -9.445312 2.421875 -9.3125 C 2.046875 -9.1875 1.5625 -9.0625 0.96875 -8.9375 L 0.96875 -10.171875 C 1.550781 -10.296875 2.128906 -10.460938 2.703125 -10.671875 C 3.285156 -10.890625 3.8125 -11.140625 4.28125 -11.421875 L 5.25 -11.421875 L 5.25 -1.109375 L 8.03125 -1.109375 L 8.03125 0 Z M 0.8125 0 "/></g></g></g><g fill="#000000" fill-opacity="1"><g transform="translate(29.854551, 141.098458)"><g><path d="M 10.28125 0 L 8.84375 0 L 7.796875 -3.140625 L 2.921875 -3.140625 L 1.859375 0 L 0.453125 0 L 4.4375 -11.421875 L 6.296875 -11.421875 Z M 5.265625 -10.046875 L 3.296875 -4.265625 L 7.40625 -4.265625 L 5.453125 -10.046875 Z M 5.265625 -10.046875 "/></g></g></g><g fill="#000000" fill-opacity="1"><g transform="translate(40.586304, 141.098458)"><g><path d="M 1.5 0 L 1.5 -8.625 L 2.71875 -8.625 L 2.71875 -7.265625 L 2.875 -7.234375 C 3.28125 -8.210938 4.035156 -8.703125 5.140625 -8.703125 C 5.734375 -8.703125 6.175781 -8.59375 6.46875 -8.375 L 6.140625 -7.296875 L 5.984375 -7.265625 C 5.660156 -7.429688 5.304688 -7.515625 4.921875 -7.515625 C 4.234375 -7.515625 3.703125 -7.253906 3.328125 -6.734375 C 2.960938 -6.222656 2.78125 -5.390625 2.78125 -4.234375 L 2.78125 0 Z M 1.5 0 "/></g></g></g><g fill="#000000" fill-opacity="1"><g transform="translate(47.240929, 141.098458)"><g><path d="M 4.953125 0.171875 C 4.191406 0.171875 3.507812 0 2.90625 -0.34375 C 2.300781 -0.695312 1.820312 -1.210938 1.46875 -1.890625 C 1.125 -2.566406 0.953125 -3.375 0.953125 -4.3125 C 0.953125 -5.25 1.125 -6.054688 1.46875 -6.734375 C 1.820312 -7.410156 2.300781 -7.921875 2.90625 -8.265625 C 3.507812 -8.609375 4.191406 -8.78125 4.953125 -8.78125 C 5.859375 -8.78125 6.582031 -8.609375 7.125 -8.265625 C 7.664062 -7.921875 8.054688 -7.460938 8.296875 -6.890625 L 7.421875 -6.265625 L 7.265625 -6.265625 C 7.035156 -6.742188 6.734375 -7.09375 6.359375 -7.3125 C 5.992188 -7.53125 5.523438 -7.640625 4.953125 -7.640625 C 4.421875 -7.640625 3.953125 -7.515625 3.546875 -7.265625 C 3.148438 -7.015625 2.835938 -6.640625 2.609375 -6.140625 C 2.390625 -5.640625 2.28125 -5.03125 2.28125 -4.3125 C 2.28125 -3.59375 2.390625 -2.984375 2.609375 -2.484375 C 2.835938 -1.984375 3.148438 -1.609375 3.546875 -1.359375 C 3.953125 -1.109375 4.421875 -0.984375 4.953125 -0.984375 C 5.546875 -0.984375 6.039062 -1.117188 6.4375 -1.390625 C 6.832031 -1.660156 7.140625 -2.085938 7.359375 -2.671875 L 7.53125 -2.671875 L 8.359375 -2.171875 C 8.140625 -1.453125 7.738281 -0.878906 7.15625 -0.453125 C 6.582031 -0.0351562 5.847656 0.171875 4.953125 0.171875 Z M 4.953125 0.171875 "/></g></g></g><g fill="#000000" fill-opacity="1"><g transform="translate(56.121578, 141.098458)"><g><path d="M 1.5 0 L 1.5 -12.078125 L 2.78125 -12.078125 L 2.78125 -7.390625 L 2.9375 -7.359375 C 3.550781 -8.304688 4.441406 -8.78125 5.609375 -8.78125 C 6.640625 -8.78125 7.390625 -8.515625 7.859375 -7.984375 C 8.328125 -7.460938 8.5625 -6.648438 8.5625 -5.546875 L 8.5625 0 L 7.28125 0 L 7.28125 -5.515625 C 7.28125 -6.035156 7.210938 -6.453125 7.078125 -6.765625 C 6.953125 -7.085938 6.75 -7.316406 6.46875 -7.453125 C 6.1875 -7.597656 5.820312 -7.671875 5.375 -7.671875 C 4.59375 -7.671875 3.960938 -7.414062 3.484375 -6.90625 C 3.015625 -6.40625 2.78125 -5.578125 2.78125 -4.421875 L 2.78125 0 Z M 1.5 0 "/></g></g></g><g fill="#000000" fill-opacity="1"><g transform="translate(66.04103, 141.098458)"><g/></g></g><g fill="#000000" fill-opacity="1"><g transform="translate(69.961947, 141.098458)"><g><path d="M 0.8125 0 L 0.8125 -1.109375 L 3.9375 -1.109375 L 3.9375 -9.84375 L 3.75 -9.890625 C 3.25 -9.640625 2.804688 -9.445312 2.421875 -9.3125 C 2.046875 -9.1875 1.5625 -9.0625 0.96875 -8.9375 L 0.96875 -10.171875 C 1.550781 -10.296875 2.128906 -10.460938 2.703125 -10.671875 C 3.285156 -10.890625 3.8125 -11.140625 4.28125 -11.421875 L 5.25 -11.421875 L 5.25 -1.109375 L 8.03125 -1.109375 L 8.03125 0 Z M 0.8125 0 "/></g></g></g><g fill="#000000" fill-opacity="1"><g transform="translate(37.500002, 242.456922)"><g><path d="M 10.28125 0 L 8.84375 0 L 7.796875 -3.140625 L 2.921875 -3.140625 L 1.859375 0 L 0.453125 0 L 4.4375 -11.421875 L 6.296875 -11.421875 Z M 5.265625 -10.046875 L 3.296875 -4.265625 L 7.40625 -4.265625 L 5.453125 -10.046875 Z M 5.265625 -10.046875 "/></g></g></g><g fill="#000000" fill-opacity="1"><g transform="translate(48.231756, 242.456922)"><g><path d="M 1.5 0 L 1.5 -8.625 L 2.71875 -8.625 L 2.71875 -7.265625 L 2.875 -7.234375 C 3.28125 -8.210938 4.035156 -8.703125 5.140625 -8.703125 C 5.734375 -8.703125 6.175781 -8.59375 6.46875 -8.375 L 6.140625 -7.296875 L 5.984375 -7.265625 C 5.660156 -7.429688 5.304688 -7.515625 4.921875 -7.515625 C 4.234375 -7.515625 3.703125 -7.253906 3.328125 -6.734375 C 2.960938 -6.222656 2.78125 -5.390625 2.78125 -4.234375 L 2.78125 0 Z M 1.5 0 "/></g></g></g><g fill="#000000" fill-opacity="1"><g transform="translate(54.88638, 242.456922)"><g><path d="M 4.953125 0.171875 C 4.191406 0.171875 3.507812 0 2.90625 -0.34375 C 2.300781 -0.695312 1.820312 -1.210938 1.46875 -1.890625 C 1.125 -2.566406 0.953125 -3.375 0.953125 -4.3125 C 0.953125 -5.25 1.125 -6.054688 1.46875 -6.734375 C 1.820312 -7.410156 2.300781 -7.921875 2.90625 -8.265625 C 3.507812 -8.609375 4.191406 -8.78125 4.953125 -8.78125 C 5.859375 -8.78125 6.582031 -8.609375 7.125 -8.265625 C 7.664062 -7.921875 8.054688 -7.460938 8.296875 -6.890625 L 7.421875 -6.265625 L 7.265625 -6.265625 C 7.035156 -6.742188 6.734375 -7.09375 6.359375 -7.3125 C 5.992188 -7.53125 5.523438 -7.640625 4.953125 -7.640625 C 4.421875 -7.640625 3.953125 -7.515625 3.546875 -7.265625 C 3.148438 -7.015625 2.835938 -6.640625 2.609375 -6.140625 C 2.390625 -5.640625 2.28125 -5.03125 2.28125 -4.3125 C 2.28125 -3.59375 2.390625 -2.984375 2.609375 -2.484375 C 2.835938 -1.984375 3.148438 -1.609375 3.546875 -1.359375 C 3.953125 -1.109375 4.421875 -0.984375 4.953125 -0.984375 C 5.546875 -0.984375 6.039062 -1.117188 6.4375 -1.390625 C 6.832031 -1.660156 7.140625 -2.085938 7.359375 -2.671875 L 7.53125 -2.671875 L 8.359375 -2.171875 C 8.140625 -1.453125 7.738281 -0.878906 7.15625 -0.453125 C 6.582031 -0.0351562 5.847656 0.171875 4.953125 0.171875 Z M 4.953125 0.171875 "/></g></g></g><g fill="#000000" fill-opacity="1"><g transform="translate(63.767029, 242.456922)"><g><path d="M 1.5 0 L 1.5 -12.078125 L 2.78125 -12.078125 L 2.78125 -7.390625 L 2.9375 -7.359375 C 3.550781 -8.304688 4.441406 -8.78125 5.609375 -8.78125 C 6.640625 -8.78125 7.390625 -8.515625 7.859375 -7.984375 C 8.328125 -7.460938 8.5625 -6.648438 8.5625 -5.546875 L 8.5625 0 L 7.28125 0 L 7.28125 -5.515625 C 7.28125 -6.035156 7.210938 -6.453125 7.078125 -6.765625 C 6.953125 -7.085938 6.75 -7.316406 6.46875 -7.453125 C 6.1875 -7.597656 5.820312 -7.671875 5.375 -7.671875 C 4.59375 -7.671875 3.960938 -7.414062 3.484375 -6.90625 C 3.015625 -6.40625 2.78125 -5.578125 2.78125 -4.421875 L 2.78125 0 Z M 1.5 0 "/></g></g></g><g fill="#000000" fill-opacity="1"><g transform="translate(73.686481, 242.456922)"><g/></g></g><g fill="#000000" fill-opacity="1"><g transform="translate(77.607398, 242.456922)"><g><path d="M 0.8125 0 L 0.8125 -1.109375 L 3.9375 -1.109375 L 3.9375 -9.84375 L 3.75 -9.890625 C 3.25 -9.640625 2.804688 -9.445312 2.421875 -9.3125 C 2.046875 -9.1875 1.5625 -9.0625 0.96875 -8.9375 L 0.96875 -10.171875 C 1.550781 -10.296875 2.128906 -10.460938 2.703125 -10.671875 C 3.285156 -10.890625 3.8125 -11.140625 4.28125 -11.421875 L 5.25 -11.421875 L 5.25 -1.109375 L 8.03125 -1.109375 L 8.03125 0 Z M 0.8125 0 "/></g></g></g><g fill="#000000" fill-opacity="1"><g transform="translate(122.056007, 333.849969)"><g><path d="M 10.28125 0 L 8.84375 0 L 7.796875 -3.140625 L 2.921875 -3.140625 L 1.859375 0 L 0.453125 0 L 4.4375 -11.421875 L 6.296875 -11.421875 Z M 5.265625 -10.046875 L 3.296875 -4.265625 L 7.40625 -4.265625 L 5.453125 -10.046875 Z M 5.265625 -10.046875 "/></g></g></g><g fill="#000000" fill-opacity="1"><g transform="translate(132.78776, 333.849969)"><g><path d="M 1.5 0 L 1.5 -8.625 L 2.71875 -8.625 L 2.71875 -7.265625 L 2.875 -7.234375 C 3.28125 -8.210938 4.035156 -8.703125 5.140625 -8.703125 C 5.734375 -8.703125 6.175781 -8.59375 6.46875 -8.375 L 6.140625 -7.296875 L 5.984375 -7.265625 C 5.660156 -7.429688 5.304688 -7.515625 4.921875 -7.515625 C 4.234375 -7.515625 3.703125 -7.253906 3.328125 -6.734375 C 2.960938 -6.222656 2.78125 -5.390625 2.78125 -4.234375 L 2.78125 0 Z M 1.5 0 "/></g></g></g><g fill="#000000" fill-opacity="1"><g transform="translate(139.442385, 333.849969)"><g><path d="M 4.953125 0.171875 C 4.191406 0.171875 3.507812 0 2.90625 -0.34375 C 2.300781 -0.695312 1.820312 -1.210938 1.46875 -1.890625 C 1.125 -2.566406 0.953125 -3.375 0.953125 -4.3125 C 0.953125 -5.25 1.125 -6.054688 1.46875 -6.734375 C 1.820312 -7.410156 2.300781 -7.921875 2.90625 -8.265625 C 3.507812 -8.609375 4.191406 -8.78125 4.953125 -8.78125 C 5.859375 -8.78125 6.582031 -8.609375 7.125 -8.265625 C 7.664062 -7.921875 8.054688 -7.460938 8.296875 -6.890625 L 7.421875 -6.265625 L 7.265625 -6.265625 C 7.035156 -6.742188 6.734375 -7.09375 6.359375 -7.3125 C 5.992188 -7.53125 5.523438 -7.640625 4.953125 -7.640625 C 4.421875 -7.640625 3.953125 -7.515625 3.546875 -7.265625 C 3.148438 -7.015625 2.835938 -6.640625 2.609375 -6.140625 C 2.390625 -5.640625 2.28125 -5.03125 2.28125 -4.3125 C 2.28125 -3.59375 2.390625 -2.984375 2.609375 -2.484375 C 2.835938 -1.984375 3.148438 -1.609375 3.546875 -1.359375 C 3.953125 -1.109375 4.421875 -0.984375 4.953125 -0.984375 C 5.546875 -0.984375 6.039062 -1.117188 6.4375 -1.390625 C 6.832031 -1.660156 7.140625 -2.085938 7.359375 -2.671875 L 7.53125 -2.671875 L 8.359375 -2.171875 C 8.140625 -1.453125 7.738281 -0.878906 7.15625 -0.453125 C 6.582031 -0.0351562 5.847656 0.171875 4.953125 0.171875 Z M 4.953125 0.171875 "/></g></g></g><g fill="#000000" fill-opacity="1"><g transform="translate(148.323034, 333.849969)"><g><path d="M 1.5 0 L 1.5 -12.078125 L 2.78125 -12.078125 L 2.78125 -7.390625 L 2.9375 -7.359375 C 3.550781 -8.304688 4.441406 -8.78125 5.609375 -8.78125 C 6.640625 -8.78125 7.390625 -8.515625 7.859375 -7.984375 C 8.328125 -7.460938 8.5625 -6.648438 8.5625 -5.546875 L 8.5625 0 L 7.28125 0 L 7.28125 -5.515625 C 7.28125 -6.035156 7.210938 -6.453125 7.078125 -6.765625 C 6.953125 -7.085938 6.75 -7.316406 6.46875 -7.453125 C 6.1875 -7.597656 5.820312 -7.671875 5.375 -7.671875 C 4.59375 -7.671875 3.960938 -7.414062 3.484375 -6.90625 C 3.015625 -6.40625 2.78125 -5.578125 2.78125 -4.421875 L 2.78125 0 Z M 1.5 0 "/></g></g></g><g fill="#000000" fill-opacity="1"><g transform="translate(158.242486, 333.849969)"><g/></g></g><g fill="#000000" fill-opacity="1"><g transform="translate(162.163403, 333.849969)"><g><path d="M 0.8125 0 L 0.8125 -1.109375 L 3.9375 -1.109375 L 3.9375 -9.84375 L 3.75 -9.890625 C 3.25 -9.640625 2.804688 -9.445312 2.421875 -9.3125 C 2.046875 -9.1875 1.5625 -9.0625 0.96875 -8.9375 L 0.96875 -10.171875 C 1.550781 -10.296875 2.128906 -10.460938 2.703125 -10.671875 C 3.285156 -10.890625 3.8125 -11.140625 4.28125 -11.421875 L 5.25 -11.421875 L 5.25 -1.109375 L 8.03125 -1.109375 L 8.03125 0 Z M 0.8125 0 "/></g></g></g></svg>