<svg xmlns="http://www.w3.org/2000/svg" xmlns:xlink="http://www.w3.org/1999/xlink" width="500" zoomAndPan="magnify" viewBox="0 0 375 374.999991" height="500" preserveAspectRatio="xMidYMid meet" version="1.0"><path fill="#3c7c79" d="M 115.886719 161.222656 C 113.78125 167 112.351562 173.109375 111.695312 179.449219 L 87.847656 174.050781 C 87.269531 178.410156 86.96875 182.863281 86.96875 187.378906 C 86.96875 191.894531 87.261719 196.160156 87.8125 200.433594 L 2.84375 220.042969 C 0.972656 209.4375 0 198.515625 0 187.378906 C 0 176.242188 0.964844 165.394531 2.824219 154.816406 C 3.898438 148.625 5.292969 142.539062 6.96875 136.570312 C 12.960938 115.191406 22.660156 95.367188 35.3125 77.824219 L 103.53125 132.089844 C 98.707031 139.394531 94.816406 147.363281 92.027344 155.824219 Z M 115.886719 161.222656 " fill-opacity="1" fill-rule="nonzero"/><path fill="#c63461" d="M 135.65625 273.527344 L 98.109375 352.238281 C 78.796875 341.746094 61.535156 327.953125 47.066406 311.625 C 42.941406 306.957031 39.035156 302.085938 35.386719 297.015625 C 22.714844 279.472656 13.007812 259.65625 6.996094 238.289062 L 91.945312 218.679688 C 94.714844 227.152344 98.585938 235.128906 103.382812 242.441406 L 122.460938 227.121094 C 125.734375 232.480469 129.652344 237.390625 134.113281 241.765625 L 115.042969 257.058594 C 121.140625 263.40625 128.070312 268.953125 135.65625 273.527344 Z M 135.65625 273.527344 " fill-opacity="1" fill-rule="nonzero"/><path fill="#efb467" d="M 178.496094 87.25 C 169.527344 88.046875 160.886719 90.019531 152.75 93.011719 L 163.382812 115.054688 C 157.386719 117.054688 151.730469 119.777344 146.511719 123.113281 L 135.886719 101.089844 C 128.292969 105.636719 121.347656 111.164062 115.230469 117.492188 L 46.992188 63.207031 C 61.449219 46.871094 78.703125 33.078125 98.015625 22.574219 C 103.476562 19.601562 109.097656 16.890625 114.867188 14.46875 C 134.589844 6.171875 156.023438 1.148438 178.496094 0.09375 Z M 178.496094 87.25 " fill-opacity="1" fill-rule="nonzero"/><path fill="#c63461" d="M 327.382812 62.515625 L 259.636719 117.371094 C 253.523438 111.058594 246.566406 105.542969 238.960938 101.007812 L 228.527344 123.132812 C 223.296875 119.785156 217.640625 117.0625 211.644531 115.070312 L 222.074219 92.945312 C 214.199219 90.066406 205.855469 88.140625 197.199219 87.316406 L 197.199219 0.121094 C 219.089844 1.242188 239.992188 6.105469 259.265625 14.101562 C 265.054688 16.496094 270.691406 19.179688 276.164062 22.125 C 295.53125 32.535156 312.859375 46.253906 327.382812 62.515625 Z M 327.382812 62.515625 " fill-opacity="1" fill-rule="nonzero"/><path fill="#85d4dd" d="M 260.882812 359.972656 C 241.195312 368.359375 219.773438 373.464844 197.308594 374.625 C 194.054688 374.792969 190.792969 374.878906 187.5 374.878906 C 184.515625 374.878906 181.550781 374.8125 178.605469 374.664062 C 156.132812 373.625 134.691406 368.613281 114.96875 360.328125 L 152.496094 281.652344 L 152.507812 281.652344 C 160.632812 284.671875 169.253906 286.664062 178.222656 287.476562 L 178.121094 263.023438 C 181.1875 263.398438 184.320312 263.59375 187.5 263.59375 C 190.679688 263.59375 193.765625 263.398438 196.824219 263.03125 L 196.925781 287.46875 C 205.902344 286.636719 214.527344 284.625 222.652344 281.585938 Z M 260.882812 359.972656 " fill-opacity="1" fill-rule="nonzero"/><path fill="#efb467" d="M 368.257812 237.382812 C 362.347656 258.789062 352.742188 278.660156 340.15625 296.257812 C 336.527344 301.335938 332.65625 306.226562 328.542969 310.914062 C 314.167969 327.324219 296.960938 341.203125 277.695312 351.789062 L 239.484375 273.441406 C 247.058594 268.851562 253.980469 263.292969 260.058594 256.9375 L 240.859375 241.796875 C 245.320312 237.429688 249.238281 232.519531 252.511719 227.167969 L 271.703125 242.300781 C 276.488281 234.976562 280.34375 226.992188 283.101562 218.511719 Z M 368.257812 237.382812 " fill-opacity="1" fill-rule="nonzero"/><path fill="#3c7c79" d="M 375 187.378906 C 375 198.199219 374.082031 208.804688 372.316406 219.128906 L 287.207031 200.253906 C 287.738281 196.039062 288.019531 191.746094 288.019531 187.378906 C 288.019531 183.011719 287.710938 178.296875 287.113281 173.882812 L 263.3125 179.484375 C 262.660156 173.144531 261.226562 167.039062 259.125 161.257812 L 282.90625 155.667969 C 280.109375 147.203125 276.199219 139.234375 271.367188 131.941406 L 339.136719 77.058594 C 351.882812 94.554688 361.675781 114.332031 367.78125 135.683594 C 369.484375 141.628906 370.902344 147.707031 372.015625 153.890625 C 373.980469 164.757812 375 175.949219 375 187.378906 Z M 375 187.378906 " fill-opacity="1" fill-rule="nonzero"/><path fill="#dddddd" d="M 263.3125 179.484375 C 262.660156 173.144531 261.226562 167.039062 259.125 161.257812 C 257.335938 156.359375 255.066406 151.703125 252.351562 147.335938 C 249.0625 141.996094 245.117188 137.105469 240.644531 132.753906 C 236.953125 129.15625 232.894531 125.929688 228.527344 123.132812 C 223.296875 119.785156 217.640625 117.0625 211.644531 115.070312 C 207.015625 113.519531 202.183594 112.40625 197.199219 111.769531 C 194.027344 111.367188 190.78125 111.164062 187.5 111.164062 C 184.453125 111.164062 181.449219 111.339844 178.496094 111.695312 C 173.277344 112.304688 168.21875 113.445312 163.382812 115.054688 C 157.386719 117.054688 151.730469 119.777344 146.511719 123.113281 C 142.144531 125.902344 138.078125 129.128906 134.382812 132.726562 C 129.902344 137.074219 125.957031 141.96875 122.664062 147.308594 C 119.953125 151.664062 117.679688 156.320312 115.886719 161.222656 C 113.78125 167 112.351562 173.109375 111.695312 179.449219 C 111.425781 182.046875 111.285156 184.695312 111.285156 187.378906 C 111.285156 189.921875 111.40625 192.445312 111.660156 194.925781 C 112.277344 201.273438 113.679688 207.390625 115.765625 213.179688 C 117.523438 218.078125 119.777344 222.746094 122.460938 227.121094 C 125.734375 232.480469 129.652344 237.390625 134.113281 241.765625 C 137.785156 245.386719 141.835938 248.632812 146.195312 251.4375 C 151.394531 254.804688 157.042969 257.554688 163.027344 259.582031 C 167.851562 261.21875 172.902344 262.378906 178.121094 263.023438 C 181.1875 263.398438 184.320312 263.59375 187.5 263.59375 C 190.679688 263.59375 193.765625 263.398438 196.824219 263.03125 C 202.042969 262.398438 207.089844 261.226562 211.925781 259.601562 C 217.910156 257.570312 223.558594 254.832031 228.769531 251.464844 C 233.125 248.660156 237.175781 245.414062 240.859375 241.796875 C 245.320312 237.429688 249.238281 232.519531 252.511719 227.167969 C 255.207031 222.792969 257.460938 218.117188 259.226562 213.21875 C 261.3125 207.429688 262.714844 201.3125 263.339844 194.960938 C 263.59375 192.464844 263.714844 189.941406 263.714844 187.378906 C 263.714844 184.816406 263.574219 182.074219 263.3125 179.484375 Z M 263.3125 179.484375 " fill-opacity="1" fill-rule="nonzero"/><path fill="#3c7c79" d="M 115.886719 161.222656 C 113.78125 167 112.351562 173.109375 111.695312 179.449219 L 87.847656 174.050781 C 87.269531 178.410156 86.96875 182.863281 86.96875 187.378906 C 86.96875 191.894531 87.261719 196.160156 87.8125 200.433594 L 2.84375 220.042969 C 0.972656 209.4375 0 198.515625 0 187.378906 C 0 176.242188 0.964844 165.394531 2.824219 154.816406 C 3.898438 148.625 5.292969 142.539062 6.96875 136.570312 C 12.960938 115.191406 22.660156 95.367188 35.3125 77.824219 L 103.53125 132.089844 C 98.707031 139.394531 94.816406 147.363281 92.027344 155.824219 Z M 115.886719 161.222656 " fill-opacity="1" fill-rule="nonzero"/><path fill="#c63461" d="M 135.65625 273.527344 L 98.109375 352.238281 C 78.796875 341.746094 61.535156 327.953125 47.066406 311.625 C 42.941406 306.957031 39.035156 302.085938 35.386719 297.015625 C 22.714844 279.472656 13.007812 259.65625 6.996094 238.289062 L 91.945312 218.679688 C 94.714844 227.152344 98.585938 235.128906 103.382812 242.441406 L 122.460938 227.121094 C 125.734375 232.480469 129.652344 237.390625 134.113281 241.765625 L 115.042969 257.058594 C 121.140625 263.40625 128.070312 268.953125 135.65625 273.527344 Z M 135.65625 273.527344 " fill-opacity="1" fill-rule="nonzero"/><path fill="#efb467" d="M 178.496094 87.25 C 169.527344 88.046875 160.886719 90.019531 152.75 93.011719 L 163.382812 115.054688 C 157.386719 117.054688 151.730469 119.777344 146.511719 123.113281 L 135.886719 101.089844 C 128.292969 105.636719 121.347656 111.164062 115.230469 117.492188 L 46.992188 63.207031 C 61.449219 46.871094 78.703125 33.078125 98.015625 22.574219 C 103.476562 19.601562 109.097656 16.890625 114.867188 14.46875 C 134.589844 6.171875 156.023438 1.148438 178.496094 0.09375 Z M 178.496094 87.25 " fill-opacity="1" fill-rule="nonzero"/><path fill="#c63461" d="M 327.382812 62.515625 L 259.636719 117.371094 C 253.523438 111.058594 246.566406 105.542969 238.960938 101.007812 L 228.527344 123.132812 C 223.296875 119.785156 217.640625 117.0625 211.644531 115.070312 L 222.074219 92.945312 C 214.199219 90.066406 205.855469 88.140625 197.199219 87.316406 L 197.199219 0.121094 C 219.089844 1.242188 239.992188 6.105469 259.265625 14.101562 C 265.054688 16.496094 270.691406 19.179688 276.164062 22.125 C 295.53125 32.535156 312.859375 46.253906 327.382812 62.515625 Z M 327.382812 62.515625 " fill-opacity="1" fill-rule="nonzero"/><path fill="#85d4dd" d="M 260.882812 359.972656 C 241.195312 368.359375 219.773438 373.464844 197.308594 374.625 C 194.054688 374.792969 190.792969 374.878906 187.5 374.878906 C 184.515625 374.878906 181.550781 374.8125 178.605469 374.664062 C 156.132812 373.625 134.691406 368.613281 114.96875 360.328125 L 152.496094 281.652344 L 152.507812 281.652344 C 160.632812 284.671875 169.253906 286.664062 178.222656 287.476562 L 178.121094 263.023438 C 181.1875 263.398438 184.320312 263.59375 187.5 263.59375 C 190.679688 263.59375 193.765625 263.398438 196.824219 263.03125 L 196.925781 287.46875 C 205.902344 286.636719 214.527344 284.625 222.652344 281.585938 Z M 260.882812 359.972656 " fill-opacity="1" fill-rule="nonzero"/><path fill="#efb467" d="M 368.257812 237.382812 C 362.347656 258.789062 352.742188 278.660156 340.15625 296.257812 C 336.527344 301.335938 332.65625 306.226562 328.542969 310.914062 C 314.167969 327.324219 296.960938 341.203125 277.695312 351.789062 L 239.484375 273.441406 C 247.058594 268.851562 253.980469 263.292969 260.058594 256.9375 L 240.859375 241.796875 C 245.320312 237.429688 249.238281 232.519531 252.511719 227.167969 L 271.703125 242.300781 C 276.488281 234.976562 280.34375 226.992188 283.101562 218.511719 Z M 368.257812 237.382812 " fill-opacity="1" fill-rule="nonzero"/><path fill="#3c7c79" d="M 375 187.378906 C 375 198.199219 374.082031 208.804688 372.316406 219.128906 L 287.207031 200.253906 C 287.738281 196.039062 288.019531 191.746094 288.019531 187.378906 C 288.019531 183.011719 287.710938 178.296875 287.113281 173.882812 L 263.3125 179.484375 C 262.660156 173.144531 261.226562 167.039062 259.125 161.257812 L 282.90625 155.667969 C 280.109375 147.203125 276.199219 139.234375 271.367188 131.941406 L 339.136719 77.058594 C 351.882812 94.554688 361.675781 114.332031 367.78125 135.683594 C 369.484375 141.628906 370.902344 147.707031 372.015625 153.890625 C 373.980469 164.757812 375 175.949219 375 187.378906 Z M 375 187.378906 " fill-opacity="1" fill-rule="nonzero"/><path fill="#dddddd" d="M 263.3125 179.484375 C 262.660156 173.144531 261.226562 167.039062 259.125 161.257812 C 257.335938 156.359375 255.066406 151.703125 252.351562 147.335938 C 249.0625 141.996094 245.117188 137.105469 240.644531 132.753906 C 236.953125 129.15625 232.894531 125.929688 228.527344 123.132812 C 223.296875 119.785156 217.640625 117.0625 211.644531 115.070312 C 207.015625 113.519531 202.183594 112.40625 197.199219 111.769531 C 194.027344 111.367188 190.78125 111.164062 187.5 111.164062 C 184.453125 111.164062 181.449219 111.339844 178.496094 111.695312 C 173.277344 112.304688 168.21875 113.445312 163.382812 115.054688 C 157.386719 117.054688 151.730469 119.777344 146.511719 123.113281 C 142.144531 125.902344 138.078125 129.128906 134.382812 132.726562 C 129.902344 137.074219 125.957031 141.96875 122.664062 147.308594 C 119.953125 151.664062 117.679688 156.320312 115.886719 161.222656 C 113.78125 167 112.351562 173.109375 111.695312 179.449219 C 111.425781 182.046875 111.285156 184.695312 111.285156 187.378906 C 111.285156 189.921875 111.40625 192.445312 111.660156 194.925781 C 112.277344 201.273438 113.679688 207.390625 115.765625 213.179688 C 117.523438 218.078125 119.777344 222.746094 122.460938 227.121094 C 125.734375 232.480469 129.652344 237.390625 134.113281 241.765625 C 137.785156 245.386719 141.835938 248.632812 146.195312 251.4375 C 151.394531 254.804688 157.042969 257.554688 163.027344 259.582031 C 167.851562 261.21875 172.902344 262.378906 178.121094 263.023438 C 181.1875 263.398438 184.320312 263.59375 187.5 263.59375 C 190.679688 263.59375 193.765625 263.398438 196.824219 263.03125 C 202.042969 262.398438 207.089844 261.226562 211.925781 259.601562 C 217.910156 257.570312 223.558594 254.832031 228.769531 251.464844 C 233.125 248.660156 237.175781 245.414062 240.859375 241.796875 C 245.320312 237.429688 249.238281 232.519531 252.511719 227.167969 C 255.207031 222.792969 257.460938 218.117188 259.226562 213.21875 C 261.3125 207.429688 262.714844 201.3125 263.339844 194.960938 C 263.59375 192.464844 263.714844 189.941406 263.714844 187.378906 C 263.714844 184.816406 263.574219 182.074219 263.3125 179.484375 Z M 263.3125 179.484375 " fill-opacity="1" fill-rule="nonzero"/></svg>