<svg xmlns="http://www.w3.org/2000/svg" xmlns:xlink="http://www.w3.org/1999/xlink" width="200" zoomAndPan="magnify" viewBox="0 0 150 149.999998" height="200" preserveAspectRatio="xMidYMid meet" version="1.0"><defs><g/><clipPath id="831f51a72c"><path d="M 21.675781 68.90625 L 114.042969 68.90625 L 114.042969 74.191406 L 21.675781 74.191406 Z M 21.675781 68.90625 " clip-rule="nonzero"/></clipPath><clipPath id="fc21b9e8cc"><path d="M 24.316406 68.90625 L 111.386719 68.90625 C 112.085938 68.90625 112.757812 69.183594 113.253906 69.679688 C 113.75 70.175781 114.027344 70.847656 114.027344 71.546875 C 114.027344 72.25 113.75 72.921875 113.253906 73.417969 C 112.757812 73.910156 112.085938 74.191406 111.386719 74.191406 L 24.316406 74.191406 C 23.617188 74.191406 22.945312 73.910156 22.449219 73.417969 C 21.953125 72.921875 21.675781 72.25 21.675781 71.546875 C 21.675781 70.847656 21.953125 70.175781 22.449219 69.679688 C 22.945312 69.183594 23.617188 68.90625 24.316406 68.90625 Z M 24.316406 68.90625 " clip-rule="nonzero"/></clipPath></defs><rect x="-15" width="180" fill="#000000" y="-15" height="179.999997" fill-opacity="1"/><g fill="#ffffff" fill-opacity="1"><g transform="translate(28.441406, 108.297895)"><g><path d="M 4.71875 -13.609375 L 4.71875 -62 C 4.71875 -66.476562 5.882812 -69.863281 8.21875 -72.15625 C 10.550781 -74.457031 13.925781 -75.609375 18.34375 -75.609375 L 28.921875 -75.609375 C 33.390625 -75.609375 36.773438 -74.457031 39.078125 -72.15625 C 41.378906 -69.863281 42.53125 -66.476562 42.53125 -62 L 42.53125 -13.609375 C 42.53125 -9.203125 41.378906 -5.832031 39.078125 -3.5 C 36.773438 -1.164062 33.390625 0 28.921875 0 L 18.34375 0 C 13.925781 0 10.550781 -1.164062 8.21875 -3.5 C 5.882812 -5.832031 4.71875 -9.203125 4.71875 -13.609375 Z M 21.078125 -12.1875 L 26.5625 -12.1875 C 29.082031 -12.1875 30.34375 -13.445312 30.34375 -15.96875 L 30.34375 -59.640625 C 30.34375 -62.160156 29.082031 -63.421875 26.5625 -63.421875 L 21.078125 -63.421875 C 18.554688 -63.421875 17.296875 -62.160156 17.296875 -59.640625 L 17.296875 -15.96875 C 17.296875 -13.445312 18.554688 -12.1875 21.078125 -12.1875 Z M 21.078125 -12.1875 "/></g></g></g><g fill="#ffffff" fill-opacity="1"><g transform="translate(75.697274, 108.297895)"><g><path d="M 6.515625 -73.25 L 23.90625 -75.609375 C 24.914062 -75.609375 25.421875 -75.101562 25.421875 -74.09375 L 25.421875 -1.515625 C 25.421875 -0.503906 24.914062 0 23.90625 0 L 14.078125 0 C 13.078125 0 12.578125 -0.503906 12.578125 -1.515625 L 12.578125 -61.25 L 6.703125 -60.484375 C 5.378906 -60.296875 4.71875 -60.863281 4.71875 -62.1875 L 4.71875 -71.265625 C 4.71875 -72.523438 5.316406 -73.1875 6.515625 -73.25 Z M 6.515625 -73.25 "/></g></g></g><g fill="#ffffff" fill-opacity="1"><g transform="translate(106.791636, 108.297895)"><g><path d="M 4.71875 -1.890625 L 4.71875 -10.578125 C 4.71875 -11.835938 5.347656 -12.46875 6.609375 -12.46875 L 15.21875 -12.46875 C 16.476562 -12.46875 17.109375 -11.835938 17.109375 -10.578125 L 17.109375 -1.890625 C 17.109375 -0.628906 16.476562 0 15.21875 0 L 6.609375 0 C 5.347656 0 4.71875 -0.628906 4.71875 -1.890625 Z M 4.71875 -1.890625 "/></g></g></g><g clip-path="url(#831f51a72c)"><g clip-path="url(#fc21b9e8cc)"><path fill="#000000" d="M 21.675781 68.90625 L 114.019531 68.90625 L 114.019531 74.191406 L 21.675781 74.191406 Z M 21.675781 68.90625 " fill-opacity="1" fill-rule="nonzero"/></g></g></svg>