<svg xmlns="http://www.w3.org/2000/svg" xmlns:xlink="http://www.w3.org/1999/xlink" width="200" zoomAndPan="magnify" viewBox="0 0 150 149.999998" height="200" preserveAspectRatio="xMidYMid meet" version="1.0"><defs><g/></defs><rect x="-15" width="180" fill="#ffffff" y="-15" height="179.999997" fill-opacity="1"/><rect x="-15" width="180" fill="#ffffff" y="-15" height="179.999997" fill-opacity="1"/><rect x="-15" width="180" fill="#000000" y="-15" height="179.999997" fill-opacity="1"/><g fill="#ffffff" fill-opacity="1"><g transform="translate(36.011718, 112.499995)"><g><path d="M 23.34375 0.75 C 16.476562 0.75 11.1875 -1.1875 7.46875 -5.0625 C 3.75 -8.9375 1.890625 -14.460938 1.890625 -21.640625 L 1.890625 -58.3125 C 1.890625 -66 3.6875 -71.859375 7.28125 -75.890625 C 10.875 -79.921875 16.226562 -81.9375 23.34375 -81.9375 C 30.53125 -81.9375 35.914062 -79.921875 39.5 -75.890625 C 43.09375 -71.859375 44.890625 -66 44.890625 -58.3125 L 44.890625 -21.640625 C 44.890625 -14.398438 43.03125 -8.859375 39.3125 -5.015625 C 35.59375 -1.171875 30.269531 0.75 23.34375 0.75 Z M 23.34375 -14.171875 C 24.539062 -14.171875 25.515625 -14.722656 26.265625 -15.828125 C 27.023438 -16.929688 27.40625 -18.238281 27.40625 -19.75 L 27.40625 -59.828125 C 27.40625 -62.160156 27.132812 -63.941406 26.59375 -65.171875 C 26.0625 -66.398438 24.976562 -67.015625 23.34375 -67.015625 C 21.707031 -67.015625 20.632812 -66.398438 20.125 -65.171875 C 19.625 -63.941406 19.375 -62.160156 19.375 -59.828125 L 19.375 -19.75 C 19.375 -18.238281 19.734375 -16.929688 20.453125 -15.828125 C 21.179688 -14.722656 22.144531 -14.171875 23.34375 -14.171875 Z M 23.34375 -14.171875 "/></g></g></g><g fill="#ffffff" fill-opacity="1"><g transform="translate(82.70052, 112.499995)"><g><path d="M 11.15625 -62.5625 C 10.082031 -61.238281 8.582031 -60.164062 6.65625 -59.34375 C 4.738281 -58.53125 2.898438 -58.125 1.140625 -58.125 L 1.140625 -71.078125 C 3.910156 -71.515625 6.664062 -72.613281 9.40625 -74.375 C 12.144531 -76.144531 14.113281 -78.445312 15.3125 -81.28125 L 28.359375 -81.28125 L 28.359375 0 L 11.15625 0 Z M 11.15625 -62.5625 "/></g></g></g></svg>