<svg xmlns="http://www.w3.org/2000/svg" xmlns:xlink="http://www.w3.org/1999/xlink" width="150" zoomAndPan="magnify" viewBox="0 0 112.5 37.5" height="50" preserveAspectRatio="xMidYMid meet" version="1.0"><defs><clipPath id="1d641db094"><path d="M 0.492188 10 L 56 10 L 56 12 L 0.492188 12 Z M 0.492188 10 " clip-rule="nonzero"/></clipPath><clipPath id="22960d7c24"><path d="M 0.492188 18 L 56 18 L 56 19 L 0.492188 19 Z M 0.492188 18 " clip-rule="nonzero"/></clipPath><clipPath id="259a89b270"><path d="M 0.492188 25 L 33 25 L 33 27 L 0.492188 27 Z M 0.492188 25 " clip-rule="nonzero"/></clipPath><clipPath id="e3fafa66ff"><path d="M 107 24 L 111.511719 24 L 111.511719 28 L 107 28 Z M 107 24 " clip-rule="nonzero"/></clipPath><clipPath id="6e9f5314ad"><path d="M 78 0.878906 L 83 0.878906 L 83 5 L 78 5 Z M 78 0.878906 " clip-rule="nonzero"/></clipPath><clipPath id="0328072625"><path d="M 55 32 L 60 32 L 60 36.40625 L 55 36.40625 Z M 55 32 " clip-rule="nonzero"/></clipPath><clipPath id="5c66aea57e"><path d="M 0.492188 10 L 56 10 L 56 12 L 0.492188 12 Z M 0.492188 10 " clip-rule="nonzero"/></clipPath><clipPath id="b93b54be82"><path d="M 0.492188 18 L 56 18 L 56 19 L 0.492188 19 Z M 0.492188 18 " clip-rule="nonzero"/></clipPath><clipPath id="2775918f2d"><path d="M 0.492188 25 L 33 25 L 33 27 L 0.492188 27 Z M 0.492188 25 " clip-rule="nonzero"/></clipPath><clipPath id="684d464711"><path d="M 100 32 L 104 32 L 104 36.40625 L 100 36.40625 Z M 100 32 " clip-rule="nonzero"/></clipPath><clipPath id="a119e01a7d"><path d="M 107 24 L 111.511719 24 L 111.511719 29 L 107 29 Z M 107 24 " clip-rule="nonzero"/></clipPath><clipPath id="0b82e80f57"><path d="M 78 0.878906 L 83 0.878906 L 83 5 L 78 5 Z M 78 0.878906 " clip-rule="nonzero"/></clipPath><clipPath id="17acd81305"><path d="M 55 32 L 60 32 L 60 36.40625 L 55 36.40625 Z M 55 32 " clip-rule="nonzero"/></clipPath></defs><path fill="#ebebeb" d="M 78.546875 3.234375 L 55.242188 3.234375 C 55.035156 3.234375 54.871094 3.066406 54.871094 2.863281 C 54.871094 2.65625 55.035156 2.492188 55.242188 2.492188 L 78.546875 2.492188 C 78.753906 2.492188 78.917969 2.65625 78.917969 2.863281 C 78.917969 3.066406 78.753906 3.234375 78.546875 3.234375 Z M 78.546875 3.234375 " fill-opacity="1" fill-rule="nonzero"/><path fill="#ebebeb" d="M 55.503906 3.125 L 47.734375 10.894531 C 47.589844 11.039062 47.355469 11.039062 47.210938 10.894531 C 47.0625 10.75 47.0625 10.515625 47.210938 10.367188 L 54.976562 2.601562 C 55.125 2.457031 55.359375 2.457031 55.503906 2.601562 C 55.648438 2.746094 55.648438 2.980469 55.503906 3.125 Z M 55.503906 3.125 " fill-opacity="1" fill-rule="nonzero"/><g clip-path="url(#1d641db094)"><path fill="#ebebeb" d="M 0.859375 10.261719 L 55.242188 10.261719 C 55.445312 10.261719 55.613281 10.425781 55.613281 10.632812 C 55.613281 10.835938 55.445312 11.003906 55.242188 11.003906 L 0.859375 11.003906 C 0.65625 11.003906 0.488281 10.835938 0.488281 10.632812 C 0.488281 10.425781 0.65625 10.261719 0.859375 10.261719 Z M 0.859375 10.261719 " fill-opacity="1" fill-rule="nonzero"/></g><path fill="#ebebeb" d="M 55.503906 10.367188 L 71.039062 25.90625 C 71.1875 26.050781 71.1875 26.285156 71.039062 26.433594 C 70.894531 26.578125 70.660156 26.578125 70.515625 26.433594 L 54.976562 10.894531 C 54.832031 10.75 54.832031 10.515625 54.976562 10.367188 C 55.125 10.222656 55.359375 10.222656 55.503906 10.367188 Z M 55.503906 10.367188 " fill-opacity="1" fill-rule="nonzero"/><path fill="#ebebeb" d="M 70.777344 25.796875 L 86.316406 25.796875 C 86.519531 25.796875 86.6875 25.964844 86.6875 26.167969 C 86.6875 26.375 86.519531 26.539062 86.316406 26.539062 L 70.777344 26.539062 C 70.574219 26.539062 70.40625 26.375 70.40625 26.167969 C 70.40625 25.964844 70.574219 25.796875 70.777344 25.796875 Z M 70.777344 25.796875 " fill-opacity="1" fill-rule="nonzero"/><path fill="#ebebeb" d="M 62.746094 18.136719 L 70.515625 10.367188 C 70.660156 10.222656 70.894531 10.222656 71.039062 10.367188 C 71.1875 10.515625 71.1875 10.75 71.039062 10.894531 L 63.273438 18.664062 C 63.128906 18.808594 62.890625 18.808594 62.746094 18.664062 C 62.601562 18.519531 62.601562 18.28125 62.746094 18.136719 Z M 62.746094 18.136719 " fill-opacity="1" fill-rule="nonzero"/><path fill="#ebebeb" d="M 70.777344 10.261719 L 94.085938 10.261719 C 94.289062 10.261719 94.457031 10.425781 94.457031 10.632812 C 94.457031 10.835938 94.289062 11.003906 94.085938 11.003906 L 70.777344 11.003906 C 70.574219 11.003906 70.40625 10.835938 70.40625 10.632812 C 70.40625 10.425781 70.574219 10.261719 70.777344 10.261719 Z M 70.777344 10.261719 " fill-opacity="1" fill-rule="nonzero"/><g clip-path="url(#22960d7c24)"><path fill="#ebebeb" d="M 0.859375 18.027344 L 55.242188 18.027344 C 55.445312 18.027344 55.613281 18.195312 55.613281 18.402344 C 55.613281 18.605469 55.445312 18.773438 55.242188 18.773438 L 0.859375 18.773438 C 0.65625 18.773438 0.488281 18.605469 0.488281 18.398438 C 0.488281 18.195312 0.65625 18.027344 0.859375 18.027344 Z M 0.859375 18.027344 " fill-opacity="1" fill-rule="nonzero"/></g><path fill="#ebebeb" d="M 55.503906 18.136719 L 71.039062 33.675781 C 71.1875 33.820312 71.1875 34.054688 71.039062 34.199219 C 70.894531 34.34375 70.660156 34.34375 70.515625 34.199219 L 54.976562 18.664062 C 54.832031 18.519531 54.832031 18.28125 54.976562 18.136719 C 55.125 17.992188 55.359375 17.992188 55.503906 18.136719 Z M 55.503906 18.136719 " fill-opacity="1" fill-rule="nonzero"/><path fill="#ebebeb" d="M 70.777344 33.566406 L 101.851562 33.566406 C 102.058594 33.566406 102.226562 33.734375 102.226562 33.9375 C 102.226562 34.144531 102.058594 34.308594 101.851562 34.308594 L 70.777344 34.308594 C 70.574219 34.308594 70.40625 34.144531 70.40625 33.9375 C 70.40625 33.734375 70.574219 33.566406 70.777344 33.566406 Z M 70.777344 33.566406 " fill-opacity="1" fill-rule="nonzero"/><path fill="#ebebeb" d="M 86.054688 33.675781 L 93.820312 25.90625 C 93.964844 25.761719 94.203125 25.761719 94.347656 25.90625 C 94.492188 26.050781 94.492188 26.285156 94.347656 26.433594 L 86.578125 34.199219 C 86.433594 34.34375 86.199219 34.34375 86.054688 34.199219 C 85.90625 34.054688 85.90625 33.820312 86.054688 33.675781 Z M 86.054688 33.675781 " fill-opacity="1" fill-rule="nonzero"/><path fill="#ebebeb" d="M 94.085938 25.796875 L 109.621094 25.796875 C 109.828125 25.796875 109.992188 25.964844 109.992188 26.167969 C 109.992188 26.375 109.828125 26.539062 109.621094 26.539062 L 94.085938 26.539062 C 93.878906 26.539062 93.710938 26.375 93.710938 26.167969 C 93.710938 25.964844 93.878906 25.796875 94.085938 25.796875 Z M 94.085938 25.796875 " fill-opacity="1" fill-rule="nonzero"/><g clip-path="url(#259a89b270)"><path fill="#ebebeb" d="M 0.859375 25.796875 L 31.933594 25.796875 C 32.140625 25.796875 32.304688 25.964844 32.304688 26.167969 C 32.304688 26.375 32.140625 26.539062 31.933594 26.539062 L 0.859375 26.539062 C 0.65625 26.539062 0.488281 26.375 0.488281 26.167969 C 0.488281 25.964844 0.65625 25.796875 0.859375 25.796875 Z M 0.859375 25.796875 " fill-opacity="1" fill-rule="nonzero"/></g><path fill="#ebebeb" d="M 32.199219 25.90625 L 39.964844 33.675781 C 40.109375 33.820312 40.109375 34.054688 39.964844 34.199219 C 39.820312 34.34375 39.585938 34.34375 39.441406 34.199219 L 31.671875 26.433594 C 31.527344 26.285156 31.527344 26.050781 31.671875 25.90625 C 31.816406 25.761719 32.050781 25.761719 32.199219 25.90625 Z M 32.199219 25.90625 " fill-opacity="1" fill-rule="nonzero"/><path fill="#ebebeb" d="M 39.703125 33.566406 L 55.242188 33.566406 C 55.445312 33.566406 55.613281 33.734375 55.613281 33.9375 C 55.613281 34.144531 55.445312 34.308594 55.242188 34.308594 L 39.703125 34.308594 C 39.5 34.308594 39.332031 34.144531 39.332031 33.9375 C 39.332031 33.734375 39.5 33.566406 39.703125 33.566406 Z M 39.703125 33.566406 " fill-opacity="1" fill-rule="nonzero"/><path fill="#ebebeb" d="M 95.90625 10.742188 C 95.84375 11.75 94.980469 12.515625 93.972656 12.453125 C 92.964844 12.390625 92.199219 11.527344 92.261719 10.519531 C 92.324219 9.511719 93.191406 8.746094 94.195312 8.808594 C 95.203125 8.871094 95.96875 9.738281 95.90625 10.742188 Z M 95.90625 10.742188 " fill-opacity="1" fill-rule="nonzero"/><path fill="#ebebeb" d="M 88.136719 26.28125 C 88.074219 27.289062 87.210938 28.054688 86.203125 27.992188 C 85.195312 27.929688 84.429688 27.0625 84.492188 26.058594 C 84.554688 25.050781 85.421875 24.285156 86.425781 24.347656 C 87.433594 24.410156 88.199219 25.273438 88.136719 26.28125 Z M 88.136719 26.28125 " fill-opacity="1" fill-rule="nonzero"/><path fill="#ebebeb" d="M 103.675781 34.050781 C 103.613281 35.054688 102.746094 35.820312 101.742188 35.761719 C 100.734375 35.699219 99.96875 34.832031 100.03125 33.824219 C 100.09375 32.820312 100.957031 32.054688 101.964844 32.117188 C 102.972656 32.175781 103.738281 33.042969 103.675781 34.050781 Z M 103.675781 34.050781 " fill-opacity="1" fill-rule="nonzero"/><g clip-path="url(#e3fafa66ff)"><path fill="#ebebeb" d="M 111.445312 26.28125 C 111.382812 27.289062 110.515625 28.054688 109.511719 27.992188 C 108.503906 27.929688 107.738281 27.0625 107.800781 26.058594 C 107.863281 25.050781 108.726562 24.285156 109.734375 24.347656 C 110.742188 24.410156 111.507812 25.273438 111.445312 26.28125 Z M 111.445312 26.28125 " fill-opacity="1" fill-rule="nonzero"/></g><g clip-path="url(#6e9f5314ad)"><path fill="#ebebeb" d="M 82.460938 3.097656 C 82.386719 4.179688 81.445312 4.996094 80.359375 4.921875 C 79.273438 4.84375 78.457031 3.902344 78.535156 2.816406 C 78.609375 1.734375 79.550781 0.917969 80.636719 0.992188 C 81.722656 1.070312 82.539062 2.011719 82.460938 3.097656 M 81.679688 3.042969 C 81.726562 2.386719 81.234375 1.820312 80.582031 1.773438 C 79.929688 1.730469 79.363281 2.21875 79.316406 2.875 C 79.269531 3.527344 79.761719 4.09375 80.414062 4.140625 C 81.066406 4.1875 81.632812 3.695312 81.679688 3.042969 Z M 81.679688 3.042969 " fill-opacity="1" fill-rule="nonzero"/></g><g clip-path="url(#0328072625)"><path fill="#ebebeb" d="M 59.082031 34.175781 C 59.007812 35.257812 58.066406 36.078125 56.980469 36 C 55.894531 35.921875 55.078125 34.980469 55.15625 33.894531 C 55.234375 32.8125 56.175781 31.996094 57.257812 32.070312 C 58.34375 32.148438 59.160156 33.089844 59.082031 34.175781 M 58.300781 34.121094 C 58.347656 33.464844 57.855469 32.898438 57.203125 32.851562 C 56.550781 32.808594 55.984375 33.300781 55.9375 33.953125 C 55.890625 34.605469 56.382812 35.171875 57.035156 35.21875 C 57.6875 35.265625 58.253906 34.773438 58.300781 34.121094 Z M 58.300781 34.121094 " fill-opacity="1" fill-rule="nonzero"/></g><path fill="#000000" d="M 78.546875 3.253906 L 55.242188 3.253906 C 55.035156 3.253906 54.871094 3.085938 54.871094 2.878906 C 54.871094 2.671875 55.035156 2.503906 55.242188 2.503906 L 78.546875 2.503906 C 78.753906 2.503906 78.917969 2.671875 78.917969 2.878906 C 78.917969 3.085938 78.753906 3.253906 78.546875 3.253906 Z M 78.546875 3.253906 " fill-opacity="1" fill-rule="nonzero"/><path fill="#000000" d="M 55.503906 3.144531 L 47.734375 10.972656 C 47.589844 11.121094 47.355469 11.121094 47.210938 10.972656 C 47.0625 10.828125 47.0625 10.589844 47.210938 10.445312 L 54.976562 2.613281 C 55.125 2.46875 55.359375 2.46875 55.503906 2.613281 C 55.648438 2.761719 55.648438 2.996094 55.503906 3.144531 Z M 55.503906 3.144531 " fill-opacity="1" fill-rule="nonzero"/><g clip-path="url(#5c66aea57e)"><path fill="#000000" d="M 0.859375 10.332031 L 55.242188 10.332031 C 55.445312 10.332031 55.613281 10.5 55.613281 10.707031 C 55.613281 10.914062 55.445312 11.082031 55.242188 11.082031 L 0.859375 11.082031 C 0.65625 11.082031 0.488281 10.914062 0.488281 10.707031 C 0.488281 10.5 0.65625 10.332031 0.859375 10.332031 Z M 0.859375 10.332031 " fill-opacity="1" fill-rule="nonzero"/></g><path fill="#000000" d="M 55.503906 10.445312 L 71.039062 26.101562 C 71.1875 26.25 71.1875 26.488281 71.039062 26.632812 C 70.894531 26.777344 70.660156 26.777344 70.515625 26.632812 L 54.976562 10.972656 C 54.832031 10.828125 54.832031 10.589844 54.976562 10.445312 C 55.125 10.296875 55.359375 10.296875 55.503906 10.445312 Z M 55.503906 10.445312 " fill-opacity="1" fill-rule="nonzero"/><path fill="#000000" d="M 70.777344 25.992188 L 86.316406 25.992188 C 86.519531 25.992188 86.6875 26.160156 86.6875 26.367188 C 86.6875 26.574219 86.519531 26.742188 86.316406 26.742188 L 70.777344 26.742188 C 70.574219 26.742188 70.40625 26.574219 70.40625 26.367188 C 70.40625 26.160156 70.574219 25.992188 70.777344 25.992188 Z M 70.777344 25.992188 " fill-opacity="1" fill-rule="nonzero"/><path fill="#000000" d="M 62.746094 18.273438 L 70.515625 10.445312 C 70.660156 10.296875 70.894531 10.296875 71.039062 10.445312 C 71.1875 10.589844 71.1875 10.828125 71.039062 10.972656 L 63.273438 18.804688 C 63.128906 18.949219 62.890625 18.949219 62.746094 18.804688 C 62.601562 18.65625 62.601562 18.417969 62.746094 18.273438 Z M 62.746094 18.273438 " fill-opacity="1" fill-rule="nonzero"/><path fill="#000000" d="M 70.777344 10.332031 L 94.085938 10.332031 C 94.289062 10.332031 94.457031 10.5 94.457031 10.707031 C 94.457031 10.914062 94.289062 11.082031 94.085938 11.082031 L 70.777344 11.082031 C 70.574219 11.082031 70.40625 10.914062 70.40625 10.707031 C 70.40625 10.5 70.574219 10.332031 70.777344 10.332031 Z M 70.777344 10.332031 " fill-opacity="1" fill-rule="nonzero"/><g clip-path="url(#b93b54be82)"><path fill="#000000" d="M 0.859375 18.164062 L 55.242188 18.164062 C 55.445312 18.164062 55.613281 18.332031 55.613281 18.539062 C 55.613281 18.746094 55.445312 18.914062 55.242188 18.914062 L 0.859375 18.914062 C 0.65625 18.914062 0.488281 18.746094 0.488281 18.539062 C 0.488281 18.332031 0.65625 18.164062 0.859375 18.164062 Z M 0.859375 18.164062 " fill-opacity="1" fill-rule="nonzero"/></g><path fill="#000000" d="M 55.503906 18.273438 L 71.039062 33.933594 C 71.1875 34.078125 71.1875 34.316406 71.039062 34.460938 C 70.894531 34.609375 70.660156 34.609375 70.515625 34.460938 L 54.976562 18.804688 C 54.832031 18.65625 54.832031 18.417969 54.976562 18.273438 C 55.125 18.128906 55.359375 18.128906 55.503906 18.273438 Z M 55.503906 18.273438 " fill-opacity="1" fill-rule="nonzero"/><path fill="#000000" d="M 70.777344 33.824219 L 101.851562 33.824219 C 102.058594 33.824219 102.226562 33.992188 102.226562 34.199219 C 102.226562 34.40625 102.058594 34.574219 101.851562 34.574219 L 70.777344 34.574219 C 70.574219 34.574219 70.40625 34.40625 70.40625 34.199219 C 70.40625 33.992188 70.574219 33.824219 70.777344 33.824219 Z M 70.777344 33.824219 " fill-opacity="1" fill-rule="nonzero"/><path fill="#000000" d="M 86.054688 33.933594 L 93.820312 26.101562 C 93.964844 25.957031 94.203125 25.957031 94.347656 26.101562 C 94.492188 26.25 94.492188 26.488281 94.347656 26.632812 L 86.578125 34.460938 C 86.433594 34.609375 86.199219 34.609375 86.054688 34.460938 C 85.90625 34.316406 85.90625 34.078125 86.054688 33.933594 Z M 86.054688 33.933594 " fill-opacity="1" fill-rule="nonzero"/><path fill="#000000" d="M 94.085938 25.992188 L 109.621094 25.992188 C 109.828125 25.992188 109.992188 26.160156 109.992188 26.367188 C 109.992188 26.574219 109.828125 26.742188 109.621094 26.742188 L 94.085938 26.742188 C 93.878906 26.742188 93.710938 26.574219 93.710938 26.367188 C 93.710938 26.160156 93.878906 25.992188 94.085938 25.992188 Z M 94.085938 25.992188 " fill-opacity="1" fill-rule="nonzero"/><g clip-path="url(#2775918f2d)"><path fill="#000000" d="M 0.859375 25.992188 L 31.933594 25.992188 C 32.140625 25.992188 32.304688 26.160156 32.304688 26.367188 C 32.304688 26.574219 32.140625 26.742188 31.933594 26.742188 L 0.859375 26.742188 C 0.65625 26.742188 0.488281 26.574219 0.488281 26.367188 C 0.488281 26.160156 0.65625 25.992188 0.859375 25.992188 Z M 0.859375 25.992188 " fill-opacity="1" fill-rule="nonzero"/></g><path fill="#000000" d="M 32.199219 26.101562 L 39.964844 33.933594 C 40.109375 34.078125 40.109375 34.316406 39.964844 34.460938 C 39.820312 34.609375 39.585938 34.609375 39.441406 34.460938 L 31.671875 26.632812 C 31.527344 26.488281 31.527344 26.25 31.671875 26.101562 C 31.816406 25.957031 32.050781 25.957031 32.199219 26.101562 Z M 32.199219 26.101562 " fill-opacity="1" fill-rule="nonzero"/><path fill="#000000" d="M 39.703125 33.824219 L 55.242188 33.824219 C 55.445312 33.824219 55.613281 33.992188 55.613281 34.199219 C 55.613281 34.40625 55.445312 34.574219 55.242188 34.574219 L 39.703125 34.574219 C 39.5 34.574219 39.332031 34.40625 39.332031 34.199219 C 39.332031 33.992188 39.5 33.824219 39.703125 33.824219 Z M 39.703125 33.824219 " fill-opacity="1" fill-rule="nonzero"/><path fill="#000000" d="M 95.90625 10.820312 C 95.84375 11.835938 94.980469 12.609375 93.972656 12.546875 C 92.964844 12.484375 92.199219 11.609375 92.261719 10.59375 C 92.324219 9.582031 93.191406 8.808594 94.195312 8.871094 C 95.203125 8.933594 95.96875 9.808594 95.90625 10.820312 Z M 95.90625 10.820312 " fill-opacity="1" fill-rule="nonzero"/><path fill="#000000" d="M 88.136719 26.480469 C 88.074219 27.496094 87.210938 28.265625 86.203125 28.203125 C 85.195312 28.140625 84.429688 27.269531 84.492188 26.253906 C 84.554688 25.242188 85.421875 24.46875 86.425781 24.53125 C 87.433594 24.59375 88.199219 25.464844 88.136719 26.480469 Z M 88.136719 26.480469 " fill-opacity="1" fill-rule="nonzero"/><g clip-path="url(#684d464711)"><path fill="#000000" d="M 103.675781 34.3125 C 103.613281 35.324219 102.746094 36.097656 101.742188 36.035156 C 100.734375 35.972656 99.96875 35.097656 100.03125 34.085938 C 100.09375 33.070312 100.957031 32.300781 101.964844 32.363281 C 102.972656 32.421875 103.738281 33.296875 103.675781 34.3125 Z M 103.675781 34.3125 " fill-opacity="1" fill-rule="nonzero"/></g><g clip-path="url(#a119e01a7d)"><path fill="#000000" d="M 111.445312 26.480469 C 111.382812 27.496094 110.515625 28.265625 109.511719 28.203125 C 108.503906 28.140625 107.738281 27.269531 107.800781 26.253906 C 107.863281 25.242188 108.726562 24.46875 109.734375 24.53125 C 110.742188 24.59375 111.507812 25.464844 111.445312 26.480469 Z M 111.445312 26.480469 " fill-opacity="1" fill-rule="nonzero"/></g><g clip-path="url(#0b82e80f57)"><path fill="#000000" d="M 82.460938 3.113281 C 82.386719 4.207031 81.445312 5.03125 80.359375 4.953125 C 79.273438 4.875 78.457031 3.925781 78.535156 2.832031 C 78.609375 1.738281 79.550781 0.917969 80.636719 0.996094 C 81.722656 1.070312 82.539062 2.019531 82.460938 3.113281 M 81.679688 3.058594 C 81.726562 2.398438 81.234375 1.828125 80.582031 1.78125 C 79.929688 1.734375 79.363281 2.230469 79.316406 2.890625 C 79.269531 3.546875 79.761719 4.117188 80.414062 4.164062 C 81.066406 4.210938 81.632812 3.714844 81.679688 3.058594 Z M 81.679688 3.058594 " fill-opacity="1" fill-rule="nonzero"/></g><g clip-path="url(#17acd81305)"><path fill="#000000" d="M 59.082031 34.4375 C 59.007812 35.53125 58.066406 36.351562 56.980469 36.277344 C 55.894531 36.199219 55.078125 35.25 55.15625 34.15625 C 55.234375 33.0625 56.175781 32.238281 57.257812 32.316406 C 58.34375 32.394531 59.160156 33.34375 59.082031 34.4375 M 58.300781 34.382812 C 58.347656 33.722656 57.855469 33.152344 57.203125 33.105469 C 56.550781 33.058594 55.984375 33.554688 55.9375 34.210938 C 55.890625 34.871094 56.382812 35.441406 57.035156 35.488281 C 57.6875 35.535156 58.253906 35.039062 58.300781 34.382812 Z M 58.300781 34.382812 " fill-opacity="1" fill-rule="nonzero"/></g></svg>