<svg xmlns="http://www.w3.org/2000/svg" xmlns:xlink="http://www.w3.org/1999/xlink" width="150" zoomAndPan="magnify" viewBox="0 0 112.5 30.000001" height="40" preserveAspectRatio="xMidYMid meet" version="1.0"><defs><clipPath id="2c6ab0aa9a"><path d="M 1.574219 11.820312 L 110 11.820312 L 110 16.898438 L 1.574219 16.898438 Z M 1.574219 11.820312 " clip-rule="nonzero"/></clipPath></defs><g clip-path="url(#2c6ab0aa9a)"><path fill="#ffffff" d="M 109.140625 17.199219 C 107.121094 17.199219 106.074219 16.082031 105.238281 15.183594 C 104.484375 14.378906 103.941406 13.796875 102.78125 13.796875 C 101.625 13.796875 101.082031 14.378906 100.328125 15.183594 C 99.488281 16.082031 98.445312 17.199219 96.425781 17.199219 C 94.40625 17.199219 93.363281 16.082031 92.523438 15.183594 C 91.769531 14.378906 91.226562 13.796875 90.070312 13.796875 C 88.910156 13.796875 88.367188 14.378906 87.617188 15.183594 C 86.777344 16.082031 85.734375 17.199219 83.710938 17.199219 C 81.691406 17.199219 80.648438 16.082031 79.808594 15.183594 C 79.058594 14.378906 78.515625 13.796875 77.355469 13.796875 C 76.199219 13.796875 75.65625 14.378906 74.902344 15.183594 C 74.0625 16.082031 73.019531 17.199219 71 17.199219 C 68.980469 17.199219 67.9375 16.082031 67.097656 15.183594 C 66.34375 14.378906 65.800781 13.796875 64.644531 13.796875 C 63.484375 13.796875 62.941406 14.378906 62.191406 15.183594 C 61.351562 16.082031 60.308594 17.199219 58.285156 17.199219 C 56.265625 17.199219 55.222656 16.082031 54.382812 15.183594 C 53.632812 14.378906 53.089844 13.796875 51.929688 13.796875 C 50.773438 13.796875 50.230469 14.378906 49.476562 15.183594 C 48.636719 16.082031 47.59375 17.199219 45.574219 17.199219 C 43.554688 17.199219 42.511719 16.082031 41.671875 15.183594 C 40.917969 14.378906 40.375 13.796875 39.21875 13.796875 C 38.058594 13.796875 37.515625 14.378906 36.765625 15.183594 C 35.925781 16.082031 34.882812 17.199219 32.863281 17.199219 C 30.84375 17.199219 29.796875 16.082031 28.960938 15.183594 C 28.207031 14.378906 27.664062 13.796875 26.503906 13.796875 C 25.347656 13.796875 24.804688 14.378906 24.050781 15.183594 C 23.214844 16.082031 22.167969 17.199219 20.148438 17.199219 C 18.128906 17.199219 17.085938 16.082031 16.246094 15.183594 C 15.496094 14.378906 14.953125 13.796875 13.792969 13.796875 C 12.636719 13.796875 12.09375 14.378906 11.339844 15.183594 C 10.5 16.082031 9.457031 17.199219 7.4375 17.199219 C 5.417969 17.199219 4.375 16.082031 3.535156 15.183594 C 2.785156 14.378906 2.242188 13.796875 1.082031 13.796875 L 1.082031 11.8125 C 3.101562 11.8125 4.144531 12.929688 4.984375 13.828125 C 5.734375 14.632812 6.28125 15.214844 7.4375 15.214844 C 8.597656 15.214844 9.140625 14.632812 9.890625 13.828125 C 10.730469 12.929688 11.773438 11.8125 13.792969 11.8125 C 15.8125 11.8125 16.859375 12.929688 17.695312 13.828125 C 18.449219 14.632812 18.992188 15.214844 20.148438 15.214844 C 21.308594 15.214844 21.851562 14.632812 22.601562 13.828125 C 23.441406 12.929688 24.484375 11.8125 26.503906 11.8125 C 28.527344 11.8125 29.570312 12.929688 30.410156 13.828125 C 31.160156 14.632812 31.703125 15.214844 32.863281 15.214844 C 34.019531 15.214844 34.5625 14.632812 35.316406 13.828125 C 36.152344 12.929688 37.199219 11.8125 39.21875 11.8125 C 41.238281 11.8125 42.28125 12.929688 43.121094 13.828125 C 43.871094 14.632812 44.414062 15.214844 45.574219 15.214844 C 46.734375 15.214844 47.277344 14.632812 48.027344 13.828125 C 48.867188 12.929688 49.910156 11.8125 51.929688 11.8125 C 53.949219 11.8125 54.996094 12.929688 55.832031 13.828125 C 56.585938 14.632812 57.128906 15.214844 58.285156 15.214844 C 59.445312 15.214844 59.988281 14.632812 60.738281 13.828125 C 61.578125 12.929688 62.625 11.8125 64.644531 11.8125 C 66.664062 11.8125 67.707031 12.929688 68.546875 13.828125 C 69.296875 14.632812 69.839844 15.214844 71 15.214844 C 72.15625 15.214844 72.703125 14.632812 73.453125 13.828125 C 74.292969 12.929688 75.335938 11.8125 77.355469 11.8125 C 79.375 11.8125 80.421875 12.929688 81.257812 13.828125 C 82.011719 14.632812 82.554688 15.214844 83.710938 15.214844 C 84.871094 15.214844 85.414062 14.632812 86.167969 13.828125 C 87.003906 12.929688 88.050781 11.8125 90.070312 11.8125 C 92.089844 11.8125 93.132812 12.929688 93.972656 13.828125 C 94.722656 14.632812 95.265625 15.214844 96.425781 15.214844 C 97.585938 15.214844 98.128906 14.632812 98.878906 13.828125 C 99.71875 12.929688 100.761719 11.8125 102.78125 11.8125 C 104.804688 11.8125 105.847656 12.929688 106.6875 13.828125 C 107.4375 14.632812 107.980469 15.214844 109.140625 15.214844 L 109.140625 17.199219 " fill-opacity="1" fill-rule="nonzero"/><path fill="#ffffff" d="M 109.140625 17.199219 C 107.121094 17.199219 106.074219 16.082031 105.238281 15.183594 C 104.484375 14.378906 103.941406 13.796875 102.78125 13.796875 C 101.625 13.796875 101.082031 14.378906 100.328125 15.183594 C 99.488281 16.082031 98.445312 17.199219 96.425781 17.199219 C 94.40625 17.199219 93.363281 16.082031 92.523438 15.183594 C 91.769531 14.378906 91.226562 13.796875 90.070312 13.796875 C 88.910156 13.796875 88.367188 14.378906 87.617188 15.183594 C 86.777344 16.082031 85.734375 17.199219 83.710938 17.199219 C 81.691406 17.199219 80.648438 16.082031 79.808594 15.183594 C 79.058594 14.378906 78.515625 13.796875 77.355469 13.796875 C 76.199219 13.796875 75.65625 14.378906 74.902344 15.183594 C 74.0625 16.082031 73.019531 17.199219 71 17.199219 C 68.980469 17.199219 67.9375 16.082031 67.097656 15.183594 C 66.34375 14.378906 65.800781 13.796875 64.644531 13.796875 C 63.484375 13.796875 62.941406 14.378906 62.191406 15.183594 C 61.351562 16.082031 60.308594 17.199219 58.285156 17.199219 C 56.265625 17.199219 55.222656 16.082031 54.382812 15.183594 C 53.632812 14.378906 53.089844 13.796875 51.929688 13.796875 C 50.773438 13.796875 50.230469 14.378906 49.476562 15.183594 C 48.636719 16.082031 47.59375 17.199219 45.574219 17.199219 C 43.554688 17.199219 42.511719 16.082031 41.671875 15.183594 C 40.917969 14.378906 40.375 13.796875 39.21875 13.796875 C 38.058594 13.796875 37.515625 14.378906 36.765625 15.183594 C 35.925781 16.082031 34.882812 17.199219 32.863281 17.199219 C 30.84375 17.199219 29.796875 16.082031 28.960938 15.183594 C 28.207031 14.378906 27.664062 13.796875 26.503906 13.796875 C 25.347656 13.796875 24.804688 14.378906 24.050781 15.183594 C 23.214844 16.082031 22.167969 17.199219 20.148438 17.199219 C 18.128906 17.199219 17.085938 16.082031 16.246094 15.183594 C 15.496094 14.378906 14.953125 13.796875 13.792969 13.796875 C 12.636719 13.796875 12.09375 14.378906 11.339844 15.183594 C 10.5 16.082031 9.457031 17.199219 7.4375 17.199219 C 5.417969 17.199219 4.375 16.082031 3.535156 15.183594 C 2.785156 14.378906 2.242188 13.796875 1.082031 13.796875 L 1.082031 11.8125 C 3.101562 11.8125 4.144531 12.929688 4.984375 13.828125 C 5.734375 14.632812 6.28125 15.214844 7.4375 15.214844 C 8.597656 15.214844 9.140625 14.632812 9.890625 13.828125 C 10.730469 12.929688 11.773438 11.8125 13.792969 11.8125 C 15.8125 11.8125 16.859375 12.929688 17.695312 13.828125 C 18.449219 14.632812 18.992188 15.214844 20.148438 15.214844 C 21.308594 15.214844 21.851562 14.632812 22.601562 13.828125 C 23.441406 12.929688 24.484375 11.8125 26.503906 11.8125 C 28.527344 11.8125 29.570312 12.929688 30.410156 13.828125 C 31.160156 14.632812 31.703125 15.214844 32.863281 15.214844 C 34.019531 15.214844 34.5625 14.632812 35.316406 13.828125 C 36.152344 12.929688 37.199219 11.8125 39.21875 11.8125 C 41.238281 11.8125 42.28125 12.929688 43.121094 13.828125 C 43.871094 14.632812 44.414062 15.214844 45.574219 15.214844 C 46.734375 15.214844 47.277344 14.632812 48.027344 13.828125 C 48.867188 12.929688 49.910156 11.8125 51.929688 11.8125 C 53.949219 11.8125 54.996094 12.929688 55.832031 13.828125 C 56.585938 14.632812 57.128906 15.214844 58.285156 15.214844 C 59.445312 15.214844 59.988281 14.632812 60.738281 13.828125 C 61.578125 12.929688 62.625 11.8125 64.644531 11.8125 C 66.664062 11.8125 67.707031 12.929688 68.546875 13.828125 C 69.296875 14.632812 69.839844 15.214844 71 15.214844 C 72.15625 15.214844 72.703125 14.632812 73.453125 13.828125 C 74.292969 12.929688 75.335938 11.8125 77.355469 11.8125 C 79.375 11.8125 80.421875 12.929688 81.257812 13.828125 C 82.011719 14.632812 82.554688 15.214844 83.710938 15.214844 C 84.871094 15.214844 85.414062 14.632812 86.167969 13.828125 C 87.003906 12.929688 88.050781 11.8125 90.070312 11.8125 C 92.089844 11.8125 93.132812 12.929688 93.972656 13.828125 C 94.722656 14.632812 95.265625 15.214844 96.425781 15.214844 C 97.585938 15.214844 98.128906 14.632812 98.878906 13.828125 C 99.71875 12.929688 100.761719 11.8125 102.78125 11.8125 C 104.804688 11.8125 105.847656 12.929688 106.6875 13.828125 C 107.4375 14.632812 107.980469 15.214844 109.140625 15.214844 L 109.140625 17.199219 " fill-opacity="1" fill-rule="nonzero"/></g></svg>