<svg xmlns="http://www.w3.org/2000/svg" xmlns:xlink="http://www.w3.org/1999/xlink" width="150" zoomAndPan="magnify" viewBox="0 0 112.5 30.000001" height="40" preserveAspectRatio="xMidYMid meet" version="1.0"><defs><clipPath id="e8c8265989"><path d="M 1.574219 11.820312 L 109 11.820312 L 109 16.898438 L 1.574219 16.898438 Z M 1.574219 11.820312 " clip-rule="nonzero"/></clipPath></defs><g clip-path="url(#e8c8265989)"><path fill="#000000" d="M 108.824219 16.894531 C 106.808594 16.894531 105.765625 15.839844 104.929688 14.992188 C 104.179688 14.234375 103.640625 13.683594 102.484375 13.683594 C 101.328125 13.683594 100.785156 14.234375 100.035156 14.992188 C 99.199219 15.839844 98.160156 16.894531 96.144531 16.894531 C 94.128906 16.894531 93.089844 15.839844 92.253906 14.992188 C 91.503906 14.234375 90.960938 13.683594 89.804688 13.683594 C 88.652344 13.683594 88.109375 14.234375 87.359375 14.992188 C 86.523438 15.839844 85.480469 16.894531 83.46875 16.894531 C 81.453125 16.894531 80.414062 15.839844 79.574219 14.992188 C 78.824219 14.234375 78.285156 13.683594 77.128906 13.683594 C 75.972656 13.683594 75.433594 14.234375 74.683594 14.992188 C 73.847656 15.839844 72.804688 16.894531 70.792969 16.894531 C 68.777344 16.894531 67.734375 15.839844 66.898438 14.992188 C 66.148438 14.234375 65.609375 13.683594 64.453125 13.683594 C 63.296875 13.683594 62.757812 14.234375 62.007812 14.992188 C 61.171875 15.839844 60.128906 16.894531 58.113281 16.894531 C 56.101562 16.894531 55.058594 15.839844 54.222656 14.992188 C 53.472656 14.234375 52.933594 13.683594 51.777344 13.683594 C 50.621094 13.683594 50.078125 14.234375 49.332031 14.992188 C 48.492188 15.839844 47.453125 16.894531 45.4375 16.894531 C 43.425781 16.894531 42.382812 15.839844 41.546875 14.992188 C 40.796875 14.234375 40.253906 13.683594 39.101562 13.683594 C 37.945312 13.683594 37.402344 14.234375 36.65625 14.992188 C 35.816406 15.839844 34.777344 16.894531 32.761719 16.894531 C 30.75 16.894531 29.707031 15.839844 28.871094 14.992188 C 28.121094 14.234375 27.582031 13.683594 26.425781 13.683594 C 25.269531 13.683594 24.730469 14.234375 23.980469 14.992188 C 23.140625 15.839844 22.101562 16.894531 20.085938 16.894531 C 18.074219 16.894531 17.03125 15.839844 16.195312 14.992188 C 15.445312 14.234375 14.902344 13.683594 13.75 13.683594 C 12.59375 13.683594 12.054688 14.234375 11.304688 14.992188 C 10.46875 15.839844 9.425781 16.894531 7.410156 16.894531 C 5.398438 16.894531 4.355469 15.839844 3.519531 14.992188 C 2.769531 14.234375 2.230469 13.683594 1.074219 13.683594 L 1.074219 11.8125 C 3.085938 11.8125 4.128906 12.867188 4.964844 13.714844 C 5.714844 14.472656 6.257812 15.023438 7.410156 15.023438 C 8.566406 15.023438 9.109375 14.472656 9.859375 13.714844 C 10.695312 12.867188 11.734375 11.8125 13.75 11.8125 C 15.761719 11.8125 16.804688 12.867188 17.640625 13.714844 C 18.390625 14.472656 18.933594 15.023438 20.085938 15.023438 C 21.242188 15.023438 21.785156 14.472656 22.535156 13.714844 C 23.371094 12.867188 24.410156 11.8125 26.425781 11.8125 C 28.4375 11.8125 29.480469 12.867188 30.316406 13.714844 C 31.066406 14.472656 31.609375 15.023438 32.761719 15.023438 C 33.917969 15.023438 34.460938 14.472656 35.207031 13.714844 C 36.046875 12.867188 37.085938 11.8125 39.101562 11.8125 C 41.113281 11.8125 42.15625 12.867188 42.992188 13.714844 C 43.742188 14.472656 44.285156 15.023438 45.4375 15.023438 C 46.59375 15.023438 47.136719 14.472656 47.882812 13.714844 C 48.722656 12.867188 49.761719 11.8125 51.777344 11.8125 C 53.789062 11.8125 54.832031 12.867188 55.667969 13.714844 C 56.417969 14.472656 56.960938 15.023438 58.113281 15.023438 C 59.269531 15.023438 59.8125 14.472656 60.5625 13.714844 C 61.398438 12.867188 62.4375 11.8125 64.453125 11.8125 C 66.46875 11.8125 67.507812 12.867188 68.34375 13.714844 C 69.09375 14.472656 69.636719 15.023438 70.792969 15.023438 C 71.945312 15.023438 72.488281 14.472656 73.238281 13.714844 C 74.074219 12.867188 75.117188 11.8125 77.128906 11.8125 C 79.144531 11.8125 80.183594 12.867188 81.019531 13.714844 C 81.769531 14.472656 82.3125 15.023438 83.46875 15.023438 C 84.621094 15.023438 85.164062 14.472656 85.914062 13.714844 C 86.75 12.867188 87.792969 11.8125 89.804688 11.8125 C 91.820312 11.8125 92.863281 12.867188 93.699219 13.714844 C 94.449219 14.472656 94.988281 15.023438 96.144531 15.023438 C 97.300781 15.023438 97.839844 14.472656 98.589844 13.714844 C 99.429688 12.867188 100.46875 11.8125 102.484375 11.8125 C 104.496094 11.8125 105.539062 12.867188 106.375 13.714844 C 107.125 14.472656 107.667969 15.023438 108.824219 15.023438 L 108.824219 16.894531 " fill-opacity="1" fill-rule="nonzero"/><path fill="#000000" d="M 108.824219 16.894531 C 106.808594 16.894531 105.765625 15.839844 104.929688 14.992188 C 104.179688 14.234375 103.640625 13.683594 102.484375 13.683594 C 101.328125 13.683594 100.785156 14.234375 100.035156 14.992188 C 99.199219 15.839844 98.160156 16.894531 96.144531 16.894531 C 94.128906 16.894531 93.089844 15.839844 92.253906 14.992188 C 91.503906 14.234375 90.960938 13.683594 89.804688 13.683594 C 88.652344 13.683594 88.109375 14.234375 87.359375 14.992188 C 86.523438 15.839844 85.480469 16.894531 83.46875 16.894531 C 81.453125 16.894531 80.414062 15.839844 79.574219 14.992188 C 78.824219 14.234375 78.285156 13.683594 77.128906 13.683594 C 75.972656 13.683594 75.433594 14.234375 74.683594 14.992188 C 73.847656 15.839844 72.804688 16.894531 70.792969 16.894531 C 68.777344 16.894531 67.734375 15.839844 66.898438 14.992188 C 66.148438 14.234375 65.609375 13.683594 64.453125 13.683594 C 63.296875 13.683594 62.757812 14.234375 62.007812 14.992188 C 61.171875 15.839844 60.128906 16.894531 58.113281 16.894531 C 56.101562 16.894531 55.058594 15.839844 54.222656 14.992188 C 53.472656 14.234375 52.933594 13.683594 51.777344 13.683594 C 50.621094 13.683594 50.078125 14.234375 49.332031 14.992188 C 48.492188 15.839844 47.453125 16.894531 45.4375 16.894531 C 43.425781 16.894531 42.382812 15.839844 41.546875 14.992188 C 40.796875 14.234375 40.253906 13.683594 39.101562 13.683594 C 37.945312 13.683594 37.402344 14.234375 36.65625 14.992188 C 35.816406 15.839844 34.777344 16.894531 32.761719 16.894531 C 30.75 16.894531 29.707031 15.839844 28.871094 14.992188 C 28.121094 14.234375 27.582031 13.683594 26.425781 13.683594 C 25.269531 13.683594 24.730469 14.234375 23.980469 14.992188 C 23.140625 15.839844 22.101562 16.894531 20.085938 16.894531 C 18.074219 16.894531 17.03125 15.839844 16.195312 14.992188 C 15.445312 14.234375 14.902344 13.683594 13.75 13.683594 C 12.59375 13.683594 12.054688 14.234375 11.304688 14.992188 C 10.46875 15.839844 9.425781 16.894531 7.410156 16.894531 C 5.398438 16.894531 4.355469 15.839844 3.519531 14.992188 C 2.769531 14.234375 2.230469 13.683594 1.074219 13.683594 L 1.074219 11.8125 C 3.085938 11.8125 4.128906 12.867188 4.964844 13.714844 C 5.714844 14.472656 6.257812 15.023438 7.410156 15.023438 C 8.566406 15.023438 9.109375 14.472656 9.859375 13.714844 C 10.695312 12.867188 11.734375 11.8125 13.75 11.8125 C 15.761719 11.8125 16.804688 12.867188 17.640625 13.714844 C 18.390625 14.472656 18.933594 15.023438 20.085938 15.023438 C 21.242188 15.023438 21.785156 14.472656 22.535156 13.714844 C 23.371094 12.867188 24.410156 11.8125 26.425781 11.8125 C 28.4375 11.8125 29.480469 12.867188 30.316406 13.714844 C 31.066406 14.472656 31.609375 15.023438 32.761719 15.023438 C 33.917969 15.023438 34.460938 14.472656 35.207031 13.714844 C 36.046875 12.867188 37.085938 11.8125 39.101562 11.8125 C 41.113281 11.8125 42.15625 12.867188 42.992188 13.714844 C 43.742188 14.472656 44.285156 15.023438 45.4375 15.023438 C 46.59375 15.023438 47.136719 14.472656 47.882812 13.714844 C 48.722656 12.867188 49.761719 11.8125 51.777344 11.8125 C 53.789062 11.8125 54.832031 12.867188 55.667969 13.714844 C 56.417969 14.472656 56.960938 15.023438 58.113281 15.023438 C 59.269531 15.023438 59.8125 14.472656 60.5625 13.714844 C 61.398438 12.867188 62.4375 11.8125 64.453125 11.8125 C 66.46875 11.8125 67.507812 12.867188 68.34375 13.714844 C 69.09375 14.472656 69.636719 15.023438 70.792969 15.023438 C 71.945312 15.023438 72.488281 14.472656 73.238281 13.714844 C 74.074219 12.867188 75.117188 11.8125 77.128906 11.8125 C 79.144531 11.8125 80.183594 12.867188 81.019531 13.714844 C 81.769531 14.472656 82.3125 15.023438 83.46875 15.023438 C 84.621094 15.023438 85.164062 14.472656 85.914062 13.714844 C 86.75 12.867188 87.792969 11.8125 89.804688 11.8125 C 91.820312 11.8125 92.863281 12.867188 93.699219 13.714844 C 94.449219 14.472656 94.988281 15.023438 96.144531 15.023438 C 97.300781 15.023438 97.839844 14.472656 98.589844 13.714844 C 99.429688 12.867188 100.46875 11.8125 102.484375 11.8125 C 104.496094 11.8125 105.539062 12.867188 106.375 13.714844 C 107.125 14.472656 107.667969 15.023438 108.824219 15.023438 L 108.824219 16.894531 " fill-opacity="1" fill-rule="nonzero"/></g></svg>