<svg xmlns="http://www.w3.org/2000/svg" xmlns:xlink="http://www.w3.org/1999/xlink" width="500" zoomAndPan="magnify" viewBox="0 0 375 374.999991" height="500" preserveAspectRatio="xMidYMid meet" version="1.0"><defs><clipPath id="8ae15f2b24"><path d="M 3.863281 2.710938 L 12 2.710938 L 12 11 L 3.863281 11 Z M 3.863281 2.710938 " clip-rule="nonzero"/></clipPath><clipPath id="e22b961625"><path d="M 75 2.710938 L 84 2.710938 L 84 11 L 75 11 Z M 75 2.710938 " clip-rule="nonzero"/></clipPath><clipPath id="ebf4e440c0"><path d="M 147 2.710938 L 156 2.710938 L 156 11 L 147 11 Z M 147 2.710938 " clip-rule="nonzero"/></clipPath><clipPath id="0840a8442a"><path d="M 219 2.710938 L 228 2.710938 L 228 11 L 219 11 Z M 219 2.710938 " clip-rule="nonzero"/></clipPath><clipPath id="29442752b6"><path d="M 291 2.710938 L 300 2.710938 L 300 11 L 291 11 Z M 291 2.710938 " clip-rule="nonzero"/></clipPath><clipPath id="2be92bcb51"><path d="M 363 2.710938 L 371.363281 2.710938 L 371.363281 11 L 363 11 Z M 363 2.710938 " clip-rule="nonzero"/></clipPath><clipPath id="007bbd42ba"><path d="M 3.863281 75 L 12 75 L 12 83 L 3.863281 83 Z M 3.863281 75 " clip-rule="nonzero"/></clipPath><clipPath id="4cae3c76d5"><path d="M 363 75 L 371.363281 75 L 371.363281 83 L 363 83 Z M 363 75 " clip-rule="nonzero"/></clipPath><clipPath id="23b9ff1773"><path d="M 3.863281 147 L 12 147 L 12 156 L 3.863281 156 Z M 3.863281 147 " clip-rule="nonzero"/></clipPath><clipPath id="d1dfe9c5d3"><path d="M 363 147 L 371.363281 147 L 371.363281 156 L 363 156 Z M 363 147 " clip-rule="nonzero"/></clipPath><clipPath id="c1f97dbcbd"><path d="M 3.863281 219 L 12 219 L 12 228 L 3.863281 228 Z M 3.863281 219 " clip-rule="nonzero"/></clipPath><clipPath id="749bf35ae0"><path d="M 363 219 L 371.363281 219 L 371.363281 228 L 363 228 Z M 363 219 " clip-rule="nonzero"/></clipPath><clipPath id="7f0f56b59b"><path d="M 3.863281 292 L 12 292 L 12 300 L 3.863281 300 Z M 3.863281 292 " clip-rule="nonzero"/></clipPath><clipPath id="9527720a48"><path d="M 363 292 L 371.363281 292 L 371.363281 300 L 363 300 Z M 363 292 " clip-rule="nonzero"/></clipPath><clipPath id="ddf489066e"><path d="M 3.863281 364 L 12 364 L 12 372.460938 L 3.863281 372.460938 Z M 3.863281 364 " clip-rule="nonzero"/></clipPath><clipPath id="f807262453"><path d="M 75 364 L 84 364 L 84 372.460938 L 75 372.460938 Z M 75 364 " clip-rule="nonzero"/></clipPath><clipPath id="5b037f451e"><path d="M 147 364 L 156 364 L 156 372.460938 L 147 372.460938 Z M 147 364 " clip-rule="nonzero"/></clipPath><clipPath id="032ef046ce"><path d="M 219 364 L 228 364 L 228 372.460938 L 219 372.460938 Z M 219 364 " clip-rule="nonzero"/></clipPath><clipPath id="9b373a81cd"><path d="M 291 364 L 300 364 L 300 372.460938 L 291 372.460938 Z M 291 364 " clip-rule="nonzero"/></clipPath><clipPath id="add79952eb"><path d="M 363 364 L 371.363281 364 L 371.363281 372.460938 L 363 372.460938 Z M 363 364 " clip-rule="nonzero"/></clipPath><clipPath id="62768fe560"><path d="M 3.863281 2.710938 L 12 2.710938 L 12 11 L 3.863281 11 Z M 3.863281 2.710938 " clip-rule="nonzero"/></clipPath><clipPath id="1ae28c878c"><path d="M 75 2.710938 L 84 2.710938 L 84 11 L 75 11 Z M 75 2.710938 " clip-rule="nonzero"/></clipPath><clipPath id="9035a589e5"><path d="M 147 2.710938 L 156 2.710938 L 156 11 L 147 11 Z M 147 2.710938 " clip-rule="nonzero"/></clipPath><clipPath id="d6d92112c3"><path d="M 219 2.710938 L 228 2.710938 L 228 11 L 219 11 Z M 219 2.710938 " clip-rule="nonzero"/></clipPath><clipPath id="5ff6ae4b83"><path d="M 291 2.710938 L 300 2.710938 L 300 11 L 291 11 Z M 291 2.710938 " clip-rule="nonzero"/></clipPath><clipPath id="19a898deb5"><path d="M 363 2.710938 L 371.363281 2.710938 L 371.363281 11 L 363 11 Z M 363 2.710938 " clip-rule="nonzero"/></clipPath><clipPath id="9567424881"><path d="M 3.863281 75 L 12 75 L 12 83 L 3.863281 83 Z M 3.863281 75 " clip-rule="nonzero"/></clipPath><clipPath id="28e590d3be"><path d="M 363 75 L 371.363281 75 L 371.363281 83 L 363 83 Z M 363 75 " clip-rule="nonzero"/></clipPath><clipPath id="ac077590c7"><path d="M 3.863281 147 L 12 147 L 12 156 L 3.863281 156 Z M 3.863281 147 " clip-rule="nonzero"/></clipPath><clipPath id="e0d89eaa17"><path d="M 363 147 L 371.363281 147 L 371.363281 156 L 363 156 Z M 363 147 " clip-rule="nonzero"/></clipPath><clipPath id="78b92d9e4e"><path d="M 3.863281 219 L 12 219 L 12 228 L 3.863281 228 Z M 3.863281 219 " clip-rule="nonzero"/></clipPath><clipPath id="99f958b796"><path d="M 363 219 L 371.363281 219 L 371.363281 228 L 363 228 Z M 363 219 " clip-rule="nonzero"/></clipPath><clipPath id="82d4b2fc1b"><path d="M 3.863281 292 L 12 292 L 12 300 L 3.863281 300 Z M 3.863281 292 " clip-rule="nonzero"/></clipPath><clipPath id="e37fe4e64d"><path d="M 363 292 L 371.363281 292 L 371.363281 300 L 363 300 Z M 363 292 " clip-rule="nonzero"/></clipPath><clipPath id="d02137c22e"><path d="M 3.863281 364 L 12 364 L 12 372.460938 L 3.863281 372.460938 Z M 3.863281 364 " clip-rule="nonzero"/></clipPath><clipPath id="06c6348e0a"><path d="M 75 364 L 84 364 L 84 372.460938 L 75 372.460938 Z M 75 364 " clip-rule="nonzero"/></clipPath><clipPath id="1f3a0fa61b"><path d="M 147 364 L 156 364 L 156 372.460938 L 147 372.460938 Z M 147 364 " clip-rule="nonzero"/></clipPath><clipPath id="015f3e031e"><path d="M 219 364 L 228 364 L 228 372.460938 L 219 372.460938 Z M 219 364 " clip-rule="nonzero"/></clipPath><clipPath id="5a09891e39"><path d="M 291 364 L 300 364 L 300 372.460938 L 291 372.460938 Z M 291 364 " clip-rule="nonzero"/></clipPath><clipPath id="537ef53acb"><path d="M 363 364 L 371.363281 364 L 371.363281 372.460938 L 363 372.460938 Z M 363 364 " clip-rule="nonzero"/></clipPath></defs><g clip-path="url(#8ae15f2b24)"><path fill="#231f20" d="M 8.011719 2.847656 L 7.34375 2.847656 L 7.34375 6.324219 L 3.863281 6.324219 L 3.863281 6.992188 L 7.34375 6.992188 L 7.34375 10.464844 L 8.011719 10.464844 L 8.011719 6.992188 L 11.480469 6.992188 L 11.480469 6.324219 L 8.011719 6.324219 Z M 8.011719 2.847656 " fill-opacity="1" fill-rule="nonzero"/></g><g clip-path="url(#e22b961625)"><path fill="#231f20" d="M 79.992188 2.847656 L 79.324219 2.847656 L 79.324219 6.324219 L 75.847656 6.324219 L 75.847656 6.992188 L 79.324219 6.992188 L 79.324219 10.464844 L 79.992188 10.464844 L 79.992188 6.992188 L 83.472656 6.992188 L 83.472656 6.324219 L 79.992188 6.324219 Z M 79.992188 2.847656 " fill-opacity="1" fill-rule="nonzero"/></g><g clip-path="url(#ebf4e440c0)"><path fill="#231f20" d="M 151.976562 2.847656 L 151.308594 2.847656 L 151.308594 6.324219 L 147.828125 6.324219 L 147.828125 6.992188 L 151.308594 6.992188 L 151.308594 10.464844 L 151.976562 10.464844 L 151.976562 6.992188 L 155.453125 6.992188 L 155.453125 6.324219 L 151.976562 6.324219 Z M 151.976562 2.847656 " fill-opacity="1" fill-rule="nonzero"/></g><g clip-path="url(#0840a8442a)"><path fill="#231f20" d="M 223.957031 2.847656 L 223.289062 2.847656 L 223.289062 6.324219 L 219.8125 6.324219 L 219.8125 6.992188 L 223.289062 6.992188 L 223.289062 10.464844 L 223.957031 10.464844 L 223.957031 6.992188 L 227.4375 6.992188 L 227.4375 6.324219 L 223.957031 6.324219 Z M 223.957031 2.847656 " fill-opacity="1" fill-rule="nonzero"/></g><g clip-path="url(#29442752b6)"><path fill="#231f20" d="M 295.941406 2.847656 L 295.273438 2.847656 L 295.273438 6.324219 L 291.792969 6.324219 L 291.792969 6.992188 L 295.273438 6.992188 L 295.273438 10.464844 L 295.941406 10.464844 L 295.941406 6.992188 L 299.417969 6.992188 L 299.417969 6.324219 L 295.941406 6.324219 Z M 295.941406 2.847656 " fill-opacity="1" fill-rule="nonzero"/></g><g clip-path="url(#2be92bcb51)"><path fill="#231f20" d="M 367.921875 6.324219 L 367.921875 2.847656 L 367.253906 2.847656 L 367.253906 6.324219 L 363.785156 6.324219 L 363.785156 6.992188 L 367.253906 6.992188 L 367.253906 10.464844 L 367.921875 10.464844 L 367.921875 6.992188 L 371.402344 6.992188 L 371.402344 6.324219 Z M 367.921875 6.324219 " fill-opacity="1" fill-rule="nonzero"/></g><g clip-path="url(#007bbd42ba)"><path fill="#231f20" d="M 8.011719 75.21875 L 7.34375 75.21875 L 7.34375 78.695312 L 3.863281 78.695312 L 3.863281 79.355469 L 7.34375 79.355469 L 7.34375 82.832031 L 8.011719 82.832031 L 8.011719 79.355469 L 11.480469 79.355469 L 11.480469 78.695312 L 8.011719 78.695312 Z M 8.011719 75.21875 " fill-opacity="1" fill-rule="nonzero"/></g><path fill="#231f20" d="M 79.992188 75.21875 L 79.324219 75.21875 L 79.324219 78.695312 L 75.847656 78.695312 L 75.847656 79.355469 L 79.324219 79.355469 L 79.324219 82.832031 L 79.992188 82.832031 L 79.992188 79.355469 L 83.472656 79.355469 L 83.472656 78.695312 L 79.992188 78.695312 Z M 79.992188 75.21875 " fill-opacity="1" fill-rule="nonzero"/><path fill="#231f20" d="M 151.976562 75.21875 L 151.308594 75.21875 L 151.308594 78.695312 L 147.828125 78.695312 L 147.828125 79.355469 L 151.308594 79.355469 L 151.308594 82.832031 L 151.976562 82.832031 L 151.976562 79.355469 L 155.453125 79.355469 L 155.453125 78.695312 L 151.976562 78.695312 Z M 151.976562 75.21875 " fill-opacity="1" fill-rule="nonzero"/><path fill="#231f20" d="M 223.289062 75.21875 L 223.289062 78.695312 L 219.8125 78.695312 L 219.8125 79.355469 L 223.289062 79.355469 L 223.289062 82.832031 L 223.957031 82.832031 L 223.957031 79.355469 L 227.4375 79.355469 L 227.4375 78.695312 L 223.957031 78.695312 L 223.957031 75.21875 Z M 223.289062 75.21875 " fill-opacity="1" fill-rule="nonzero"/><path fill="#231f20" d="M 295.273438 75.21875 L 295.273438 78.695312 L 291.800781 78.695312 L 291.800781 79.355469 L 295.273438 79.355469 L 295.273438 82.832031 L 295.941406 82.832031 L 295.941406 79.355469 L 299.417969 79.355469 L 299.417969 78.695312 L 295.941406 78.695312 L 295.941406 75.21875 Z M 295.273438 75.21875 " fill-opacity="1" fill-rule="nonzero"/><path fill="#231f20" d="M 79.992188 147.582031 L 79.324219 147.582031 L 79.324219 151.058594 L 75.847656 151.058594 L 75.847656 151.726562 L 79.324219 151.726562 L 79.324219 155.203125 L 79.992188 155.203125 L 79.992188 151.726562 L 83.472656 151.726562 L 83.472656 151.058594 L 79.992188 151.058594 Z M 79.992188 147.582031 " fill-opacity="1" fill-rule="nonzero"/><path fill="#231f20" d="M 151.976562 147.582031 L 151.308594 147.582031 L 151.308594 151.058594 L 147.828125 151.058594 L 147.828125 151.726562 L 151.308594 151.726562 L 151.308594 155.203125 L 151.976562 155.203125 L 151.976562 151.726562 L 155.453125 151.726562 L 155.453125 151.058594 L 151.976562 151.058594 Z M 151.976562 147.582031 " fill-opacity="1" fill-rule="nonzero"/><path fill="#231f20" d="M 219.8125 151.726562 L 223.289062 151.726562 L 223.289062 155.203125 L 223.957031 155.203125 L 223.957031 151.726562 L 227.4375 151.726562 L 227.4375 151.058594 L 223.957031 151.058594 L 223.957031 147.582031 L 223.289062 147.582031 L 223.289062 151.058594 L 219.8125 151.058594 Z M 219.8125 151.726562 " fill-opacity="1" fill-rule="nonzero"/><path fill="#231f20" d="M 291.800781 151.726562 L 295.273438 151.726562 L 295.273438 155.203125 L 295.941406 155.203125 L 295.941406 151.726562 L 299.417969 151.726562 L 299.417969 151.058594 L 295.941406 151.058594 L 295.941406 147.582031 L 295.273438 147.582031 L 295.273438 151.058594 L 291.800781 151.058594 Z M 291.800781 151.726562 " fill-opacity="1" fill-rule="nonzero"/><path fill="#231f20" d="M 79.992188 219.949219 L 79.324219 219.949219 L 79.324219 223.429688 L 75.847656 223.429688 L 75.847656 224.097656 L 79.324219 224.097656 L 79.324219 227.574219 L 79.992188 227.574219 L 79.992188 224.097656 L 83.472656 224.097656 L 83.472656 223.429688 L 79.992188 223.429688 Z M 79.992188 219.949219 " fill-opacity="1" fill-rule="nonzero"/><path fill="#231f20" d="M 151.976562 219.949219 L 151.308594 219.949219 L 151.308594 223.429688 L 147.828125 223.429688 L 147.828125 224.097656 L 151.308594 224.097656 L 151.308594 227.574219 L 151.976562 227.574219 L 151.976562 224.097656 L 155.453125 224.097656 L 155.453125 223.429688 L 151.976562 223.429688 Z M 151.976562 219.949219 " fill-opacity="1" fill-rule="nonzero"/><path fill="#231f20" d="M 219.8125 224.097656 L 223.289062 224.097656 L 223.289062 227.574219 L 223.957031 227.574219 L 223.957031 224.097656 L 227.4375 224.097656 L 227.4375 223.429688 L 223.957031 223.429688 L 223.957031 219.949219 L 223.289062 219.949219 L 223.289062 223.429688 L 219.8125 223.429688 Z M 219.8125 224.097656 " fill-opacity="1" fill-rule="nonzero"/><path fill="#231f20" d="M 291.800781 224.097656 L 295.273438 224.097656 L 295.273438 227.574219 L 295.941406 227.574219 L 295.941406 224.097656 L 299.417969 224.097656 L 299.417969 223.429688 L 295.941406 223.429688 L 295.941406 219.949219 L 295.273438 219.949219 L 295.273438 223.429688 L 291.800781 223.429688 Z M 291.800781 224.097656 " fill-opacity="1" fill-rule="nonzero"/><path fill="#231f20" d="M 79.992188 292.320312 L 79.324219 292.320312 L 79.324219 295.796875 L 75.847656 295.796875 L 75.847656 296.464844 L 79.324219 296.464844 L 79.324219 299.9375 L 79.992188 299.9375 L 79.992188 296.464844 L 83.472656 296.464844 L 83.472656 295.796875 L 79.992188 295.796875 Z M 79.992188 292.320312 " fill-opacity="1" fill-rule="nonzero"/><path fill="#231f20" d="M 151.976562 292.320312 L 151.308594 292.320312 L 151.308594 295.796875 L 147.828125 295.796875 L 147.828125 296.464844 L 151.308594 296.464844 L 151.308594 299.9375 L 151.976562 299.9375 L 151.976562 296.464844 L 155.453125 296.464844 L 155.453125 295.796875 L 151.976562 295.796875 Z M 151.976562 292.320312 " fill-opacity="1" fill-rule="nonzero"/><path fill="#231f20" d="M 219.8125 296.464844 L 223.289062 296.464844 L 223.289062 299.9375 L 223.957031 299.9375 L 223.957031 296.464844 L 227.4375 296.464844 L 227.4375 295.796875 L 223.957031 295.796875 L 223.957031 292.320312 L 223.289062 292.320312 L 223.289062 295.796875 L 219.8125 295.796875 Z M 219.8125 296.464844 " fill-opacity="1" fill-rule="nonzero"/><path fill="#231f20" d="M 291.800781 296.464844 L 295.273438 296.464844 L 295.273438 299.9375 L 295.941406 299.9375 L 295.941406 296.464844 L 299.417969 296.464844 L 299.417969 295.796875 L 295.941406 295.796875 L 295.941406 292.320312 L 295.273438 292.320312 L 295.273438 295.796875 L 291.800781 295.796875 Z M 291.800781 296.464844 " fill-opacity="1" fill-rule="nonzero"/><g clip-path="url(#4cae3c76d5)"><path fill="#231f20" d="M 367.921875 75.21875 L 367.253906 75.21875 L 367.253906 78.695312 L 363.785156 78.695312 L 363.785156 79.355469 L 367.253906 79.355469 L 367.253906 82.832031 L 367.921875 82.832031 L 367.921875 79.355469 L 371.402344 79.355469 L 371.402344 78.695312 L 367.921875 78.695312 Z M 367.921875 75.21875 " fill-opacity="1" fill-rule="nonzero"/></g><g clip-path="url(#23b9ff1773)"><path fill="#231f20" d="M 8.011719 147.582031 L 7.34375 147.582031 L 7.34375 151.058594 L 3.863281 151.058594 L 3.863281 151.726562 L 7.34375 151.726562 L 7.34375 155.203125 L 8.011719 155.203125 L 8.011719 151.726562 L 11.480469 151.726562 L 11.480469 151.058594 L 8.011719 151.058594 Z M 8.011719 147.582031 " fill-opacity="1" fill-rule="nonzero"/></g><g clip-path="url(#d1dfe9c5d3)"><path fill="#231f20" d="M 367.921875 147.582031 L 367.253906 147.582031 L 367.253906 151.058594 L 363.785156 151.058594 L 363.785156 151.726562 L 367.253906 151.726562 L 367.253906 155.203125 L 367.921875 155.203125 L 367.921875 151.726562 L 371.402344 151.726562 L 371.402344 151.058594 L 367.921875 151.058594 Z M 367.921875 147.582031 " fill-opacity="1" fill-rule="nonzero"/></g><g clip-path="url(#c1f97dbcbd)"><path fill="#231f20" d="M 8.011719 219.949219 L 7.34375 219.949219 L 7.34375 223.429688 L 3.863281 223.429688 L 3.863281 224.097656 L 7.34375 224.097656 L 7.34375 227.574219 L 8.011719 227.574219 L 8.011719 224.097656 L 11.480469 224.097656 L 11.480469 223.429688 L 8.011719 223.429688 Z M 8.011719 219.949219 " fill-opacity="1" fill-rule="nonzero"/></g><g clip-path="url(#749bf35ae0)"><path fill="#231f20" d="M 367.921875 219.949219 L 367.253906 219.949219 L 367.253906 223.429688 L 363.785156 223.429688 L 363.785156 224.097656 L 367.253906 224.097656 L 367.253906 227.574219 L 367.921875 227.574219 L 367.921875 224.097656 L 371.402344 224.097656 L 371.402344 223.429688 L 367.921875 223.429688 Z M 367.921875 219.949219 " fill-opacity="1" fill-rule="nonzero"/></g><g clip-path="url(#7f0f56b59b)"><path fill="#231f20" d="M 8.011719 292.320312 L 7.34375 292.320312 L 7.34375 295.796875 L 3.863281 295.796875 L 3.863281 296.464844 L 7.34375 296.464844 L 7.34375 299.9375 L 8.011719 299.9375 L 8.011719 296.464844 L 11.480469 296.464844 L 11.480469 295.796875 L 8.011719 295.796875 Z M 8.011719 292.320312 " fill-opacity="1" fill-rule="nonzero"/></g><g clip-path="url(#9527720a48)"><path fill="#231f20" d="M 367.921875 292.320312 L 367.253906 292.320312 L 367.253906 295.796875 L 363.785156 295.796875 L 363.785156 296.464844 L 367.253906 296.464844 L 367.253906 299.9375 L 367.921875 299.9375 L 367.921875 296.464844 L 371.402344 296.464844 L 371.402344 295.796875 L 367.921875 295.796875 Z M 367.921875 292.320312 " fill-opacity="1" fill-rule="nonzero"/></g><g clip-path="url(#ddf489066e)"><path fill="#231f20" d="M 8.011719 364.691406 L 7.34375 364.691406 L 7.34375 368.167969 L 3.863281 368.167969 L 3.863281 368.828125 L 7.34375 368.828125 L 7.34375 372.304688 L 8.011719 372.304688 L 8.011719 368.828125 L 11.480469 368.828125 L 11.480469 368.167969 L 8.011719 368.167969 Z M 8.011719 364.691406 " fill-opacity="1" fill-rule="nonzero"/></g><g clip-path="url(#f807262453)"><path fill="#231f20" d="M 79.992188 364.691406 L 79.324219 364.691406 L 79.324219 368.167969 L 75.847656 368.167969 L 75.847656 368.828125 L 79.324219 368.828125 L 79.324219 372.304688 L 79.992188 372.304688 L 79.992188 368.828125 L 83.472656 368.828125 L 83.472656 368.167969 L 79.992188 368.167969 Z M 79.992188 364.691406 " fill-opacity="1" fill-rule="nonzero"/></g><g clip-path="url(#5b037f451e)"><path fill="#231f20" d="M 151.976562 364.691406 L 151.308594 364.691406 L 151.308594 368.167969 L 147.828125 368.167969 L 147.828125 368.828125 L 151.308594 368.828125 L 151.308594 372.304688 L 151.976562 372.304688 L 151.976562 368.828125 L 155.453125 368.828125 L 155.453125 368.167969 L 151.976562 368.167969 Z M 151.976562 364.691406 " fill-opacity="1" fill-rule="nonzero"/></g><g clip-path="url(#032ef046ce)"><path fill="#231f20" d="M 223.957031 364.691406 L 223.289062 364.691406 L 223.289062 368.167969 L 219.8125 368.167969 L 219.8125 368.828125 L 223.289062 368.828125 L 223.289062 372.304688 L 223.957031 372.304688 L 223.957031 368.828125 L 227.4375 368.828125 L 227.4375 368.167969 L 223.957031 368.167969 Z M 223.957031 364.691406 " fill-opacity="1" fill-rule="nonzero"/></g><g clip-path="url(#9b373a81cd)"><path fill="#231f20" d="M 295.941406 364.691406 L 295.273438 364.691406 L 295.273438 368.167969 L 291.792969 368.167969 L 291.792969 368.828125 L 295.273438 368.828125 L 295.273438 372.304688 L 295.941406 372.304688 L 295.941406 368.828125 L 299.417969 368.828125 L 299.417969 368.167969 L 295.941406 368.167969 Z M 295.941406 364.691406 " fill-opacity="1" fill-rule="nonzero"/></g><g clip-path="url(#add79952eb)"><path fill="#231f20" d="M 367.921875 364.691406 L 367.253906 364.691406 L 367.253906 368.167969 L 363.785156 368.167969 L 363.785156 368.828125 L 367.253906 368.828125 L 367.253906 372.304688 L 367.921875 372.304688 L 367.921875 368.828125 L 371.402344 368.828125 L 371.402344 368.167969 L 367.921875 368.167969 Z M 367.921875 364.691406 " fill-opacity="1" fill-rule="nonzero"/></g><g clip-path="url(#62768fe560)"><path fill="#231f20" d="M 8.011719 2.847656 L 7.34375 2.847656 L 7.34375 6.324219 L 3.863281 6.324219 L 3.863281 6.992188 L 7.34375 6.992188 L 7.34375 10.464844 L 8.011719 10.464844 L 8.011719 6.992188 L 11.480469 6.992188 L 11.480469 6.324219 L 8.011719 6.324219 Z M 8.011719 2.847656 " fill-opacity="1" fill-rule="nonzero"/></g><g clip-path="url(#1ae28c878c)"><path fill="#231f20" d="M 79.992188 2.847656 L 79.324219 2.847656 L 79.324219 6.324219 L 75.847656 6.324219 L 75.847656 6.992188 L 79.324219 6.992188 L 79.324219 10.464844 L 79.992188 10.464844 L 79.992188 6.992188 L 83.472656 6.992188 L 83.472656 6.324219 L 79.992188 6.324219 Z M 79.992188 2.847656 " fill-opacity="1" fill-rule="nonzero"/></g><g clip-path="url(#9035a589e5)"><path fill="#231f20" d="M 151.976562 2.847656 L 151.308594 2.847656 L 151.308594 6.324219 L 147.828125 6.324219 L 147.828125 6.992188 L 151.308594 6.992188 L 151.308594 10.464844 L 151.976562 10.464844 L 151.976562 6.992188 L 155.453125 6.992188 L 155.453125 6.324219 L 151.976562 6.324219 Z M 151.976562 2.847656 " fill-opacity="1" fill-rule="nonzero"/></g><g clip-path="url(#d6d92112c3)"><path fill="#231f20" d="M 223.957031 2.847656 L 223.289062 2.847656 L 223.289062 6.324219 L 219.8125 6.324219 L 219.8125 6.992188 L 223.289062 6.992188 L 223.289062 10.464844 L 223.957031 10.464844 L 223.957031 6.992188 L 227.4375 6.992188 L 227.4375 6.324219 L 223.957031 6.324219 Z M 223.957031 2.847656 " fill-opacity="1" fill-rule="nonzero"/></g><g clip-path="url(#5ff6ae4b83)"><path fill="#231f20" d="M 295.941406 2.847656 L 295.273438 2.847656 L 295.273438 6.324219 L 291.792969 6.324219 L 291.792969 6.992188 L 295.273438 6.992188 L 295.273438 10.464844 L 295.941406 10.464844 L 295.941406 6.992188 L 299.417969 6.992188 L 299.417969 6.324219 L 295.941406 6.324219 Z M 295.941406 2.847656 " fill-opacity="1" fill-rule="nonzero"/></g><g clip-path="url(#19a898deb5)"><path fill="#231f20" d="M 367.921875 6.324219 L 367.921875 2.847656 L 367.253906 2.847656 L 367.253906 6.324219 L 363.785156 6.324219 L 363.785156 6.992188 L 367.253906 6.992188 L 367.253906 10.464844 L 367.921875 10.464844 L 367.921875 6.992188 L 371.402344 6.992188 L 371.402344 6.324219 Z M 367.921875 6.324219 " fill-opacity="1" fill-rule="nonzero"/></g><g clip-path="url(#9567424881)"><path fill="#231f20" d="M 8.011719 75.21875 L 7.34375 75.21875 L 7.34375 78.695312 L 3.863281 78.695312 L 3.863281 79.355469 L 7.34375 79.355469 L 7.34375 82.832031 L 8.011719 82.832031 L 8.011719 79.355469 L 11.480469 79.355469 L 11.480469 78.695312 L 8.011719 78.695312 Z M 8.011719 75.21875 " fill-opacity="1" fill-rule="nonzero"/></g><path fill="#231f20" d="M 79.992188 75.21875 L 79.324219 75.21875 L 79.324219 78.695312 L 75.847656 78.695312 L 75.847656 79.355469 L 79.324219 79.355469 L 79.324219 82.832031 L 79.992188 82.832031 L 79.992188 79.355469 L 83.472656 79.355469 L 83.472656 78.695312 L 79.992188 78.695312 Z M 79.992188 75.21875 " fill-opacity="1" fill-rule="nonzero"/><path fill="#231f20" d="M 151.976562 75.21875 L 151.308594 75.21875 L 151.308594 78.695312 L 147.828125 78.695312 L 147.828125 79.355469 L 151.308594 79.355469 L 151.308594 82.832031 L 151.976562 82.832031 L 151.976562 79.355469 L 155.453125 79.355469 L 155.453125 78.695312 L 151.976562 78.695312 Z M 151.976562 75.21875 " fill-opacity="1" fill-rule="nonzero"/><path fill="#231f20" d="M 223.289062 75.21875 L 223.289062 78.695312 L 219.8125 78.695312 L 219.8125 79.355469 L 223.289062 79.355469 L 223.289062 82.832031 L 223.957031 82.832031 L 223.957031 79.355469 L 227.4375 79.355469 L 227.4375 78.695312 L 223.957031 78.695312 L 223.957031 75.21875 Z M 223.289062 75.21875 " fill-opacity="1" fill-rule="nonzero"/><path fill="#231f20" d="M 295.273438 75.21875 L 295.273438 78.695312 L 291.800781 78.695312 L 291.800781 79.355469 L 295.273438 79.355469 L 295.273438 82.832031 L 295.941406 82.832031 L 295.941406 79.355469 L 299.417969 79.355469 L 299.417969 78.695312 L 295.941406 78.695312 L 295.941406 75.21875 Z M 295.273438 75.21875 " fill-opacity="1" fill-rule="nonzero"/><path fill="#231f20" d="M 79.992188 147.582031 L 79.324219 147.582031 L 79.324219 151.058594 L 75.847656 151.058594 L 75.847656 151.726562 L 79.324219 151.726562 L 79.324219 155.203125 L 79.992188 155.203125 L 79.992188 151.726562 L 83.472656 151.726562 L 83.472656 151.058594 L 79.992188 151.058594 Z M 79.992188 147.582031 " fill-opacity="1" fill-rule="nonzero"/><path fill="#231f20" d="M 151.976562 147.582031 L 151.308594 147.582031 L 151.308594 151.058594 L 147.828125 151.058594 L 147.828125 151.726562 L 151.308594 151.726562 L 151.308594 155.203125 L 151.976562 155.203125 L 151.976562 151.726562 L 155.453125 151.726562 L 155.453125 151.058594 L 151.976562 151.058594 Z M 151.976562 147.582031 " fill-opacity="1" fill-rule="nonzero"/><path fill="#231f20" d="M 219.8125 151.726562 L 223.289062 151.726562 L 223.289062 155.203125 L 223.957031 155.203125 L 223.957031 151.726562 L 227.4375 151.726562 L 227.4375 151.058594 L 223.957031 151.058594 L 223.957031 147.582031 L 223.289062 147.582031 L 223.289062 151.058594 L 219.8125 151.058594 Z M 219.8125 151.726562 " fill-opacity="1" fill-rule="nonzero"/><path fill="#231f20" d="M 291.800781 151.726562 L 295.273438 151.726562 L 295.273438 155.203125 L 295.941406 155.203125 L 295.941406 151.726562 L 299.417969 151.726562 L 299.417969 151.058594 L 295.941406 151.058594 L 295.941406 147.582031 L 295.273438 147.582031 L 295.273438 151.058594 L 291.800781 151.058594 Z M 291.800781 151.726562 " fill-opacity="1" fill-rule="nonzero"/><path fill="#231f20" d="M 79.992188 219.949219 L 79.324219 219.949219 L 79.324219 223.429688 L 75.847656 223.429688 L 75.847656 224.097656 L 79.324219 224.097656 L 79.324219 227.574219 L 79.992188 227.574219 L 79.992188 224.097656 L 83.472656 224.097656 L 83.472656 223.429688 L 79.992188 223.429688 Z M 79.992188 219.949219 " fill-opacity="1" fill-rule="nonzero"/><path fill="#231f20" d="M 151.976562 219.949219 L 151.308594 219.949219 L 151.308594 223.429688 L 147.828125 223.429688 L 147.828125 224.097656 L 151.308594 224.097656 L 151.308594 227.574219 L 151.976562 227.574219 L 151.976562 224.097656 L 155.453125 224.097656 L 155.453125 223.429688 L 151.976562 223.429688 Z M 151.976562 219.949219 " fill-opacity="1" fill-rule="nonzero"/><path fill="#231f20" d="M 219.8125 224.097656 L 223.289062 224.097656 L 223.289062 227.574219 L 223.957031 227.574219 L 223.957031 224.097656 L 227.4375 224.097656 L 227.4375 223.429688 L 223.957031 223.429688 L 223.957031 219.949219 L 223.289062 219.949219 L 223.289062 223.429688 L 219.8125 223.429688 Z M 219.8125 224.097656 " fill-opacity="1" fill-rule="nonzero"/><path fill="#231f20" d="M 291.800781 224.097656 L 295.273438 224.097656 L 295.273438 227.574219 L 295.941406 227.574219 L 295.941406 224.097656 L 299.417969 224.097656 L 299.417969 223.429688 L 295.941406 223.429688 L 295.941406 219.949219 L 295.273438 219.949219 L 295.273438 223.429688 L 291.800781 223.429688 Z M 291.800781 224.097656 " fill-opacity="1" fill-rule="nonzero"/><path fill="#231f20" d="M 79.992188 292.320312 L 79.324219 292.320312 L 79.324219 295.796875 L 75.847656 295.796875 L 75.847656 296.464844 L 79.324219 296.464844 L 79.324219 299.9375 L 79.992188 299.9375 L 79.992188 296.464844 L 83.472656 296.464844 L 83.472656 295.796875 L 79.992188 295.796875 Z M 79.992188 292.320312 " fill-opacity="1" fill-rule="nonzero"/><path fill="#231f20" d="M 151.976562 292.320312 L 151.308594 292.320312 L 151.308594 295.796875 L 147.828125 295.796875 L 147.828125 296.464844 L 151.308594 296.464844 L 151.308594 299.9375 L 151.976562 299.9375 L 151.976562 296.464844 L 155.453125 296.464844 L 155.453125 295.796875 L 151.976562 295.796875 Z M 151.976562 292.320312 " fill-opacity="1" fill-rule="nonzero"/><path fill="#231f20" d="M 219.8125 296.464844 L 223.289062 296.464844 L 223.289062 299.9375 L 223.957031 299.9375 L 223.957031 296.464844 L 227.4375 296.464844 L 227.4375 295.796875 L 223.957031 295.796875 L 223.957031 292.320312 L 223.289062 292.320312 L 223.289062 295.796875 L 219.8125 295.796875 Z M 219.8125 296.464844 " fill-opacity="1" fill-rule="nonzero"/><path fill="#231f20" d="M 291.800781 296.464844 L 295.273438 296.464844 L 295.273438 299.9375 L 295.941406 299.9375 L 295.941406 296.464844 L 299.417969 296.464844 L 299.417969 295.796875 L 295.941406 295.796875 L 295.941406 292.320312 L 295.273438 292.320312 L 295.273438 295.796875 L 291.800781 295.796875 Z M 291.800781 296.464844 " fill-opacity="1" fill-rule="nonzero"/><g clip-path="url(#28e590d3be)"><path fill="#231f20" d="M 367.921875 75.21875 L 367.253906 75.21875 L 367.253906 78.695312 L 363.785156 78.695312 L 363.785156 79.355469 L 367.253906 79.355469 L 367.253906 82.832031 L 367.921875 82.832031 L 367.921875 79.355469 L 371.402344 79.355469 L 371.402344 78.695312 L 367.921875 78.695312 Z M 367.921875 75.21875 " fill-opacity="1" fill-rule="nonzero"/></g><g clip-path="url(#ac077590c7)"><path fill="#231f20" d="M 8.011719 147.582031 L 7.34375 147.582031 L 7.34375 151.058594 L 3.863281 151.058594 L 3.863281 151.726562 L 7.34375 151.726562 L 7.34375 155.203125 L 8.011719 155.203125 L 8.011719 151.726562 L 11.480469 151.726562 L 11.480469 151.058594 L 8.011719 151.058594 Z M 8.011719 147.582031 " fill-opacity="1" fill-rule="nonzero"/></g><g clip-path="url(#e0d89eaa17)"><path fill="#231f20" d="M 367.921875 147.582031 L 367.253906 147.582031 L 367.253906 151.058594 L 363.785156 151.058594 L 363.785156 151.726562 L 367.253906 151.726562 L 367.253906 155.203125 L 367.921875 155.203125 L 367.921875 151.726562 L 371.402344 151.726562 L 371.402344 151.058594 L 367.921875 151.058594 Z M 367.921875 147.582031 " fill-opacity="1" fill-rule="nonzero"/></g><g clip-path="url(#78b92d9e4e)"><path fill="#231f20" d="M 8.011719 219.949219 L 7.34375 219.949219 L 7.34375 223.429688 L 3.863281 223.429688 L 3.863281 224.097656 L 7.34375 224.097656 L 7.34375 227.574219 L 8.011719 227.574219 L 8.011719 224.097656 L 11.480469 224.097656 L 11.480469 223.429688 L 8.011719 223.429688 Z M 8.011719 219.949219 " fill-opacity="1" fill-rule="nonzero"/></g><g clip-path="url(#99f958b796)"><path fill="#231f20" d="M 367.921875 219.949219 L 367.253906 219.949219 L 367.253906 223.429688 L 363.785156 223.429688 L 363.785156 224.097656 L 367.253906 224.097656 L 367.253906 227.574219 L 367.921875 227.574219 L 367.921875 224.097656 L 371.402344 224.097656 L 371.402344 223.429688 L 367.921875 223.429688 Z M 367.921875 219.949219 " fill-opacity="1" fill-rule="nonzero"/></g><g clip-path="url(#82d4b2fc1b)"><path fill="#231f20" d="M 8.011719 292.320312 L 7.34375 292.320312 L 7.34375 295.796875 L 3.863281 295.796875 L 3.863281 296.464844 L 7.34375 296.464844 L 7.34375 299.9375 L 8.011719 299.9375 L 8.011719 296.464844 L 11.480469 296.464844 L 11.480469 295.796875 L 8.011719 295.796875 Z M 8.011719 292.320312 " fill-opacity="1" fill-rule="nonzero"/></g><g clip-path="url(#e37fe4e64d)"><path fill="#231f20" d="M 367.921875 292.320312 L 367.253906 292.320312 L 367.253906 295.796875 L 363.785156 295.796875 L 363.785156 296.464844 L 367.253906 296.464844 L 367.253906 299.9375 L 367.921875 299.9375 L 367.921875 296.464844 L 371.402344 296.464844 L 371.402344 295.796875 L 367.921875 295.796875 Z M 367.921875 292.320312 " fill-opacity="1" fill-rule="nonzero"/></g><g clip-path="url(#d02137c22e)"><path fill="#231f20" d="M 8.011719 364.691406 L 7.34375 364.691406 L 7.34375 368.167969 L 3.863281 368.167969 L 3.863281 368.828125 L 7.34375 368.828125 L 7.34375 372.304688 L 8.011719 372.304688 L 8.011719 368.828125 L 11.480469 368.828125 L 11.480469 368.167969 L 8.011719 368.167969 Z M 8.011719 364.691406 " fill-opacity="1" fill-rule="nonzero"/></g><g clip-path="url(#06c6348e0a)"><path fill="#231f20" d="M 79.992188 364.691406 L 79.324219 364.691406 L 79.324219 368.167969 L 75.847656 368.167969 L 75.847656 368.828125 L 79.324219 368.828125 L 79.324219 372.304688 L 79.992188 372.304688 L 79.992188 368.828125 L 83.472656 368.828125 L 83.472656 368.167969 L 79.992188 368.167969 Z M 79.992188 364.691406 " fill-opacity="1" fill-rule="nonzero"/></g><g clip-path="url(#1f3a0fa61b)"><path fill="#231f20" d="M 151.976562 364.691406 L 151.308594 364.691406 L 151.308594 368.167969 L 147.828125 368.167969 L 147.828125 368.828125 L 151.308594 368.828125 L 151.308594 372.304688 L 151.976562 372.304688 L 151.976562 368.828125 L 155.453125 368.828125 L 155.453125 368.167969 L 151.976562 368.167969 Z M 151.976562 364.691406 " fill-opacity="1" fill-rule="nonzero"/></g><g clip-path="url(#015f3e031e)"><path fill="#231f20" d="M 223.957031 364.691406 L 223.289062 364.691406 L 223.289062 368.167969 L 219.8125 368.167969 L 219.8125 368.828125 L 223.289062 368.828125 L 223.289062 372.304688 L 223.957031 372.304688 L 223.957031 368.828125 L 227.4375 368.828125 L 227.4375 368.167969 L 223.957031 368.167969 Z M 223.957031 364.691406 " fill-opacity="1" fill-rule="nonzero"/></g><g clip-path="url(#5a09891e39)"><path fill="#231f20" d="M 295.941406 364.691406 L 295.273438 364.691406 L 295.273438 368.167969 L 291.792969 368.167969 L 291.792969 368.828125 L 295.273438 368.828125 L 295.273438 372.304688 L 295.941406 372.304688 L 295.941406 368.828125 L 299.417969 368.828125 L 299.417969 368.167969 L 295.941406 368.167969 Z M 295.941406 364.691406 " fill-opacity="1" fill-rule="nonzero"/></g><g clip-path="url(#537ef53acb)"><path fill="#231f20" d="M 367.921875 364.691406 L 367.253906 364.691406 L 367.253906 368.167969 L 363.785156 368.167969 L 363.785156 368.828125 L 367.253906 368.828125 L 367.253906 372.304688 L 367.921875 372.304688 L 367.921875 368.828125 L 371.402344 368.828125 L 371.402344 368.167969 L 367.921875 368.167969 Z M 367.921875 364.691406 " fill-opacity="1" fill-rule="nonzero"/></g></svg>