<svg xmlns="http://www.w3.org/2000/svg" xmlns:xlink="http://www.w3.org/1999/xlink" width="500" zoomAndPan="magnify" viewBox="0 0 375 374.999991" height="500" preserveAspectRatio="xMidYMid meet" version="1.0"><defs><clipPath id="a3a8342202"><path d="M 213.300781 121.597656 L 356.328125 121.597656 L 356.328125 277 L 213.300781 277 Z M 213.300781 121.597656 " clip-rule="nonzero"/></clipPath><clipPath id="c4ac3dc555"><path d="M 284.8125 121.597656 C 245.316406 121.597656 213.300781 156.417969 213.300781 199.375 C 213.300781 242.328125 245.316406 277.152344 284.8125 277.152344 C 324.308594 277.152344 356.328125 242.328125 356.328125 199.375 C 356.328125 156.417969 324.308594 121.597656 284.8125 121.597656 Z M 284.8125 121.597656 " clip-rule="nonzero"/></clipPath><clipPath id="82016a7ec1"><path d="M 252.582031 134.527344 L 368.285156 134.527344 L 368.285156 250.230469 L 252.582031 250.230469 Z M 252.582031 134.527344 " clip-rule="nonzero"/></clipPath><clipPath id="75e8b023be"><path d="M 310.433594 134.527344 C 278.484375 134.527344 252.582031 160.429688 252.582031 192.378906 C 252.582031 224.328125 278.484375 250.230469 310.433594 250.230469 C 342.382812 250.230469 368.285156 224.328125 368.285156 192.378906 C 368.285156 160.429688 342.382812 134.527344 310.433594 134.527344 Z M 310.433594 134.527344 " clip-rule="nonzero"/></clipPath><clipPath id="22e98362d4"><path d="M 304.441406 102.03125 L 375 102.03125 L 375 293 L 304.441406 293 Z M 304.441406 102.03125 " clip-rule="nonzero"/></clipPath><clipPath id="36521fbe99"><path d="M 213.300781 85.734375 L 366.273438 85.734375 L 366.273438 188.480469 L 213.300781 188.480469 Z M 213.300781 85.734375 " clip-rule="nonzero"/></clipPath><clipPath id="87cc9d9c21"><path d="M 72.484375 107.496094 L 252.582031 107.496094 L 252.582031 287.59375 L 72.484375 287.59375 Z M 72.484375 107.496094 " clip-rule="nonzero"/></clipPath><clipPath id="bb36c8e275"><path d="M 162.535156 107.496094 C 112.800781 107.496094 72.484375 147.8125 72.484375 197.546875 C 72.484375 247.277344 112.800781 287.59375 162.535156 287.59375 C 212.265625 287.59375 252.582031 247.277344 252.582031 197.546875 C 252.582031 147.8125 212.265625 107.496094 162.535156 107.496094 Z M 162.535156 107.496094 " clip-rule="nonzero"/></clipPath><clipPath id="6f4dc98b29"><path d="M 72.484375 189.15625 L 107.996094 189.15625 L 107.996094 320.511719 L 72.484375 320.511719 Z M 72.484375 189.15625 " clip-rule="nonzero"/></clipPath><clipPath id="64da5bf09c"><path d="M 217.074219 70.761719 L 252.582031 70.761719 L 252.582031 191.617188 L 217.074219 191.617188 Z M 217.074219 70.761719 " clip-rule="nonzero"/></clipPath><clipPath id="7bef5de5e6"><path d="M 104.894531 141.394531 L 220.171875 141.394531 L 220.171875 256.671875 L 104.894531 256.671875 Z M 104.894531 141.394531 " clip-rule="nonzero"/></clipPath><clipPath id="41b60915ff"><path d="M 162.535156 141.394531 C 130.699219 141.394531 104.894531 167.199219 104.894531 199.03125 C 104.894531 230.867188 130.699219 256.671875 162.535156 256.671875 C 194.367188 256.671875 220.171875 230.867188 220.171875 199.03125 C 220.171875 167.199219 194.367188 141.394531 162.535156 141.394531 Z M 162.535156 141.394531 " clip-rule="nonzero"/></clipPath></defs><rect x="-37.5" width="450" fill="#ffffff" y="-37.499999" height="449.999989" fill-opacity="1"/><rect x="-37.5" width="450" fill="#000000" y="-37.499999" height="449.999989" fill-opacity="1"/><g clip-path="url(#a3a8342202)"><g clip-path="url(#c4ac3dc555)"><path fill="#ffffff" d="M 213.300781 121.597656 L 356.328125 121.597656 L 356.328125 276.914062 L 213.300781 276.914062 Z M 213.300781 121.597656 " fill-opacity="1" fill-rule="nonzero"/></g></g><g clip-path="url(#82016a7ec1)"><g clip-path="url(#75e8b023be)"><path fill="#000000" d="M 252.582031 134.527344 L 368.285156 134.527344 L 368.285156 250.230469 L 252.582031 250.230469 Z M 252.582031 134.527344 " fill-opacity="1" fill-rule="nonzero"/></g></g><g clip-path="url(#22e98362d4)"><path fill="#000000" d="M 304.441406 102.03125 L 392.992188 102.03125 L 392.992188 292.96875 L 304.441406 292.96875 Z M 304.441406 102.03125 " fill-opacity="1" fill-rule="nonzero"/></g><g clip-path="url(#36521fbe99)"><path fill="#000000" d="M 213.300781 85.734375 L 366.214844 85.734375 L 366.214844 188.480469 L 213.300781 188.480469 Z M 213.300781 85.734375 " fill-opacity="1" fill-rule="nonzero"/></g><g clip-path="url(#87cc9d9c21)"><g clip-path="url(#bb36c8e275)"><path fill="#ffffff" d="M 72.484375 107.496094 L 252.582031 107.496094 L 252.582031 287.59375 L 72.484375 287.59375 Z M 72.484375 107.496094 " fill-opacity="1" fill-rule="nonzero"/></g></g><g clip-path="url(#6f4dc98b29)"><path fill="#ffffff" d="M 72.484375 189.15625 L 107.996094 189.15625 L 107.996094 320.511719 L 72.484375 320.511719 Z M 72.484375 189.15625 " fill-opacity="1" fill-rule="nonzero"/></g><g clip-path="url(#64da5bf09c)"><path fill="#ffffff" d="M 217.074219 70.761719 L 252.582031 70.761719 L 252.582031 191.578125 L 217.074219 191.578125 Z M 217.074219 70.761719 " fill-opacity="1" fill-rule="nonzero"/></g><g clip-path="url(#7bef5de5e6)"><g clip-path="url(#41b60915ff)"><path fill="#000000" d="M 104.894531 141.394531 L 220.171875 141.394531 L 220.171875 256.671875 L 104.894531 256.671875 Z M 104.894531 141.394531 " fill-opacity="1" fill-rule="nonzero"/></g></g></svg>