<svg xmlns="http://www.w3.org/2000/svg" xmlns:xlink="http://www.w3.org/1999/xlink" width="500" zoomAndPan="magnify" viewBox="0 0 375 374.999991" height="500" preserveAspectRatio="xMidYMid meet" version="1.0"><defs><clipPath id="15cc14b157"><path d="M 216.386719 99.722656 L 375 99.722656 L 375 290 L 216.386719 290 Z M 216.386719 99.722656 " clip-rule="nonzero"/></clipPath><clipPath id="c0c260b404"><path d="M 302.351562 99.722656 C 254.875 99.722656 216.386719 142.34375 216.386719 194.917969 C 216.386719 247.496094 254.875 290.117188 302.351562 290.117188 C 349.832031 290.117188 388.320312 247.496094 388.320312 194.917969 C 388.320312 142.34375 349.832031 99.722656 302.351562 99.722656 Z M 302.351562 99.722656 " clip-rule="nonzero"/></clipPath><clipPath id="a07b71779e"><path d="M 263.609375 115.546875 L 375 115.546875 L 375 257.347656 L 263.609375 257.347656 Z M 263.609375 115.546875 " clip-rule="nonzero"/></clipPath><clipPath id="8b0bc4a66e"><path d="M 333.152344 115.546875 C 294.742188 115.546875 263.609375 147.25 263.609375 186.355469 C 263.609375 225.464844 294.742188 257.167969 333.152344 257.167969 C 371.558594 257.167969 402.691406 225.464844 402.691406 186.355469 C 402.691406 147.25 371.558594 115.546875 333.152344 115.546875 Z M 333.152344 115.546875 " clip-rule="nonzero"/></clipPath><clipPath id="ac96a73d02"><path d="M 325.945312 75.769531 L 375 75.769531 L 375 309.59375 L 325.945312 309.59375 Z M 325.945312 75.769531 " clip-rule="nonzero"/></clipPath><clipPath id="b9c8e71edf"><path d="M 216.386719 55.828125 L 375 55.828125 L 375 181.585938 L 216.386719 181.585938 Z M 216.386719 55.828125 " clip-rule="nonzero"/></clipPath><clipPath id="dfd5f412e0"><path d="M 47.117188 82.464844 L 263.609375 82.464844 L 263.609375 303 L 47.117188 303 Z M 47.117188 82.464844 " clip-rule="nonzero"/></clipPath><clipPath id="1545702506"><path d="M 155.363281 82.464844 C 95.578125 82.464844 47.117188 131.808594 47.117188 192.679688 C 47.117188 253.554688 95.578125 302.898438 155.363281 302.898438 C 215.144531 302.898438 263.609375 253.554688 263.609375 192.679688 C 263.609375 131.808594 215.144531 82.464844 155.363281 82.464844 Z M 155.363281 82.464844 " clip-rule="nonzero"/></clipPath><clipPath id="737b304508"><path d="M 47.117188 182.410156 L 89.800781 182.410156 L 89.800781 343.1875 L 47.117188 343.1875 Z M 47.117188 182.410156 " clip-rule="nonzero"/></clipPath><clipPath id="b97883f88d"><path d="M 220.921875 37.5 L 263.609375 37.5 L 263.609375 185.425781 L 220.921875 185.425781 Z M 220.921875 37.5 " clip-rule="nonzero"/></clipPath><clipPath id="194f827773"><path d="M 86.074219 123.953125 L 224.648438 123.953125 L 224.648438 265.234375 L 86.074219 265.234375 Z M 86.074219 123.953125 " clip-rule="nonzero"/></clipPath><clipPath id="630e882cd4"><path d="M 155.363281 123.953125 C 117.09375 123.953125 86.074219 155.539062 86.074219 194.5 C 86.074219 233.464844 117.09375 265.050781 155.363281 265.050781 C 193.628906 265.050781 224.648438 233.464844 224.648438 194.5 C 224.648438 155.539062 193.628906 123.953125 155.363281 123.953125 Z M 155.363281 123.953125 " clip-rule="nonzero"/></clipPath></defs><rect x="-37.5" width="450" fill="#ffffff" y="-37.499999" height="449.999989" fill-opacity="1"/><rect x="-37.5" width="450" fill="#000000" y="-37.499999" height="449.999989" fill-opacity="1"/><g clip-path="url(#15cc14b157)"><g clip-path="url(#c0c260b404)"><path fill="#ffffff" d="M 216.386719 99.722656 L 388.320312 99.722656 L 388.320312 289.785156 L 216.386719 289.785156 Z M 216.386719 99.722656 " fill-opacity="1" fill-rule="nonzero"/></g></g><g clip-path="url(#a07b71779e)"><g clip-path="url(#8b0bc4a66e)"><path fill="#000000" d="M 263.609375 115.546875 L 402.691406 115.546875 L 402.691406 257.347656 L 263.609375 257.347656 Z M 263.609375 115.546875 " fill-opacity="1" fill-rule="nonzero"/></g></g><g clip-path="url(#ac96a73d02)"><path fill="#000000" d="M 325.945312 75.769531 L 432.394531 75.769531 L 432.394531 309.453125 L 325.945312 309.453125 Z M 325.945312 75.769531 " fill-opacity="1" fill-rule="nonzero"/></g><g clip-path="url(#b9c8e71edf)"><path fill="#000000" d="M 216.386719 55.828125 L 400.113281 55.828125 L 400.113281 181.585938 L 216.386719 181.585938 Z M 216.386719 55.828125 " fill-opacity="1" fill-rule="nonzero"/></g><g clip-path="url(#dfd5f412e0)"><g clip-path="url(#1545702506)"><path fill="#ffffff" d="M 47.117188 82.464844 L 263.609375 82.464844 L 263.609375 303.183594 L 47.117188 303.183594 Z M 47.117188 82.464844 " fill-opacity="1" fill-rule="nonzero"/></g></g><g clip-path="url(#737b304508)"><path fill="#ffffff" d="M 47.117188 182.410156 L 89.800781 182.410156 L 89.800781 343.148438 L 47.117188 343.148438 Z M 47.117188 182.410156 " fill-opacity="1" fill-rule="nonzero"/></g><g clip-path="url(#b97883f88d)"><path fill="#ffffff" d="M 220.921875 37.5 L 263.609375 37.5 L 263.609375 185.398438 L 220.921875 185.398438 Z M 220.921875 37.5 " fill-opacity="1" fill-rule="nonzero"/></g><g clip-path="url(#194f827773)"><g clip-path="url(#630e882cd4)"><path fill="#000000" d="M 86.074219 123.953125 L 224.648438 123.953125 L 224.648438 265.234375 L 86.074219 265.234375 Z M 86.074219 123.953125 " fill-opacity="1" fill-rule="nonzero"/></g></g></svg>