<svg xmlns="http://www.w3.org/2000/svg" xmlns:xlink="http://www.w3.org/1999/xlink" width="500" zoomAndPan="magnify" viewBox="0 0 375 374.999991" height="500" preserveAspectRatio="xMidYMid meet" version="1.0"><defs><clipPath id="16dcd1ef2d"><path d="M 225.113281 88.855469 L 375 88.855469 L 375 296 L 225.113281 296 Z M 225.113281 88.855469 " clip-rule="nonzero"/></clipPath><clipPath id="cd55e578a0"><path d="M 320.394531 88.855469 C 267.773438 88.855469 225.113281 135.25 225.113281 192.480469 C 225.113281 249.710938 267.773438 296.105469 320.394531 296.105469 C 373.015625 296.105469 415.671875 249.710938 415.671875 192.480469 C 415.671875 135.25 373.015625 88.855469 320.394531 88.855469 Z M 320.394531 88.855469 " clip-rule="nonzero"/></clipPath><clipPath id="ca5f2ec767"><path d="M 277.449219 106.082031 L 375 106.082031 L 375 260.238281 L 277.449219 260.238281 Z M 277.449219 106.082031 " clip-rule="nonzero"/></clipPath><clipPath id="e0f11bab0e"><path d="M 354.527344 106.082031 C 311.960938 106.082031 277.449219 140.589844 277.449219 183.160156 C 277.449219 225.726562 311.960938 260.238281 354.527344 260.238281 C 397.097656 260.238281 431.605469 225.726562 431.605469 183.160156 C 431.605469 140.589844 397.097656 106.082031 354.527344 106.082031 Z M 354.527344 106.082031 " clip-rule="nonzero"/></clipPath><clipPath id="d9c0e4d108"><path d="M 346.542969 62.785156 L 375 62.785156 L 375 317.304688 L 346.542969 317.304688 Z M 346.542969 62.785156 " clip-rule="nonzero"/></clipPath><clipPath id="238ba07a32"><path d="M 225.113281 41.074219 L 375 41.074219 L 375 177.96875 L 225.113281 177.96875 Z M 225.113281 41.074219 " clip-rule="nonzero"/></clipPath><clipPath id="73b2cb8984"><path d="M 37.5 70.070312 L 277.449219 70.070312 L 277.449219 310.019531 L 37.5 310.019531 Z M 37.5 70.070312 " clip-rule="nonzero"/></clipPath><clipPath id="e64c1cb498"><path d="M 157.476562 70.070312 C 91.214844 70.070312 37.5 123.785156 37.5 190.042969 C 37.5 256.304688 91.214844 310.019531 157.476562 310.019531 C 223.734375 310.019531 277.449219 256.304688 277.449219 190.042969 C 277.449219 123.785156 223.734375 70.070312 157.476562 70.070312 Z M 157.476562 70.070312 " clip-rule="nonzero"/></clipPath><clipPath id="3ca417bbfd"><path d="M 37.5 178.863281 L 84.808594 178.863281 L 84.808594 353.875 L 37.5 353.875 Z M 37.5 178.863281 " clip-rule="nonzero"/></clipPath><clipPath id="93ad704ca1"><path d="M 230.140625 21.125 L 277.449219 21.125 L 277.449219 182.144531 L 230.140625 182.144531 Z M 230.140625 21.125 " clip-rule="nonzero"/></clipPath><clipPath id="da61b85a55"><path d="M 80.679688 115.230469 L 234.269531 115.230469 L 234.269531 268.820312 L 80.679688 268.820312 Z M 80.679688 115.230469 " clip-rule="nonzero"/></clipPath><clipPath id="7466abf844"><path d="M 157.476562 115.230469 C 115.0625 115.230469 80.679688 149.613281 80.679688 192.023438 C 80.679688 234.4375 115.0625 268.820312 157.476562 268.820312 C 199.886719 268.820312 234.269531 234.4375 234.269531 192.023438 C 234.269531 149.613281 199.886719 115.230469 157.476562 115.230469 Z M 157.476562 115.230469 " clip-rule="nonzero"/></clipPath></defs><rect x="-37.5" width="450" fill="#ffffff" y="-37.499999" height="449.999989" fill-opacity="1"/><rect x="-37.5" width="450" fill="#000000" y="-37.499999" height="449.999989" fill-opacity="1"/><g clip-path="url(#16dcd1ef2d)"><g clip-path="url(#cd55e578a0)"><path fill="#ffffff" d="M 225.113281 88.855469 L 415.671875 88.855469 L 415.671875 295.789062 L 225.113281 295.789062 Z M 225.113281 88.855469 " fill-opacity="1" fill-rule="nonzero"/></g></g><g clip-path="url(#ca5f2ec767)"><g clip-path="url(#e0f11bab0e)"><path fill="#000000" d="M 277.449219 106.082031 L 431.605469 106.082031 L 431.605469 260.238281 L 277.449219 260.238281 Z M 277.449219 106.082031 " fill-opacity="1" fill-rule="nonzero"/></g></g><g clip-path="url(#d9c0e4d108)"><path fill="#000000" d="M 346.542969 62.785156 L 464.523438 62.785156 L 464.523438 317.179688 L 346.542969 317.179688 Z M 346.542969 62.785156 " fill-opacity="1" fill-rule="nonzero"/></g><g clip-path="url(#238ba07a32)"><path fill="#000000" d="M 225.113281 41.074219 L 428.847656 41.074219 L 428.847656 177.96875 L 225.113281 177.96875 Z M 225.113281 41.074219 " fill-opacity="1" fill-rule="nonzero"/></g><g clip-path="url(#73b2cb8984)"><g clip-path="url(#e64c1cb498)"><path fill="#ffffff" d="M 37.5 70.070312 L 277.449219 70.070312 L 277.449219 310.019531 L 37.5 310.019531 Z M 37.5 70.070312 " fill-opacity="1" fill-rule="nonzero"/></g></g><g clip-path="url(#3ca417bbfd)"><path fill="#ffffff" d="M 37.5 178.863281 L 84.808594 178.863281 L 84.808594 353.875 L 37.5 353.875 Z M 37.5 178.863281 " fill-opacity="1" fill-rule="nonzero"/></g><g clip-path="url(#93ad704ca1)"><path fill="#ffffff" d="M 230.140625 21.125 L 277.449219 21.125 L 277.449219 182.09375 L 230.140625 182.09375 Z M 230.140625 21.125 " fill-opacity="1" fill-rule="nonzero"/></g><g clip-path="url(#da61b85a55)"><g clip-path="url(#7466abf844)"><path fill="#000000" d="M 80.679688 115.230469 L 234.269531 115.230469 L 234.269531 268.820312 L 80.679688 268.820312 Z M 80.679688 115.230469 " fill-opacity="1" fill-rule="nonzero"/></g></g></svg>