<svg xmlns="http://www.w3.org/2000/svg" xmlns:xlink="http://www.w3.org/1999/xlink" width="500" zoomAndPan="magnify" viewBox="0 0 375 374.999991" height="500" preserveAspectRatio="xMidYMid meet" version="1.0"><defs><clipPath id="b11e8ad742"><path d="M 221.898438 79.101562 L 375 79.101562 L 375 294 L 221.898438 294 Z M 221.898438 79.101562 " clip-rule="nonzero"/></clipPath><clipPath id="60d80ef378"><path d="M 320.6875 79.101562 C 266.128906 79.101562 221.898438 127.207031 221.898438 186.546875 C 221.898438 245.886719 266.128906 293.992188 320.6875 293.992188 C 375.25 293.992188 419.480469 245.886719 419.480469 186.546875 C 419.480469 127.207031 375.25 79.101562 320.6875 79.101562 Z M 320.6875 79.101562 " clip-rule="nonzero"/></clipPath><clipPath id="8ce2a00dd7"><path d="M 276.164062 96.964844 L 375 96.964844 L 375 256.800781 L 276.164062 256.800781 Z M 276.164062 96.964844 " clip-rule="nonzero"/></clipPath><clipPath id="3b4f0ec900"><path d="M 356.082031 96.964844 C 311.945312 96.964844 276.164062 132.746094 276.164062 176.882812 C 276.164062 221.023438 311.945312 256.800781 356.082031 256.800781 C 400.21875 256.800781 436 221.023438 436 176.882812 C 436 132.746094 400.21875 96.964844 356.082031 96.964844 Z M 356.082031 96.964844 " clip-rule="nonzero"/></clipPath><clipPath id="c4b0c997b8"><path d="M 347.800781 52.070312 L 375 52.070312 L 375 315.972656 L 347.800781 315.972656 Z M 347.800781 52.070312 " clip-rule="nonzero"/></clipPath><clipPath id="a582248ded"><path d="M 221.898438 29.5625 L 375 29.5625 L 375 171.5 L 221.898438 171.5 Z M 221.898438 29.5625 " clip-rule="nonzero"/></clipPath><clipPath id="84a652132e"><path d="M 27.367188 59.625 L 276.164062 59.625 L 276.164062 308.421875 L 27.367188 308.421875 Z M 27.367188 59.625 " clip-rule="nonzero"/></clipPath><clipPath id="401c516c87"><path d="M 151.765625 59.625 C 83.0625 59.625 27.367188 115.320312 27.367188 184.023438 C 27.367188 252.726562 83.0625 308.421875 151.765625 308.421875 C 220.46875 308.421875 276.164062 252.726562 276.164062 184.023438 C 276.164062 115.320312 220.46875 59.625 151.765625 59.625 Z M 151.765625 59.625 " clip-rule="nonzero"/></clipPath><clipPath id="1f5ebc6d5b"><path d="M 27.367188 172.429688 L 76.421875 172.429688 L 76.421875 353.890625 L 27.367188 353.890625 Z M 27.367188 172.429688 " clip-rule="nonzero"/></clipPath><clipPath id="c44a462950"><path d="M 227.109375 8.875 L 276.164062 8.875 L 276.164062 175.832031 L 227.109375 175.832031 Z M 227.109375 8.875 " clip-rule="nonzero"/></clipPath><clipPath id="b76b8818c4"><path d="M 72.140625 106.449219 L 231.390625 106.449219 L 231.390625 265.703125 L 72.140625 265.703125 Z M 72.140625 106.449219 " clip-rule="nonzero"/></clipPath><clipPath id="4a622cacd9"><path d="M 151.765625 106.449219 C 107.789062 106.449219 72.140625 142.101562 72.140625 186.074219 C 72.140625 230.050781 107.789062 265.703125 151.765625 265.703125 C 195.742188 265.703125 231.390625 230.050781 231.390625 186.074219 C 231.390625 142.101562 195.742188 106.449219 151.765625 106.449219 Z M 151.765625 106.449219 " clip-rule="nonzero"/></clipPath></defs><g clip-path="url(#b11e8ad742)"><g clip-path="url(#60d80ef378)"><path fill="#ffffff" d="M 221.898438 79.101562 L 419.480469 79.101562 L 419.480469 293.667969 L 221.898438 293.667969 Z M 221.898438 79.101562 " fill-opacity="1" fill-rule="nonzero"/></g></g><g clip-path="url(#8ce2a00dd7)"><g clip-path="url(#3b4f0ec900)"><path fill="#000000" d="M 276.164062 96.964844 L 436 96.964844 L 436 256.800781 L 276.164062 256.800781 Z M 276.164062 96.964844 " fill-opacity="1" fill-rule="nonzero"/></g></g><g clip-path="url(#c4b0c997b8)"><path fill="#000000" d="M 347.800781 52.070312 L 470.132812 52.070312 L 470.132812 315.84375 L 347.800781 315.84375 Z M 347.800781 52.070312 " fill-opacity="1" fill-rule="nonzero"/></g><g clip-path="url(#a582248ded)"><path fill="#000000" d="M 221.898438 29.5625 L 433.140625 29.5625 L 433.140625 171.5 L 221.898438 171.5 Z M 221.898438 29.5625 " fill-opacity="1" fill-rule="nonzero"/></g><g clip-path="url(#84a652132e)"><g clip-path="url(#401c516c87)"><path fill="#ffffff" d="M 27.367188 59.625 L 276.164062 59.625 L 276.164062 308.421875 L 27.367188 308.421875 Z M 27.367188 59.625 " fill-opacity="1" fill-rule="nonzero"/></g></g><g clip-path="url(#1f5ebc6d5b)"><path fill="#ffffff" d="M 27.367188 172.429688 L 76.421875 172.429688 L 76.421875 353.894531 L 27.367188 353.894531 Z M 27.367188 172.429688 " fill-opacity="1" fill-rule="nonzero"/></g><g clip-path="url(#c44a462950)"><path fill="#ffffff" d="M 227.109375 8.875 L 276.164062 8.875 L 276.164062 175.777344 L 227.109375 175.777344 Z M 227.109375 8.875 " fill-opacity="1" fill-rule="nonzero"/></g><g clip-path="url(#b76b8818c4)"><g clip-path="url(#4a622cacd9)"><path fill="#000000" d="M 72.140625 106.449219 L 231.390625 106.449219 L 231.390625 265.703125 L 72.140625 265.703125 Z M 72.140625 106.449219 " fill-opacity="1" fill-rule="nonzero"/></g></g></svg>