<svg xmlns="http://www.w3.org/2000/svg" xmlns:xlink="http://www.w3.org/1999/xlink" width="500" zoomAndPan="magnify" viewBox="0 0 375 374.999991" height="500" preserveAspectRatio="xMidYMid meet" version="1.0"><defs><clipPath id="91d4f444bb"><path d="M 220.910156 95.917969 L 375 95.917969 L 375 288.757812 L 220.910156 288.757812 Z M 220.910156 95.917969 " clip-rule="nonzero"/></clipPath><clipPath id="e5123fe84d"><path d="M 314.054688 95.917969 C 262.613281 95.917969 220.910156 138.992188 220.910156 192.125 C 220.910156 245.253906 262.613281 288.328125 314.054688 288.328125 C 365.496094 288.328125 407.199219 245.253906 407.199219 192.125 C 407.199219 138.992188 365.496094 95.917969 314.054688 95.917969 Z M 314.054688 95.917969 " clip-rule="nonzero"/></clipPath><clipPath id="c94d08ff6d"><path d="M 272.074219 111.914062 L 375 111.914062 L 375 255.027344 L 272.074219 255.027344 Z M 272.074219 111.914062 " clip-rule="nonzero"/></clipPath><clipPath id="bdd57294f7"><path d="M 347.421875 111.914062 C 305.808594 111.914062 272.074219 143.949219 272.074219 183.46875 C 272.074219 222.992188 305.808594 255.027344 347.421875 255.027344 C 389.039062 255.027344 422.773438 222.992188 422.773438 183.46875 C 422.773438 143.949219 389.039062 111.914062 347.421875 111.914062 Z M 347.421875 111.914062 " clip-rule="nonzero"/></clipPath><clipPath id="f3267ecddb"><path d="M 339.617188 71.714844 L 375 71.714844 L 375 308 L 339.617188 308 Z M 339.617188 71.714844 " clip-rule="nonzero"/></clipPath><clipPath id="a4e4d337cc"><path d="M 220.910156 51.5625 L 375 51.5625 L 375 178.648438 L 220.910156 178.648438 Z M 220.910156 51.5625 " clip-rule="nonzero"/></clipPath><clipPath id="fcd4d37a26"><path d="M 37.5 78.480469 L 272.449219 78.480469 L 272.449219 301.246094 L 37.5 301.246094 Z M 37.5 78.480469 " clip-rule="nonzero"/></clipPath><clipPath id="f0737e25d2"><path d="M 154.785156 78.480469 C 90.011719 78.480469 37.5 128.347656 37.5 189.863281 C 37.5 251.375 90.011719 301.246094 154.785156 301.246094 C 219.5625 301.246094 272.074219 251.375 272.074219 189.863281 C 272.074219 128.347656 219.5625 78.480469 154.785156 78.480469 Z M 154.785156 78.480469 " clip-rule="nonzero"/></clipPath><clipPath id="12993390a8"><path d="M 37.5 179.484375 L 83.75 179.484375 L 83.75 341.960938 L 37.5 341.960938 Z M 37.5 179.484375 " clip-rule="nonzero"/></clipPath><clipPath id="a1dd4ecbc3"><path d="M 225.824219 33.039062 L 272.074219 33.039062 L 272.074219 182.527344 L 225.824219 182.527344 Z M 225.824219 33.039062 " clip-rule="nonzero"/></clipPath><clipPath id="22654b5def"><path d="M 79.714844 120.40625 L 230 120.40625 L 230 262.996094 L 79.714844 262.996094 Z M 79.714844 120.40625 " clip-rule="nonzero"/></clipPath><clipPath id="d09de80572"><path d="M 154.785156 120.40625 C 113.324219 120.40625 79.714844 152.324219 79.714844 191.699219 C 79.714844 231.074219 113.324219 262.996094 154.785156 262.996094 C 196.25 262.996094 229.859375 231.074219 229.859375 191.699219 C 229.859375 152.324219 196.25 120.40625 154.785156 120.40625 Z M 154.785156 120.40625 " clip-rule="nonzero"/></clipPath></defs><rect x="-37.5" width="450" fill="#ffffff" y="-37.499999" height="449.999989" fill-opacity="1"/><rect x="-37.5" width="450" fill="#000000" y="-37.499999" height="449.999989" fill-opacity="1"/><g clip-path="url(#91d4f444bb)"><g clip-path="url(#e5123fe84d)"><path fill="#ffffff" d="M 220.910156 95.917969 L 407.199219 95.917969 L 407.199219 288.03125 L 220.910156 288.03125 Z M 220.910156 95.917969 " fill-opacity="1" fill-rule="nonzero"/></g></g><g clip-path="url(#c94d08ff6d)"><g clip-path="url(#bdd57294f7)"><path fill="#000000" d="M 272.074219 111.914062 L 423.015625 111.914062 L 423.015625 255.027344 L 272.074219 255.027344 Z M 272.074219 111.914062 " fill-opacity="1" fill-rule="nonzero"/></g></g><g clip-path="url(#f3267ecddb)"><path fill="#000000" d="M 339.617188 71.714844 L 454.953125 71.714844 L 454.953125 307.796875 L 339.617188 307.796875 Z M 339.617188 71.714844 " fill-opacity="1" fill-rule="nonzero"/></g><g clip-path="url(#a4e4d337cc)"><path fill="#000000" d="M 220.910156 51.5625 L 419.980469 51.5625 L 419.980469 178.648438 L 220.910156 178.648438 Z M 220.910156 51.5625 " fill-opacity="1" fill-rule="nonzero"/></g><g clip-path="url(#fcd4d37a26)"><g clip-path="url(#f0737e25d2)"><path fill="#ffffff" d="M 37.5 78.480469 L 272.449219 78.480469 L 272.449219 301.246094 L 37.5 301.246094 Z M 37.5 78.480469 " fill-opacity="1" fill-rule="nonzero"/></g></g><g clip-path="url(#12993390a8)"><path fill="#ffffff" d="M 37.5 179.484375 L 83.75 179.484375 L 83.75 341.902344 L 37.5 341.902344 Z M 37.5 179.484375 " fill-opacity="1" fill-rule="nonzero"/></g><g clip-path="url(#a1dd4ecbc3)"><path fill="#ffffff" d="M 225.824219 33.039062 L 272.074219 33.039062 L 272.074219 182.449219 L 225.824219 182.449219 Z M 225.824219 33.039062 " fill-opacity="1" fill-rule="nonzero"/></g><g clip-path="url(#22654b5def)"><g clip-path="url(#d09de80572)"><path fill="#000000" d="M 79.714844 120.40625 L 230.101562 120.40625 L 230.101562 262.996094 L 79.714844 262.996094 Z M 79.714844 120.40625 " fill-opacity="1" fill-rule="nonzero"/></g></g></svg>