<svg xmlns="http://www.w3.org/2000/svg" xmlns:xlink="http://www.w3.org/1999/xlink" width="500" zoomAndPan="magnify" viewBox="0 0 375 374.999991" height="500" preserveAspectRatio="xMidYMid meet" version="1.0"><defs><clipPath id="ee346f83ad"><path d="M 235.328125 83.484375 L 375 83.484375 L 375 302 L 235.328125 302 Z M 235.328125 83.484375 " clip-rule="nonzero"/></clipPath><clipPath id="c40ffc22ba"><path d="M 335.796875 83.484375 C 280.308594 83.484375 235.328125 132.402344 235.328125 192.75 C 235.328125 253.097656 280.308594 302.019531 335.796875 302.019531 C 391.28125 302.019531 436.261719 253.097656 436.261719 192.75 C 436.261719 132.402344 391.28125 83.484375 335.796875 83.484375 Z M 335.796875 83.484375 " clip-rule="nonzero"/></clipPath><clipPath id="fe96fe6ed9"><path d="M 290.515625 106.226562 L 375 106.226562 L 375 268.773438 L 290.515625 268.773438 Z M 290.515625 106.226562 " clip-rule="nonzero"/></clipPath><clipPath id="6890bafc2e"><path d="M 371.789062 106.226562 C 326.902344 106.226562 290.515625 142.613281 290.515625 187.5 C 290.515625 232.386719 326.902344 268.773438 371.789062 268.773438 C 416.675781 268.773438 453.0625 232.386719 453.0625 187.5 C 453.0625 142.613281 416.675781 106.226562 371.789062 106.226562 Z M 371.789062 106.226562 " clip-rule="nonzero"/></clipPath><clipPath id="002e38f684"><path d="M 363.367188 64.757812 L 375 64.757812 L 375 333.132812 L 363.367188 333.132812 Z M 363.367188 64.757812 " clip-rule="nonzero"/></clipPath><clipPath id="e746c93aba"><path d="M 235.328125 41.867188 L 375 41.867188 L 375 186.210938 L 235.328125 186.210938 Z M 235.328125 41.867188 " clip-rule="nonzero"/></clipPath><clipPath id="04183a7b5c"><path d="M 37.5 63.675781 L 290.515625 63.675781 L 290.515625 316.691406 L 37.5 316.691406 Z M 37.5 63.675781 " clip-rule="nonzero"/></clipPath><clipPath id="126b531f31"><path d="M 164.007812 63.675781 C 94.140625 63.675781 37.5 120.3125 37.5 190.183594 C 37.5 260.050781 94.140625 316.691406 164.007812 316.691406 C 233.875 316.691406 290.515625 260.050781 290.515625 190.183594 C 290.515625 120.3125 233.875 63.675781 164.007812 63.675781 Z M 164.007812 63.675781 " clip-rule="nonzero"/></clipPath><clipPath id="03151cdb39"><path d="M 37.5 178.394531 L 87.386719 178.394531 L 87.386719 362.933594 L 37.5 362.933594 Z M 37.5 178.394531 " clip-rule="nonzero"/></clipPath><clipPath id="858a288d19"><path d="M 240.628906 12.066406 L 290.515625 12.066406 L 290.515625 181.851562 L 240.628906 181.851562 Z M 240.628906 12.066406 " clip-rule="nonzero"/></clipPath><clipPath id="4cb493da9b"><path d="M 83.03125 115.871094 L 244.984375 115.871094 L 244.984375 277.824219 L 83.03125 277.824219 Z M 83.03125 115.871094 " clip-rule="nonzero"/></clipPath><clipPath id="97156ad600"><path d="M 164.007812 115.871094 C 119.285156 115.871094 83.03125 152.125 83.03125 196.847656 C 83.03125 241.570312 119.285156 277.824219 164.007812 277.824219 C 208.730469 277.824219 244.984375 241.570312 244.984375 196.847656 C 244.984375 152.125 208.730469 115.871094 164.007812 115.871094 Z M 164.007812 115.871094 " clip-rule="nonzero"/></clipPath></defs><g clip-path="url(#ee346f83ad)"><g clip-path="url(#c40ffc22ba)"><path fill="#000000" d="M 235.328125 83.484375 L 436.261719 83.484375 L 436.261719 301.6875 L 235.328125 301.6875 Z M 235.328125 83.484375 " fill-opacity="1" fill-rule="nonzero"/></g></g><g clip-path="url(#fe96fe6ed9)"><g clip-path="url(#6890bafc2e)"><path fill="#ffffff" d="M 290.515625 106.226562 L 453.0625 106.226562 L 453.0625 268.773438 L 290.515625 268.773438 Z M 290.515625 106.226562 " fill-opacity="1" fill-rule="nonzero"/></g></g><g clip-path="url(#002e38f684)"><path fill="#ffffff" d="M 363.367188 64.757812 L 487.773438 64.757812 L 487.773438 333.003906 L 363.367188 333.003906 Z M 363.367188 64.757812 " fill-opacity="1" fill-rule="nonzero"/></g><g clip-path="url(#e746c93aba)"><path fill="#ffffff" d="M 235.328125 41.867188 L 450.152344 41.867188 L 450.152344 186.210938 L 235.328125 186.210938 Z M 235.328125 41.867188 " fill-opacity="1" fill-rule="nonzero"/></g><g clip-path="url(#04183a7b5c)"><g clip-path="url(#126b531f31)"><path fill="#000000" d="M 37.5 63.675781 L 290.515625 63.675781 L 290.515625 316.691406 L 37.5 316.691406 Z M 37.5 63.675781 " fill-opacity="1" fill-rule="nonzero"/></g></g><g clip-path="url(#03151cdb39)"><path fill="#000000" d="M 37.5 178.394531 L 87.386719 178.394531 L 87.386719 362.933594 L 37.5 362.933594 Z M 37.5 178.394531 " fill-opacity="1" fill-rule="nonzero"/></g><g clip-path="url(#858a288d19)"><path fill="#000000" d="M 240.628906 12.066406 L 290.515625 12.066406 L 290.515625 181.796875 L 240.628906 181.796875 Z M 240.628906 12.066406 " fill-opacity="1" fill-rule="nonzero"/></g><g clip-path="url(#4cb493da9b)"><g clip-path="url(#97156ad600)"><path fill="#ffffff" d="M 83.03125 115.871094 L 244.984375 115.871094 L 244.984375 277.824219 L 83.03125 277.824219 Z M 83.03125 115.871094 " fill-opacity="1" fill-rule="nonzero"/></g></g></svg>