<svg xmlns="http://www.w3.org/2000/svg" xmlns:xlink="http://www.w3.org/1999/xlink" width="150" zoomAndPan="magnify" viewBox="0 0 112.5 112.499997" height="150" preserveAspectRatio="xMidYMid meet" version="1.0"><defs><clipPath id="7548e2d790"><path d="M 3.296875 3 L 6 3 L 6 6 L 3.296875 6 Z M 3.296875 3 " clip-rule="nonzero"/></clipPath><clipPath id="919ed44f59"><path d="M 106 3 L 108.578125 3 L 108.578125 6 L 106 6 Z M 106 3 " clip-rule="nonzero"/></clipPath><clipPath id="a3dcbfa296"><path d="M 3.296875 23 L 6 23 L 6 26 L 3.296875 26 Z M 3.296875 23 " clip-rule="nonzero"/></clipPath><clipPath id="99c81241b7"><path d="M 106 23 L 108.578125 23 L 108.578125 26 L 106 26 Z M 106 23 " clip-rule="nonzero"/></clipPath><clipPath id="a85ea1d57c"><path d="M 3.296875 44 L 6 44 L 6 47 L 3.296875 47 Z M 3.296875 44 " clip-rule="nonzero"/></clipPath><clipPath id="946911638d"><path d="M 106 44 L 108.578125 44 L 108.578125 47 L 106 47 Z M 106 44 " clip-rule="nonzero"/></clipPath><clipPath id="423d512a19"><path d="M 3.296875 65 L 6 65 L 6 68 L 3.296875 68 Z M 3.296875 65 " clip-rule="nonzero"/></clipPath><clipPath id="8f710f24e0"><path d="M 106 65 L 108.578125 65 L 108.578125 68 L 106 68 Z M 106 65 " clip-rule="nonzero"/></clipPath><clipPath id="9ce4f27d57"><path d="M 3.296875 86 L 6 86 L 6 89 L 3.296875 89 Z M 3.296875 86 " clip-rule="nonzero"/></clipPath><clipPath id="ebc9428d27"><path d="M 106 86 L 108.578125 86 L 108.578125 89 L 106 89 Z M 106 86 " clip-rule="nonzero"/></clipPath><clipPath id="08410e361f"><path d="M 3.296875 106 L 6 106 L 6 108.992188 L 3.296875 108.992188 Z M 3.296875 106 " clip-rule="nonzero"/></clipPath><clipPath id="29a6e1b0b9"><path d="M 23 106 L 27 106 L 27 108.992188 L 23 108.992188 Z M 23 106 " clip-rule="nonzero"/></clipPath><clipPath id="cf348873bd"><path d="M 44 106 L 47 106 L 47 108.992188 L 44 108.992188 Z M 44 106 " clip-rule="nonzero"/></clipPath><clipPath id="a4c2a6f68e"><path d="M 65 106 L 68 106 L 68 108.992188 L 65 108.992188 Z M 65 106 " clip-rule="nonzero"/></clipPath><clipPath id="cec6f4891c"><path d="M 85 106 L 88 106 L 88 108.992188 L 85 108.992188 Z M 85 106 " clip-rule="nonzero"/></clipPath><clipPath id="1cac6d7940"><path d="M 106 106 L 108.578125 106 L 108.578125 108.992188 L 106 108.992188 Z M 106 106 " clip-rule="nonzero"/></clipPath><clipPath id="70a97b197f"><path d="M 3.296875 3 L 6 3 L 6 6 L 3.296875 6 Z M 3.296875 3 " clip-rule="nonzero"/></clipPath><clipPath id="ae22dae9ac"><path d="M 106 3 L 108.578125 3 L 108.578125 6 L 106 6 Z M 106 3 " clip-rule="nonzero"/></clipPath><clipPath id="77b74d33f2"><path d="M 3.296875 23 L 6 23 L 6 26 L 3.296875 26 Z M 3.296875 23 " clip-rule="nonzero"/></clipPath><clipPath id="90e577aa5f"><path d="M 106 23 L 108.578125 23 L 108.578125 26 L 106 26 Z M 106 23 " clip-rule="nonzero"/></clipPath><clipPath id="5484908b21"><path d="M 3.296875 44 L 6 44 L 6 47 L 3.296875 47 Z M 3.296875 44 " clip-rule="nonzero"/></clipPath><clipPath id="8a351fb646"><path d="M 106 44 L 108.578125 44 L 108.578125 47 L 106 47 Z M 106 44 " clip-rule="nonzero"/></clipPath><clipPath id="a26a885376"><path d="M 3.296875 65 L 6 65 L 6 68 L 3.296875 68 Z M 3.296875 65 " clip-rule="nonzero"/></clipPath><clipPath id="183293ef72"><path d="M 106 65 L 108.578125 65 L 108.578125 68 L 106 68 Z M 106 65 " clip-rule="nonzero"/></clipPath><clipPath id="23df8baf99"><path d="M 3.296875 86 L 6 86 L 6 89 L 3.296875 89 Z M 3.296875 86 " clip-rule="nonzero"/></clipPath><clipPath id="75e9e16991"><path d="M 106 86 L 108.578125 86 L 108.578125 89 L 106 89 Z M 106 86 " clip-rule="nonzero"/></clipPath><clipPath id="15b8aa2477"><path d="M 3.296875 106 L 6 106 L 6 108.992188 L 3.296875 108.992188 Z M 3.296875 106 " clip-rule="nonzero"/></clipPath><clipPath id="ce037831bb"><path d="M 23 106 L 27 106 L 27 108.992188 L 23 108.992188 Z M 23 106 " clip-rule="nonzero"/></clipPath><clipPath id="b4f0de1a35"><path d="M 44 106 L 47 106 L 47 108.992188 L 44 108.992188 Z M 44 106 " clip-rule="nonzero"/></clipPath><clipPath id="abe3f1821a"><path d="M 65 106 L 68 106 L 68 108.992188 L 65 108.992188 Z M 65 106 " clip-rule="nonzero"/></clipPath><clipPath id="637d07da17"><path d="M 85 106 L 88 106 L 88 108.992188 L 85 108.992188 Z M 85 106 " clip-rule="nonzero"/></clipPath><clipPath id="2145a70536"><path d="M 106 106 L 108.578125 106 L 108.578125 108.992188 L 106 108.992188 Z M 106 106 " clip-rule="nonzero"/></clipPath></defs><g clip-path="url(#7548e2d790)"><path fill="#231f20" d="M 4.484375 3.003906 L 4.292969 3.003906 L 4.292969 4.003906 L 3.296875 4.003906 L 3.296875 4.195312 L 4.292969 4.195312 L 4.292969 5.191406 L 4.484375 5.191406 L 4.484375 4.195312 L 5.476562 4.195312 L 5.476562 4.003906 L 4.484375 4.003906 Z M 4.484375 3.003906 " fill-opacity="1" fill-rule="nonzero"/></g><path fill="#231f20" d="M 25.105469 3.003906 L 24.914062 3.003906 L 24.914062 4.003906 L 23.917969 4.003906 L 23.917969 4.195312 L 24.914062 4.195312 L 24.914062 5.191406 L 25.105469 5.191406 L 25.105469 4.195312 L 26.101562 4.195312 L 26.101562 4.003906 L 25.105469 4.003906 Z M 25.105469 3.003906 " fill-opacity="1" fill-rule="nonzero"/><path fill="#231f20" d="M 45.726562 3.003906 L 45.535156 3.003906 L 45.535156 4.003906 L 44.539062 4.003906 L 44.539062 4.195312 L 45.535156 4.195312 L 45.535156 5.191406 L 45.726562 5.191406 L 45.726562 4.195312 L 46.722656 4.195312 L 46.722656 4.003906 L 45.726562 4.003906 Z M 45.726562 3.003906 " fill-opacity="1" fill-rule="nonzero"/><path fill="#231f20" d="M 66.347656 3.003906 L 66.15625 3.003906 L 66.15625 4.003906 L 65.160156 4.003906 L 65.160156 4.195312 L 66.15625 4.195312 L 66.15625 5.191406 L 66.347656 5.191406 L 66.347656 4.195312 L 67.34375 4.195312 L 67.34375 4.003906 L 66.347656 4.003906 Z M 66.347656 3.003906 " fill-opacity="1" fill-rule="nonzero"/><path fill="#231f20" d="M 86.96875 3.003906 L 86.777344 3.003906 L 86.777344 4.003906 L 85.78125 4.003906 L 85.78125 4.195312 L 86.777344 4.195312 L 86.777344 5.191406 L 86.96875 5.191406 L 86.96875 4.195312 L 87.96875 4.195312 L 87.96875 4.003906 L 86.96875 4.003906 Z M 86.96875 3.003906 " fill-opacity="1" fill-rule="nonzero"/><g clip-path="url(#919ed44f59)"><path fill="#231f20" d="M 107.59375 4.003906 L 107.59375 3.003906 L 107.402344 3.003906 L 107.402344 4.003906 L 106.40625 4.003906 L 106.40625 4.195312 L 107.402344 4.195312 L 107.402344 5.191406 L 107.59375 5.191406 L 107.59375 4.195312 L 108.589844 4.195312 L 108.589844 4.003906 Z M 107.59375 4.003906 " fill-opacity="1" fill-rule="nonzero"/></g><g clip-path="url(#a3dcbfa296)"><path fill="#231f20" d="M 4.484375 23.757812 L 4.292969 23.757812 L 4.292969 24.753906 L 3.296875 24.753906 L 3.296875 24.945312 L 4.292969 24.945312 L 4.292969 25.941406 L 4.484375 25.941406 L 4.484375 24.945312 L 5.476562 24.945312 L 5.476562 24.753906 L 4.484375 24.753906 Z M 4.484375 23.757812 " fill-opacity="1" fill-rule="nonzero"/></g><path fill="#231f20" d="M 25.105469 23.757812 L 24.914062 23.757812 L 24.914062 24.753906 L 23.917969 24.753906 L 23.917969 24.945312 L 24.914062 24.945312 L 24.914062 25.941406 L 25.105469 25.941406 L 25.105469 24.945312 L 26.101562 24.945312 L 26.101562 24.753906 L 25.105469 24.753906 Z M 25.105469 23.757812 " fill-opacity="1" fill-rule="nonzero"/><path fill="#231f20" d="M 45.726562 23.757812 L 45.535156 23.757812 L 45.535156 24.753906 L 44.539062 24.753906 L 44.539062 24.945312 L 45.535156 24.945312 L 45.535156 25.941406 L 45.726562 25.941406 L 45.726562 24.945312 L 46.722656 24.945312 L 46.722656 24.753906 L 45.726562 24.753906 Z M 45.726562 23.757812 " fill-opacity="1" fill-rule="nonzero"/><path fill="#231f20" d="M 66.15625 23.757812 L 66.15625 24.753906 L 65.160156 24.753906 L 65.160156 24.945312 L 66.15625 24.945312 L 66.15625 25.941406 L 66.347656 25.941406 L 66.347656 24.945312 L 67.34375 24.945312 L 67.34375 24.753906 L 66.347656 24.753906 L 66.347656 23.757812 Z M 66.15625 23.757812 " fill-opacity="1" fill-rule="nonzero"/><path fill="#231f20" d="M 86.777344 23.757812 L 86.777344 24.753906 L 85.785156 24.753906 L 85.785156 24.945312 L 86.777344 24.945312 L 86.777344 25.941406 L 86.96875 25.941406 L 86.96875 24.945312 L 87.96875 24.945312 L 87.96875 24.753906 L 86.96875 24.753906 L 86.96875 23.757812 Z M 86.777344 23.757812 " fill-opacity="1" fill-rule="nonzero"/><path fill="#231f20" d="M 25.105469 44.507812 L 24.914062 44.507812 L 24.914062 45.503906 L 23.917969 45.503906 L 23.917969 45.695312 L 24.914062 45.695312 L 24.914062 46.695312 L 25.105469 46.695312 L 25.105469 45.695312 L 26.101562 45.695312 L 26.101562 45.503906 L 25.105469 45.503906 Z M 25.105469 44.507812 " fill-opacity="1" fill-rule="nonzero"/><path fill="#231f20" d="M 45.726562 44.507812 L 45.535156 44.507812 L 45.535156 45.503906 L 44.539062 45.503906 L 44.539062 45.695312 L 45.535156 45.695312 L 45.535156 46.695312 L 45.726562 46.695312 L 45.726562 45.695312 L 46.722656 45.695312 L 46.722656 45.503906 L 45.726562 45.503906 Z M 45.726562 44.507812 " fill-opacity="1" fill-rule="nonzero"/><path fill="#231f20" d="M 65.160156 45.695312 L 66.15625 45.695312 L 66.15625 46.695312 L 66.347656 46.695312 L 66.347656 45.695312 L 67.34375 45.695312 L 67.34375 45.503906 L 66.347656 45.503906 L 66.347656 44.507812 L 66.15625 44.507812 L 66.15625 45.503906 L 65.160156 45.503906 Z M 65.160156 45.695312 " fill-opacity="1" fill-rule="nonzero"/><path fill="#231f20" d="M 85.785156 45.695312 L 86.777344 45.695312 L 86.777344 46.695312 L 86.96875 46.695312 L 86.96875 45.695312 L 87.96875 45.695312 L 87.96875 45.503906 L 86.96875 45.503906 L 86.96875 44.507812 L 86.777344 44.507812 L 86.777344 45.503906 L 85.785156 45.503906 Z M 85.785156 45.695312 " fill-opacity="1" fill-rule="nonzero"/><path fill="#231f20" d="M 25.105469 65.261719 L 24.914062 65.261719 L 24.914062 66.257812 L 23.917969 66.257812 L 23.917969 66.449219 L 24.914062 66.449219 L 24.914062 67.445312 L 25.105469 67.445312 L 25.105469 66.449219 L 26.101562 66.449219 L 26.101562 66.257812 L 25.105469 66.257812 Z M 25.105469 65.261719 " fill-opacity="1" fill-rule="nonzero"/><path fill="#231f20" d="M 45.726562 65.261719 L 45.535156 65.261719 L 45.535156 66.257812 L 44.539062 66.257812 L 44.539062 66.449219 L 45.535156 66.449219 L 45.535156 67.445312 L 45.726562 67.445312 L 45.726562 66.449219 L 46.722656 66.449219 L 46.722656 66.257812 L 45.726562 66.257812 Z M 45.726562 65.261719 " fill-opacity="1" fill-rule="nonzero"/><path fill="#231f20" d="M 65.160156 66.449219 L 66.15625 66.449219 L 66.15625 67.445312 L 66.347656 67.445312 L 66.347656 66.449219 L 67.34375 66.449219 L 67.34375 66.257812 L 66.347656 66.257812 L 66.347656 65.261719 L 66.15625 65.261719 L 66.15625 66.257812 L 65.160156 66.257812 Z M 65.160156 66.449219 " fill-opacity="1" fill-rule="nonzero"/><path fill="#231f20" d="M 85.785156 66.449219 L 86.777344 66.449219 L 86.777344 67.445312 L 86.96875 67.445312 L 86.96875 66.449219 L 87.96875 66.449219 L 87.96875 66.257812 L 86.96875 66.257812 L 86.96875 65.261719 L 86.777344 65.261719 L 86.777344 66.257812 L 85.785156 66.257812 Z M 85.785156 66.449219 " fill-opacity="1" fill-rule="nonzero"/><path fill="#231f20" d="M 25.105469 86.011719 L 24.914062 86.011719 L 24.914062 87.007812 L 23.917969 87.007812 L 23.917969 87.199219 L 24.914062 87.199219 L 24.914062 88.195312 L 25.105469 88.195312 L 25.105469 87.199219 L 26.101562 87.199219 L 26.101562 87.007812 L 25.105469 87.007812 Z M 25.105469 86.011719 " fill-opacity="1" fill-rule="nonzero"/><path fill="#231f20" d="M 45.726562 86.011719 L 45.535156 86.011719 L 45.535156 87.007812 L 44.539062 87.007812 L 44.539062 87.199219 L 45.535156 87.199219 L 45.535156 88.195312 L 45.726562 88.195312 L 45.726562 87.199219 L 46.722656 87.199219 L 46.722656 87.007812 L 45.726562 87.007812 Z M 45.726562 86.011719 " fill-opacity="1" fill-rule="nonzero"/><path fill="#231f20" d="M 65.160156 87.199219 L 66.15625 87.199219 L 66.15625 88.195312 L 66.347656 88.195312 L 66.347656 87.199219 L 67.34375 87.199219 L 67.34375 87.007812 L 66.347656 87.007812 L 66.347656 86.011719 L 66.15625 86.011719 L 66.15625 87.007812 L 65.160156 87.007812 Z M 65.160156 87.199219 " fill-opacity="1" fill-rule="nonzero"/><path fill="#231f20" d="M 85.785156 87.199219 L 86.777344 87.199219 L 86.777344 88.195312 L 86.96875 88.195312 L 86.96875 87.199219 L 87.96875 87.199219 L 87.96875 87.007812 L 86.96875 87.007812 L 86.96875 86.011719 L 86.777344 86.011719 L 86.777344 87.007812 L 85.785156 87.007812 Z M 85.785156 87.199219 " fill-opacity="1" fill-rule="nonzero"/><g clip-path="url(#99c81241b7)"><path fill="#231f20" d="M 107.59375 23.757812 L 107.402344 23.757812 L 107.402344 24.753906 L 106.40625 24.753906 L 106.40625 24.945312 L 107.402344 24.945312 L 107.402344 25.941406 L 107.59375 25.941406 L 107.59375 24.945312 L 108.589844 24.945312 L 108.589844 24.753906 L 107.59375 24.753906 Z M 107.59375 23.757812 " fill-opacity="1" fill-rule="nonzero"/></g><g clip-path="url(#a85ea1d57c)"><path fill="#231f20" d="M 4.484375 44.507812 L 4.292969 44.507812 L 4.292969 45.503906 L 3.296875 45.503906 L 3.296875 45.695312 L 4.292969 45.695312 L 4.292969 46.695312 L 4.484375 46.695312 L 4.484375 45.695312 L 5.476562 45.695312 L 5.476562 45.503906 L 4.484375 45.503906 Z M 4.484375 44.507812 " fill-opacity="1" fill-rule="nonzero"/></g><g clip-path="url(#946911638d)"><path fill="#231f20" d="M 107.59375 44.507812 L 107.402344 44.507812 L 107.402344 45.503906 L 106.40625 45.503906 L 106.40625 45.695312 L 107.402344 45.695312 L 107.402344 46.695312 L 107.59375 46.695312 L 107.59375 45.695312 L 108.589844 45.695312 L 108.589844 45.503906 L 107.59375 45.503906 Z M 107.59375 44.507812 " fill-opacity="1" fill-rule="nonzero"/></g><g clip-path="url(#423d512a19)"><path fill="#231f20" d="M 4.484375 65.261719 L 4.292969 65.261719 L 4.292969 66.257812 L 3.296875 66.257812 L 3.296875 66.449219 L 4.292969 66.449219 L 4.292969 67.445312 L 4.484375 67.445312 L 4.484375 66.449219 L 5.476562 66.449219 L 5.476562 66.257812 L 4.484375 66.257812 Z M 4.484375 65.261719 " fill-opacity="1" fill-rule="nonzero"/></g><g clip-path="url(#8f710f24e0)"><path fill="#231f20" d="M 107.59375 65.261719 L 107.402344 65.261719 L 107.402344 66.257812 L 106.40625 66.257812 L 106.40625 66.449219 L 107.402344 66.449219 L 107.402344 67.445312 L 107.59375 67.445312 L 107.59375 66.449219 L 108.589844 66.449219 L 108.589844 66.257812 L 107.59375 66.257812 Z M 107.59375 65.261719 " fill-opacity="1" fill-rule="nonzero"/></g><g clip-path="url(#9ce4f27d57)"><path fill="#231f20" d="M 4.484375 86.011719 L 4.292969 86.011719 L 4.292969 87.007812 L 3.296875 87.007812 L 3.296875 87.199219 L 4.292969 87.199219 L 4.292969 88.195312 L 4.484375 88.195312 L 4.484375 87.199219 L 5.476562 87.199219 L 5.476562 87.007812 L 4.484375 87.007812 Z M 4.484375 86.011719 " fill-opacity="1" fill-rule="nonzero"/></g><g clip-path="url(#ebc9428d27)"><path fill="#231f20" d="M 107.59375 86.011719 L 107.402344 86.011719 L 107.402344 87.007812 L 106.40625 87.007812 L 106.40625 87.199219 L 107.402344 87.199219 L 107.402344 88.195312 L 107.59375 88.195312 L 107.59375 87.199219 L 108.589844 87.199219 L 108.589844 87.007812 L 107.59375 87.007812 Z M 107.59375 86.011719 " fill-opacity="1" fill-rule="nonzero"/></g><g clip-path="url(#08410e361f)"><path fill="#231f20" d="M 4.484375 106.765625 L 4.292969 106.765625 L 4.292969 107.761719 L 3.296875 107.761719 L 3.296875 107.953125 L 4.292969 107.953125 L 4.292969 108.949219 L 4.484375 108.949219 L 4.484375 107.953125 L 5.476562 107.953125 L 5.476562 107.761719 L 4.484375 107.761719 Z M 4.484375 106.765625 " fill-opacity="1" fill-rule="nonzero"/></g><g clip-path="url(#29a6e1b0b9)"><path fill="#231f20" d="M 25.105469 106.765625 L 24.914062 106.765625 L 24.914062 107.761719 L 23.917969 107.761719 L 23.917969 107.953125 L 24.914062 107.953125 L 24.914062 108.949219 L 25.105469 108.949219 L 25.105469 107.953125 L 26.101562 107.953125 L 26.101562 107.761719 L 25.105469 107.761719 Z M 25.105469 106.765625 " fill-opacity="1" fill-rule="nonzero"/></g><g clip-path="url(#cf348873bd)"><path fill="#231f20" d="M 45.726562 106.765625 L 45.535156 106.765625 L 45.535156 107.761719 L 44.539062 107.761719 L 44.539062 107.953125 L 45.535156 107.953125 L 45.535156 108.949219 L 45.726562 108.949219 L 45.726562 107.953125 L 46.722656 107.953125 L 46.722656 107.761719 L 45.726562 107.761719 Z M 45.726562 106.765625 " fill-opacity="1" fill-rule="nonzero"/></g><g clip-path="url(#a4c2a6f68e)"><path fill="#231f20" d="M 66.347656 106.765625 L 66.15625 106.765625 L 66.15625 107.761719 L 65.160156 107.761719 L 65.160156 107.953125 L 66.15625 107.953125 L 66.15625 108.949219 L 66.347656 108.949219 L 66.347656 107.953125 L 67.34375 107.953125 L 67.34375 107.761719 L 66.347656 107.761719 Z M 66.347656 106.765625 " fill-opacity="1" fill-rule="nonzero"/></g><g clip-path="url(#cec6f4891c)"><path fill="#231f20" d="M 86.96875 106.765625 L 86.777344 106.765625 L 86.777344 107.761719 L 85.78125 107.761719 L 85.78125 107.953125 L 86.777344 107.953125 L 86.777344 108.949219 L 86.96875 108.949219 L 86.96875 107.953125 L 87.96875 107.953125 L 87.96875 107.761719 L 86.96875 107.761719 Z M 86.96875 106.765625 " fill-opacity="1" fill-rule="nonzero"/></g><g clip-path="url(#1cac6d7940)"><path fill="#231f20" d="M 107.59375 106.765625 L 107.402344 106.765625 L 107.402344 107.761719 L 106.40625 107.761719 L 106.40625 107.953125 L 107.402344 107.953125 L 107.402344 108.949219 L 107.59375 108.949219 L 107.59375 107.953125 L 108.589844 107.953125 L 108.589844 107.761719 L 107.59375 107.761719 Z M 107.59375 106.765625 " fill-opacity="1" fill-rule="nonzero"/></g><g clip-path="url(#70a97b197f)"><path fill="#231f20" d="M 4.484375 3.003906 L 4.292969 3.003906 L 4.292969 4.003906 L 3.296875 4.003906 L 3.296875 4.195312 L 4.292969 4.195312 L 4.292969 5.191406 L 4.484375 5.191406 L 4.484375 4.195312 L 5.476562 4.195312 L 5.476562 4.003906 L 4.484375 4.003906 Z M 4.484375 3.003906 " fill-opacity="1" fill-rule="nonzero"/></g><path fill="#231f20" d="M 25.105469 3.003906 L 24.914062 3.003906 L 24.914062 4.003906 L 23.917969 4.003906 L 23.917969 4.195312 L 24.914062 4.195312 L 24.914062 5.191406 L 25.105469 5.191406 L 25.105469 4.195312 L 26.101562 4.195312 L 26.101562 4.003906 L 25.105469 4.003906 Z M 25.105469 3.003906 " fill-opacity="1" fill-rule="nonzero"/><path fill="#231f20" d="M 45.726562 3.003906 L 45.535156 3.003906 L 45.535156 4.003906 L 44.539062 4.003906 L 44.539062 4.195312 L 45.535156 4.195312 L 45.535156 5.191406 L 45.726562 5.191406 L 45.726562 4.195312 L 46.722656 4.195312 L 46.722656 4.003906 L 45.726562 4.003906 Z M 45.726562 3.003906 " fill-opacity="1" fill-rule="nonzero"/><path fill="#231f20" d="M 66.347656 3.003906 L 66.15625 3.003906 L 66.15625 4.003906 L 65.160156 4.003906 L 65.160156 4.195312 L 66.15625 4.195312 L 66.15625 5.191406 L 66.347656 5.191406 L 66.347656 4.195312 L 67.34375 4.195312 L 67.34375 4.003906 L 66.347656 4.003906 Z M 66.347656 3.003906 " fill-opacity="1" fill-rule="nonzero"/><path fill="#231f20" d="M 86.96875 3.003906 L 86.777344 3.003906 L 86.777344 4.003906 L 85.78125 4.003906 L 85.78125 4.195312 L 86.777344 4.195312 L 86.777344 5.191406 L 86.96875 5.191406 L 86.96875 4.195312 L 87.96875 4.195312 L 87.96875 4.003906 L 86.96875 4.003906 Z M 86.96875 3.003906 " fill-opacity="1" fill-rule="nonzero"/><g clip-path="url(#ae22dae9ac)"><path fill="#231f20" d="M 107.59375 4.003906 L 107.59375 3.003906 L 107.402344 3.003906 L 107.402344 4.003906 L 106.40625 4.003906 L 106.40625 4.195312 L 107.402344 4.195312 L 107.402344 5.191406 L 107.59375 5.191406 L 107.59375 4.195312 L 108.589844 4.195312 L 108.589844 4.003906 Z M 107.59375 4.003906 " fill-opacity="1" fill-rule="nonzero"/></g><g clip-path="url(#77b74d33f2)"><path fill="#231f20" d="M 4.484375 23.757812 L 4.292969 23.757812 L 4.292969 24.753906 L 3.296875 24.753906 L 3.296875 24.945312 L 4.292969 24.945312 L 4.292969 25.941406 L 4.484375 25.941406 L 4.484375 24.945312 L 5.476562 24.945312 L 5.476562 24.753906 L 4.484375 24.753906 Z M 4.484375 23.757812 " fill-opacity="1" fill-rule="nonzero"/></g><path fill="#231f20" d="M 25.105469 23.757812 L 24.914062 23.757812 L 24.914062 24.753906 L 23.917969 24.753906 L 23.917969 24.945312 L 24.914062 24.945312 L 24.914062 25.941406 L 25.105469 25.941406 L 25.105469 24.945312 L 26.101562 24.945312 L 26.101562 24.753906 L 25.105469 24.753906 Z M 25.105469 23.757812 " fill-opacity="1" fill-rule="nonzero"/><path fill="#231f20" d="M 45.726562 23.757812 L 45.535156 23.757812 L 45.535156 24.753906 L 44.539062 24.753906 L 44.539062 24.945312 L 45.535156 24.945312 L 45.535156 25.941406 L 45.726562 25.941406 L 45.726562 24.945312 L 46.722656 24.945312 L 46.722656 24.753906 L 45.726562 24.753906 Z M 45.726562 23.757812 " fill-opacity="1" fill-rule="nonzero"/><path fill="#231f20" d="M 66.15625 23.757812 L 66.15625 24.753906 L 65.160156 24.753906 L 65.160156 24.945312 L 66.15625 24.945312 L 66.15625 25.941406 L 66.347656 25.941406 L 66.347656 24.945312 L 67.34375 24.945312 L 67.34375 24.753906 L 66.347656 24.753906 L 66.347656 23.757812 Z M 66.15625 23.757812 " fill-opacity="1" fill-rule="nonzero"/><path fill="#231f20" d="M 86.777344 23.757812 L 86.777344 24.753906 L 85.785156 24.753906 L 85.785156 24.945312 L 86.777344 24.945312 L 86.777344 25.941406 L 86.96875 25.941406 L 86.96875 24.945312 L 87.96875 24.945312 L 87.96875 24.753906 L 86.96875 24.753906 L 86.96875 23.757812 Z M 86.777344 23.757812 " fill-opacity="1" fill-rule="nonzero"/><path fill="#231f20" d="M 25.105469 44.507812 L 24.914062 44.507812 L 24.914062 45.503906 L 23.917969 45.503906 L 23.917969 45.695312 L 24.914062 45.695312 L 24.914062 46.695312 L 25.105469 46.695312 L 25.105469 45.695312 L 26.101562 45.695312 L 26.101562 45.503906 L 25.105469 45.503906 Z M 25.105469 44.507812 " fill-opacity="1" fill-rule="nonzero"/><path fill="#231f20" d="M 45.726562 44.507812 L 45.535156 44.507812 L 45.535156 45.503906 L 44.539062 45.503906 L 44.539062 45.695312 L 45.535156 45.695312 L 45.535156 46.695312 L 45.726562 46.695312 L 45.726562 45.695312 L 46.722656 45.695312 L 46.722656 45.503906 L 45.726562 45.503906 Z M 45.726562 44.507812 " fill-opacity="1" fill-rule="nonzero"/><path fill="#231f20" d="M 65.160156 45.695312 L 66.15625 45.695312 L 66.15625 46.695312 L 66.347656 46.695312 L 66.347656 45.695312 L 67.34375 45.695312 L 67.34375 45.503906 L 66.347656 45.503906 L 66.347656 44.507812 L 66.15625 44.507812 L 66.15625 45.503906 L 65.160156 45.503906 Z M 65.160156 45.695312 " fill-opacity="1" fill-rule="nonzero"/><path fill="#231f20" d="M 85.785156 45.695312 L 86.777344 45.695312 L 86.777344 46.695312 L 86.96875 46.695312 L 86.96875 45.695312 L 87.96875 45.695312 L 87.96875 45.503906 L 86.96875 45.503906 L 86.96875 44.507812 L 86.777344 44.507812 L 86.777344 45.503906 L 85.785156 45.503906 Z M 85.785156 45.695312 " fill-opacity="1" fill-rule="nonzero"/><path fill="#231f20" d="M 25.105469 65.261719 L 24.914062 65.261719 L 24.914062 66.257812 L 23.917969 66.257812 L 23.917969 66.449219 L 24.914062 66.449219 L 24.914062 67.445312 L 25.105469 67.445312 L 25.105469 66.449219 L 26.101562 66.449219 L 26.101562 66.257812 L 25.105469 66.257812 Z M 25.105469 65.261719 " fill-opacity="1" fill-rule="nonzero"/><path fill="#231f20" d="M 45.726562 65.261719 L 45.535156 65.261719 L 45.535156 66.257812 L 44.539062 66.257812 L 44.539062 66.449219 L 45.535156 66.449219 L 45.535156 67.445312 L 45.726562 67.445312 L 45.726562 66.449219 L 46.722656 66.449219 L 46.722656 66.257812 L 45.726562 66.257812 Z M 45.726562 65.261719 " fill-opacity="1" fill-rule="nonzero"/><path fill="#231f20" d="M 65.160156 66.449219 L 66.15625 66.449219 L 66.15625 67.445312 L 66.347656 67.445312 L 66.347656 66.449219 L 67.34375 66.449219 L 67.34375 66.257812 L 66.347656 66.257812 L 66.347656 65.261719 L 66.15625 65.261719 L 66.15625 66.257812 L 65.160156 66.257812 Z M 65.160156 66.449219 " fill-opacity="1" fill-rule="nonzero"/><path fill="#231f20" d="M 85.785156 66.449219 L 86.777344 66.449219 L 86.777344 67.445312 L 86.96875 67.445312 L 86.96875 66.449219 L 87.96875 66.449219 L 87.96875 66.257812 L 86.96875 66.257812 L 86.96875 65.261719 L 86.777344 65.261719 L 86.777344 66.257812 L 85.785156 66.257812 Z M 85.785156 66.449219 " fill-opacity="1" fill-rule="nonzero"/><path fill="#231f20" d="M 25.105469 86.011719 L 24.914062 86.011719 L 24.914062 87.007812 L 23.917969 87.007812 L 23.917969 87.199219 L 24.914062 87.199219 L 24.914062 88.195312 L 25.105469 88.195312 L 25.105469 87.199219 L 26.101562 87.199219 L 26.101562 87.007812 L 25.105469 87.007812 Z M 25.105469 86.011719 " fill-opacity="1" fill-rule="nonzero"/><path fill="#231f20" d="M 45.726562 86.011719 L 45.535156 86.011719 L 45.535156 87.007812 L 44.539062 87.007812 L 44.539062 87.199219 L 45.535156 87.199219 L 45.535156 88.195312 L 45.726562 88.195312 L 45.726562 87.199219 L 46.722656 87.199219 L 46.722656 87.007812 L 45.726562 87.007812 Z M 45.726562 86.011719 " fill-opacity="1" fill-rule="nonzero"/><path fill="#231f20" d="M 65.160156 87.199219 L 66.15625 87.199219 L 66.15625 88.195312 L 66.347656 88.195312 L 66.347656 87.199219 L 67.34375 87.199219 L 67.34375 87.007812 L 66.347656 87.007812 L 66.347656 86.011719 L 66.15625 86.011719 L 66.15625 87.007812 L 65.160156 87.007812 Z M 65.160156 87.199219 " fill-opacity="1" fill-rule="nonzero"/><path fill="#231f20" d="M 85.785156 87.199219 L 86.777344 87.199219 L 86.777344 88.195312 L 86.96875 88.195312 L 86.96875 87.199219 L 87.96875 87.199219 L 87.96875 87.007812 L 86.96875 87.007812 L 86.96875 86.011719 L 86.777344 86.011719 L 86.777344 87.007812 L 85.785156 87.007812 Z M 85.785156 87.199219 " fill-opacity="1" fill-rule="nonzero"/><g clip-path="url(#90e577aa5f)"><path fill="#231f20" d="M 107.59375 23.757812 L 107.402344 23.757812 L 107.402344 24.753906 L 106.40625 24.753906 L 106.40625 24.945312 L 107.402344 24.945312 L 107.402344 25.941406 L 107.59375 25.941406 L 107.59375 24.945312 L 108.589844 24.945312 L 108.589844 24.753906 L 107.59375 24.753906 Z M 107.59375 23.757812 " fill-opacity="1" fill-rule="nonzero"/></g><g clip-path="url(#5484908b21)"><path fill="#231f20" d="M 4.484375 44.507812 L 4.292969 44.507812 L 4.292969 45.503906 L 3.296875 45.503906 L 3.296875 45.695312 L 4.292969 45.695312 L 4.292969 46.695312 L 4.484375 46.695312 L 4.484375 45.695312 L 5.476562 45.695312 L 5.476562 45.503906 L 4.484375 45.503906 Z M 4.484375 44.507812 " fill-opacity="1" fill-rule="nonzero"/></g><g clip-path="url(#8a351fb646)"><path fill="#231f20" d="M 107.59375 44.507812 L 107.402344 44.507812 L 107.402344 45.503906 L 106.40625 45.503906 L 106.40625 45.695312 L 107.402344 45.695312 L 107.402344 46.695312 L 107.59375 46.695312 L 107.59375 45.695312 L 108.589844 45.695312 L 108.589844 45.503906 L 107.59375 45.503906 Z M 107.59375 44.507812 " fill-opacity="1" fill-rule="nonzero"/></g><g clip-path="url(#a26a885376)"><path fill="#231f20" d="M 4.484375 65.261719 L 4.292969 65.261719 L 4.292969 66.257812 L 3.296875 66.257812 L 3.296875 66.449219 L 4.292969 66.449219 L 4.292969 67.445312 L 4.484375 67.445312 L 4.484375 66.449219 L 5.476562 66.449219 L 5.476562 66.257812 L 4.484375 66.257812 Z M 4.484375 65.261719 " fill-opacity="1" fill-rule="nonzero"/></g><g clip-path="url(#183293ef72)"><path fill="#231f20" d="M 107.59375 65.261719 L 107.402344 65.261719 L 107.402344 66.257812 L 106.40625 66.257812 L 106.40625 66.449219 L 107.402344 66.449219 L 107.402344 67.445312 L 107.59375 67.445312 L 107.59375 66.449219 L 108.589844 66.449219 L 108.589844 66.257812 L 107.59375 66.257812 Z M 107.59375 65.261719 " fill-opacity="1" fill-rule="nonzero"/></g><g clip-path="url(#23df8baf99)"><path fill="#231f20" d="M 4.484375 86.011719 L 4.292969 86.011719 L 4.292969 87.007812 L 3.296875 87.007812 L 3.296875 87.199219 L 4.292969 87.199219 L 4.292969 88.195312 L 4.484375 88.195312 L 4.484375 87.199219 L 5.476562 87.199219 L 5.476562 87.007812 L 4.484375 87.007812 Z M 4.484375 86.011719 " fill-opacity="1" fill-rule="nonzero"/></g><g clip-path="url(#75e9e16991)"><path fill="#231f20" d="M 107.59375 86.011719 L 107.402344 86.011719 L 107.402344 87.007812 L 106.40625 87.007812 L 106.40625 87.199219 L 107.402344 87.199219 L 107.402344 88.195312 L 107.59375 88.195312 L 107.59375 87.199219 L 108.589844 87.199219 L 108.589844 87.007812 L 107.59375 87.007812 Z M 107.59375 86.011719 " fill-opacity="1" fill-rule="nonzero"/></g><g clip-path="url(#15b8aa2477)"><path fill="#231f20" d="M 4.484375 106.765625 L 4.292969 106.765625 L 4.292969 107.761719 L 3.296875 107.761719 L 3.296875 107.953125 L 4.292969 107.953125 L 4.292969 108.949219 L 4.484375 108.949219 L 4.484375 107.953125 L 5.476562 107.953125 L 5.476562 107.761719 L 4.484375 107.761719 Z M 4.484375 106.765625 " fill-opacity="1" fill-rule="nonzero"/></g><g clip-path="url(#ce037831bb)"><path fill="#231f20" d="M 25.105469 106.765625 L 24.914062 106.765625 L 24.914062 107.761719 L 23.917969 107.761719 L 23.917969 107.953125 L 24.914062 107.953125 L 24.914062 108.949219 L 25.105469 108.949219 L 25.105469 107.953125 L 26.101562 107.953125 L 26.101562 107.761719 L 25.105469 107.761719 Z M 25.105469 106.765625 " fill-opacity="1" fill-rule="nonzero"/></g><g clip-path="url(#b4f0de1a35)"><path fill="#231f20" d="M 45.726562 106.765625 L 45.535156 106.765625 L 45.535156 107.761719 L 44.539062 107.761719 L 44.539062 107.953125 L 45.535156 107.953125 L 45.535156 108.949219 L 45.726562 108.949219 L 45.726562 107.953125 L 46.722656 107.953125 L 46.722656 107.761719 L 45.726562 107.761719 Z M 45.726562 106.765625 " fill-opacity="1" fill-rule="nonzero"/></g><g clip-path="url(#abe3f1821a)"><path fill="#231f20" d="M 66.347656 106.765625 L 66.15625 106.765625 L 66.15625 107.761719 L 65.160156 107.761719 L 65.160156 107.953125 L 66.15625 107.953125 L 66.15625 108.949219 L 66.347656 108.949219 L 66.347656 107.953125 L 67.34375 107.953125 L 67.34375 107.761719 L 66.347656 107.761719 Z M 66.347656 106.765625 " fill-opacity="1" fill-rule="nonzero"/></g><g clip-path="url(#637d07da17)"><path fill="#231f20" d="M 86.96875 106.765625 L 86.777344 106.765625 L 86.777344 107.761719 L 85.78125 107.761719 L 85.78125 107.953125 L 86.777344 107.953125 L 86.777344 108.949219 L 86.96875 108.949219 L 86.96875 107.953125 L 87.96875 107.953125 L 87.96875 107.761719 L 86.96875 107.761719 Z M 86.96875 106.765625 " fill-opacity="1" fill-rule="nonzero"/></g><g clip-path="url(#2145a70536)"><path fill="#231f20" d="M 107.59375 106.765625 L 107.402344 106.765625 L 107.402344 107.761719 L 106.40625 107.761719 L 106.40625 107.953125 L 107.402344 107.953125 L 107.402344 108.949219 L 107.59375 108.949219 L 107.59375 107.953125 L 108.589844 107.953125 L 108.589844 107.761719 L 107.59375 107.761719 Z M 107.59375 106.765625 " fill-opacity="1" fill-rule="nonzero"/></g></svg>