<svg xmlns="http://www.w3.org/2000/svg" xmlns:xlink="http://www.w3.org/1999/xlink" width="50" zoomAndPan="magnify" viewBox="0 0 37.5 37.499999" height="50" preserveAspectRatio="xMidYMid meet" version="1.0"><defs><clipPath id="84613d7c3f"><path d="M 1.703125 1.597656 L 3 1.597656 L 3 3 L 1.703125 3 Z M 1.703125 1.597656 " clip-rule="nonzero"/></clipPath><clipPath id="5d4166b036"><path d="M 8 1.597656 L 9 1.597656 L 9 3 L 8 3 Z M 8 1.597656 " clip-rule="nonzero"/></clipPath><clipPath id="a1a5197349"><path d="M 14 1.597656 L 16 1.597656 L 16 3 L 14 3 Z M 14 1.597656 " clip-rule="nonzero"/></clipPath><clipPath id="34f19d9c51"><path d="M 21 1.597656 L 22 1.597656 L 22 3 L 21 3 Z M 21 1.597656 " clip-rule="nonzero"/></clipPath><clipPath id="3d2a0fc8ee"><path d="M 27 1.597656 L 29 1.597656 L 29 3 L 27 3 Z M 27 1.597656 " clip-rule="nonzero"/></clipPath><clipPath id="5c4bf3fd47"><path d="M 34 1.597656 L 35.007812 1.597656 L 35.007812 3 L 34 3 Z M 34 1.597656 " clip-rule="nonzero"/></clipPath><clipPath id="1658dee3be"><path d="M 1.703125 8 L 3 8 L 3 9 L 1.703125 9 Z M 1.703125 8 " clip-rule="nonzero"/></clipPath><clipPath id="4d1310e544"><path d="M 34 8 L 35.007812 8 L 35.007812 9 L 34 9 Z M 34 8 " clip-rule="nonzero"/></clipPath><clipPath id="a21899b56b"><path d="M 1.703125 14 L 3 14 L 3 16 L 1.703125 16 Z M 1.703125 14 " clip-rule="nonzero"/></clipPath><clipPath id="da46dfa33f"><path d="M 34 14 L 35.007812 14 L 35.007812 16 L 34 16 Z M 34 14 " clip-rule="nonzero"/></clipPath><clipPath id="4c91db75c1"><path d="M 1.703125 21 L 3 21 L 3 23 L 1.703125 23 Z M 1.703125 21 " clip-rule="nonzero"/></clipPath><clipPath id="3a860f2724"><path d="M 34 21 L 35.007812 21 L 35.007812 23 L 34 23 Z M 34 21 " clip-rule="nonzero"/></clipPath><clipPath id="927ee979df"><path d="M 1.703125 28 L 3 28 L 3 29 L 1.703125 29 Z M 1.703125 28 " clip-rule="nonzero"/></clipPath><clipPath id="0e9d2857b6"><path d="M 34 28 L 35.007812 28 L 35.007812 29 L 34 29 Z M 34 28 " clip-rule="nonzero"/></clipPath><clipPath id="13f83a333d"><path d="M 1.703125 34 L 3 34 L 3 35.640625 L 1.703125 35.640625 Z M 1.703125 34 " clip-rule="nonzero"/></clipPath><clipPath id="2eaa98aac2"><path d="M 8 34 L 9 34 L 9 35.640625 L 8 35.640625 Z M 8 34 " clip-rule="nonzero"/></clipPath><clipPath id="868772f55e"><path d="M 14 34 L 16 34 L 16 35.640625 L 14 35.640625 Z M 14 34 " clip-rule="nonzero"/></clipPath><clipPath id="23c1602df1"><path d="M 21 34 L 22 34 L 22 35.640625 L 21 35.640625 Z M 21 34 " clip-rule="nonzero"/></clipPath><clipPath id="fc191a140f"><path d="M 27 34 L 29 34 L 29 35.640625 L 27 35.640625 Z M 27 34 " clip-rule="nonzero"/></clipPath><clipPath id="1debc8a74a"><path d="M 34 34 L 35.007812 34 L 35.007812 35.640625 L 34 35.640625 Z M 34 34 " clip-rule="nonzero"/></clipPath><clipPath id="b0e1765e31"><path d="M 1.703125 1.597656 L 3 1.597656 L 3 3 L 1.703125 3 Z M 1.703125 1.597656 " clip-rule="nonzero"/></clipPath><clipPath id="7ae085a263"><path d="M 8 1.597656 L 9 1.597656 L 9 3 L 8 3 Z M 8 1.597656 " clip-rule="nonzero"/></clipPath><clipPath id="ca31a51128"><path d="M 14 1.597656 L 16 1.597656 L 16 3 L 14 3 Z M 14 1.597656 " clip-rule="nonzero"/></clipPath><clipPath id="e26274017c"><path d="M 21 1.597656 L 22 1.597656 L 22 3 L 21 3 Z M 21 1.597656 " clip-rule="nonzero"/></clipPath><clipPath id="ada3030dd2"><path d="M 27 1.597656 L 29 1.597656 L 29 3 L 27 3 Z M 27 1.597656 " clip-rule="nonzero"/></clipPath><clipPath id="27a6c5a379"><path d="M 34 1.597656 L 35.007812 1.597656 L 35.007812 3 L 34 3 Z M 34 1.597656 " clip-rule="nonzero"/></clipPath><clipPath id="8aeb3fec9a"><path d="M 1.703125 8 L 3 8 L 3 9 L 1.703125 9 Z M 1.703125 8 " clip-rule="nonzero"/></clipPath><clipPath id="344932a60b"><path d="M 34 8 L 35.007812 8 L 35.007812 9 L 34 9 Z M 34 8 " clip-rule="nonzero"/></clipPath><clipPath id="1cef8617cd"><path d="M 1.703125 14 L 3 14 L 3 16 L 1.703125 16 Z M 1.703125 14 " clip-rule="nonzero"/></clipPath><clipPath id="18585fc1a0"><path d="M 34 14 L 35.007812 14 L 35.007812 16 L 34 16 Z M 34 14 " clip-rule="nonzero"/></clipPath><clipPath id="9ef3d2f0d0"><path d="M 1.703125 21 L 3 21 L 3 23 L 1.703125 23 Z M 1.703125 21 " clip-rule="nonzero"/></clipPath><clipPath id="b031c3713d"><path d="M 34 21 L 35.007812 21 L 35.007812 23 L 34 23 Z M 34 21 " clip-rule="nonzero"/></clipPath><clipPath id="f8a8379e93"><path d="M 1.703125 28 L 3 28 L 3 29 L 1.703125 29 Z M 1.703125 28 " clip-rule="nonzero"/></clipPath><clipPath id="d115b175b8"><path d="M 34 28 L 35.007812 28 L 35.007812 29 L 34 29 Z M 34 28 " clip-rule="nonzero"/></clipPath><clipPath id="8b30be9c27"><path d="M 1.703125 34 L 3 34 L 3 35.640625 L 1.703125 35.640625 Z M 1.703125 34 " clip-rule="nonzero"/></clipPath><clipPath id="03c6f50618"><path d="M 8 34 L 9 34 L 9 35.640625 L 8 35.640625 Z M 8 34 " clip-rule="nonzero"/></clipPath><clipPath id="c4fb4a95de"><path d="M 14 34 L 16 34 L 16 35.640625 L 14 35.640625 Z M 14 34 " clip-rule="nonzero"/></clipPath><clipPath id="140f51c65b"><path d="M 21 34 L 22 34 L 22 35.640625 L 21 35.640625 Z M 21 34 " clip-rule="nonzero"/></clipPath><clipPath id="b73b476c4b"><path d="M 27 34 L 29 34 L 29 35.640625 L 27 35.640625 Z M 27 34 " clip-rule="nonzero"/></clipPath><clipPath id="3774eef313"><path d="M 34 34 L 35.007812 34 L 35.007812 35.640625 L 34 35.640625 Z M 34 34 " clip-rule="nonzero"/></clipPath></defs><g clip-path="url(#84613d7c3f)"><path fill="#231f20" d="M 2.078125 1.609375 L 2.015625 1.609375 L 2.015625 1.929688 L 1.703125 1.929688 L 1.703125 1.988281 L 2.015625 1.988281 L 2.015625 2.308594 L 2.078125 2.308594 L 2.078125 1.988281 L 2.390625 1.988281 L 2.390625 1.929688 L 2.078125 1.929688 Z M 2.078125 1.609375 " fill-opacity="1" fill-rule="nonzero"/></g><g clip-path="url(#5d4166b036)"><path fill="#231f20" d="M 8.601562 1.609375 L 8.539062 1.609375 L 8.539062 1.929688 L 8.226562 1.929688 L 8.226562 1.988281 L 8.539062 1.988281 L 8.539062 2.308594 L 8.601562 2.308594 L 8.601562 1.988281 L 8.917969 1.988281 L 8.917969 1.929688 L 8.601562 1.929688 Z M 8.601562 1.609375 " fill-opacity="1" fill-rule="nonzero"/></g><g clip-path="url(#a1a5197349)"><path fill="#231f20" d="M 15.125 1.609375 L 15.066406 1.609375 L 15.066406 1.929688 L 14.75 1.929688 L 14.75 1.988281 L 15.066406 1.988281 L 15.066406 2.308594 L 15.125 2.308594 L 15.125 1.988281 L 15.441406 1.988281 L 15.441406 1.929688 L 15.125 1.929688 Z M 15.125 1.609375 " fill-opacity="1" fill-rule="nonzero"/></g><g clip-path="url(#34f19d9c51)"><path fill="#231f20" d="M 21.648438 1.609375 L 21.589844 1.609375 L 21.589844 1.929688 L 21.273438 1.929688 L 21.273438 1.988281 L 21.589844 1.988281 L 21.589844 2.308594 L 21.648438 2.308594 L 21.648438 1.988281 L 21.964844 1.988281 L 21.964844 1.929688 L 21.648438 1.929688 Z M 21.648438 1.609375 " fill-opacity="1" fill-rule="nonzero"/></g><g clip-path="url(#3d2a0fc8ee)"><path fill="#231f20" d="M 28.171875 1.609375 L 28.113281 1.609375 L 28.113281 1.929688 L 27.796875 1.929688 L 27.796875 1.988281 L 28.113281 1.988281 L 28.113281 2.308594 L 28.171875 2.308594 L 28.171875 1.988281 L 28.488281 1.988281 L 28.488281 1.929688 L 28.171875 1.929688 Z M 28.171875 1.609375 " fill-opacity="1" fill-rule="nonzero"/></g><g clip-path="url(#5c4bf3fd47)"><path fill="#231f20" d="M 34.695312 1.929688 L 34.695312 1.609375 L 34.636719 1.609375 L 34.636719 1.929688 L 34.320312 1.929688 L 34.320312 1.988281 L 34.636719 1.988281 L 34.636719 2.308594 L 34.695312 2.308594 L 34.695312 1.988281 L 35.011719 1.988281 L 35.011719 1.929688 Z M 34.695312 1.929688 " fill-opacity="1" fill-rule="nonzero"/></g><g clip-path="url(#1658dee3be)"><path fill="#231f20" d="M 2.078125 8.273438 L 2.015625 8.273438 L 2.015625 8.59375 L 1.703125 8.59375 L 1.703125 8.652344 L 2.015625 8.652344 L 2.015625 8.972656 L 2.078125 8.972656 L 2.078125 8.652344 L 2.390625 8.652344 L 2.390625 8.59375 L 2.078125 8.59375 Z M 2.078125 8.273438 " fill-opacity="1" fill-rule="nonzero"/></g><path fill="#231f20" d="M 8.601562 8.273438 L 8.539062 8.273438 L 8.539062 8.59375 L 8.226562 8.59375 L 8.226562 8.652344 L 8.539062 8.652344 L 8.539062 8.972656 L 8.601562 8.972656 L 8.601562 8.652344 L 8.917969 8.652344 L 8.917969 8.59375 L 8.601562 8.59375 Z M 8.601562 8.273438 " fill-opacity="1" fill-rule="nonzero"/><path fill="#231f20" d="M 15.125 8.273438 L 15.066406 8.273438 L 15.066406 8.59375 L 14.75 8.59375 L 14.75 8.652344 L 15.066406 8.652344 L 15.066406 8.972656 L 15.125 8.972656 L 15.125 8.652344 L 15.441406 8.652344 L 15.441406 8.59375 L 15.125 8.59375 Z M 15.125 8.273438 " fill-opacity="1" fill-rule="nonzero"/><path fill="#231f20" d="M 21.589844 8.273438 L 21.589844 8.59375 L 21.273438 8.59375 L 21.273438 8.652344 L 21.589844 8.652344 L 21.589844 8.972656 L 21.648438 8.972656 L 21.648438 8.652344 L 21.964844 8.652344 L 21.964844 8.59375 L 21.648438 8.59375 L 21.648438 8.273438 Z M 21.589844 8.273438 " fill-opacity="1" fill-rule="nonzero"/><path fill="#231f20" d="M 28.113281 8.273438 L 28.113281 8.59375 L 27.796875 8.59375 L 27.796875 8.652344 L 28.113281 8.652344 L 28.113281 8.972656 L 28.171875 8.972656 L 28.171875 8.652344 L 28.488281 8.652344 L 28.488281 8.59375 L 28.171875 8.59375 L 28.171875 8.273438 Z M 28.113281 8.273438 " fill-opacity="1" fill-rule="nonzero"/><path fill="#231f20" d="M 8.601562 14.9375 L 8.539062 14.9375 L 8.539062 15.253906 L 8.226562 15.253906 L 8.226562 15.316406 L 8.539062 15.316406 L 8.539062 15.636719 L 8.601562 15.636719 L 8.601562 15.316406 L 8.917969 15.316406 L 8.917969 15.253906 L 8.601562 15.253906 Z M 8.601562 14.9375 " fill-opacity="1" fill-rule="nonzero"/><path fill="#231f20" d="M 15.125 14.9375 L 15.066406 14.9375 L 15.066406 15.253906 L 14.75 15.253906 L 14.75 15.316406 L 15.066406 15.316406 L 15.066406 15.636719 L 15.125 15.636719 L 15.125 15.316406 L 15.441406 15.316406 L 15.441406 15.253906 L 15.125 15.253906 Z M 15.125 14.9375 " fill-opacity="1" fill-rule="nonzero"/><path fill="#231f20" d="M 21.273438 15.316406 L 21.589844 15.316406 L 21.589844 15.636719 L 21.648438 15.636719 L 21.648438 15.316406 L 21.964844 15.316406 L 21.964844 15.253906 L 21.648438 15.253906 L 21.648438 14.9375 L 21.589844 14.9375 L 21.589844 15.253906 L 21.273438 15.253906 Z M 21.273438 15.316406 " fill-opacity="1" fill-rule="nonzero"/><path fill="#231f20" d="M 27.796875 15.316406 L 28.113281 15.316406 L 28.113281 15.636719 L 28.171875 15.636719 L 28.171875 15.316406 L 28.488281 15.316406 L 28.488281 15.253906 L 28.171875 15.253906 L 28.171875 14.9375 L 28.113281 14.9375 L 28.113281 15.253906 L 27.796875 15.253906 Z M 27.796875 15.316406 " fill-opacity="1" fill-rule="nonzero"/><path fill="#231f20" d="M 8.601562 21.601562 L 8.539062 21.601562 L 8.539062 21.921875 L 8.226562 21.921875 L 8.226562 21.980469 L 8.539062 21.980469 L 8.539062 22.300781 L 8.601562 22.300781 L 8.601562 21.980469 L 8.917969 21.980469 L 8.917969 21.921875 L 8.601562 21.921875 Z M 8.601562 21.601562 " fill-opacity="1" fill-rule="nonzero"/><path fill="#231f20" d="M 15.125 21.601562 L 15.066406 21.601562 L 15.066406 21.921875 L 14.75 21.921875 L 14.75 21.980469 L 15.066406 21.980469 L 15.066406 22.300781 L 15.125 22.300781 L 15.125 21.980469 L 15.441406 21.980469 L 15.441406 21.921875 L 15.125 21.921875 Z M 15.125 21.601562 " fill-opacity="1" fill-rule="nonzero"/><path fill="#231f20" d="M 21.273438 21.980469 L 21.589844 21.980469 L 21.589844 22.300781 L 21.648438 22.300781 L 21.648438 21.980469 L 21.964844 21.980469 L 21.964844 21.921875 L 21.648438 21.921875 L 21.648438 21.601562 L 21.589844 21.601562 L 21.589844 21.921875 L 21.273438 21.921875 Z M 21.273438 21.980469 " fill-opacity="1" fill-rule="nonzero"/><path fill="#231f20" d="M 27.796875 21.980469 L 28.113281 21.980469 L 28.113281 22.300781 L 28.171875 22.300781 L 28.171875 21.980469 L 28.488281 21.980469 L 28.488281 21.921875 L 28.171875 21.921875 L 28.171875 21.601562 L 28.113281 21.601562 L 28.113281 21.921875 L 27.796875 21.921875 Z M 27.796875 21.980469 " fill-opacity="1" fill-rule="nonzero"/><path fill="#231f20" d="M 8.601562 28.265625 L 8.539062 28.265625 L 8.539062 28.585938 L 8.226562 28.585938 L 8.226562 28.644531 L 8.539062 28.644531 L 8.539062 28.964844 L 8.601562 28.964844 L 8.601562 28.644531 L 8.917969 28.644531 L 8.917969 28.585938 L 8.601562 28.585938 Z M 8.601562 28.265625 " fill-opacity="1" fill-rule="nonzero"/><path fill="#231f20" d="M 15.125 28.265625 L 15.066406 28.265625 L 15.066406 28.585938 L 14.75 28.585938 L 14.75 28.644531 L 15.066406 28.644531 L 15.066406 28.964844 L 15.125 28.964844 L 15.125 28.644531 L 15.441406 28.644531 L 15.441406 28.585938 L 15.125 28.585938 Z M 15.125 28.265625 " fill-opacity="1" fill-rule="nonzero"/><path fill="#231f20" d="M 21.273438 28.644531 L 21.589844 28.644531 L 21.589844 28.964844 L 21.648438 28.964844 L 21.648438 28.644531 L 21.964844 28.644531 L 21.964844 28.585938 L 21.648438 28.585938 L 21.648438 28.265625 L 21.589844 28.265625 L 21.589844 28.585938 L 21.273438 28.585938 Z M 21.273438 28.644531 " fill-opacity="1" fill-rule="nonzero"/><path fill="#231f20" d="M 27.796875 28.644531 L 28.113281 28.644531 L 28.113281 28.964844 L 28.171875 28.964844 L 28.171875 28.644531 L 28.488281 28.644531 L 28.488281 28.585938 L 28.171875 28.585938 L 28.171875 28.265625 L 28.113281 28.265625 L 28.113281 28.585938 L 27.796875 28.585938 Z M 27.796875 28.644531 " fill-opacity="1" fill-rule="nonzero"/><g clip-path="url(#4d1310e544)"><path fill="#231f20" d="M 34.695312 8.273438 L 34.636719 8.273438 L 34.636719 8.59375 L 34.320312 8.59375 L 34.320312 8.652344 L 34.636719 8.652344 L 34.636719 8.972656 L 34.695312 8.972656 L 34.695312 8.652344 L 35.011719 8.652344 L 35.011719 8.59375 L 34.695312 8.59375 Z M 34.695312 8.273438 " fill-opacity="1" fill-rule="nonzero"/></g><g clip-path="url(#a21899b56b)"><path fill="#231f20" d="M 2.078125 14.9375 L 2.015625 14.9375 L 2.015625 15.253906 L 1.703125 15.253906 L 1.703125 15.316406 L 2.015625 15.316406 L 2.015625 15.636719 L 2.078125 15.636719 L 2.078125 15.316406 L 2.390625 15.316406 L 2.390625 15.253906 L 2.078125 15.253906 Z M 2.078125 14.9375 " fill-opacity="1" fill-rule="nonzero"/></g><g clip-path="url(#da46dfa33f)"><path fill="#231f20" d="M 34.695312 14.9375 L 34.636719 14.9375 L 34.636719 15.253906 L 34.320312 15.253906 L 34.320312 15.316406 L 34.636719 15.316406 L 34.636719 15.636719 L 34.695312 15.636719 L 34.695312 15.316406 L 35.011719 15.316406 L 35.011719 15.253906 L 34.695312 15.253906 Z M 34.695312 14.9375 " fill-opacity="1" fill-rule="nonzero"/></g><g clip-path="url(#4c91db75c1)"><path fill="#231f20" d="M 2.078125 21.601562 L 2.015625 21.601562 L 2.015625 21.921875 L 1.703125 21.921875 L 1.703125 21.980469 L 2.015625 21.980469 L 2.015625 22.300781 L 2.078125 22.300781 L 2.078125 21.980469 L 2.390625 21.980469 L 2.390625 21.921875 L 2.078125 21.921875 Z M 2.078125 21.601562 " fill-opacity="1" fill-rule="nonzero"/></g><g clip-path="url(#3a860f2724)"><path fill="#231f20" d="M 34.695312 21.601562 L 34.636719 21.601562 L 34.636719 21.921875 L 34.320312 21.921875 L 34.320312 21.980469 L 34.636719 21.980469 L 34.636719 22.300781 L 34.695312 22.300781 L 34.695312 21.980469 L 35.011719 21.980469 L 35.011719 21.921875 L 34.695312 21.921875 Z M 34.695312 21.601562 " fill-opacity="1" fill-rule="nonzero"/></g><g clip-path="url(#927ee979df)"><path fill="#231f20" d="M 2.078125 28.265625 L 2.015625 28.265625 L 2.015625 28.585938 L 1.703125 28.585938 L 1.703125 28.644531 L 2.015625 28.644531 L 2.015625 28.964844 L 2.078125 28.964844 L 2.078125 28.644531 L 2.390625 28.644531 L 2.390625 28.585938 L 2.078125 28.585938 Z M 2.078125 28.265625 " fill-opacity="1" fill-rule="nonzero"/></g><g clip-path="url(#0e9d2857b6)"><path fill="#231f20" d="M 34.695312 28.265625 L 34.636719 28.265625 L 34.636719 28.585938 L 34.320312 28.585938 L 34.320312 28.644531 L 34.636719 28.644531 L 34.636719 28.964844 L 34.695312 28.964844 L 34.695312 28.644531 L 35.011719 28.644531 L 35.011719 28.585938 L 34.695312 28.585938 Z M 34.695312 28.265625 " fill-opacity="1" fill-rule="nonzero"/></g><g clip-path="url(#13f83a333d)"><path fill="#231f20" d="M 2.078125 34.929688 L 2.015625 34.929688 L 2.015625 35.25 L 1.703125 35.25 L 1.703125 35.308594 L 2.015625 35.308594 L 2.015625 35.628906 L 2.078125 35.628906 L 2.078125 35.308594 L 2.390625 35.308594 L 2.390625 35.25 L 2.078125 35.25 Z M 2.078125 34.929688 " fill-opacity="1" fill-rule="nonzero"/></g><g clip-path="url(#2eaa98aac2)"><path fill="#231f20" d="M 8.601562 34.929688 L 8.539062 34.929688 L 8.539062 35.25 L 8.226562 35.25 L 8.226562 35.308594 L 8.539062 35.308594 L 8.539062 35.628906 L 8.601562 35.628906 L 8.601562 35.308594 L 8.917969 35.308594 L 8.917969 35.25 L 8.601562 35.25 Z M 8.601562 34.929688 " fill-opacity="1" fill-rule="nonzero"/></g><g clip-path="url(#868772f55e)"><path fill="#231f20" d="M 15.125 34.929688 L 15.066406 34.929688 L 15.066406 35.25 L 14.75 35.25 L 14.75 35.308594 L 15.066406 35.308594 L 15.066406 35.628906 L 15.125 35.628906 L 15.125 35.308594 L 15.441406 35.308594 L 15.441406 35.25 L 15.125 35.25 Z M 15.125 34.929688 " fill-opacity="1" fill-rule="nonzero"/></g><g clip-path="url(#23c1602df1)"><path fill="#231f20" d="M 21.648438 34.929688 L 21.589844 34.929688 L 21.589844 35.25 L 21.273438 35.25 L 21.273438 35.308594 L 21.589844 35.308594 L 21.589844 35.628906 L 21.648438 35.628906 L 21.648438 35.308594 L 21.964844 35.308594 L 21.964844 35.25 L 21.648438 35.25 Z M 21.648438 34.929688 " fill-opacity="1" fill-rule="nonzero"/></g><g clip-path="url(#fc191a140f)"><path fill="#231f20" d="M 28.171875 34.929688 L 28.113281 34.929688 L 28.113281 35.25 L 27.796875 35.25 L 27.796875 35.308594 L 28.113281 35.308594 L 28.113281 35.628906 L 28.171875 35.628906 L 28.171875 35.308594 L 28.488281 35.308594 L 28.488281 35.25 L 28.171875 35.25 Z M 28.171875 34.929688 " fill-opacity="1" fill-rule="nonzero"/></g><g clip-path="url(#1debc8a74a)"><path fill="#231f20" d="M 34.695312 34.929688 L 34.636719 34.929688 L 34.636719 35.25 L 34.320312 35.25 L 34.320312 35.308594 L 34.636719 35.308594 L 34.636719 35.628906 L 34.695312 35.628906 L 34.695312 35.308594 L 35.011719 35.308594 L 35.011719 35.25 L 34.695312 35.25 Z M 34.695312 34.929688 " fill-opacity="1" fill-rule="nonzero"/></g><g clip-path="url(#b0e1765e31)"><path fill="#231f20" d="M 2.078125 1.609375 L 2.015625 1.609375 L 2.015625 1.929688 L 1.703125 1.929688 L 1.703125 1.988281 L 2.015625 1.988281 L 2.015625 2.308594 L 2.078125 2.308594 L 2.078125 1.988281 L 2.390625 1.988281 L 2.390625 1.929688 L 2.078125 1.929688 Z M 2.078125 1.609375 " fill-opacity="1" fill-rule="nonzero"/></g><g clip-path="url(#7ae085a263)"><path fill="#231f20" d="M 8.601562 1.609375 L 8.539062 1.609375 L 8.539062 1.929688 L 8.226562 1.929688 L 8.226562 1.988281 L 8.539062 1.988281 L 8.539062 2.308594 L 8.601562 2.308594 L 8.601562 1.988281 L 8.917969 1.988281 L 8.917969 1.929688 L 8.601562 1.929688 Z M 8.601562 1.609375 " fill-opacity="1" fill-rule="nonzero"/></g><g clip-path="url(#ca31a51128)"><path fill="#231f20" d="M 15.125 1.609375 L 15.066406 1.609375 L 15.066406 1.929688 L 14.75 1.929688 L 14.75 1.988281 L 15.066406 1.988281 L 15.066406 2.308594 L 15.125 2.308594 L 15.125 1.988281 L 15.441406 1.988281 L 15.441406 1.929688 L 15.125 1.929688 Z M 15.125 1.609375 " fill-opacity="1" fill-rule="nonzero"/></g><g clip-path="url(#e26274017c)"><path fill="#231f20" d="M 21.648438 1.609375 L 21.589844 1.609375 L 21.589844 1.929688 L 21.273438 1.929688 L 21.273438 1.988281 L 21.589844 1.988281 L 21.589844 2.308594 L 21.648438 2.308594 L 21.648438 1.988281 L 21.964844 1.988281 L 21.964844 1.929688 L 21.648438 1.929688 Z M 21.648438 1.609375 " fill-opacity="1" fill-rule="nonzero"/></g><g clip-path="url(#ada3030dd2)"><path fill="#231f20" d="M 28.171875 1.609375 L 28.113281 1.609375 L 28.113281 1.929688 L 27.796875 1.929688 L 27.796875 1.988281 L 28.113281 1.988281 L 28.113281 2.308594 L 28.171875 2.308594 L 28.171875 1.988281 L 28.488281 1.988281 L 28.488281 1.929688 L 28.171875 1.929688 Z M 28.171875 1.609375 " fill-opacity="1" fill-rule="nonzero"/></g><g clip-path="url(#27a6c5a379)"><path fill="#231f20" d="M 34.695312 1.929688 L 34.695312 1.609375 L 34.636719 1.609375 L 34.636719 1.929688 L 34.320312 1.929688 L 34.320312 1.988281 L 34.636719 1.988281 L 34.636719 2.308594 L 34.695312 2.308594 L 34.695312 1.988281 L 35.011719 1.988281 L 35.011719 1.929688 Z M 34.695312 1.929688 " fill-opacity="1" fill-rule="nonzero"/></g><g clip-path="url(#8aeb3fec9a)"><path fill="#231f20" d="M 2.078125 8.273438 L 2.015625 8.273438 L 2.015625 8.59375 L 1.703125 8.59375 L 1.703125 8.652344 L 2.015625 8.652344 L 2.015625 8.972656 L 2.078125 8.972656 L 2.078125 8.652344 L 2.390625 8.652344 L 2.390625 8.59375 L 2.078125 8.59375 Z M 2.078125 8.273438 " fill-opacity="1" fill-rule="nonzero"/></g><path fill="#231f20" d="M 8.601562 8.273438 L 8.539062 8.273438 L 8.539062 8.59375 L 8.226562 8.59375 L 8.226562 8.652344 L 8.539062 8.652344 L 8.539062 8.972656 L 8.601562 8.972656 L 8.601562 8.652344 L 8.917969 8.652344 L 8.917969 8.59375 L 8.601562 8.59375 Z M 8.601562 8.273438 " fill-opacity="1" fill-rule="nonzero"/><path fill="#231f20" d="M 15.125 8.273438 L 15.066406 8.273438 L 15.066406 8.59375 L 14.75 8.59375 L 14.75 8.652344 L 15.066406 8.652344 L 15.066406 8.972656 L 15.125 8.972656 L 15.125 8.652344 L 15.441406 8.652344 L 15.441406 8.59375 L 15.125 8.59375 Z M 15.125 8.273438 " fill-opacity="1" fill-rule="nonzero"/><path fill="#231f20" d="M 21.589844 8.273438 L 21.589844 8.59375 L 21.273438 8.59375 L 21.273438 8.652344 L 21.589844 8.652344 L 21.589844 8.972656 L 21.648438 8.972656 L 21.648438 8.652344 L 21.964844 8.652344 L 21.964844 8.59375 L 21.648438 8.59375 L 21.648438 8.273438 Z M 21.589844 8.273438 " fill-opacity="1" fill-rule="nonzero"/><path fill="#231f20" d="M 28.113281 8.273438 L 28.113281 8.59375 L 27.796875 8.59375 L 27.796875 8.652344 L 28.113281 8.652344 L 28.113281 8.972656 L 28.171875 8.972656 L 28.171875 8.652344 L 28.488281 8.652344 L 28.488281 8.59375 L 28.171875 8.59375 L 28.171875 8.273438 Z M 28.113281 8.273438 " fill-opacity="1" fill-rule="nonzero"/><path fill="#231f20" d="M 8.601562 14.9375 L 8.539062 14.9375 L 8.539062 15.253906 L 8.226562 15.253906 L 8.226562 15.316406 L 8.539062 15.316406 L 8.539062 15.636719 L 8.601562 15.636719 L 8.601562 15.316406 L 8.917969 15.316406 L 8.917969 15.253906 L 8.601562 15.253906 Z M 8.601562 14.9375 " fill-opacity="1" fill-rule="nonzero"/><path fill="#231f20" d="M 15.125 14.9375 L 15.066406 14.9375 L 15.066406 15.253906 L 14.75 15.253906 L 14.75 15.316406 L 15.066406 15.316406 L 15.066406 15.636719 L 15.125 15.636719 L 15.125 15.316406 L 15.441406 15.316406 L 15.441406 15.253906 L 15.125 15.253906 Z M 15.125 14.9375 " fill-opacity="1" fill-rule="nonzero"/><path fill="#231f20" d="M 21.273438 15.316406 L 21.589844 15.316406 L 21.589844 15.636719 L 21.648438 15.636719 L 21.648438 15.316406 L 21.964844 15.316406 L 21.964844 15.253906 L 21.648438 15.253906 L 21.648438 14.9375 L 21.589844 14.9375 L 21.589844 15.253906 L 21.273438 15.253906 Z M 21.273438 15.316406 " fill-opacity="1" fill-rule="nonzero"/><path fill="#231f20" d="M 27.796875 15.316406 L 28.113281 15.316406 L 28.113281 15.636719 L 28.171875 15.636719 L 28.171875 15.316406 L 28.488281 15.316406 L 28.488281 15.253906 L 28.171875 15.253906 L 28.171875 14.9375 L 28.113281 14.9375 L 28.113281 15.253906 L 27.796875 15.253906 Z M 27.796875 15.316406 " fill-opacity="1" fill-rule="nonzero"/><path fill="#231f20" d="M 8.601562 21.601562 L 8.539062 21.601562 L 8.539062 21.921875 L 8.226562 21.921875 L 8.226562 21.980469 L 8.539062 21.980469 L 8.539062 22.300781 L 8.601562 22.300781 L 8.601562 21.980469 L 8.917969 21.980469 L 8.917969 21.921875 L 8.601562 21.921875 Z M 8.601562 21.601562 " fill-opacity="1" fill-rule="nonzero"/><path fill="#231f20" d="M 15.125 21.601562 L 15.066406 21.601562 L 15.066406 21.921875 L 14.75 21.921875 L 14.75 21.980469 L 15.066406 21.980469 L 15.066406 22.300781 L 15.125 22.300781 L 15.125 21.980469 L 15.441406 21.980469 L 15.441406 21.921875 L 15.125 21.921875 Z M 15.125 21.601562 " fill-opacity="1" fill-rule="nonzero"/><path fill="#231f20" d="M 21.273438 21.980469 L 21.589844 21.980469 L 21.589844 22.300781 L 21.648438 22.300781 L 21.648438 21.980469 L 21.964844 21.980469 L 21.964844 21.921875 L 21.648438 21.921875 L 21.648438 21.601562 L 21.589844 21.601562 L 21.589844 21.921875 L 21.273438 21.921875 Z M 21.273438 21.980469 " fill-opacity="1" fill-rule="nonzero"/><path fill="#231f20" d="M 27.796875 21.980469 L 28.113281 21.980469 L 28.113281 22.300781 L 28.171875 22.300781 L 28.171875 21.980469 L 28.488281 21.980469 L 28.488281 21.921875 L 28.171875 21.921875 L 28.171875 21.601562 L 28.113281 21.601562 L 28.113281 21.921875 L 27.796875 21.921875 Z M 27.796875 21.980469 " fill-opacity="1" fill-rule="nonzero"/><path fill="#231f20" d="M 8.601562 28.265625 L 8.539062 28.265625 L 8.539062 28.585938 L 8.226562 28.585938 L 8.226562 28.644531 L 8.539062 28.644531 L 8.539062 28.964844 L 8.601562 28.964844 L 8.601562 28.644531 L 8.917969 28.644531 L 8.917969 28.585938 L 8.601562 28.585938 Z M 8.601562 28.265625 " fill-opacity="1" fill-rule="nonzero"/><path fill="#231f20" d="M 15.125 28.265625 L 15.066406 28.265625 L 15.066406 28.585938 L 14.75 28.585938 L 14.75 28.644531 L 15.066406 28.644531 L 15.066406 28.964844 L 15.125 28.964844 L 15.125 28.644531 L 15.441406 28.644531 L 15.441406 28.585938 L 15.125 28.585938 Z M 15.125 28.265625 " fill-opacity="1" fill-rule="nonzero"/><path fill="#231f20" d="M 21.273438 28.644531 L 21.589844 28.644531 L 21.589844 28.964844 L 21.648438 28.964844 L 21.648438 28.644531 L 21.964844 28.644531 L 21.964844 28.585938 L 21.648438 28.585938 L 21.648438 28.265625 L 21.589844 28.265625 L 21.589844 28.585938 L 21.273438 28.585938 Z M 21.273438 28.644531 " fill-opacity="1" fill-rule="nonzero"/><path fill="#231f20" d="M 27.796875 28.644531 L 28.113281 28.644531 L 28.113281 28.964844 L 28.171875 28.964844 L 28.171875 28.644531 L 28.488281 28.644531 L 28.488281 28.585938 L 28.171875 28.585938 L 28.171875 28.265625 L 28.113281 28.265625 L 28.113281 28.585938 L 27.796875 28.585938 Z M 27.796875 28.644531 " fill-opacity="1" fill-rule="nonzero"/><g clip-path="url(#344932a60b)"><path fill="#231f20" d="M 34.695312 8.273438 L 34.636719 8.273438 L 34.636719 8.59375 L 34.320312 8.59375 L 34.320312 8.652344 L 34.636719 8.652344 L 34.636719 8.972656 L 34.695312 8.972656 L 34.695312 8.652344 L 35.011719 8.652344 L 35.011719 8.59375 L 34.695312 8.59375 Z M 34.695312 8.273438 " fill-opacity="1" fill-rule="nonzero"/></g><g clip-path="url(#1cef8617cd)"><path fill="#231f20" d="M 2.078125 14.9375 L 2.015625 14.9375 L 2.015625 15.253906 L 1.703125 15.253906 L 1.703125 15.316406 L 2.015625 15.316406 L 2.015625 15.636719 L 2.078125 15.636719 L 2.078125 15.316406 L 2.390625 15.316406 L 2.390625 15.253906 L 2.078125 15.253906 Z M 2.078125 14.9375 " fill-opacity="1" fill-rule="nonzero"/></g><g clip-path="url(#18585fc1a0)"><path fill="#231f20" d="M 34.695312 14.9375 L 34.636719 14.9375 L 34.636719 15.253906 L 34.320312 15.253906 L 34.320312 15.316406 L 34.636719 15.316406 L 34.636719 15.636719 L 34.695312 15.636719 L 34.695312 15.316406 L 35.011719 15.316406 L 35.011719 15.253906 L 34.695312 15.253906 Z M 34.695312 14.9375 " fill-opacity="1" fill-rule="nonzero"/></g><g clip-path="url(#9ef3d2f0d0)"><path fill="#231f20" d="M 2.078125 21.601562 L 2.015625 21.601562 L 2.015625 21.921875 L 1.703125 21.921875 L 1.703125 21.980469 L 2.015625 21.980469 L 2.015625 22.300781 L 2.078125 22.300781 L 2.078125 21.980469 L 2.390625 21.980469 L 2.390625 21.921875 L 2.078125 21.921875 Z M 2.078125 21.601562 " fill-opacity="1" fill-rule="nonzero"/></g><g clip-path="url(#b031c3713d)"><path fill="#231f20" d="M 34.695312 21.601562 L 34.636719 21.601562 L 34.636719 21.921875 L 34.320312 21.921875 L 34.320312 21.980469 L 34.636719 21.980469 L 34.636719 22.300781 L 34.695312 22.300781 L 34.695312 21.980469 L 35.011719 21.980469 L 35.011719 21.921875 L 34.695312 21.921875 Z M 34.695312 21.601562 " fill-opacity="1" fill-rule="nonzero"/></g><g clip-path="url(#f8a8379e93)"><path fill="#231f20" d="M 2.078125 28.265625 L 2.015625 28.265625 L 2.015625 28.585938 L 1.703125 28.585938 L 1.703125 28.644531 L 2.015625 28.644531 L 2.015625 28.964844 L 2.078125 28.964844 L 2.078125 28.644531 L 2.390625 28.644531 L 2.390625 28.585938 L 2.078125 28.585938 Z M 2.078125 28.265625 " fill-opacity="1" fill-rule="nonzero"/></g><g clip-path="url(#d115b175b8)"><path fill="#231f20" d="M 34.695312 28.265625 L 34.636719 28.265625 L 34.636719 28.585938 L 34.320312 28.585938 L 34.320312 28.644531 L 34.636719 28.644531 L 34.636719 28.964844 L 34.695312 28.964844 L 34.695312 28.644531 L 35.011719 28.644531 L 35.011719 28.585938 L 34.695312 28.585938 Z M 34.695312 28.265625 " fill-opacity="1" fill-rule="nonzero"/></g><g clip-path="url(#8b30be9c27)"><path fill="#231f20" d="M 2.078125 34.929688 L 2.015625 34.929688 L 2.015625 35.25 L 1.703125 35.25 L 1.703125 35.308594 L 2.015625 35.308594 L 2.015625 35.628906 L 2.078125 35.628906 L 2.078125 35.308594 L 2.390625 35.308594 L 2.390625 35.25 L 2.078125 35.25 Z M 2.078125 34.929688 " fill-opacity="1" fill-rule="nonzero"/></g><g clip-path="url(#03c6f50618)"><path fill="#231f20" d="M 8.601562 34.929688 L 8.539062 34.929688 L 8.539062 35.25 L 8.226562 35.25 L 8.226562 35.308594 L 8.539062 35.308594 L 8.539062 35.628906 L 8.601562 35.628906 L 8.601562 35.308594 L 8.917969 35.308594 L 8.917969 35.25 L 8.601562 35.25 Z M 8.601562 34.929688 " fill-opacity="1" fill-rule="nonzero"/></g><g clip-path="url(#c4fb4a95de)"><path fill="#231f20" d="M 15.125 34.929688 L 15.066406 34.929688 L 15.066406 35.25 L 14.75 35.25 L 14.75 35.308594 L 15.066406 35.308594 L 15.066406 35.628906 L 15.125 35.628906 L 15.125 35.308594 L 15.441406 35.308594 L 15.441406 35.25 L 15.125 35.25 Z M 15.125 34.929688 " fill-opacity="1" fill-rule="nonzero"/></g><g clip-path="url(#140f51c65b)"><path fill="#231f20" d="M 21.648438 34.929688 L 21.589844 34.929688 L 21.589844 35.25 L 21.273438 35.25 L 21.273438 35.308594 L 21.589844 35.308594 L 21.589844 35.628906 L 21.648438 35.628906 L 21.648438 35.308594 L 21.964844 35.308594 L 21.964844 35.25 L 21.648438 35.25 Z M 21.648438 34.929688 " fill-opacity="1" fill-rule="nonzero"/></g><g clip-path="url(#b73b476c4b)"><path fill="#231f20" d="M 28.171875 34.929688 L 28.113281 34.929688 L 28.113281 35.25 L 27.796875 35.25 L 27.796875 35.308594 L 28.113281 35.308594 L 28.113281 35.628906 L 28.171875 35.628906 L 28.171875 35.308594 L 28.488281 35.308594 L 28.488281 35.25 L 28.171875 35.25 Z M 28.171875 34.929688 " fill-opacity="1" fill-rule="nonzero"/></g><g clip-path="url(#3774eef313)"><path fill="#231f20" d="M 34.695312 34.929688 L 34.636719 34.929688 L 34.636719 35.25 L 34.320312 35.25 L 34.320312 35.308594 L 34.636719 35.308594 L 34.636719 35.628906 L 34.695312 35.628906 L 34.695312 35.308594 L 35.011719 35.308594 L 35.011719 35.25 L 34.695312 35.25 Z M 34.695312 34.929688 " fill-opacity="1" fill-rule="nonzero"/></g></svg>