<svg xmlns="http://www.w3.org/2000/svg" xmlns:xlink="http://www.w3.org/1999/xlink" width="300" zoomAndPan="magnify" viewBox="0 0 224.87999 449.999984" height="600" preserveAspectRatio="xMidYMid meet" version="1.0"><defs><clipPath id="20937a653a"><path d="M 7.472656 13.476562 L 143 13.476562 L 143 152 L 7.472656 152 Z M 7.472656 13.476562 " clip-rule="nonzero"/></clipPath><clipPath id="53a50c0b41"><path d="M 33 124 L 217.359375 124 L 217.359375 436.253906 L 33 436.253906 Z M 33 124 " clip-rule="nonzero"/></clipPath><clipPath id="d8b1bc1e5b"><path d="M 7.472656 13.476562 L 143 13.476562 L 143 152 L 7.472656 152 Z M 7.472656 13.476562 " clip-rule="nonzero"/></clipPath><clipPath id="50f4d53130"><path d="M 33 124 L 217.359375 124 L 217.359375 436.253906 L 33 436.253906 Z M 33 124 " clip-rule="nonzero"/></clipPath></defs><g clip-path="url(#20937a653a)"><path fill="#010101" d="M 138.878906 13.609375 C 137.675781 13.859375 136.757812 14.023438 136.523438 14.0625 C 133.257812 14.699219 130.023438 15.488281 126.835938 16.449219 C 123.65625 17.40625 120.523438 18.53125 117.4375 19.75 C 104.71875 24.855469 93.582031 32.324219 83.902344 41.441406 C 76.976562 47.972656 70.808594 55.347656 65.265625 63.210938 C 63.988281 63.886719 62.335938 64.847656 60.335938 65.953125 C 53.167969 69.910156 41.914062 76.207031 30.5 82.207031 C 24.976562 85.113281 19.449219 88.007812 14.335938 90.539062 C 11.441406 91.972656 8.902344 98.179688 7.996094 103.085938 C 7.503906 105.734375 7.496094 107.980469 7.789062 108.910156 C 8.242188 110.332031 9.242188 110.773438 10.117188 110.8125 C 16.773438 111.105469 23.113281 108.453125 29.699219 108 C 35.386719 107.613281 41.214844 108.445312 46.652344 110.105469 C 65.582031 115.878906 76.9375 131.644531 81.03125 150.402344 C 81.191406 151.136719 81.710938 152.046875 83.179688 151.855469 C 83.519531 151.808594 84.265625 151.539062 85.257812 151.035156 C 88.402344 149.445312 95.140625 145.320312 98.023438 143.457031 C 98.675781 143.035156 99.140625 142.722656 99.359375 142.558594 C 100.484375 141.714844 100.253906 140.621094 100.230469 140.46875 C 100 139.183594 100.605469 127.195312 105.15625 111.316406 C 107.378906 103.570312 110.902344 95.109375 115.027344 86.0625 C 115.128906 85.832031 115.242188 85.605469 115.351562 85.375 C 121.550781 76.839844 126.789062 67.625 130.851562 57.914062 C 135.589844 46.257812 138.644531 35.738281 140.292969 27.953125 C 141.507812 22.21875 142.109375 18.003906 142.199219 15.96875 C 142.207031 15.832031 142.214844 15.703125 142.21875 15.585938 C 142.417969 15.582031 139.503906 13.484375 138.878906 13.609375 Z M 32.636719 103.554688 C 24.019531 103.78125 16.15625 105.890625 11.957031 106.351562 C 12.105469 103.9375 12.964844 99.980469 14.3125 97.078125 C 14.890625 95.832031 15.460938 94.75 16.242188 94.355469 C 28.355469 88.175781 42.910156 80.167969 53.652344 73.808594 C 56.453125 72.152344 59 70.628906 61.175781 69.265625 C 60.457031 70.375 59.746094 71.488281 59.054688 72.613281 C 56.914062 76.089844 54.851562 79.640625 52.945312 83.273438 C 51.023438 86.925781 49.257812 90.65625 47.714844 94.46875 L 44.839844 101.984375 L 43.960938 104.476562 C 43.960938 104.488281 43.957031 104.5 43.953125 104.511719 C 43.859375 104.492188 43.765625 104.46875 43.671875 104.449219 C 40.019531 103.609375 36.253906 103.460938 32.636719 103.554688 Z M 61.308594 111.84375 C 54.488281 107.570312 49.726562 106.488281 47.816406 106.121094 C 47.703125 106.035156 47.585938 105.957031 47.476562 105.878906 L 48.648438 103.53125 L 50.863281 98.46875 C 53.792969 99.40625 59.433594 101.695312 65.234375 105.648438 C 68.527344 107.886719 71.820312 110.683594 74.832031 113.902344 C 75.5625 114.6875 76.25 115.523438 77.003906 116.300781 C 77.101562 116.398438 77.199219 116.488281 77.292969 116.578125 C 76.578125 117.09375 75.867188 117.609375 75.148438 118.117188 C 74.203125 118.785156 73.148438 119.320312 72.367188 120.171875 C 72.210938 120.339844 72.128906 120.503906 72.042969 120.679688 C 70.933594 119.496094 69.863281 118.390625 68.769531 117.410156 C 66.148438 115.054688 63.597656 113.277344 61.308594 111.84375 Z M 100.90625 110.070312 C 96.578125 124.386719 96.027344 135.882812 96.125 139.847656 C 96.015625 139.941406 95.902344 140.039062 95.785156 140.121094 C 93.179688 141.929688 87.253906 145.835938 84.078125 147.597656 C 82.933594 142.804688 81.085938 137.28125 78.984375 132.441406 C 77.574219 129.199219 76.242188 126.105469 74.542969 124.027344 C 74.945312 123.570312 75.339844 123.035156 75.707031 122.519531 C 76.265625 122.1875 76.808594 121.808594 77.359375 121.46875 C 87.753906 115.125 96.960938 106.898438 105.164062 97.859375 C 103.429688 102.070312 102.074219 106.203125 100.90625 110.070312 Z M 133.40625 37.601562 C 131.660156 43.195312 129.539062 49.523438 126.746094 56.210938 C 121.277344 69.4375 113.554688 81.714844 104.160156 92.578125 C 97 100.859375 88.710938 108.082031 79.9375 114.632812 C 79.859375 114.488281 79.78125 114.347656 79.695312 114.203125 C 79.078125 113.199219 78.289062 112.320312 77.515625 111.453125 C 74.382812 107.9375 70.683594 105.117188 67.097656 102.828125 C 61.097656 98.988281 55.273438 96.707031 51.980469 95.90625 C 53.460938 92.328125 55.144531 88.832031 56.972656 85.402344 C 58.851562 81.875 60.878906 78.421875 62.984375 75.042969 C 69.828125 63.988281 77.820312 53.671875 87.078125 44.78125 C 96.296875 35.929688 106.785156 28.472656 118.917969 23.339844 C 121.875 22.074219 124.890625 20.921875 127.941406 19.882812 C 130.988281 18.84375 134.070312 17.917969 137.199219 17.167969 C 137.40625 17.113281 138.082031 16.929688 138.878906 16.707031 C 138.765625 17.230469 138.632812 17.828125 138.46875 18.496094 C 137.46875 22.542969 135.996094 29.296875 133.40625 37.601562 Z M 133.40625 37.601562 " fill-opacity="1" fill-rule="evenodd"/></g><path fill="#010101" d="M 108.832031 48.023438 C 104.417969 45.441406 98.882812 46.238281 95.054688 49.480469 C 90.664062 53.203125 88.355469 59.710938 90.164062 65.238281 C 91.300781 68.691406 93.71875 71.632812 97.21875 72.835938 C 99.855469 73.746094 102.679688 73.453125 105.226562 72.363281 C 107.652344 71.328125 109.8125 69.566406 111.285156 67.519531 C 112.640625 65.636719 113.65625 63.324219 114.136719 60.929688 C 115.140625 55.90625 113.375 50.679688 108.832031 48.023438 Z M 108.832031 48.023438 " fill-opacity="1" fill-rule="evenodd"/><g clip-path="url(#53a50c0b41)"><path fill="#010101" d="M 54.160156 125.273438 C 54.117188 125.210938 54.097656 125.183594 54.15625 125.238281 C 54.167969 125.25 54.167969 125.261719 54.160156 125.273438 Z M 54.160156 125.273438 C 54.199219 125.328125 54.25 125.40625 54.289062 125.484375 C 54.238281 125.117188 54.433594 124.746094 54.792969 124.59375 C 55.21875 124.402344 55.71875 124.601562 55.902344 125.027344 C 56.234375 125.160156 56.039062 125.371094 56.140625 125.703125 C 56.207031 125.925781 56.003906 126.171875 55.933594 126.371094 C 53.351562 131.742188 51.140625 137.164062 49.109375 142.691406 C 47.765625 146.34375 46.476562 150.035156 45.367188 153.832031 C 42.109375 164.980469 39.988281 176.234375 38.722656 187.585938 C 37.460938 198.949219 37.066406 210.417969 37.402344 222.015625 C 38.8125 276.140625 55.792969 325.28125 86.230469 362.671875 C 113.960938 396.734375 152.859375 421.039062 201.3125 430.449219 C 205.246094 431.214844 209.25 431.769531 213.289062 432.445312 C 214.089844 432.574219 214.953125 432.527344 215.679688 432.894531 C 215.957031 433.027344 216.003906 433.195312 216.230469 433.40625 C 216.871094 433.484375 217.324219 434.070312 217.246094 434.707031 C 217.164062 435.347656 216.582031 435.800781 215.941406 435.71875 C 215.667969 435.867188 215.578125 436.015625 215.277344 436.078125 C 214.46875 436.25 213.632812 435.972656 212.816406 435.882812 C 208.683594 435.425781 204.644531 434.652344 200.652344 433.886719 C 151.273438 424.410156 111.59375 399.730469 83.28125 365.078125 C 52.257812 327.113281 34.898438 277.160156 33.390625 222.125 C 33.105469 210.339844 33.519531 198.679688 34.910156 187.148438 C 36.300781 175.597656 38.667969 164.179688 42.140625 152.871094 C 43.929688 147.058594 45.941406 141.425781 48.445312 136 C 50.117188 132.386719 52.035156 128.894531 54.035156 125.394531 C 54.0625 125.355469 54.144531 125.3125 54.160156 125.273438 Z M 54.160156 125.273438 " fill-opacity="1" fill-rule="evenodd"/></g><path fill="#010101" d="M 18.710938 174.359375 C 18.886719 173.929688 19.378906 173.722656 19.808594 173.898438 C 20.242188 174.078125 20.449219 174.570312 20.273438 175 C 19.433594 177.210938 18.902344 179.65625 18.488281 182.199219 C 17.535156 188.085938 17.351562 194.503906 16.722656 199.839844 C 13.820312 222.894531 14.691406 244.988281 18.621094 266.539062 C 22.566406 288.148438 29.585938 309.234375 39.324219 330.148438 C 39.558594 330.644531 39.34375 331.234375 38.851562 331.464844 C 38.359375 331.695312 37.769531 331.484375 37.539062 330.992188 C 27.535156 309.976562 20.160156 288.789062 16.113281 267.003906 C 12.070312 245.214844 11.355469 222.847656 14.339844 199.539062 C 14.953125 194.941406 15.167969 189.527344 15.972656 184.371094 C 16.535156 180.796875 17.390625 177.355469 18.710938 174.359375 Z M 18.710938 174.359375 " fill-opacity="1" fill-rule="evenodd"/><path fill="#010101" d="M 59.632812 194.132812 C 59.644531 194.113281 59.664062 194.105469 59.6875 194.105469 C 59.792969 194.117188 59.691406 194.183594 59.59375 194.238281 C 59.601562 194.203125 59.605469 194.171875 59.617188 194.152344 C 59.585938 194.199219 59.550781 194.246094 59.507812 194.289062 C 59.507812 194.292969 59.507812 194.292969 59.507812 194.292969 C 59.527344 194.277344 59.558594 194.257812 59.59375 194.234375 C 59.570312 194.4375 59.625 194.832031 59.570312 195.203125 C 59.097656 198.328125 57.566406 206.0625 57.519531 206.789062 C 57.199219 210.859375 57.070312 214.972656 57.097656 219.082031 C 57.121094 223.195312 57.300781 227.3125 57.609375 231.386719 C 58.585938 244.34375 61.0625 256.203125 64.726562 267.683594 C 67.332031 275.84375 70.65625 283.761719 74.238281 291.855469 C 75.726562 295.214844 77.195312 298.632812 78.792969 302.058594 C 79.058594 302.589844 78.84375 303.234375 78.3125 303.5 C 77.78125 303.765625 77.132812 303.546875 76.867188 303.019531 C 75.070312 299.660156 73.304688 296.351562 71.71875 293.007812 C 67.882812 284.90625 64.789062 276.765625 62.183594 268.488281 C 58.507812 256.804688 56.050781 244.742188 55.125 231.570312 C 54.832031 227.4375 54.667969 223.265625 54.660156 219.09375 C 54.652344 214.914062 54.804688 210.738281 55.144531 206.601562 C 55.210938 205.863281 56.609375 197.863281 57.527344 194.753906 C 57.703125 194.148438 57.867188 193.726562 57.980469 193.542969 C 58.605469 192.566406 59.378906 192.90625 59.472656 193.097656 C 59.765625 193.371094 59.820312 193.800781 59.632812 194.132812 Z M 59.484375 194.320312 C 59.289062 194.511719 59.019531 194.585938 58.769531 194.546875 C 59.046875 194.675781 59.304688 194.71875 59.484375 194.320312 Z M 59.484375 194.320312 " fill-opacity="1" fill-rule="evenodd"/><path fill="#010101" d="M 63.921875 374.769531 C 63.730469 374.765625 63.539062 374.695312 63.390625 374.574219 C 63.480469 374.554688 63.589844 374.523438 63.703125 374.480469 C 63.566406 374.335938 63.441406 374.277344 63.347656 374.355469 C 63.3125 374.382812 63.285156 374.40625 63.257812 374.433594 C 63.210938 374.371094 63.175781 374.304688 63.148438 374.230469 C 62.914062 373.761719 63.03125 373.457031 63.058594 373.363281 C 63.167969 372.976562 63.476562 372.855469 63.816406 372.800781 C 63.941406 372.777344 64.285156 372.8125 64.652344 373.167969 C 65.105469 373.601562 66.480469 375.539062 67.101562 376.273438 L 71.601562 381.5 C 73.816406 383.96875 76.132812 386.355469 78.507812 388.683594 C 80.882812 391.011719 83.324219 393.285156 85.800781 395.492188 C 91.792969 400.828125 98.019531 405.828125 104.367188 410.667969 C 113.921875 417.949219 123.761719 424.839844 133.652344 431.699219 C 134.097656 432.003906 134.210938 432.609375 133.90625 433.054688 C 133.601562 433.496094 132.992188 433.609375 132.550781 433.304688 C 122.5625 426.523438 112.59375 419.75 102.976562 412.492188 C 96.5625 407.644531 90.3125 402.574219 84.285156 397.195312 C 81.777344 394.957031 79.304688 392.667969 76.910156 390.304688 C 74.511719 387.933594 72.183594 385.488281 69.957031 382.96875 L 65.425781 377.570312 C 65.054688 377.039062 64.429688 375.53125 63.921875 374.769531 Z M 63.390625 374.574219 C 63.1875 374.613281 63.09375 374.585938 63.257812 374.433594 C 63.296875 374.484375 63.34375 374.53125 63.390625 374.574219 Z M 63.390625 374.574219 " fill-opacity="1" fill-rule="evenodd"/><path fill="#010101" d="M 102.871094 358.070312 C 102.867188 358.074219 102.867188 358.078125 102.867188 358.078125 C 102.8125 358.144531 102.894531 358.222656 103.023438 358.296875 C 103.054688 358.363281 103.082031 358.433594 103.09375 358.507812 C 103.09375 358.449219 103.09375 358.390625 103.09375 358.335938 C 103.292969 358.433594 103.539062 358.515625 103.558594 358.53125 L 110.324219 364.574219 C 114.824219 368.894531 119.546875 373.230469 124.558594 377.121094 C 127.890625 379.707031 131.34375 382.113281 134.984375 384.144531 C 135.4375 384.390625 135.601562 384.960938 135.351562 385.414062 C 135.105469 385.871094 134.535156 386.035156 134.082031 385.789062 C 129.390625 383.261719 124.960938 380.175781 120.773438 376.769531 C 116.613281 373.386719 112.699219 369.691406 108.914062 366.035156 L 102.546875 359.921875 C 102.511719 359.890625 101.976562 359.542969 101.785156 359.375 C 101.304688 358.960938 101.433594 358.445312 101.488281 358.320312 C 101.671875 357.894531 102.167969 357.695312 102.597656 357.878906 C 102.699219 357.925781 102.792969 357.992188 102.871094 358.070312 Z M 102.871094 358.070312 C 103.035156 357.875 103.085938 358.070312 103.09375 358.335938 C 103.066406 358.320312 103.042969 358.308594 103.023438 358.296875 C 102.984375 358.21875 102.933594 358.136719 102.871094 358.070312 Z M 102.871094 358.070312 " fill-opacity="1" fill-rule="evenodd"/><g clip-path="url(#d8b1bc1e5b)"><path fill="#010101" d="M 138.878906 13.609375 C 137.675781 13.859375 136.757812 14.023438 136.523438 14.0625 C 133.257812 14.699219 130.023438 15.488281 126.835938 16.449219 C 123.65625 17.40625 120.523438 18.53125 117.4375 19.75 C 104.71875 24.855469 93.582031 32.324219 83.902344 41.441406 C 76.976562 47.972656 70.808594 55.347656 65.265625 63.210938 C 63.988281 63.886719 62.335938 64.847656 60.335938 65.953125 C 53.167969 69.910156 41.914062 76.207031 30.5 82.207031 C 24.976562 85.113281 19.449219 88.007812 14.335938 90.539062 C 11.441406 91.972656 8.902344 98.179688 7.996094 103.085938 C 7.503906 105.734375 7.496094 107.980469 7.789062 108.910156 C 8.242188 110.332031 9.242188 110.773438 10.117188 110.8125 C 16.773438 111.105469 23.113281 108.453125 29.699219 108 C 35.386719 107.613281 41.214844 108.445312 46.652344 110.105469 C 65.582031 115.878906 76.9375 131.644531 81.03125 150.402344 C 81.191406 151.136719 81.710938 152.046875 83.179688 151.855469 C 83.519531 151.808594 84.265625 151.539062 85.257812 151.035156 C 88.402344 149.445312 95.140625 145.320312 98.023438 143.457031 C 98.675781 143.035156 99.140625 142.722656 99.359375 142.558594 C 100.484375 141.714844 100.253906 140.621094 100.230469 140.46875 C 100 139.183594 100.605469 127.195312 105.15625 111.316406 C 107.378906 103.570312 110.902344 95.109375 115.027344 86.0625 C 115.128906 85.832031 115.242188 85.605469 115.351562 85.375 C 121.550781 76.839844 126.789062 67.625 130.851562 57.914062 C 135.589844 46.257812 138.644531 35.738281 140.292969 27.953125 C 141.507812 22.21875 142.109375 18.003906 142.199219 15.96875 C 142.207031 15.832031 142.214844 15.703125 142.21875 15.585938 C 142.417969 15.582031 139.503906 13.484375 138.878906 13.609375 Z M 32.636719 103.554688 C 24.019531 103.78125 16.15625 105.890625 11.957031 106.351562 C 12.105469 103.9375 12.964844 99.980469 14.3125 97.078125 C 14.890625 95.832031 15.460938 94.75 16.242188 94.355469 C 28.355469 88.175781 42.910156 80.167969 53.652344 73.808594 C 56.453125 72.152344 59 70.628906 61.175781 69.265625 C 60.457031 70.375 59.746094 71.488281 59.054688 72.613281 C 56.914062 76.089844 54.851562 79.640625 52.945312 83.273438 C 51.023438 86.925781 49.257812 90.65625 47.714844 94.46875 L 44.839844 101.984375 L 43.960938 104.476562 C 43.960938 104.488281 43.957031 104.5 43.953125 104.511719 C 43.859375 104.492188 43.765625 104.46875 43.671875 104.449219 C 40.019531 103.609375 36.253906 103.460938 32.636719 103.554688 Z M 61.308594 111.84375 C 54.488281 107.570312 49.726562 106.488281 47.816406 106.121094 C 47.703125 106.035156 47.585938 105.957031 47.476562 105.878906 L 48.648438 103.53125 L 50.863281 98.46875 C 53.792969 99.40625 59.433594 101.695312 65.234375 105.648438 C 68.527344 107.886719 71.820312 110.683594 74.832031 113.902344 C 75.5625 114.6875 76.25 115.523438 77.003906 116.300781 C 77.101562 116.398438 77.199219 116.488281 77.292969 116.578125 C 76.578125 117.09375 75.867188 117.609375 75.148438 118.117188 C 74.203125 118.785156 73.148438 119.320312 72.367188 120.171875 C 72.210938 120.339844 72.128906 120.503906 72.042969 120.679688 C 70.933594 119.496094 69.863281 118.390625 68.769531 117.410156 C 66.148438 115.054688 63.597656 113.277344 61.308594 111.84375 Z M 100.90625 110.070312 C 96.578125 124.386719 96.027344 135.882812 96.125 139.847656 C 96.015625 139.941406 95.902344 140.039062 95.785156 140.121094 C 93.179688 141.929688 87.253906 145.835938 84.078125 147.597656 C 82.933594 142.804688 81.085938 137.28125 78.984375 132.441406 C 77.574219 129.199219 76.242188 126.105469 74.542969 124.027344 C 74.945312 123.570312 75.339844 123.035156 75.707031 122.519531 C 76.265625 122.1875 76.808594 121.808594 77.359375 121.46875 C 87.753906 115.125 96.960938 106.898438 105.164062 97.859375 C 103.429688 102.070312 102.074219 106.203125 100.90625 110.070312 Z M 133.40625 37.601562 C 131.660156 43.195312 129.539062 49.523438 126.746094 56.210938 C 121.277344 69.4375 113.554688 81.714844 104.160156 92.578125 C 97 100.859375 88.710938 108.082031 79.9375 114.632812 C 79.859375 114.488281 79.78125 114.347656 79.695312 114.203125 C 79.078125 113.199219 78.289062 112.320312 77.515625 111.453125 C 74.382812 107.9375 70.683594 105.117188 67.097656 102.828125 C 61.097656 98.988281 55.273438 96.707031 51.980469 95.90625 C 53.460938 92.328125 55.144531 88.832031 56.972656 85.402344 C 58.851562 81.875 60.878906 78.421875 62.984375 75.042969 C 69.828125 63.988281 77.820312 53.671875 87.078125 44.78125 C 96.296875 35.929688 106.785156 28.472656 118.917969 23.339844 C 121.875 22.074219 124.890625 20.921875 127.941406 19.882812 C 130.988281 18.84375 134.070312 17.917969 137.199219 17.167969 C 137.40625 17.113281 138.082031 16.929688 138.878906 16.707031 C 138.765625 17.230469 138.632812 17.828125 138.46875 18.496094 C 137.46875 22.542969 135.996094 29.296875 133.40625 37.601562 Z M 133.40625 37.601562 " fill-opacity="1" fill-rule="evenodd"/></g><path fill="#010101" d="M 108.832031 48.023438 C 104.417969 45.441406 98.882812 46.238281 95.054688 49.480469 C 90.664062 53.203125 88.355469 59.710938 90.164062 65.238281 C 91.300781 68.691406 93.71875 71.632812 97.21875 72.835938 C 99.855469 73.746094 102.679688 73.453125 105.226562 72.363281 C 107.652344 71.328125 109.8125 69.566406 111.285156 67.519531 C 112.640625 65.636719 113.65625 63.324219 114.136719 60.929688 C 115.140625 55.90625 113.375 50.679688 108.832031 48.023438 Z M 108.832031 48.023438 " fill-opacity="1" fill-rule="evenodd"/><g clip-path="url(#50f4d53130)"><path fill="#010101" d="M 54.160156 125.273438 C 54.117188 125.210938 54.097656 125.183594 54.15625 125.238281 C 54.167969 125.25 54.167969 125.261719 54.160156 125.273438 Z M 54.160156 125.273438 C 54.199219 125.328125 54.25 125.40625 54.289062 125.484375 C 54.238281 125.117188 54.433594 124.746094 54.792969 124.59375 C 55.21875 124.402344 55.71875 124.601562 55.902344 125.027344 C 56.234375 125.160156 56.039062 125.371094 56.140625 125.703125 C 56.207031 125.925781 56.003906 126.171875 55.933594 126.371094 C 53.351562 131.742188 51.140625 137.164062 49.109375 142.691406 C 47.765625 146.34375 46.476562 150.035156 45.367188 153.832031 C 42.109375 164.980469 39.988281 176.234375 38.722656 187.585938 C 37.460938 198.949219 37.066406 210.417969 37.402344 222.015625 C 38.8125 276.140625 55.792969 325.28125 86.230469 362.671875 C 113.960938 396.734375 152.859375 421.039062 201.3125 430.449219 C 205.246094 431.214844 209.25 431.769531 213.289062 432.445312 C 214.089844 432.574219 214.953125 432.527344 215.679688 432.894531 C 215.957031 433.027344 216.003906 433.195312 216.230469 433.40625 C 216.871094 433.484375 217.324219 434.070312 217.246094 434.707031 C 217.164062 435.347656 216.582031 435.800781 215.941406 435.71875 C 215.667969 435.867188 215.578125 436.015625 215.277344 436.078125 C 214.46875 436.25 213.632812 435.972656 212.816406 435.882812 C 208.683594 435.425781 204.644531 434.652344 200.652344 433.886719 C 151.273438 424.410156 111.59375 399.730469 83.28125 365.078125 C 52.257812 327.113281 34.898438 277.160156 33.390625 222.125 C 33.105469 210.339844 33.519531 198.679688 34.910156 187.148438 C 36.300781 175.597656 38.667969 164.179688 42.140625 152.871094 C 43.929688 147.058594 45.941406 141.425781 48.445312 136 C 50.117188 132.386719 52.035156 128.894531 54.035156 125.394531 C 54.0625 125.355469 54.144531 125.3125 54.160156 125.273438 Z M 54.160156 125.273438 " fill-opacity="1" fill-rule="evenodd"/></g><path fill="#010101" d="M 18.710938 174.359375 C 18.886719 173.929688 19.378906 173.722656 19.808594 173.898438 C 20.242188 174.078125 20.449219 174.570312 20.273438 175 C 19.433594 177.210938 18.902344 179.65625 18.488281 182.199219 C 17.535156 188.085938 17.351562 194.503906 16.722656 199.839844 C 13.820312 222.894531 14.691406 244.988281 18.621094 266.539062 C 22.566406 288.148438 29.585938 309.234375 39.324219 330.148438 C 39.558594 330.644531 39.34375 331.234375 38.851562 331.464844 C 38.359375 331.695312 37.769531 331.484375 37.539062 330.992188 C 27.535156 309.976562 20.160156 288.789062 16.113281 267.003906 C 12.070312 245.214844 11.355469 222.847656 14.339844 199.539062 C 14.953125 194.941406 15.167969 189.527344 15.972656 184.371094 C 16.535156 180.796875 17.390625 177.355469 18.710938 174.359375 Z M 18.710938 174.359375 " fill-opacity="1" fill-rule="evenodd"/><path fill="#010101" d="M 59.632812 194.132812 C 59.644531 194.113281 59.664062 194.105469 59.6875 194.105469 C 59.792969 194.117188 59.691406 194.183594 59.59375 194.238281 C 59.601562 194.203125 59.605469 194.171875 59.617188 194.152344 C 59.585938 194.199219 59.550781 194.246094 59.507812 194.289062 C 59.507812 194.292969 59.507812 194.292969 59.507812 194.292969 C 59.527344 194.277344 59.558594 194.257812 59.59375 194.234375 C 59.570312 194.4375 59.625 194.832031 59.570312 195.203125 C 59.097656 198.328125 57.566406 206.0625 57.519531 206.789062 C 57.199219 210.859375 57.070312 214.972656 57.097656 219.082031 C 57.121094 223.195312 57.300781 227.3125 57.609375 231.386719 C 58.585938 244.34375 61.0625 256.203125 64.726562 267.683594 C 67.332031 275.84375 70.65625 283.761719 74.238281 291.855469 C 75.726562 295.214844 77.195312 298.632812 78.792969 302.058594 C 79.058594 302.589844 78.84375 303.234375 78.3125 303.5 C 77.78125 303.765625 77.132812 303.546875 76.867188 303.019531 C 75.070312 299.660156 73.304688 296.351562 71.71875 293.007812 C 67.882812 284.90625 64.789062 276.765625 62.183594 268.488281 C 58.507812 256.804688 56.050781 244.742188 55.125 231.570312 C 54.832031 227.4375 54.667969 223.265625 54.660156 219.09375 C 54.652344 214.914062 54.804688 210.738281 55.144531 206.601562 C 55.210938 205.863281 56.609375 197.863281 57.527344 194.753906 C 57.703125 194.148438 57.867188 193.726562 57.980469 193.542969 C 58.605469 192.566406 59.378906 192.90625 59.472656 193.097656 C 59.765625 193.371094 59.820312 193.800781 59.632812 194.132812 Z M 59.484375 194.320312 C 59.289062 194.511719 59.019531 194.585938 58.769531 194.546875 C 59.046875 194.675781 59.304688 194.71875 59.484375 194.320312 Z M 59.484375 194.320312 " fill-opacity="1" fill-rule="evenodd"/><path fill="#010101" d="M 63.921875 374.769531 C 63.730469 374.765625 63.539062 374.695312 63.390625 374.574219 C 63.480469 374.554688 63.589844 374.523438 63.703125 374.480469 C 63.566406 374.335938 63.441406 374.277344 63.347656 374.355469 C 63.3125 374.382812 63.285156 374.40625 63.257812 374.433594 C 63.210938 374.371094 63.175781 374.304688 63.148438 374.230469 C 62.914062 373.761719 63.03125 373.457031 63.058594 373.363281 C 63.167969 372.976562 63.476562 372.855469 63.816406 372.800781 C 63.941406 372.777344 64.285156 372.8125 64.652344 373.167969 C 65.105469 373.601562 66.480469 375.539062 67.101562 376.273438 L 71.601562 381.5 C 73.816406 383.96875 76.132812 386.355469 78.507812 388.683594 C 80.882812 391.011719 83.324219 393.285156 85.800781 395.492188 C 91.792969 400.828125 98.019531 405.828125 104.367188 410.667969 C 113.921875 417.949219 123.761719 424.839844 133.652344 431.699219 C 134.097656 432.003906 134.210938 432.609375 133.90625 433.054688 C 133.601562 433.496094 132.992188 433.609375 132.550781 433.304688 C 122.5625 426.523438 112.59375 419.75 102.976562 412.492188 C 96.5625 407.644531 90.3125 402.574219 84.285156 397.195312 C 81.777344 394.957031 79.304688 392.667969 76.910156 390.304688 C 74.511719 387.933594 72.183594 385.488281 69.957031 382.96875 L 65.425781 377.570312 C 65.054688 377.039062 64.429688 375.53125 63.921875 374.769531 Z M 63.390625 374.574219 C 63.1875 374.613281 63.09375 374.585938 63.257812 374.433594 C 63.296875 374.484375 63.34375 374.53125 63.390625 374.574219 Z M 63.390625 374.574219 " fill-opacity="1" fill-rule="evenodd"/><path fill="#010101" d="M 102.871094 358.070312 C 102.867188 358.074219 102.867188 358.078125 102.867188 358.078125 C 102.8125 358.144531 102.894531 358.222656 103.023438 358.296875 C 103.054688 358.363281 103.082031 358.433594 103.09375 358.507812 C 103.09375 358.449219 103.09375 358.390625 103.09375 358.335938 C 103.292969 358.433594 103.539062 358.515625 103.558594 358.53125 L 110.324219 364.574219 C 114.824219 368.894531 119.546875 373.230469 124.558594 377.121094 C 127.890625 379.707031 131.34375 382.113281 134.984375 384.144531 C 135.4375 384.390625 135.601562 384.960938 135.351562 385.414062 C 135.105469 385.871094 134.535156 386.035156 134.082031 385.789062 C 129.390625 383.261719 124.960938 380.175781 120.773438 376.769531 C 116.613281 373.386719 112.699219 369.691406 108.914062 366.035156 L 102.546875 359.921875 C 102.511719 359.890625 101.976562 359.542969 101.785156 359.375 C 101.304688 358.960938 101.433594 358.445312 101.488281 358.320312 C 101.671875 357.894531 102.167969 357.695312 102.597656 357.878906 C 102.699219 357.925781 102.792969 357.992188 102.871094 358.070312 Z M 102.871094 358.070312 C 103.035156 357.875 103.085938 358.070312 103.09375 358.335938 C 103.066406 358.320312 103.042969 358.308594 103.023438 358.296875 C 102.984375 358.21875 102.933594 358.136719 102.871094 358.070312 Z M 102.871094 358.070312 " fill-opacity="1" fill-rule="evenodd"/></svg>