<?xml version="1.0" encoding="utf-8"?>
<!-- Generator: Adobe Illustrator 27.5.0, SVG Export Plug-In . SVG Version: 6.00 Build 0)  -->
<svg version="1.1" xmlns="http://www.w3.org/2000/svg" xmlns:xlink="http://www.w3.org/1999/xlink" x="0px" y="0px"
	 viewBox="0 0 1122 1122" style="enable-background:new 0 0 1122 1122;" xml:space="preserve">
<g id="Bg">
	<rect y="0" style="fill:#FFFFFF;" width="1122" height="1122"/>
</g>
<g id="Object">
	<g>
		<defs>
			<rect id="SVGID_1_" y="0" width="1122" height="1122"/>
		</defs>
		<clipPath id="SVGID_00000070101853064432363960000003993035344822276249_">
			<use xlink:href="#SVGID_1_"  style="overflow:visible;"/>
		</clipPath>
		<g style="clip-path:url(#SVGID_00000070101853064432363960000003993035344822276249_);">
			<polygon style="fill:none;" points="275.884,202.764 369.565,148.677 275.884,94.591 			"/>
			<polygon style="fill:none;" points="751.925,259.496 751.925,367.67 845.606,313.583 			"/>
			<polygon style="fill:none;" points="465.281,202.764 465.281,94.591 371.6,148.677 			"/>
			<polygon style="fill:none;" points="179.657,257.731 179.657,149.559 85.977,203.645 			"/>
			<polygon style="fill:none;" points="656.716,202.764 750.397,148.677 656.716,94.591 			"/>
			<polygon style="fill:none;" points="274.356,423.579 180.676,369.492 180.676,477.666 			"/>
			<polygon style="fill:none;" points="466.3,202.764 559.981,148.677 466.3,94.591 			"/>
			<polygon style="fill:none;" points="752.433,148.677 846.114,202.764 846.114,94.591 			"/>
			<polygon style="fill:none;" points="655.698,202.764 655.698,94.591 562.017,148.677 			"/>
			<polygon style="fill:none;" points="274.865,202.764 274.865,94.591 181.184,148.677 			"/>
			<polygon style="fill:none;" points="560.49,919.236 466.809,973.323 560.49,1027.409 			"/>
			<polygon style="fill:none;" points="561.509,919.236 561.509,1027.409 655.19,973.323 			"/>
			<polygon style="fill:none;" points="750.906,919.236 657.225,973.323 750.906,1027.409 			"/>
			<polygon style="fill:none;" points="371.092,919.236 371.092,1027.409 464.774,973.323 			"/>
			<polygon style="fill:none;" points="370.074,919.236 276.393,973.323 370.074,1027.409 			"/>
			<polygon style="fill:none;" points="274.356,753.45 180.676,699.363 180.676,807.536 			"/>
			<polygon style="fill:none;" points="179.657,917.471 179.657,809.299 85.977,863.385 			"/>
			<polygon style="fill:none;" points="180.678,919.237 180.678,1027.408 274.357,973.323 			"/>
			<polygon style="fill:none;" points="179.657,587.601 179.657,479.429 85.977,533.515 			"/>
			<polygon style="fill:none;" points="751.925,919.236 751.925,1027.409 845.606,973.323 			"/>
			<polygon style="fill:none;" points="274.356,533.516 180.676,479.429 180.676,587.602 			"/>
			<polygon style="fill:none;" points="274.865,862.504 274.865,754.331 181.184,808.418 			"/>
			<polygon style="fill:none;" points="274.357,313.583 180.678,259.497 180.678,367.669 			"/>
			<polygon style="fill:none;" points="274.357,643.453 180.678,589.367 180.678,697.538 			"/>
			<polygon style="fill:none;" points="752.433,478.548 846.114,532.634 846.114,424.461 			"/>
			<polygon style="fill:none;" points="180.676,257.732 274.356,203.645 180.676,149.559 			"/>
			<polygon style="fill:none;" points="371.091,257.732 464.772,203.645 371.091,149.559 			"/>
			<polygon style="fill:none;" points="520.76,234.794 560.489,257.732 560.489,149.559 466.809,203.645 			"/>
			<polygon style="fill:none;" points="311.126,223.699 370.073,257.732 370.073,149.559 276.393,203.645 			"/>
			<polygon style="fill:none;" points="274.865,532.634 274.865,424.461 181.184,478.548 			"/>
			<polygon style="fill:none;" points="752.433,808.418 846.114,862.504 846.114,754.331 			"/>
			<polygon style="fill:none;" points="715.634,898.284 656.717,864.268 656.717,972.441 750.397,918.355 			"/>
			<polygon style="fill:none;" points="655.699,864.268 562.018,918.355 655.699,972.441 			"/>
			<polygon style="fill:none;" points="751.925,589.366 751.925,697.539 845.606,643.453 			"/>
			<polygon style="fill:none;" points="274.866,864.268 181.185,918.355 274.866,972.441 			"/>
			<polygon style="fill:none;" points="493.091,879.735 466.3,864.268 466.3,972.441 559.981,918.355 			"/>
			<polygon style="fill:none;" points="334.832,898.301 275.885,864.268 275.885,972.441 369.565,918.355 			"/>
			<polygon style="fill:none;" points="274.356,863.385 180.676,809.299 180.676,917.473 			"/>
			<polygon style="fill:none;" points="465.282,864.268 371.602,918.355 465.282,972.441 			"/>
			<polygon style="fill:none;" points="847.133,974.204 847.133,1082.378 940.814,1028.29 			"/>
			<polygon style="fill:none;" points="906.111,898.319 847.133,864.268 847.133,972.441 940.814,918.355 			"/>
			<polygon style="fill:none;" points="846.115,974.204 752.434,1028.29 846.115,1082.378 			"/>
			<polygon style="fill:none;" points="655.699,974.204 562.018,1028.29 655.699,1082.378 			"/>
			<polygon style="fill:none;" points="561.508,257.732 655.189,203.645 561.508,149.559 			"/>
			<polygon style="fill:none;" points="656.717,974.205 656.717,1082.378 750.397,1028.29 			"/>
			<polygon style="fill:none;" points="466.3,974.204 466.3,1082.378 559.981,1028.29 			"/>
			<polygon style="fill:none;" points="275.885,974.204 275.885,1082.378 369.565,1028.29 			"/>
			<polygon style="fill:none;" points="274.866,974.204 181.185,1028.29 274.866,1082.378 			"/>
			<polygon style="fill:none;" points="465.282,974.204 371.602,1028.29 465.282,1082.378 			"/>
			<polygon style="fill:none;" points="847.133,422.637 940.814,368.551 847.133,314.465 			"/>
			<polygon style="fill:none;" points="752.434,918.355 846.115,972.441 846.115,864.268 			"/>
			<polygon style="fill:none;" points="847.641,423.579 941.322,477.666 941.322,369.492 			"/>
			<polygon style="fill:none;" points="906.111,238.579 847.133,204.528 847.133,312.701 940.814,258.615 			"/>
			<polygon style="fill:none;" points="847.641,203.645 882.344,223.681 941.322,257.732 941.322,149.559 			"/>
			<polygon style="fill:none;" points="847.133,752.508 940.814,698.421 847.133,644.334 			"/>
			<polygon style="fill:none;" points="847.641,533.516 882.238,553.49 941.322,587.602 941.322,479.429 			"/>
			<polygon style="fill:none;" points="847.641,93.71 941.322,147.796 941.322,39.622 			"/>
			<polygon style="fill:none;" points="847.641,753.45 941.322,807.536 941.322,699.363 			"/>
			<polygon style="fill:none;" points="906.218,568.51 847.133,534.398 847.133,642.571 940.814,588.484 			"/>
			<polygon style="fill:none;" points="179.148,808.418 85.469,754.332 85.469,862.503 			"/>
			<polygon style="fill:none;" points="752.434,258.615 846.115,312.701 846.115,204.528 			"/>
			<polygon style="fill:none;" points="847.132,94.591 847.132,202.764 940.814,148.677 			"/>
			<polygon style="fill:none;" points="751.924,147.796 845.604,93.71 751.924,39.622 			"/>
			<polygon style="fill:none;" points="846.115,422.637 846.115,314.465 752.434,368.551 			"/>
			<polygon style="fill:none;" points="847.132,754.331 847.132,862.504 940.814,808.418 			"/>
			<polygon style="fill:none;" points="750.905,147.795 750.905,39.622 657.226,93.71 			"/>
			<polygon style="fill:none;" points="846.115,752.508 846.115,644.334 752.434,698.421 			"/>
			<polygon style="fill:none;" points="847.132,424.461 847.132,532.634 940.814,478.548 			"/>
			<polygon style="fill:none;" points="752.434,588.484 846.115,642.571 846.115,534.398 			"/>
			<polygon style="fill:none;" points="560.489,147.796 560.489,39.622 466.809,93.71 			"/>
			<polygon style="fill:none;" points="180.676,147.796 274.356,93.71 180.676,39.622 			"/>
			<polygon style="fill:none;" points="179.657,477.666 179.657,369.492 85.976,423.579 			"/>
			<polygon style="fill:none;" points="85.469,202.763 179.148,148.677 85.469,94.592 			"/>
			<polygon style="fill:none;" points="179.148,478.548 85.469,424.462 85.469,532.633 			"/>
			<polygon style="fill:none;" points="371.091,147.796 464.772,93.71 371.091,39.622 			"/>
			<polygon style="fill:none;" points="179.657,807.536 179.657,699.363 85.976,753.45 			"/>
			<polygon style="fill:none;" points="561.508,147.796 655.189,93.71 561.508,39.622 			"/>
			<polygon style="fill:none;" points="370.073,147.796 370.073,39.622 276.393,93.71 			"/>
			<polygon style="fill:none;" points="847.641,863.385 882.344,883.421 941.322,917.472 941.322,809.299 			"/>
			<polygon style="fill:none;" points="465.281,532.634 465.281,424.461 371.6,478.548 			"/>
			<polygon style="fill:none;" points="464.774,643.453 371.092,589.366 371.092,697.539 			"/>
			<polygon style="fill:none;" points="655.189,753.45 561.508,699.363 561.508,807.536 			"/>
			<polygon style="fill:none;" points="464.772,423.579 371.091,369.492 371.091,477.666 			"/>
			<polygon style="fill:none;" points="465.282,752.508 465.282,644.334 371.602,698.421 			"/>
			<polygon style="fill:none;" points="465.282,422.637 465.282,314.465 371.602,368.551 			"/>
			<polygon style="fill:none;" points="561.508,587.602 655.189,533.516 561.508,479.429 			"/>
			<polygon style="fill:none;" points="466.809,643.453 560.49,697.539 560.49,589.366 			"/>
			<polygon style="fill:none;" points="561.508,369.492 561.508,477.666 655.189,423.579 			"/>
			<polygon style="fill:none;" points="464.772,753.45 371.091,699.363 371.091,807.536 			"/>
			<polygon style="fill:none;" points="560.489,699.363 466.809,753.45 560.489,807.536 			"/>
			<polygon style="fill:none;" points="370.074,697.539 370.074,589.366 276.393,643.453 			"/>
			<polygon style="fill:none;" points="562.018,588.484 655.699,642.571 655.699,534.398 			"/>
			<polygon style="fill:none;" points="464.772,533.516 371.091,479.429 371.091,587.602 			"/>
			<polygon style="fill:none;" points="561.509,589.366 561.509,697.539 655.19,643.453 			"/>
			<polygon style="fill:none;" points="562.018,698.421 655.699,752.508 655.699,644.334 			"/>
			<polygon style="fill:none;" points="562.017,478.548 655.698,532.634 655.698,424.461 			"/>
			<polygon style="fill:none;" points="562.018,368.551 655.699,422.637 655.699,314.464 			"/>
			<polygon style="fill:none;" points="466.3,422.637 559.981,368.551 466.3,314.464 			"/>
			<polygon style="fill:none;" points="465.282,534.398 371.602,588.484 465.282,642.571 			"/>
			<polygon style="fill:none;" points="-104.947,754.331 -104.947,862.504 -11.266,808.418 			"/>
			<polygon style="fill:none;" points="-104.947,1084.201 -104.947,1192.375 -11.266,1138.288 			"/>
			<polygon style="fill:none;" points="-104.947,424.461 -104.947,532.634 -11.266,478.548 			"/>
			<polygon style="fill:none;" points="691.989,223.716 750.905,257.732 750.905,149.559 657.226,203.645 			"/>
			<polygon style="fill:none;" points="1226.948,532.634 1226.948,424.461 1133.266,478.548 			"/>
			<polygon style="fill:none;" points="1226.948,1192.375 1226.948,1084.201 1133.266,1138.288 			"/>
			<polygon style="fill:none;" points="656.717,312.701 750.397,258.615 715.634,238.544 656.717,204.528 			"/>
			<polygon style="fill:none;" points="1226.948,862.504 1226.948,754.331 1133.266,808.418 			"/>
			<polygon style="fill:none;" points="655.19,313.583 561.509,259.496 561.509,367.67 			"/>
			<polygon style="fill:none;" points="466.809,533.516 520.803,564.689 560.489,587.602 560.489,479.429 			"/>
			<polygon style="fill:none;" points="560.489,477.666 560.489,369.492 466.809,423.579 			"/>
			<polygon style="fill:none;" points="559.981,588.484 492.744,549.665 466.3,534.398 466.3,642.571 			"/>
			<polygon style="fill:none;" points="559.981,478.548 466.3,424.461 466.3,532.634 			"/>
			<polygon style="fill:none;" points="466.3,644.334 466.3,752.508 559.981,698.421 			"/>
			<polygon style="fill:none;" points="464.774,313.583 371.092,259.496 371.092,367.67 			"/>
			<polygon style="fill:none;" points="371.6,808.418 465.281,862.504 465.281,754.331 			"/>
			<polygon style="fill:none;" points="656.716,424.461 656.716,532.634 750.397,478.548 			"/>
			<polygon style="fill:none;" points="562.017,808.418 655.698,862.504 655.698,754.331 			"/>
			<polygon style="fill:none;" points="-104.947,94.591 -104.947,202.764 -11.266,148.677 			"/>
			<polygon style="fill:none;" points="370.073,809.299 276.393,863.385 311.126,883.439 370.073,917.472 			"/>
			<polygon style="fill:none;" points="274.866,534.398 181.185,588.484 274.866,642.571 			"/>
			<polygon style="fill:none;" points="369.565,808.418 275.884,754.331 275.884,862.504 			"/>
			<polygon style="fill:none;" points="369.565,478.548 275.884,424.461 275.884,532.634 			"/>
			<polygon style="fill:none;" points="274.866,752.508 274.866,644.334 181.185,698.421 			"/>
			<polygon style="fill:none;" points="275.885,312.701 369.565,258.615 334.832,238.561 275.885,204.528 			"/>
			<polygon style="fill:none;" points="274.866,422.637 274.866,314.464 181.185,368.551 			"/>
			<polygon style="fill:none;" points="466.3,312.701 559.981,258.615 493.091,219.995 466.3,204.528 			"/>
			<polygon style="fill:none;" points="274.866,204.528 181.185,258.615 274.866,312.701 			"/>
			<polygon style="fill:none;" points="562.018,258.615 655.699,312.702 655.699,204.528 			"/>
			<polygon style="fill:none;" points="751.924,369.492 751.924,477.666 845.604,423.579 			"/>
			<polygon style="fill:none;" points="751.924,587.602 845.604,533.516 751.924,479.429 			"/>
			<polygon style="fill:none;" points="657.225,313.583 750.906,367.67 750.906,259.496 			"/>
			<polygon style="fill:none;" points="751.924,257.732 845.604,203.645 751.924,149.559 			"/>
			<polygon style="fill:none;" points="656.717,422.637 750.397,368.551 656.717,314.465 			"/>
			<polygon style="fill:none;" points="560.489,809.299 466.809,863.385 520.76,894.534 560.489,917.472 			"/>
			<polygon style="fill:none;" points="657.225,643.453 750.906,697.539 750.906,589.366 			"/>
			<polygon style="fill:none;" points="751.924,917.473 845.604,863.385 751.924,809.299 			"/>
			<polygon style="fill:none;" points="751.924,699.363 751.924,807.536 845.604,753.45 			"/>
			<polygon style="fill:none;" points="750.905,809.3 657.226,863.385 691.989,883.456 750.905,917.472 			"/>
			<polygon style="fill:none;" points="369.565,588.484 334.938,568.492 275.885,534.398 275.885,642.571 			"/>
			<polygon style="fill:none;" points="311.02,553.508 370.073,587.602 370.073,479.429 276.393,533.516 			"/>
			<polygon style="fill:none;" points="369.565,698.421 275.885,644.334 275.885,752.508 			"/>
			<polygon style="fill:none;" points="370.073,699.363 276.393,753.45 370.073,807.536 			"/>
			<polygon style="fill:none;" points="370.073,369.492 276.393,423.579 370.073,477.666 			"/>
			<polygon style="fill:none;" points="371.602,258.615 465.282,312.701 465.282,204.528 			"/>
			<polygon style="fill:none;" points="560.49,367.67 560.49,259.496 466.809,313.583 			"/>
			<polygon style="fill:none;" points="370.074,367.67 370.074,259.496 276.393,313.583 			"/>
			<polygon style="fill:none;" points="369.565,368.551 275.885,314.465 275.885,422.637 			"/>
			<polygon style="fill:none;" points="464.772,863.385 371.091,809.299 371.091,917.473 			"/>
			<polygon style="fill:none;" points="657.226,423.579 750.905,477.665 750.905,369.492 			"/>
			<polygon style="fill:none;" points="656.717,752.508 750.397,698.421 656.717,644.334 			"/>
			<polygon style="fill:none;" points="715.739,568.475 656.717,534.398 656.717,642.57 750.397,588.484 			"/>
			<polygon style="fill:none;" points="657.226,533.516 691.883,553.525 750.905,587.602 750.905,479.43 			"/>
			<polygon style="fill:none;" points="657.226,753.45 750.905,807.536 750.905,699.363 			"/>
			<polygon style="fill:none;" points="656.716,754.331 656.716,862.504 750.397,808.418 			"/>
			<polygon style="fill:none;" points="466.3,754.331 466.3,862.504 559.981,808.418 			"/>
			<polygon style="fill:none;" points="655.189,863.385 561.508,809.299 561.508,917.473 			"/>
			<polygon style="fill:none;" points="941.322,1139.169 847.641,1193.256 941.322,1247.342 			"/>
			<polygon style="fill:none;" points="1037.549,752.508 1131.23,698.421 1037.549,644.334 			"/>
			<polygon style="fill:none;" points="847.132,1084.201 847.132,1192.375 940.814,1138.288 			"/>
			<polygon style="fill:none;" points="1038.058,533.516 1131.739,587.602 1131.739,479.429 			"/>
			<polygon style="fill:none;" points="1038.058,863.385 1131.739,917.473 1131.739,809.299 			"/>
			<polygon style="fill:none;" points="1037.549,534.398 1037.549,642.571 1131.23,588.484 			"/>
			<polygon style="fill:none;" points="1036.531,1084.201 942.849,1138.288 1036.531,1192.375 			"/>
			<polygon style="fill:none;" points="1037.549,1084.201 1037.549,1192.375 1131.23,1138.288 			"/>
			<polygon style="fill:none;" points="1037.549,1082.378 1131.23,1028.29 1037.549,974.204 			"/>
			<polygon style="fill:none;" points="1037.549,864.268 1037.549,972.441 1131.23,918.355 			"/>
			<polygon style="fill:none;" points="1037.549,422.637 1131.23,368.551 1037.549,314.464 			"/>
			<polygon style="fill:none;" points="1037.549,204.528 1037.549,312.702 1131.23,258.615 			"/>
			<polygon style="fill:none;" points="846.115,-17.169 846.115,-125.342 752.434,-71.256 			"/>
			<polygon style="fill:none;" points="656.717,-17.17 750.397,-71.256 656.717,-125.342 			"/>
			<polygon style="fill:none;" points="1036.531,-17.17 1036.531,-125.342 942.851,-71.256 			"/>
			<polygon style="fill:none;" points="84.451,92.768 84.451,-15.406 -9.229,38.681 			"/>
			<polygon style="fill:none;" points="1038.058,203.645 1131.739,257.732 1131.739,149.559 			"/>
			<polygon style="fill:none;" points="1037.549,-17.169 1131.23,-71.256 1037.549,-125.342 			"/>
			<polygon style="fill:none;" points="1132.758,39.622 1132.758,147.796 1226.438,93.71 			"/>
			<polygon style="fill:none;" points="1131.739,37.799 1131.739,-70.375 1038.058,-16.288 			"/>
			<polygon style="fill:none;" points="847.133,-17.169 940.814,-71.256 847.133,-125.342 			"/>
			<polygon style="fill:none;" points="83.941,753.45 -9.739,699.363 -9.739,807.536 			"/>
			<polygon style="fill:none;" points="83.943,643.453 -9.738,589.366 -9.738,697.539 			"/>
			<polygon style="fill:none;" points="83.943,973.323 -9.738,919.236 -9.738,1027.409 			"/>
			<polygon style="fill:none;" points="83.941,533.516 -9.739,479.429 -9.739,587.602 			"/>
			<polygon style="fill:none;" points="83.941,863.385 -9.739,809.299 -9.739,917.473 			"/>
			<polygon style="fill:none;" points="83.941,423.579 -9.739,369.492 -9.739,477.666 			"/>
			<polygon style="fill:none;" points="83.941,203.645 -9.739,149.559 -9.739,257.732 			"/>
			<polygon style="fill:none;" points="83.941,93.71 -9.739,39.622 -9.739,147.796 			"/>
			<polygon style="fill:none;" points="83.943,313.583 -9.738,259.496 -9.738,367.67 			"/>
			<polygon style="fill:none;" points="85.469,1084.202 85.469,1192.374 179.148,1138.288 			"/>
			<polygon style="fill:none;" points="83.941,1083.32 -9.739,1029.232 -9.739,1137.406 			"/>
			<polygon style="fill:none;" points="655.698,1084.201 562.017,1138.288 655.698,1192.375 			"/>
			<polygon style="fill:none;" points="465.281,1084.201 371.6,1138.288 465.281,1192.375 			"/>
			<polygon style="fill:none;" points="656.716,1084.201 656.716,1192.375 750.397,1138.288 			"/>
			<polygon style="fill:none;" points="466.3,1084.201 466.3,1192.375 559.981,1138.288 			"/>
			<polygon style="fill:none;" points="84.449,1084.202 -9.231,1138.288 84.449,1192.374 			"/>
			<polygon style="fill:none;" points="846.114,1084.201 752.433,1138.288 846.114,1192.375 			"/>
			<polygon style="fill:none;" points="275.884,1084.201 275.884,1192.375 369.565,1138.288 			"/>
			<polygon style="fill:none;" points="274.865,1084.201 181.184,1138.288 274.865,1192.375 			"/>
			<polygon style="fill:none;" points="655.699,-17.169 655.699,-125.342 562.018,-71.256 			"/>
			<polygon style="fill:none;" points="1132.758,1139.169 1132.758,1247.342 1226.438,1193.256 			"/>
			<polygon style="fill:none;" points="371.091,1139.169 371.091,1247.342 464.772,1193.256 			"/>
			<polygon style="fill:none;" points="1132.758,1137.406 1226.438,1083.32 1132.758,1029.232 			"/>
			<polygon style="fill:none;" points="942.341,1139.169 942.341,1247.342 1036.021,1193.256 			"/>
			<polygon style="fill:none;" points="1131.739,1139.169 1038.058,1193.256 1131.739,1247.342 			"/>
			<polygon style="fill:none;" points="560.489,1139.169 466.809,1193.256 560.489,1247.342 			"/>
			<polygon style="fill:none;" points="561.508,1139.169 561.508,1247.342 655.189,1193.256 			"/>
			<polygon style="fill:none;" points="751.924,1139.169 751.924,1247.342 845.604,1193.256 			"/>
			<polygon style="fill:none;" points="750.905,1139.17 657.226,1193.256 750.905,1247.342 			"/>
			<polygon style="fill:none;" points="1131.739,1027.409 1131.739,919.236 1038.058,973.323 			"/>
			<polygon style="fill:none;" points="466.3,-17.169 559.981,-71.256 466.3,-125.342 			"/>
			<polygon style="fill:none;" points="1132.758,149.559 1132.758,257.732 1226.438,203.645 			"/>
			<polygon style="fill:none;" points="1131.739,367.67 1131.739,259.496 1038.058,313.583 			"/>
			<polygon style="fill:none;" points="1132.758,809.299 1132.758,917.473 1226.438,863.385 			"/>
			<polygon style="fill:none;" points="1132.758,477.666 1226.438,423.579 1132.758,369.492 			"/>
			<polygon style="fill:none;" points="1132.758,807.536 1226.438,753.45 1132.758,699.363 			"/>
			<polygon style="fill:none;" points="1131.739,697.539 1131.739,589.366 1038.058,643.453 			"/>
			<polygon style="fill:none;" points="1132.758,479.429 1132.758,587.602 1226.438,533.516 			"/>
			<polygon style="fill:none;" points="1133.266,148.677 1226.948,202.764 1226.948,94.591 			"/>
			<polygon style="fill:none;" points="-10.758,147.796 -10.758,39.622 -104.438,93.71 			"/>
			<polygon style="fill:none;" points="83.943,-16.288 -9.738,-70.375 -9.738,37.799 			"/>
			<polygon style="fill:none;" points="-10.758,477.666 -10.758,369.492 -104.438,423.579 			"/>
			<polygon style="fill:none;" points="84.451,-17.17 84.451,-125.342 -9.229,-71.256 			"/>
			<polygon style="fill:none;" points="-10.758,149.559 -104.438,203.645 -10.758,257.732 			"/>
			<polygon style="fill:none;" points="465.282,-17.17 465.282,-125.342 371.602,-71.256 			"/>
			<polygon style="fill:none;" points="275.885,-17.17 369.565,-71.256 275.885,-125.342 			"/>
			<polygon style="fill:none;" points="274.866,-17.169 274.866,-125.342 181.185,-71.256 			"/>
			<polygon style="fill:none;" points="85.47,-17.169 179.15,-71.256 85.47,-125.342 			"/>
			<polygon style="fill:none;" points="-10.758,807.536 -10.758,699.363 -104.438,753.45 			"/>
			<polygon style="fill:none;" points="-10.758,1139.169 -104.438,1193.256 -10.758,1247.342 			"/>
			<polygon style="fill:none;" points="179.657,1139.169 85.976,1193.256 179.657,1247.342 			"/>
			<polygon style="fill:none;" points="-9.739,1139.169 -9.739,1247.342 83.941,1193.256 			"/>
			<polygon style="fill:none;" points="-10.758,479.429 -104.438,533.516 -10.758,587.602 			"/>
			<polygon style="fill:none;" points="180.676,1139.169 180.676,1247.342 274.356,1193.256 			"/>
			<polygon style="fill:none;" points="370.073,1139.169 276.393,1193.256 370.073,1247.342 			"/>
			<polygon style="fill:none;" points="-10.758,809.299 -104.438,863.385 -10.758,917.473 			"/>
			<polygon style="fill:none;" points="-10.758,1137.406 -10.758,1029.232 -104.438,1083.32 			"/>
			<polygon style="fill:none;" points="1036.531,92.768 1036.531,-15.406 942.851,38.681 			"/>
			<polygon style="fill:none;" points="179.657,147.796 179.657,39.622 85.976,93.71 			"/>
			<polygon style="fill:none;" points="1131.739,39.622 1038.058,93.71 1131.739,147.796 			"/>
			<polygon style="fill:none;" points="846.115,92.768 846.115,-15.406 752.434,38.681 			"/>
			<polygon style="fill:none;" points="847.133,92.768 940.814,38.681 847.133,-15.406 			"/>
			<polygon style="fill:none;" points="942.849,148.677 1036.531,202.764 1036.531,94.591 			"/>
			<polygon style="fill:none;" points="942.849,808.418 1036.531,862.504 1036.531,754.331 			"/>
			<polygon style="fill:none;" points="84.451,422.637 84.451,314.465 -9.229,368.551 			"/>
			<polygon style="fill:none;" points="942.849,478.548 1036.531,532.634 1036.531,424.461 			"/>
			<polygon style="fill:none;" points="942.342,919.236 942.342,1027.409 1036.023,973.323 			"/>
			<polygon style="fill:none;" points="942.342,259.496 942.342,367.67 1036.023,313.583 			"/>
			<polygon style="fill:none;" points="274.866,92.768 274.866,-15.406 181.185,38.681 			"/>
			<polygon style="fill:none;" points="84.449,202.763 84.449,94.592 -9.231,148.677 			"/>
			<polygon style="fill:none;" points="656.717,92.768 750.397,38.681 656.717,-15.406 			"/>
			<polygon style="fill:none;" points="84.451,204.528 -9.229,258.615 84.451,312.701 			"/>
			<polygon style="fill:none;" points="85.47,-15.406 85.47,92.768 179.15,38.681 			"/>
			<polygon style="fill:none;" points="466.3,92.768 559.981,38.681 466.3,-15.406 			"/>
			<polygon style="fill:none;" points="275.885,92.768 369.565,38.681 275.885,-15.406 			"/>
			<polygon style="fill:none;" points="655.699,92.768 655.699,-15.406 562.018,38.681 			"/>
			<polygon style="fill:none;" points="465.282,92.768 465.282,-15.406 371.602,38.681 			"/>
			<polygon style="fill:none;" points="942.342,589.366 942.342,697.539 1036.023,643.453 			"/>
			<polygon style="fill:none;" points="942.341,699.363 942.341,807.536 1036.021,753.45 			"/>
			<polygon style="fill:none;" points="942.341,809.299 942.341,917.473 1036.021,863.385 			"/>
			<polygon style="fill:none;" points="847.642,643.453 941.323,697.539 941.323,589.366 			"/>
			<polygon style="fill:none;" points="942.341,479.429 942.341,587.602 1036.021,533.516 			"/>
			<polygon style="fill:none;" points="179.658,367.669 179.658,259.497 85.979,313.583 			"/>
			<polygon style="fill:none;" points="942.341,369.492 942.341,477.666 1036.021,423.579 			"/>
			<polygon style="fill:none;" points="179.658,697.538 179.658,589.367 85.979,643.453 			"/>
			<polygon style="fill:none;" points="179.658,1027.408 179.658,919.237 85.979,973.323 			"/>
			<polygon style="fill:none;" points="847.642,973.323 941.323,1027.409 941.323,919.236 			"/>
			<polygon style="fill:none;" points="179.15,588.485 85.47,534.399 85.47,642.571 			"/>
			<polygon style="fill:none;" points="179.15,368.551 85.47,314.464 85.47,422.637 			"/>
			<polygon style="fill:none;" points="847.642,313.583 941.323,367.67 941.323,259.496 			"/>
			<polygon style="fill:none;" points="179.15,1028.29 85.47,974.204 85.47,1082.378 			"/>
			<polygon style="fill:none;" points="179.15,918.355 85.47,864.269 85.47,972.441 			"/>
			<polygon style="fill:none;" points="179.15,698.421 85.47,644.334 85.47,752.508 			"/>
			<polygon style="fill:none;" points="942.341,149.559 942.341,257.732 1036.021,203.645 			"/>
			<polygon style="fill:none;" points="942.341,39.622 942.341,147.796 1036.021,93.71 			"/>
			<polygon style="fill:none;" points="179.15,258.615 85.47,204.529 85.47,312.701 			"/>
			<polygon style="fill:none;" points="179.658,37.798 179.658,-70.374 85.979,-16.288 			"/>
			<polygon style="fill:none;" points="1038.058,423.579 1131.739,477.666 1131.739,369.492 			"/>
			<polygon style="fill:none;" points="942.851,258.615 1036.531,312.701 1036.531,204.528 			"/>
			<polygon style="fill:none;" points="1037.549,754.331 1037.549,862.504 1131.23,808.418 			"/>
			<polygon style="fill:none;" points="1037.549,94.591 1037.549,202.764 1131.23,148.677 			"/>
			<polygon style="fill:none;" points="1036.531,422.637 1036.531,314.465 942.851,368.551 			"/>
			<polygon style="fill:none;" points="1037.549,424.461 1037.549,532.634 1131.23,478.548 			"/>
			<polygon style="fill:none;" points="84.449,532.633 84.449,424.462 -9.231,478.548 			"/>
			<polygon style="fill:none;" points="1038.058,753.45 1131.739,807.536 1131.739,699.363 			"/>
			<polygon style="fill:none;" points="942.851,588.484 1036.531,642.57 1036.531,534.398 			"/>
			<polygon style="fill:none;" points="1037.549,92.768 1131.23,38.681 1037.549,-15.406 			"/>
			<polygon style="fill:none;" points="370.074,37.799 370.074,-70.375 276.393,-16.288 			"/>
			<polygon style="fill:none;" points="560.49,37.799 560.49,-70.375 466.809,-16.288 			"/>
			<polygon style="fill:none;" points="371.092,37.799 464.774,-16.288 371.092,-70.375 			"/>
			<polygon style="fill:none;" points="180.678,37.798 274.357,-16.288 180.678,-70.374 			"/>
			<polygon style="fill:none;" points="751.925,37.799 845.606,-16.288 751.925,-70.375 			"/>
			<polygon style="fill:none;" points="942.342,37.799 1036.023,-16.288 942.342,-70.375 			"/>
			<polygon style="fill:none;" points="561.509,37.799 655.19,-16.288 561.509,-70.375 			"/>
			<polygon style="fill:none;" points="941.323,37.799 941.323,-70.375 847.642,-16.288 			"/>
			<polygon style="fill:none;" points="750.906,37.799 750.906,-70.375 657.225,-16.288 			"/>
			<polygon style="fill:none;" points="1036.531,752.508 1036.531,644.334 942.851,698.421 			"/>
			<polygon style="fill:none;" points="84.451,1082.378 84.451,974.204 -9.229,1028.29 			"/>
			<polygon style="fill:none;" points="180.676,1029.232 180.676,1137.406 274.356,1083.32 			"/>
			<polygon style="fill:none;" points="179.657,1029.232 85.976,1083.32 179.657,1137.406 			"/>
			<polygon style="fill:none;" points="371.091,1029.232 371.091,1137.406 464.772,1083.32 			"/>
			<polygon style="fill:none;" points="370.073,1029.232 276.393,1083.32 370.073,1137.406 			"/>
			<polygon style="fill:none;" points="84.451,534.398 -9.229,588.484 84.451,642.571 			"/>
			<polygon style="fill:none;" points="84.451,752.508 84.451,644.334 -9.229,698.421 			"/>
			<polygon style="fill:none;" points="84.449,862.503 84.449,754.332 -9.231,808.418 			"/>
			<polygon style="fill:none;" points="84.451,864.268 -9.229,918.355 84.451,972.441 			"/>
			<polygon style="fill:none;" points="560.489,1029.232 466.809,1083.32 560.489,1137.406 			"/>
			<polygon style="fill:none;" points="941.322,1029.232 847.641,1083.32 941.322,1137.406 			"/>
			<polygon style="fill:none;" points="942.341,1029.232 942.341,1137.406 1036.021,1083.32 			"/>
			<polygon style="fill:none;" points="1036.531,1082.378 1036.531,974.205 942.851,1028.29 			"/>
			<polygon style="fill:none;" points="942.851,918.355 1036.531,972.441 1036.531,864.268 			"/>
			<polygon style="fill:none;" points="1131.739,1029.232 1038.058,1083.32 1131.739,1137.406 			"/>
			<polygon style="fill:none;" points="751.924,1029.232 751.924,1137.406 845.604,1083.32 			"/>
			<polygon style="fill:none;" points="750.905,1029.232 657.226,1083.32 750.905,1137.406 			"/>
			<polygon style="fill:none;" points="561.508,1029.232 561.508,1137.406 655.189,1083.32 			"/>
			<path style="fill:#333333;" d="M1227.966,93.709c0-0.009-0.006-0.016-0.006-0.024c-0.004-0.077-0.02-0.155-0.061-0.227
				c-0.001-0.002-0.002-0.004-0.003-0.006c-0.042-0.072-0.101-0.125-0.167-0.167c-0.007-0.004-0.01-0.013-0.017-0.017
				l-94.954-54.822V-71.256c0-0.009-0.006-0.016-0.006-0.024c-0.004-0.077-0.02-0.155-0.061-0.227
				c-0.001-0.002-0.002-0.004-0.003-0.006c-0.042-0.073-0.102-0.126-0.168-0.168c-0.007-0.004-0.009-0.012-0.016-0.016
				l-95.208-54.968c-0.007-0.004-0.016-0.002-0.023-0.006c-0.07-0.036-0.147-0.062-0.232-0.062s-0.161,0.026-0.232,0.062
				c-0.007,0.004-0.016,0.002-0.023,0.006l-94.953,54.821l-94.954-54.821c-0.007-0.004-0.016-0.002-0.023-0.006
				c-0.07-0.036-0.147-0.062-0.232-0.062c-0.085,0-0.161,0.026-0.232,0.062c-0.007,0.004-0.016,0.002-0.023,0.006l-94.954,54.821
				l-94.953-54.821c-0.007-0.004-0.016-0.002-0.023-0.006c-0.07-0.036-0.147-0.062-0.232-0.062c-0.085,0-0.161,0.026-0.232,0.062
				c-0.007,0.004-0.016,0.002-0.023,0.006L561-71.844l-94.954-54.821c-0.007-0.004-0.016-0.002-0.023-0.006
				c-0.07-0.036-0.147-0.062-0.232-0.062c-0.085,0-0.161,0.026-0.232,0.062c-0.007,0.004-0.016,0.002-0.023,0.006l-94.953,54.821
				l-94.953-54.821c-0.007-0.004-0.016-0.002-0.023-0.006c-0.07-0.036-0.147-0.062-0.232-0.062c-0.085,0-0.161,0.026-0.232,0.062
				c-0.007,0.004-0.016,0.002-0.023,0.006l-94.953,54.82l-94.953-54.82c-0.007-0.004-0.016-0.002-0.023-0.006
				c-0.07-0.036-0.147-0.062-0.232-0.062s-0.161,0.026-0.232,0.062c-0.007,0.004-0.016,0.002-0.023,0.006l-95.208,54.968
				c-0.007,0.004-0.01,0.012-0.016,0.016c-0.067,0.043-0.128,0.096-0.17,0.17c-0.042,0.073-0.058,0.152-0.062,0.231
				c0,0.008-0.006,0.015-0.006,0.024V38.446l-94.954,54.822c-0.007,0.004-0.009,0.012-0.016,0.016
				c-0.067,0.043-0.128,0.096-0.171,0.17c-0.042,0.073-0.058,0.152-0.062,0.231c-0.001,0.008-0.006,0.015-0.006,0.024v109.936
				c0,0.008,0.006,0.015,0.006,0.024c0.003,0.079,0.019,0.158,0.062,0.231c0.002,0.004,0.007,0.005,0.009,0.009
				c0.044,0.071,0.102,0.134,0.177,0.177l0.003,0.002c0.001,0,0.001,0.001,0.002,0.001l94.95,54.82v109.408l-94.954,54.822
				c-0.007,0.004-0.009,0.012-0.016,0.016c-0.067,0.043-0.128,0.096-0.171,0.17c-0.042,0.073-0.058,0.152-0.062,0.231
				c-0.001,0.008-0.006,0.015-0.006,0.024v109.937c0,0.008,0.006,0.015,0.006,0.024c0.003,0.079,0.019,0.158,0.062,0.231
				c0.002,0.004,0.007,0.005,0.009,0.009c0.044,0.071,0.102,0.134,0.177,0.177l0.003,0.002c0.001,0,0.001,0.001,0.002,0.001
				l94.95,54.819v109.409l-94.954,54.822c-0.007,0.004-0.009,0.012-0.016,0.016c-0.067,0.043-0.128,0.096-0.171,0.17
				c-0.042,0.073-0.058,0.152-0.062,0.231c-0.001,0.008-0.006,0.015-0.006,0.024v109.936c0,0.008,0.006,0.015,0.006,0.024
				c0.003,0.079,0.019,0.158,0.062,0.231c0.002,0.004,0.007,0.005,0.009,0.009c0.044,0.071,0.102,0.134,0.177,0.177l0.003,0.002
				c0.001,0,0.001,0.001,0.002,0.001l94.95,54.82v109.408l-94.954,54.822c-0.007,0.004-0.009,0.012-0.016,0.016
				c-0.067,0.043-0.128,0.097-0.171,0.17c-0.042,0.073-0.058,0.152-0.062,0.231c-0.001,0.008-0.006,0.015-0.006,0.024v109.937
				c0,0.008,0.006,0.015,0.006,0.024c0.003,0.079,0.019,0.158,0.062,0.231c0.002,0.004,0.007,0.005,0.009,0.009
				c0.044,0.071,0.102,0.134,0.177,0.177l0.003,0.002c0.001,0,0.001,0.001,0.002,0.001l95.203,54.965
				c0.007,0.004,0.016,0.003,0.023,0.006c0.07,0.036,0.147,0.062,0.232,0.062c0.085,0,0.161-0.026,0.232-0.062
				c0.007-0.004,0.016-0.002,0.023-0.006l94.953-54.82l94.953,54.82c0.007,0.004,0.016,0.003,0.023,0.006
				c0.07,0.036,0.147,0.062,0.232,0.062c0.085,0,0.161-0.026,0.232-0.062c0.007-0.004,0.016-0.002,0.023-0.006l94.953-54.821
				l94.953,54.821c0.007,0.004,0.016,0.003,0.023,0.006c0.07,0.036,0.147,0.062,0.232,0.062c0.085,0,0.161-0.026,0.232-0.062
				c0.007-0.004,0.016-0.002,0.023-0.006l94.954-54.821l94.953,54.821c0.007,0.004,0.016,0.003,0.023,0.006
				c0.07,0.036,0.147,0.062,0.232,0.062c0.085,0,0.161-0.026,0.232-0.062c0.007-0.004,0.016-0.002,0.023-0.006l94.954-54.821
				l94.953,54.821c0.007,0.004,0.016,0.003,0.023,0.006c0.07,0.036,0.147,0.062,0.232,0.062c0.085,0,0.161-0.026,0.232-0.062
				c0.007-0.004,0.016-0.002,0.023-0.006l94.954-54.821l94.954,54.821c0.007,0.004,0.016,0.003,0.023,0.006
				c0.07,0.036,0.147,0.062,0.232,0.062c0.085,0,0.161-0.026,0.232-0.062c0.007-0.004,0.016-0.002,0.023-0.006l94.954-54.821
				l94.954,54.821c0.007,0.004,0.016,0.003,0.023,0.006c0.07,0.036,0.147,0.062,0.232,0.062s0.161-0.026,0.232-0.062
				c0.007-0.004,0.016-0.002,0.023-0.006l95.204-54.965c0,0,0.001-0.001,0.002-0.001l0.003-0.002c0.08-0.046,0.143-0.112,0.187-0.19
				c0.041-0.072,0.057-0.149,0.061-0.227c0-0.009,0.006-0.016,0.006-0.024v-109.937c0-0.009-0.006-0.016-0.006-0.024
				c-0.004-0.077-0.02-0.155-0.061-0.227c-0.001-0.002-0.002-0.004-0.003-0.005c-0.042-0.073-0.102-0.126-0.169-0.168
				c-0.006-0.004-0.009-0.012-0.016-0.016l-94.954-54.822V918.648l94.949-54.819c0,0,0.001-0.001,0.002-0.001l0.003-0.002
				c0.08-0.046,0.143-0.112,0.187-0.19c0.041-0.072,0.057-0.149,0.061-0.227c0-0.009,0.006-0.016,0.006-0.024V753.45
				c0-0.009-0.006-0.016-0.006-0.024c-0.004-0.077-0.02-0.155-0.061-0.227c-0.001-0.002-0.002-0.003-0.003-0.005
				c-0.042-0.072-0.101-0.125-0.167-0.167c-0.007-0.004-0.01-0.013-0.017-0.017l-94.954-54.822v-109.41l94.949-54.818
				c0,0,0.001-0.001,0.002-0.001l0.003-0.002c0.08-0.046,0.143-0.112,0.187-0.19c0.041-0.072,0.057-0.149,0.061-0.227
				c0-0.009,0.006-0.016,0.006-0.024V423.579c0-0.009-0.006-0.016-0.006-0.024c-0.004-0.077-0.02-0.155-0.061-0.227
				c-0.001-0.002-0.002-0.004-0.003-0.006c-0.042-0.072-0.101-0.125-0.167-0.167c-0.007-0.004-0.01-0.013-0.017-0.017
				l-94.954-54.822V258.908l94.949-54.819c0.001,0,0.001-0.001,0.002-0.001l0.003-0.002c0.08-0.046,0.143-0.112,0.187-0.19
				c0.041-0.072,0.057-0.149,0.061-0.227c0-0.009,0.006-0.016,0.006-0.024V93.709z M1226.948,532.634l-93.681-54.087l93.681-54.087
				V532.634z M1226.948,862.504l-93.681-54.086l93.681-54.086V862.504z M1226.948,1192.375l-93.681-54.087l93.681-54.087V1192.375z
				 M-104.947,1084.201l93.681,54.087l-93.681,54.087V1084.201z M-104.947,754.331l93.681,54.086l-93.681,54.086V754.331z
				 M-104.947,424.461l93.681,54.087l-93.681,54.087V424.461z M-104.947,94.591l93.681,54.087l-93.681,54.087V94.591z
				 M750.397,258.615l-93.68,54.086V204.528l58.916,34.016L750.397,258.615z M562.017,808.418l93.681-54.086v108.173
				L562.017,808.418z M371.6,808.418l93.681-54.086v108.173L371.6,808.418z M464.774,313.583l-93.681,54.087V259.496
				L464.774,313.583z M655.19,313.583l-93.681,54.087V259.496L655.19,313.583z M466.3,644.334l93.681,54.087L466.3,752.508V644.334z
				 M492.744,549.665l67.237,38.819L466.3,642.571V534.398L492.744,549.665z M520.803,564.689l-53.994-31.174l93.68-54.086v108.172
				L520.803,564.689z M560.489,477.666l-93.68-54.087l93.68-54.087V477.666z M559.981,478.548L466.3,532.634V424.461
				L559.981,478.548z M465.282,534.398v108.173l-93.68-54.086L465.282,534.398z M465.282,752.508l-93.68-54.087l93.68-54.086
				V752.508z M466.809,643.453l93.681-54.087v108.174L466.809,643.453z M561.508,587.602V479.429l93.681,54.087L561.508,587.602z
				 M561.508,369.492l93.681,54.087l-93.681,54.087V369.492z M465.282,422.637l-93.68-54.086l93.68-54.087V422.637z
				 M464.772,423.579l-93.681,54.087V369.492L464.772,423.579z M465.281,532.634L371.6,478.548l93.681-54.087V532.634z
				 M464.774,643.453l-93.681,54.087V589.366L464.774,643.453z M464.772,753.45l-93.681,54.086V699.363L464.772,753.45z
				 M655.189,753.45l-93.681,54.086V699.363L655.189,753.45z M562.018,698.421l93.681-54.087v108.174L562.018,698.421z
				 M561.509,589.366l93.681,54.087l-93.681,54.087V589.366z M562.017,478.548l93.681-54.087v108.174L562.017,478.548z
				 M562.018,368.551l93.681-54.087v108.173L562.018,368.551z M466.3,422.637V314.464l93.681,54.087L466.3,422.637z
				 M464.772,533.516l-93.681,54.086V479.429L464.772,533.516z M370.074,697.539l-93.681-54.087l93.681-54.087V697.539z
				 M560.489,699.363v108.173l-93.68-54.086L560.489,699.363z M562.018,588.484l93.681-54.086v108.173L562.018,588.484z
				 M656.716,424.461l93.681,54.087l-93.681,54.087V424.461z M562.018,258.615l93.681-54.087v108.174L562.018,258.615z
				 M560.49,367.67l-93.681-54.087l93.681-54.087V367.67z M371.602,258.615l93.68-54.087v108.174L371.602,258.615z M370.074,367.67
				l-93.681-54.087l93.681-54.087V367.67z M369.565,368.551l-93.68,54.086V314.465L369.565,368.551z M370.073,369.492v108.174
				l-93.68-54.087L370.073,369.492z M370.073,587.602l-59.053-34.094l-34.627-19.992l93.68-54.086V587.602z M334.938,568.492
				l34.627,19.992l-93.68,54.086V534.398L334.938,568.492z M369.565,698.421l-93.68,54.087V644.334L369.565,698.421z
				 M370.073,699.363v108.173l-93.68-54.086L370.073,699.363z M464.772,863.385l-93.681,54.087V809.299L464.772,863.385z
				 M466.3,754.331l93.681,54.086L466.3,862.504V754.331z M655.189,863.385l-93.681,54.087V809.299L655.189,863.385z
				 M656.716,754.331l93.681,54.086l-93.681,54.086V754.331z M657.226,753.45l93.68-54.087v108.173L657.226,753.45z
				 M656.717,752.508V644.334l93.68,54.086L656.717,752.508z M656.717,534.398l59.022,34.076l34.658,20.01l-93.68,54.086V534.398z
				 M691.883,553.525l-34.658-20.01l93.68-54.086v108.172L691.883,553.525z M657.226,423.579l93.68-54.087v108.173L657.226,423.579z
				 M656.717,422.637V314.465l93.68,54.086L656.717,422.637z M559.981,258.615L466.3,312.701V204.528l26.79,15.467L559.981,258.615z
				 M369.565,258.615l-93.68,54.087V204.528l58.947,34.033L369.565,258.615z M274.866,204.528v108.174l-93.681-54.087
				L274.866,204.528z M274.866,422.637l-93.681-54.086l93.681-54.087V422.637z M369.565,478.548l-93.681,54.087V424.461
				L369.565,478.548z M274.866,534.398v108.173l-93.681-54.087L274.866,534.398z M274.866,752.508l-93.681-54.087l93.681-54.087
				V752.508z M369.565,808.418l-93.681,54.086V754.331L369.565,808.418z M276.393,863.385l93.68-54.086v108.173l-58.947-34.033
				L276.393,863.385z M466.809,863.385l93.68-54.086v108.173l-39.73-22.938L466.809,863.385z M657.226,863.385l93.68-54.086v108.173
				l-58.916-34.016L657.226,863.385z M751.924,917.473V809.299l93.681,54.086L751.924,917.473z M751.924,699.363l93.681,54.087
				l-93.681,54.086V699.363z M657.225,643.453l93.681-54.087v108.174L657.225,643.453z M751.924,587.602V479.429l93.681,54.087
				L751.924,587.602z M751.924,369.492l93.681,54.087l-93.681,54.087V369.492z M657.225,313.583l93.681-54.087V367.67
				L657.225,313.583z M751.924,257.732V149.559l93.681,54.086L751.924,257.732z M750.905,257.732l-58.916-34.016l-34.763-20.071
				l93.68-54.086V257.732z M561.508,257.732V149.559l93.681,54.086L561.508,257.732z M560.489,257.732l-39.73-22.938l-53.95-31.149
				l93.68-54.086V257.732z M371.091,257.732V149.559l93.681,54.086L371.091,257.732z M370.073,257.732l-58.947-34.033
				l-34.733-20.054l93.68-54.086V257.732z M180.676,257.732V149.559l93.68,54.086L180.676,257.732z M274.357,313.583l-93.679,54.086
				V259.497L274.357,313.583z M274.865,532.634l-93.681-54.087l93.681-54.087V532.634z M274.356,533.516l-93.68,54.086V479.429
				L274.356,533.516z M274.357,643.453l-93.679,54.086V589.367L274.357,643.453z M274.865,862.504l-93.681-54.086l93.681-54.086
				V862.504z M274.356,863.385l-93.68,54.087V809.299L274.356,863.385z M274.866,864.268v108.174l-93.681-54.086L274.866,864.268z
				 M275.885,864.268l58.947,34.033l34.733,20.054l-93.68,54.086V864.268z M465.282,864.268v108.173l-93.68-54.086L465.282,864.268z
				 M466.3,864.268l26.79,15.467l66.89,38.62L466.3,972.441V864.268z M655.699,864.268v108.174l-93.681-54.086L655.699,864.268z
				 M656.717,864.268l58.916,34.016l34.763,20.071l-93.68,54.086V864.268z M752.433,808.418l93.681-54.086v108.173L752.433,808.418z
				 M751.925,589.366l93.681,54.087l-93.681,54.087V589.366z M752.433,478.548l93.681-54.087v108.174L752.433,478.548z
				 M751.925,259.496l93.681,54.087l-93.681,54.087V259.496z M752.433,148.677l93.681-54.087v108.173L752.433,148.677z
				 M656.716,202.764V94.591l93.681,54.087L656.716,202.764z M655.698,202.764l-93.681-54.087l93.681-54.087V202.764z
				 M466.3,202.764V94.591l93.681,54.087L466.3,202.764z M465.281,202.764L371.6,148.677l93.681-54.087V202.764z M275.884,202.764
				V94.591l93.681,54.087L275.884,202.764z M274.865,202.764l-93.681-54.087l93.681-54.087V202.764z M179.657,257.731l-93.68-54.086
				l93.68-54.086V257.731z M274.356,423.579l-93.68,54.087V369.492L274.356,423.579z M179.657,587.601l-93.68-54.085l93.68-54.086
				V587.601z M274.356,753.45l-93.68,54.086V699.363L274.356,753.45z M179.657,917.471l-93.68-54.086l93.68-54.086V917.471z
				 M180.678,919.237l93.679,54.085l-93.679,54.085V919.237z M370.074,919.236v108.173l-93.681-54.086L370.074,919.236z
				 M371.092,919.236l93.681,54.086l-93.681,54.086V919.236z M560.49,919.236v108.173l-93.681-54.086L560.49,919.236z
				 M561.509,919.236l93.681,54.086l-93.681,54.086V919.236z M750.906,919.236v108.173l-93.681-54.086L750.906,919.236z
				 M751.925,919.236l93.681,54.086l-93.681,54.086V919.236z M752.434,918.355l93.681-54.087v108.173L752.434,918.355z
				 M847.132,754.331l93.681,54.086l-93.681,54.086V754.331z M846.115,752.508l-93.681-54.087l93.681-54.086V752.508z
				 M752.434,588.484l93.681-54.086v108.173L752.434,588.484z M847.132,424.461l93.681,54.087l-93.681,54.087V424.461z
				 M846.115,422.637l-93.681-54.086l93.681-54.087V422.637z M752.434,258.615l93.681-54.087v108.174L752.434,258.615z
				 M847.132,94.591l93.681,54.087l-93.681,54.087V94.591z M751.924,147.796V39.622l93.681,54.087L751.924,147.796z
				 M750.905,147.795l-93.68-54.086l93.68-54.087V147.795z M561.508,147.796V39.622l93.681,54.087L561.508,147.796z
				 M560.489,147.796l-93.68-54.086l93.68-54.087V147.796z M371.091,147.796V39.622l93.681,54.087L371.091,147.796z
				 M370.073,147.796l-93.68-54.086l93.68-54.087V147.796z M180.676,147.796V39.622l93.68,54.087L180.676,147.796z M85.469,202.763
				V94.592l93.679,54.085L85.469,202.763z M179.657,477.666l-93.681-54.087l93.681-54.087V477.666z M179.148,478.548l-93.679,54.086
				V424.462L179.148,478.548z M179.657,807.536L85.976,753.45l93.681-54.087V807.536z M179.148,808.418l-93.679,54.085V754.332
				L179.148,808.418z M274.866,974.204v108.173l-93.681-54.087L274.866,974.204z M275.885,974.204l93.68,54.086l-93.68,54.087
				V974.204z M465.282,974.204v108.173l-93.68-54.087L465.282,974.204z M466.3,974.204l93.681,54.086l-93.681,54.087V974.204z
				 M655.699,974.204v108.174l-93.681-54.087L655.699,974.204z M656.717,974.205l93.68,54.086l-93.68,54.087V974.205z
				 M846.115,974.204v108.173l-93.681-54.087L846.115,974.204z M847.133,974.204l93.681,54.086l-93.681,54.087V974.204z
				 M847.133,864.268l58.978,34.051l34.703,20.036l-93.681,54.086V864.268z M882.344,883.421l-34.703-20.036l93.681-54.086v108.173
				L882.344,883.421z M847.641,753.45l93.681-54.087v108.173L847.641,753.45z M847.133,752.508V644.334l93.681,54.086
				L847.133,752.508z M847.133,534.398l59.085,34.112l34.596,19.974l-93.681,54.086V534.398z M882.238,553.49l-34.596-19.974
				l93.681-54.086v108.172L882.238,553.49z M847.641,423.579l93.681-54.087v108.174L847.641,423.579z M847.133,422.637V314.465
				l93.681,54.087L847.133,422.637z M847.133,204.528l58.978,34.051l34.703,20.036l-93.681,54.087V204.528z M882.344,223.681
				l-34.703-20.036l93.681-54.086v108.173L882.344,223.681z M847.641,93.71l93.681-54.087v108.173L847.641,93.71z M179.657,147.796
				L85.976,93.71l93.681-54.087V147.796z M179.658,367.669l-93.679-54.086l93.679-54.086V367.669z M179.658,697.538l-93.679-54.086
				l93.679-54.086V697.538z M179.658,1027.408l-93.679-54.085l93.679-54.085V1027.408z M847.642,973.323l93.681-54.086v108.173
				L847.642,973.323z M942.341,809.299l93.681,54.086l-93.681,54.087V809.299z M942.341,699.363l93.681,54.087l-93.681,54.086
				V699.363z M847.642,643.453l93.681-54.087v108.174L847.642,643.453z M942.341,479.429l93.681,54.086l-93.681,54.086V479.429z
				 M942.341,369.492l93.681,54.087l-93.681,54.087V369.492z M847.642,313.583l93.681-54.087V367.67L847.642,313.583z
				 M942.341,149.559l93.681,54.086l-93.681,54.087V149.559z M942.341,39.622l93.681,54.087l-93.681,54.086V39.622z M179.15,258.615
				l-93.68,54.086V204.529L179.15,258.615z M179.15,368.551L85.47,422.637V314.464L179.15,368.551z M179.15,588.485l-93.68,54.086
				V534.399L179.15,588.485z M179.15,698.421L85.47,752.508V644.334L179.15,698.421z M179.15,918.355l-93.68,54.086V864.269
				L179.15,918.355z M179.15,1028.29l-93.681,54.087V974.204L179.15,1028.29z M942.342,919.236l93.681,54.086l-93.681,54.086
				V919.236z M942.849,808.418l93.681-54.086v108.173L942.849,808.418z M942.342,589.366l93.681,54.087l-93.681,54.087V589.366z
				 M942.849,478.548l93.681-54.087v108.174L942.849,478.548z M942.342,259.496l93.681,54.087l-93.681,54.087V259.496z
				 M942.849,148.677l93.681-54.087v108.173L942.849,148.677z M1131.739,39.622v108.173l-93.681-54.086L1131.739,39.622z
				 M1036.531,92.768l-93.68-54.087l93.68-54.086V92.768z M847.133,92.768V-15.406l93.681,54.087L847.133,92.768z M846.115,92.768
				l-93.681-54.087l93.681-54.087V92.768z M656.717,92.768V-15.406l93.68,54.086L656.717,92.768z M655.699,92.768l-93.681-54.087
				l93.681-54.087V92.768z M466.3,92.768V-15.406l93.681,54.087L466.3,92.768z M465.282,92.768l-93.68-54.087l93.68-54.087V92.768z
				 M275.885,92.768V-15.406l93.68,54.087L275.885,92.768z M274.866,92.768l-93.681-54.087l93.681-54.087V92.768z M85.47-15.406
				l93.681,54.087L85.47,92.768V-15.406z M84.449,202.763l-93.679-54.085l93.679-54.085V202.763z M84.451,204.528v108.174
				l-93.68-54.087L84.451,204.528z M84.451,422.637l-93.68-54.086l93.68-54.087V422.637z M84.449,532.633l-93.679-54.086
				l93.679-54.086V532.633z M84.451,534.398v108.173l-93.68-54.086L84.451,534.398z M84.451,752.508l-93.68-54.087l93.68-54.086
				V752.508z M84.449,862.503l-93.679-54.085l93.679-54.085V862.503z M84.451,864.268v108.173l-93.68-54.086L84.451,864.268z
				 M84.451,1082.378l-93.68-54.087l93.68-54.086V1082.378z M179.657,1029.232v108.174l-93.681-54.087L179.657,1029.232z
				 M180.676,1029.232l93.68,54.087l-93.68,54.086V1029.232z M370.073,1029.232v108.174l-93.68-54.086L370.073,1029.232z
				 M371.091,1029.232l93.681,54.087l-93.681,54.087V1029.232z M560.489,1029.232v108.174l-93.68-54.086L560.489,1029.232z
				 M561.508,1029.232l93.681,54.087l-93.681,54.087V1029.232z M750.905,1029.232v108.173l-93.68-54.086L750.905,1029.232z
				 M751.924,1029.232l93.681,54.087l-93.681,54.087V1029.232z M941.322,1029.232v108.174l-93.681-54.086L941.322,1029.232z
				 M942.341,1029.232l93.681,54.087l-93.681,54.086V1029.232z M1131.739,1029.232v108.174l-93.681-54.086L1131.739,1029.232z
				 M1036.531,1082.378l-93.68-54.087l93.68-54.086V1082.378z M942.851,918.355l93.68-54.087v108.173L942.851,918.355z
				 M1037.549,754.331l93.681,54.086l-93.681,54.086V754.331z M1038.058,753.45l93.681-54.087v108.173L1038.058,753.45z
				 M1036.531,752.508l-93.68-54.087l93.68-54.086V752.508z M942.851,588.484l93.68-54.086V642.57L942.851,588.484z
				 M1037.549,424.461l93.681,54.087l-93.681,54.087V424.461z M1038.058,423.579l93.681-54.087v108.174L1038.058,423.579z
				 M1036.531,422.637l-93.68-54.086l93.68-54.086V422.637z M942.851,258.615l93.68-54.087v108.173L942.851,258.615z
				 M1037.549,94.591l93.681,54.087l-93.681,54.087V94.591z M1037.549,92.768V-15.406l93.681,54.087L1037.549,92.768z
				 M942.342,37.799V-70.375l93.681,54.087L942.342,37.799z M941.323,37.799l-93.681-54.087l93.681-54.087V37.799z M751.925,37.799
				V-70.375l93.681,54.087L751.925,37.799z M750.906,37.799l-93.681-54.087l93.681-54.087V37.799z M561.509,37.799V-70.375
				l93.681,54.087L561.509,37.799z M560.49,37.799l-93.681-54.087l93.681-54.087V37.799z M371.092,37.799V-70.375l93.681,54.087
				L371.092,37.799z M370.074,37.799l-93.681-54.087l93.681-54.087V37.799z M180.678,37.798V-70.374l93.679,54.086L180.678,37.798z
				 M179.658,37.798L85.979-16.288l93.679-54.086V37.798z M84.451,92.768l-93.68-54.087l93.68-54.087V92.768z M83.941,93.71
				l-93.681,54.086V39.622L83.941,93.71z M83.941,203.645l-93.681,54.087V149.559L83.941,203.645z M83.943,313.583L-9.738,367.67
				V259.496L83.943,313.583z M83.941,423.579l-93.681,54.087V369.492L83.941,423.579z M83.941,533.516l-93.681,54.086V479.429
				L83.941,533.516z M83.943,643.453l-93.681,54.087V589.366L83.943,643.453z M83.941,753.45l-93.681,54.086V699.363L83.941,753.45z
				 M83.941,863.385l-93.681,54.087V809.299L83.941,863.385z M83.943,973.323l-93.681,54.086V919.236L83.943,973.323z
				 M83.941,1083.32l-93.681,54.087v-108.174L83.941,1083.32z M84.449,1084.202v108.172l-93.679-54.086L84.449,1084.202z
				 M85.469,1084.202l93.679,54.086l-93.679,54.086V1084.202z M274.865,1084.201v108.174l-93.681-54.087L274.865,1084.201z
				 M275.884,1084.201l93.681,54.087l-93.681,54.087V1084.201z M465.281,1084.201v108.174l-93.681-54.087L465.281,1084.201z
				 M466.3,1084.201l93.681,54.087l-93.681,54.087V1084.201z M655.698,1084.201v108.174l-93.681-54.087L655.698,1084.201z
				 M656.716,1084.201l93.681,54.087l-93.681,54.087V1084.201z M846.114,1084.201v108.174l-93.681-54.087L846.114,1084.201z
				 M847.132,1084.201l93.681,54.087l-93.681,54.087V1084.201z M1036.531,1084.201v108.174l-93.681-54.087L1036.531,1084.201z
				 M1037.549,1084.201l93.681,54.087l-93.681,54.087V1084.201z M1037.549,1082.378V974.204l93.681,54.086L1037.549,1082.378z
				 M1037.549,864.268l93.681,54.087l-93.681,54.086V864.268z M1038.058,863.385l93.681-54.086v108.173L1038.058,863.385z
				 M1037.549,752.508V644.334l93.681,54.087L1037.549,752.508z M1037.549,534.398l93.681,54.086l-93.681,54.087V534.398z
				 M1038.058,533.516l93.681-54.086v108.173L1038.058,533.516z M1037.549,422.637V314.464l93.681,54.087L1037.549,422.637z
				 M1037.549,204.528l93.681,54.087l-93.681,54.087V204.528z M1038.058,203.645l93.681-54.086v108.173L1038.058,203.645z
				 M1132.758,39.622l93.681,54.087l-93.681,54.086V39.622z M1131.739,37.799l-93.681-54.087l93.681-54.087V37.799z
				 M1037.549-17.169v-108.173l93.681,54.086L1037.549-17.169z M1036.531-17.17l-93.68-54.086l93.68-54.086V-17.17z M847.133-17.169
				v-108.173l93.681,54.086L847.133-17.169z M846.115-17.169l-93.681-54.087l93.681-54.086V-17.169z M656.717-17.17v-108.173
				l93.68,54.086L656.717-17.17z M655.699-17.169l-93.681-54.087l93.681-54.086V-17.169z M466.3-17.169v-108.173l93.681,54.086
				L466.3-17.169z M465.282-17.17l-93.68-54.086l93.68-54.086V-17.17z M275.885-17.17v-108.173l93.68,54.086L275.885-17.17z
				 M274.866-17.169l-93.681-54.087l93.681-54.086V-17.169z M85.47-17.169v-108.173l93.681,54.086L85.47-17.169z M84.451-17.17
				l-93.68-54.086l93.68-54.086V-17.17z M83.943-16.288L-9.738,37.799V-70.375L83.943-16.288z M-10.758,147.796l-93.68-54.086
				l93.68-54.087V147.796z M-10.758,149.559v108.173l-93.68-54.087L-10.758,149.559z M-10.758,477.666l-93.68-54.087l93.68-54.087
				V477.666z M-10.758,479.429v108.173l-93.68-54.086L-10.758,479.429z M-10.758,807.536l-93.68-54.086l93.68-54.087V807.536z
				 M-10.758,809.299v108.173l-93.68-54.087L-10.758,809.299z M-10.758,1137.406l-93.68-54.086l93.68-54.087V1137.406z
				 M-10.758,1139.169v108.173l-93.68-54.086L-10.758,1139.169z M-9.739,1139.169l93.681,54.087l-93.681,54.086V1139.169z
				 M179.657,1139.169v108.173l-93.681-54.086L179.657,1139.169z M180.676,1139.169l93.68,54.086l-93.68,54.086V1139.169z
				 M370.073,1139.169v108.173l-93.68-54.086L370.073,1139.169z M371.091,1139.169l93.681,54.087l-93.681,54.086V1139.169z
				 M560.489,1139.169v108.173l-93.68-54.086L560.489,1139.169z M561.508,1139.169l93.681,54.087l-93.681,54.086V1139.169z
				 M750.905,1139.17v108.173l-93.68-54.086L750.905,1139.17z M751.924,1139.169l93.681,54.087l-93.681,54.086V1139.169z
				 M941.322,1139.169v108.173l-93.681-54.086L941.322,1139.169z M942.341,1139.169l93.681,54.086l-93.681,54.086V1139.169z
				 M1131.739,1139.169v108.173l-93.681-54.086L1131.739,1139.169z M1132.758,1139.169l93.681,54.086l-93.681,54.086V1139.169z
				 M1132.758,1137.406v-108.174l93.681,54.087L1132.758,1137.406z M1131.739,1027.409l-93.681-54.086l93.681-54.086V1027.409z
				 M1132.758,809.299l93.681,54.086l-93.681,54.087V809.299z M1132.758,807.536V699.363l93.681,54.087L1132.758,807.536z
				 M1131.739,697.539l-93.681-54.087l93.681-54.087V697.539z M1132.758,479.429l93.681,54.086l-93.681,54.086V479.429z
				 M1132.758,477.666V369.492l93.681,54.087L1132.758,477.666z M1131.739,367.67l-93.681-54.087l93.681-54.087V367.67z
				 M1132.758,149.559l93.681,54.086l-93.681,54.087V149.559z M1133.266,148.677l93.681-54.087v108.173L1133.266,148.677z"/>
		</g>
		<defs>
			<filter id="Adobe_OpacityMaskFilter" filterUnits="userSpaceOnUse" x="0" y="0" width="1122" height="1122">
				<feFlood  style="flood-color:white;flood-opacity:1" result="back"/>
				<feBlend  in="SourceGraphic" in2="back" mode="normal"/>
			</filter>
		</defs>
		
			<mask maskUnits="userSpaceOnUse" x="0" y="0" width="1122" height="1122" id="SVGID_00000034053694144857420650000014049834725938054304_">
			<g style="filter:url(#Adobe_OpacityMaskFilter);">
				<defs>
					
						<filter id="Adobe_OpacityMaskFilter_00000133522137090279977390000010248318499435211451_" filterUnits="userSpaceOnUse" x="0" y="0" width="1122" height="1122">
						<feFlood  style="flood-color:white;flood-opacity:1" result="back"/>
						<feBlend  in="SourceGraphic" in2="back" mode="normal"/>
					</filter>
				</defs>
				
					<mask maskUnits="userSpaceOnUse" x="0" y="0" width="1122" height="1122" id="SVGID_00000034053694144857420650000014049834725938054304_">
					<g style="filter:url(#Adobe_OpacityMaskFilter_00000133522137090279977390000010248318499435211451_);">
					</g>
				</mask>
				
					<linearGradient id="SVGID_00000064345158957556337830000004692637156711469989_" gradientUnits="userSpaceOnUse" x1="561" y1="2.0151" x2="561" y2="1122.6844">
					<stop  offset="0" style="stop-color:#000000"/>
					<stop  offset="0.25" style="stop-color:#B3B3B3"/>
					<stop  offset="0.2841" style="stop-color:#C9C9C9"/>
					<stop  offset="0.3302" style="stop-color:#E1E1E1"/>
					<stop  offset="0.3794" style="stop-color:#F2F2F2"/>
					<stop  offset="0.4331" style="stop-color:#FCFCFC"/>
					<stop  offset="0.5" style="stop-color:#FFFFFF"/>
					<stop  offset="0.5669" style="stop-color:#FCFCFC"/>
					<stop  offset="0.6206" style="stop-color:#F2F2F2"/>
					<stop  offset="0.6698" style="stop-color:#E1E1E1"/>
					<stop  offset="0.7159" style="stop-color:#C9C9C9"/>
					<stop  offset="0.75" style="stop-color:#B3B3B3"/>
					<stop  offset="1" style="stop-color:#000000"/>
				</linearGradient>
				
					<rect y="0" style="clip-path:url(#SVGID_00000070101853064432363960000003993035344822276249_);mask:url(#SVGID_00000034053694144857420650000014049834725938054304_);fill:url(#SVGID_00000064345158957556337830000004692637156711469989_);" width="1122" height="1122"/>
			</g>
		</mask>
		
			<linearGradient id="SVGID_00000068676011741163509810000016784319818734400928_" gradientUnits="userSpaceOnUse" x1="561" y1="2.0151" x2="561" y2="1122.6844">
			<stop  offset="0" style="stop-color:#FFFFFF"/>
			<stop  offset="0.25" style="stop-color:#FFFFFF"/>
			<stop  offset="0.2724" style="stop-color:#FFFFFF"/>
			<stop  offset="0.5" style="stop-color:#FFFFFF"/>
			<stop  offset="0.7276" style="stop-color:#FFFFFF"/>
			<stop  offset="0.75" style="stop-color:#FFFFFF"/>
			<stop  offset="1" style="stop-color:#FFFFFF"/>
		</linearGradient>
		
			<rect y="0" style="clip-path:url(#SVGID_00000070101853064432363960000003993035344822276249_);fill:url(#SVGID_00000068676011741163509810000016784319818734400928_);" width="1122" height="1122"/>
		<g style="clip-path:url(#SVGID_00000070101853064432363960000003993035344822276249_);">
			<polygon style="fill:#C9C9C9;" points="631.356,792.823 604.242,808.477 631.356,824.148 			"/>
			<polygon style="fill:#EFEFEF;" points="680.871,792.823 707.984,808.477 680.871,824.148 			"/>
			<polygon style="fill:#C9C9C9;" points="1012.188,792.823 985.075,808.477 1012.188,824.148 			"/>
			<polygon style="fill:#EFEFEF;" points="1061.704,792.823 1088.818,808.477 1061.704,824.148 			"/>
			<polygon style="fill:#C9C9C9;" points="55.834,792.823 28.721,808.477 55.834,824.148 			"/>
			<polygon style="fill:#EFEFEF;" points="871.287,792.823 898.401,808.477 871.287,824.148 			"/>
			<polygon style="fill:#EFEFEF;" points="821.772,792.823 794.659,808.477 821.772,824.148 			"/>
			<polygon style="fill:#C9C9C9;" points="490.455,792.687 517.568,808.341 490.455,824.012 			"/>
			<polygon style="fill:#EFEFEF;" points="250.523,792.687 223.41,808.341 250.523,824.012 			"/>
		</g>
		<polygon style="clip-path:url(#SVGID_00000070101853064432363960000003993035344822276249_);fill:#C9C9C9;" points="
			348.542,297.98 321.428,313.634 348.542,329.305 		"/>
		<polygon style="clip-path:url(#SVGID_00000070101853064432363960000003993035344822276249_);fill:#666666;" points="
			99.418,118.636 151.063,148.453 99.418,178.302 		"/>
		<polygon style="clip-path:url(#SVGID_00000070101853064432363960000003993035344822276249_);fill:#666666;" points="
			289.835,118.636 341.479,148.453 289.835,178.302 		"/>
		<polygon style="clip-path:url(#SVGID_00000070101853064432363960000003993035344822276249_);fill:#333333;" points="
			480.251,118.636 531.895,148.453 480.251,178.302 		"/>
		<polygon style="clip-path:url(#SVGID_00000070101853064432363960000003993035344822276249_);fill:#333333;" points="
			641.748,118.636 590.103,148.453 641.747,178.302 		"/>
		<polygon style="clip-path:url(#SVGID_00000070101853064432363960000003993035344822276249_);fill:#666666;" points="
			832.163,118.636 780.518,148.453 832.163,178.302 		"/>
		<polygon style="clip-path:url(#SVGID_00000070101853064432363960000003993035344822276249_);fill:#C9C9C9;" points="
			672.133,232.361 717.322,258.451 672.133,284.569 		"/>
		<polygon style="clip-path:url(#SVGID_00000070101853064432363960000003993035344822276249_);fill:#969696;" points="
			640.28,232.361 595.091,258.451 640.28,284.569 		"/>
		<polygon style="clip-path:url(#SVGID_00000070101853064432363960000003993035344822276249_);fill:#C9C9C9;" points="
			830.696,232.361 785.508,258.451 830.696,284.569 		"/>
		<polygon style="clip-path:url(#SVGID_00000070101853064432363960000003993035344822276249_);fill:#666666;" points="
			952.235,56.338 1016.791,93.609 952.235,130.921 		"/>
		<polygon style="clip-path:url(#SVGID_00000070101853064432363960000003993035344822276249_);fill:#333333;" points="
			952.235,-53.579 1016.791,-16.308 952.235,21.004 		"/>
		<polygon style="clip-path:url(#SVGID_00000070101853064432363960000003993035344822276249_);fill:#333333;" points="
			931.429,-53.579 866.873,-16.308 931.429,21.004 		"/>
		<polygon style="clip-path:url(#SVGID_00000070101853064432363960000003993035344822276249_);fill:#333333;" points="
			1121.845,56.443 1057.289,93.714 1121.845,131.026 		"/>
		<polygon style="clip-path:url(#SVGID_00000070101853064432363960000003993035344822276249_);fill:#333333;" points="
			1121.845,-53.579 1057.289,-16.308 1121.845,21.004 		"/>
		<polygon style="clip-path:url(#SVGID_00000070101853064432363960000003993035344822276249_);fill:#333333;" points="
			761.819,56.358 826.375,93.629 761.819,130.941 		"/>
		<polygon style="clip-path:url(#SVGID_00000070101853064432363960000003993035344822276249_);fill:#333333;" points="
			931.429,56.358 866.873,93.629 931.429,130.941 		"/>
		<polygon style="clip-path:url(#SVGID_00000070101853064432363960000003993035344822276249_);fill:#666666;" points="
			571.403,56.358 635.958,93.629 571.403,130.941 		"/>
		<polygon style="clip-path:url(#SVGID_00000070101853064432363960000003993035344822276249_);fill:#333333;" points="
			741.012,56.358 676.457,93.629 741.012,130.941 		"/>
		<polygon style="clip-path:url(#SVGID_00000070101853064432363960000003993035344822276249_);fill:#333333;" points="
			761.819,-53.579 826.375,-16.308 761.819,21.004 		"/>
		<polygon style="clip-path:url(#SVGID_00000070101853064432363960000003993035344822276249_);fill:#333333;" points="
			741.012,-53.579 676.457,-16.308 741.012,21.004 		"/>
		<polygon style="clip-path:url(#SVGID_00000070101853064432363960000003993035344822276249_);fill:#333333;" points="
			380.987,56.358 445.542,93.629 380.987,130.941 		"/>
		<polygon style="clip-path:url(#SVGID_00000070101853064432363960000003993035344822276249_);fill:#333333;" points="
			550.596,56.358 486.041,93.629 550.596,130.941 		"/>
		<polygon style="clip-path:url(#SVGID_00000070101853064432363960000003993035344822276249_);fill:#C9C9C9;" points="
			958.691,173.713 1010.336,203.53 958.691,233.379 		"/>
		<polygon style="clip-path:url(#SVGID_00000070101853064432363960000003993035344822276249_);fill:#666666;" points="
			1115.389,173.923 1063.745,203.74 1115.389,233.59 		"/>
		<polygon style="clip-path:url(#SVGID_00000070101853064432363960000003993035344822276249_);fill:#666666;" points="
			768.275,173.881 819.919,203.698 768.275,233.547 		"/>
		<polygon style="clip-path:url(#SVGID_00000070101853064432363960000003993035344822276249_);fill:#666666;" points="
			924.973,173.881 873.329,203.698 924.973,233.547 		"/>
		<polygon style="clip-path:url(#SVGID_00000070101853064432363960000003993035344822276249_);fill:#C9C9C9;" points="
			577.859,173.881 629.503,203.698 577.859,233.547 		"/>
		<polygon style="clip-path:url(#SVGID_00000070101853064432363960000003993035344822276249_);fill:#666666;" points="
			734.557,173.881 682.912,203.698 734.557,233.547 		"/>
		<polygon style="clip-path:url(#SVGID_00000070101853064432363960000003993035344822276249_);fill:#666666;" points="
			544.141,173.881 492.496,203.698 544.141,233.547 		"/>
		<polygon style="clip-path:url(#SVGID_00000070101853064432363960000003993035344822276249_);fill:#EFEFEF;" points="
			966.59,298.116 993.703,313.77 966.59,329.441 		"/>
		<polygon style="clip-path:url(#SVGID_00000070101853064432363960000003993035344822276249_);fill:#EFEFEF;" points="
			1107.491,298.116 1080.377,313.77 1107.491,329.441 		"/>
		<polygon style="clip-path:url(#SVGID_00000070101853064432363960000003993035344822276249_);fill:#EFEFEF;" points="
			726.657,298.116 699.544,313.77 726.657,329.441 		"/>
		<polygon style="clip-path:url(#SVGID_00000070101853064432363960000003993035344822276249_);fill:#333333;" points="
			190.57,56.358 255.126,93.629 190.571,130.941 		"/>
		<polygon style="clip-path:url(#SVGID_00000070101853064432363960000003993035344822276249_);fill:#333333;" points="
			360.18,56.358 295.624,93.629 360.18,130.941 		"/>
		<polygon style="clip-path:url(#SVGID_00000070101853064432363960000003993035344822276249_);fill:#333333;" points="0.154,56.358 
			64.71,93.629 0.154,130.941 		"/>
		<polygon style="clip-path:url(#SVGID_00000070101853064432363960000003993035344822276249_);fill:#333333;" points="
			169.764,56.358 105.208,93.629 169.764,130.941 		"/>
		<polygon style="clip-path:url(#SVGID_00000070101853064432363960000003993035344822276249_);fill:#333333;" points="
			571.403,-53.639 635.958,-16.367 571.403,20.944 		"/>
		<polygon style="clip-path:url(#SVGID_00000070101853064432363960000003993035344822276249_);fill:#333333;" points="
			380.987,-53.639 445.542,-16.367 380.987,20.944 		"/>
		<polygon style="clip-path:url(#SVGID_00000070101853064432363960000003993035344822276249_);fill:#333333;" points="
			550.596,-53.639 486.041,-16.367 550.596,20.944 		"/>
		<polygon style="clip-path:url(#SVGID_00000070101853064432363960000003993035344822276249_);fill:#333333;" points="
			190.57,-53.639 255.126,-16.367 190.571,20.944 		"/>
		<polygon style="clip-path:url(#SVGID_00000070101853064432363960000003993035344822276249_);fill:#333333;" points="
			360.18,-53.639 295.624,-16.367 360.18,20.944 		"/>
		<polygon style="clip-path:url(#SVGID_00000070101853064432363960000003993035344822276249_);fill:#333333;" points="
			0.154,-53.639 64.71,-16.367 0.154,20.944 		"/>
		<polygon style="clip-path:url(#SVGID_00000070101853064432363960000003993035344822276249_);fill:#333333;" points="
			169.764,-53.639 105.208,-16.367 169.764,20.944 		"/>
		<polygon style="clip-path:url(#SVGID_00000070101853064432363960000003993035344822276249_);fill:#666666;" points="
			387.442,173.813 439.087,203.629 387.442,233.479 		"/>
		<polygon style="clip-path:url(#SVGID_00000070101853064432363960000003993035344822276249_);fill:#666666;" points="
			197.026,173.813 248.671,203.629 197.026,233.479 		"/>
		<polygon style="clip-path:url(#SVGID_00000070101853064432363960000003993035344822276249_);fill:#C9C9C9;" points="
			353.724,173.813 302.08,203.629 353.724,233.479 		"/>
		<polygon style="clip-path:url(#SVGID_00000070101853064432363960000003993035344822276249_);fill:#666666;" points="6.61,173.813 
			58.254,203.629 6.61,233.479 		"/>
		<polygon style="clip-path:url(#SVGID_00000070101853064432363960000003993035344822276249_);fill:#C9C9C9;" points="
			163.308,173.813 111.664,203.629 163.308,233.479 		"/>
		<polygon style="clip-path:url(#SVGID_00000070101853064432363960000003993035344822276249_);fill:#EFEFEF;" points="
			391.945,297.98 419.058,313.634 391.945,329.305 		"/>
		<polygon style="clip-path:url(#SVGID_00000070101853064432363960000003993035344822276249_);fill:#C9C9C9;" points="
			155.408,297.98 128.295,313.634 155.408,329.305 		"/>
		<polygon style="clip-path:url(#SVGID_00000070101853064432363960000003993035344822276249_);fill:#333333;" points="
			861.083,118.636 912.728,148.453 861.083,178.302 		"/>
		<polygon style="clip-path:url(#SVGID_00000070101853064432363960000003993035344822276249_);fill:#333333;" points="
			857.027,1.181 921.583,38.452 857.027,75.764 		"/>
		<polygon style="clip-path:url(#SVGID_00000070101853064432363960000003993035344822276249_);fill:#333333;" points="
			836.221,1.181 771.665,38.452 836.22,75.764 		"/>
		<polygon style="clip-path:url(#SVGID_00000070101853064432363960000003993035344822276249_);fill:#333333;" points="
			670.668,118.636 722.312,148.453 670.668,178.302 		"/>
		<polygon style="clip-path:url(#SVGID_00000070101853064432363960000003993035344822276249_);fill:#333333;" points="
			666.611,1.181 731.167,38.452 666.611,75.764 		"/>
		<polygon style="clip-path:url(#SVGID_00000070101853064432363960000003993035344822276249_);fill:#333333;" points="
			645.804,1.181 581.249,38.452 645.804,75.764 		"/>
		<polygon style="clip-path:url(#SVGID_00000070101853064432363960000003993035344822276249_);fill:#333333;" points="
			476.195,1.181 540.75,38.452 476.195,75.764 		"/>
		<polygon style="clip-path:url(#SVGID_00000070101853064432363960000003993035344822276249_);fill:#333333;" points="
			451.33,118.636 399.686,148.453 451.33,178.302 		"/>
		<polygon style="clip-path:url(#SVGID_00000070101853064432363960000003993035344822276249_);fill:#333333;" points="
			455.388,1.181 390.833,38.452 455.388,75.764 		"/>
		<polygon style="clip-path:url(#SVGID_00000070101853064432363960000003993035344822276249_);fill:#C9C9C9;" points="
			445.705,232.361 400.516,258.451 445.705,284.569 		"/>
		<polygon style="clip-path:url(#SVGID_00000070101853064432363960000003993035344822276249_);fill:#333333;" points="
			285.779,1.181 350.334,38.452 285.779,75.764 		"/>
		<polygon style="clip-path:url(#SVGID_00000070101853064432363960000003993035344822276249_);fill:#969696;" points="
			295.462,232.361 340.651,258.451 295.462,284.569 		"/>
		<polygon style="clip-path:url(#SVGID_00000070101853064432363960000003993035344822276249_);fill:#4D4D4D;" points="
			260.914,118.636 209.27,148.453 260.914,178.302 		"/>
		<polygon style="clip-path:url(#SVGID_00000070101853064432363960000003993035344822276249_);fill:#333333;" points="
			264.972,1.181 200.417,38.452 264.972,75.764 		"/>
		<polygon style="clip-path:url(#SVGID_00000070101853064432363960000003993035344822276249_);fill:#333333;" points="95.363,1.181 
			159.918,38.452 95.363,75.764 		"/>
		<polygon style="clip-path:url(#SVGID_00000070101853064432363960000003993035344822276249_);fill:#969696;" points="
			105.046,232.361 150.235,258.451 105.046,284.569 		"/>
		<polygon style="clip-path:url(#SVGID_00000070101853064432363960000003993035344822276249_);fill:#4D4D4D;" points="
			70.498,118.636 18.854,148.453 70.498,178.302 		"/>
		<polygon style="clip-path:url(#SVGID_00000070101853064432363960000003993035344822276249_);fill:#333333;" points="74.556,1.181 
			10,38.452 74.556,75.764 		"/>
		<polygon style="clip-path:url(#SVGID_00000070101853064432363960000003993035344822276249_);fill:#333333;" points="
			1047.444,1.432 1111.999,38.703 1047.444,76.015 		"/>
		<g style="clip-path:url(#SVGID_00000070101853064432363960000003993035344822276249_);">
			<polygon style="fill:#666666;" points="1051.5,118.912 1103.144,148.729 1051.5,178.579 			"/>
			<polygon style="fill:#333333;" points="1022.579,118.754 970.935,148.571 1022.579,178.421 			"/>
		</g>
		<polygon style="clip-path:url(#SVGID_00000070101853064432363960000003993035344822276249_);fill:#333333;" points="
			1026.637,1.379 962.081,38.65 1026.637,75.962 		"/>
		<polygon style="clip-path:url(#SVGID_00000070101853064432363960000003993035344822276249_);fill:#C9C9C9;" points="
			1052.967,232.663 1098.156,258.753 1052.967,284.871 		"/>
		<polygon style="clip-path:url(#SVGID_00000070101853064432363960000003993035344822276249_);fill:#969696;" points="
			1021.114,232.401 975.925,258.49 1021.114,284.609 		"/>
		<g style="clip-path:url(#SVGID_00000070101853064432363960000003993035344822276249_);">
			<polygon style="fill:#666666;" points="194.626,1003.454 246.271,973.637 194.626,943.787 			"/>
			<polygon style="fill:#666666;" points="385.043,1003.454 436.687,973.637 385.043,943.787 			"/>
			<polygon style="fill:#333333;" points="575.459,1003.454 627.103,973.637 575.459,943.787 			"/>
			<polygon style="fill:#333333;" points="736.956,1003.454 685.311,973.637 736.956,943.787 			"/>
			<polygon style="fill:#666666;" points="927.371,1003.454 875.727,973.637 927.371,943.787 			"/>
			<polygon style="fill:#969696;" points="735.488,889.728 690.299,863.638 735.488,837.52 			"/>
			<polygon style="fill:#969696;" points="957.758,889.728 1002.946,863.638 957.758,837.52 			"/>
			<polygon style="fill:#C9C9C9;" points="925.905,889.728 880.716,863.638 925.905,837.52 			"/>
			<polygon style="fill:#666666;" points="1047.443,1065.752 1111.999,1028.48 1047.444,991.169 			"/>
			<polygon style="fill:#333333;" points="1047.443,1175.668 1111.999,1138.397 1047.444,1101.085 			"/>
			<polygon style="fill:#333333;" points="1026.637,1175.668 962.081,1138.397 1026.637,1101.085 			"/>
			<polygon style="fill:#333333;" points="857.027,1065.731 921.583,1028.46 857.027,991.148 			"/>
			<polygon style="fill:#333333;" points="1026.637,1065.731 962.081,1028.46 1026.637,991.148 			"/>
			<polygon style="fill:#666666;" points="666.611,1065.731 731.167,1028.46 666.611,991.148 			"/>
			<polygon style="fill:#333333;" points="836.221,1065.731 771.665,1028.46 836.221,991.148 			"/>
			<polygon style="fill:#333333;" points="857.027,1175.668 921.583,1138.397 857.027,1101.085 			"/>
			<polygon style="fill:#333333;" points="836.221,1175.668 771.665,1138.397 836.221,1101.085 			"/>
			<polygon style="fill:#333333;" points="476.195,1065.731 540.75,1028.46 476.195,991.148 			"/>
			<polygon style="fill:#333333;" points="645.804,1065.731 581.249,1028.46 645.804,991.148 			"/>
			<polygon style="fill:#C9C9C9;" points="1053.899,948.376 1105.543,918.56 1053.899,888.71 			"/>
			<polygon style="fill:#666666;" points="863.483,948.209 915.127,918.392 863.483,888.542 			"/>
			<polygon style="fill:#666666;" points="1020.181,948.209 968.537,918.392 1020.181,888.542 			"/>
			<polygon style="fill:#C9C9C9;" points="673.067,948.209 724.711,918.392 673.067,888.542 			"/>
			<polygon style="fill:#666666;" points="829.765,948.209 778.12,918.392 829.765,888.542 			"/>
			<polygon style="fill:#666666;" points="639.349,948.209 587.704,918.392 639.349,888.542 			"/>
			<polygon style="fill:#333333;" points="285.779,1065.731 350.334,1028.46 285.779,991.148 			"/>
			<polygon style="fill:#666666;" points="455.388,1065.731 390.832,1028.46 455.388,991.148 			"/>
			<polygon style="fill:#666666;" points="95.362,1065.731 159.918,1028.46 95.362,991.148 			"/>
			<polygon style="fill:#333333;" points="264.972,1065.731 200.416,1028.46 264.972,991.148 			"/>
			<polygon style="fill:#333333;" points="666.611,1175.728 731.167,1138.457 666.611,1101.145 			"/>
			<polygon style="fill:#333333;" points="476.195,1175.728 540.75,1138.457 476.195,1101.145 			"/>
			<polygon style="fill:#333333;" points="645.804,1175.728 581.249,1138.457 645.804,1101.145 			"/>
			<polygon style="fill:#333333;" points="285.779,1175.728 350.334,1138.457 285.779,1101.145 			"/>
			<polygon style="fill:#333333;" points="455.388,1175.728 390.832,1138.457 455.388,1101.145 			"/>
			<polygon style="fill:#333333;" points="95.362,1175.728 159.918,1138.457 95.362,1101.145 			"/>
			<polygon style="fill:#333333;" points="264.972,1175.728 200.416,1138.457 264.972,1101.145 			"/>
			<polygon style="fill:#666666;" points="482.65,948.277 534.295,918.46 482.65,888.61 			"/>
			<polygon style="fill:#666666;" points="292.234,948.277 343.879,918.46 292.234,888.61 			"/>
			<polygon style="fill:#C9C9C9;" points="448.932,948.277 397.288,918.46 448.932,888.61 			"/>
			<polygon style="fill:#666666;" points="101.818,948.277 153.462,918.46 101.818,888.61 			"/>
			<polygon style="fill:#C9C9C9;" points="258.516,948.277 206.872,918.46 258.516,888.61 			"/>
			<polygon style="fill:#333333;" points="956.291,1003.454 1007.936,973.637 956.291,943.787 			"/>
			<polygon style="fill:#333333;" points="952.235,1120.908 1016.791,1083.637 952.235,1046.325 			"/>
			<polygon style="fill:#333333;" points="931.429,1120.908 866.873,1083.637 931.429,1046.325 			"/>
			<polygon style="fill:#333333;" points="765.876,1003.454 817.52,973.637 765.876,943.787 			"/>
			<polygon style="fill:#333333;" points="761.819,1120.908 826.375,1083.637 761.819,1046.325 			"/>
			<polygon style="fill:#333333;" points="741.012,1120.908 676.457,1083.637 741.012,1046.325 			"/>
			<polygon style="fill:#333333;" points="571.403,1120.908 635.959,1083.637 571.403,1046.325 			"/>
			<polygon style="fill:#333333;" points="546.539,1003.454 494.894,973.637 546.539,943.787 			"/>
			<polygon style="fill:#333333;" points="550.596,1120.908 486.041,1083.637 550.596,1046.325 			"/>
			<polygon style="fill:#C9C9C9;" points="540.913,889.728 495.724,863.638 540.913,837.52 			"/>
			<polygon style="fill:#333333;" points="380.987,1120.908 445.543,1083.637 380.987,1046.325 			"/>
			<polygon style="fill:#4D4D4D;" points="356.122,1003.454 304.478,973.637 356.122,943.787 			"/>
			<polygon style="fill:#333333;" points="360.18,1120.908 295.625,1083.637 360.18,1046.325 			"/>
			<polygon style="fill:#C9C9C9;" points="350.497,889.728 305.308,863.638 350.497,837.52 			"/>
			<polygon style="fill:#333333;" points="190.571,1120.908 255.126,1083.637 190.571,1046.325 			"/>
			<polygon style="fill:#969696;" points="200.254,889.728 245.443,863.638 200.254,837.52 			"/>
			<polygon style="fill:#4D4D4D;" points="165.706,1003.454 114.062,973.637 165.706,943.787 			"/>
			<polygon style="fill:#333333;" points="169.764,1120.908 105.209,1083.637 169.764,1046.325 			"/>
			<g>
				<polygon style="fill:#333333;" points="1117.787,1003.335 1066.143,973.518 1117.787,943.669 				"/>
			</g>
			<polygon style="fill:#333333;" points="1121.845,1120.71 1057.289,1083.439 1121.845,1046.127 			"/>
			<polygon style="fill:#333333;" points="74.556,1065.646 10,1028.375 74.556,991.063 			"/>
			<polygon style="fill:#333333;" points="74.556,1175.668 10,1138.397 74.556,1101.085 			"/>
			<polygon style="fill:#666666;" points="68.1,948.166 16.456,918.349 68.1,888.5 			"/>
			<polygon style="fill:#333333;" points="0.154,1120.657 64.71,1083.386 0.154,1046.074 			"/>
			<polygon style="fill:#666666;" points="4.21,1003.177 55.855,973.36 4.21,943.511 			"/>
			<polygon style="fill:#C9C9C9;" points="5.677,889.426 50.866,863.336 5.677,837.218 			"/>
		</g>
		
			<rect y="0" style="clip-path:url(#SVGID_00000070101853064432363960000003993035344822276249_);fill:none;" width="1122" height="1122"/>
	</g>
</g>
</svg>
